<?xml version="1.0" encoding="utf-8"?>
<!-- Generator: Adobe Illustrator 25.2.1, SVG Export Plug-In . SVG Version: 6.00 Build 0)  -->
<svg version="1.1" id="Capa_1" xmlns="http://www.w3.org/2000/svg" xmlns:xlink="http://www.w3.org/1999/xlink" x="0px" y="0px"
	 viewBox="0 0 202.7 202.7" style="enable-background:new 0 0 202.7 202.7;" xml:space="preserve">
<style type="text/css">
	.st0{fill:#E04172;}
	.st1{fill:#FFFFFF;}
</style>
<g id="Capa_2_1_">
	<g id="_รรฐ_1">
		<path class="st0" d="M43.9,0h114.8c24.3,0,43.9,19.7,43.9,43.9v114.8c0,24.3-19.7,43.9-43.9,43.9H43.9C19.7,202.7,0,183,0,158.8
			V43.9C0,19.7,19.7,0,43.9,0z"/>
		<path class="st1" d="M152.5,135.5l-26.1-12.2c-1.8-0.9-4-0.3-5.3,1.3c-1.1,1.4-2.2,2.9-3.3,4.2c-4.4,5.3-12,6.5-17.8,3
			c-5.8-3.6-11.1-7.9-15.9-12.8c-4.9-4.7-9.2-10.1-12.8-15.8c-3.5-5.9-2.3-13.4,3-17.8c1.4-1.1,2.8-2.3,4.3-3.4
			c1.6-1.2,2.2-3.4,1.3-5.3L67.7,50.6c-1-2.1-3.2-3.4-5.6-3.2c-4.6,0.7-9,2.4-12.8,5.1c-22.2,17.2-8.6,55,18.8,82.4
			s65.2,41,82.4,18.8c2.7-3.8,4.5-8.2,5.1-12.8C155.9,138.7,154.7,136.5,152.5,135.5z"/>
		<path class="st1" d="M126,104.3h7.7c0-19.9-16.1-36-36-36V76C113.3,76,126,88.7,126,104.3z"/>
		<path class="st1" d="M154.3,104.3h7.7c0-35.5-28.8-64.3-64.3-64.3v7.7C129,47.8,154.3,73.1,154.3,104.3z"/>
	</g>
</g>
</svg>
