<?xml version="1.0" encoding="utf-8"?>
<!-- Generator: Adobe Illustrator 27.4.0, SVG Export Plug-In . SVG Version: 6.00 Build 0)  -->
<svg version="1.1" xmlns="http://www.w3.org/2000/svg" xmlns:xlink="http://www.w3.org/1999/xlink" x="0px" y="0px"
	 viewBox="0 0 1500 600" style="enable-background:new 0 0 1500 600;" xml:space="preserve">
<style type="text/css">
	.st0{fill:#666666;}
	.st1{fill:#21B8CC;}
</style>
<g id="Capa_1">
	<path class="st0" d="M123.28,375.85c12.02,0.07,24.03,0.24,36.05,0.09c1.25-0.02,3.11-1.7,3.62-3.02
		c9.9-25.76,19.64-51.58,29.42-77.39c17.31-45.7,34.62-91.4,51.93-137.1c13.29-35.09,26.57-70.18,39.84-105.27
		c0.36-0.94,0.58-1.94,1.02-3.45c-1.76-0.13-3.22-0.33-4.68-0.34c-11.89-0.03-23.79-0.01-35.68-0.03c-1.6,0-3.56,0.48-3.55-2.23
		c0.02-8.77,0.01-17.54,0.01-26.61c52.17,0,104.05,0,156.62,0c0,2.12,0,4.25,0,6.39c0,6.33-0.1,12.66,0.04,18.99
		c0.06,2.72-0.92,3.56-3.61,3.53c-11.89-0.12-23.79-0.05-35.68-0.05c-1.39,0-2.79,0-4.96,0c0.9,2.69,1.54,4.83,2.32,6.91
		c16.45,43.41,32.93,86.8,49.36,130.21c19.3,51.01,38.55,102.05,57.83,153.07c4.15,10.98,8.38,21.92,12.38,32.95
		c1.01,2.79,2.53,3.69,5.42,3.65c10.08-0.15,20.17,0.06,30.25-0.12c3.28-0.06,4.24,1.08,4.16,4.24c-0.19,6.84-0.16,13.69-0.01,20.54
		c0.07,3.03-0.71,4.36-4.1,4.35c-37.23-0.1-74.46-0.09-111.7-0.02c-2.79,0.01-3.98-0.79-3.93-3.72c0.13-7.23,0.15-14.47-0.01-21.7
		c-0.07-2.98,1.15-3.7,3.91-3.67c12.02,0.11,24.05,0.05,36.07,0.05c1.39,0,2.77,0,4.99,0c-1.62-4.62-2.94-8.58-4.39-12.5
		c-11.3-30.46-22.72-60.88-33.85-91.41c-1.55-4.26-3.6-5.52-8.07-5.51c-50.81,0.17-101.61,0.14-152.42,0.03
		c-3.64-0.01-5.47,1-6.78,4.57c-11.55,31.61-23.31,63.14-34.99,94.7c-1.15,3.1-2.22,6.23-3.6,10.12c2.27,0,3.76,0,5.26,0
		c12.41,0,24.82,0.12,37.23-0.07c3.56-0.06,4.39,1.25,4.28,4.53c-0.21,6.58-0.24,13.18,0.01,19.76c0.14,3.72-1.08,4.87-4.84,4.86
		c-36.71-0.12-73.43-0.08-110.15-0.06c-1.68,0-3.35,0.14-5.03,0.21C123.28,395.49,123.28,385.67,123.28,375.85z M319.63,48.27
		c-0.46-0.11-0.92-0.22-1.38-0.33c-23.53,63.24-47.07,126.48-70.83,190.34c47.82,0,94.6,0,142.33,0
		C366.23,174.54,342.93,111.4,319.63,48.27z"/>
	<path class="st0" d="M483.98,577.38c-4.98-1.21-10-2.3-14.94-3.66c-28.62-7.87-51.27-23.76-64.88-50.55
		c-9.46-18.63-12.87-38.39-5.62-58.81c5.38-15.14,18.47-23.74,33.03-22.06c10.68,1.23,20.35,10.31,21.93,20.6
		c1.89,12.33-4.06,23.91-14.68,28.45c-1.66,0.71-3.4,1.23-5.13,1.74c-5.08,1.51-5.22,1.63-4.01,6.93
		c3.88,16.98,15.04,28.24,29.59,36.44c26.67,15.05,67.76,13.12,92.73-9.96c11.85-10.96,18.22-24.76,22.19-40.01
		c4.33-16.64,5.24-33.64,5.26-50.69c0.08-71.82,0.03-143.65,0.03-215.47c0-5.6-0.01-5.61-5.47-5.61
		c-16.81-0.01-33.61-0.11-50.42,0.08c-3.8,0.04-4.86-1.16-4.71-4.83c0.27-6.84,0.17-13.69,0.03-20.54
		c-0.05-2.58,0.59-3.65,3.42-3.64c44.99,0.07,89.98,0.07,134.97,0.01c2.79,0,3.53,1.07,3.49,3.67c-0.13,7.1-0.18,14.21,0.02,21.31
		c0.09,3.15-1.13,4-4.08,3.98c-13.06-0.1-26.11-0.05-39.17-0.03c-5.11,0.01-5.14,0.04-5.14,5.25
		c-0.01,72.21-0.07,144.42,0.04,216.64c0.03,20.35-1.43,40.49-6.62,60.22c-11.09,42.15-37.16,68.97-80.39,78.13
		c-3.49,0.74-6.96,1.62-10.43,2.43C504.67,577.38,494.33,577.38,483.98,577.38z"/>
	<path class="st0" d="M123.28,487.47c0.93-3.31,1.66-6.69,2.83-9.91c1.27-3.49,2.66-7,4.52-10.2c4.85-8.36,12.63-12.2,21.97-12.22
		c72.78-0.12,145.57-0.07,218.35-0.06c0.62,0,1.25,0.09,2.41,0.19c-1.59,2.7-2.9,5.16-4.47,7.44c-0.48,0.7-1.62,1.16-2.53,1.33
		c-1.25,0.23-2.58,0.08-3.87,0.08c-70.84,0-141.69-0.01-212.53,0.07c-2,0-5.58-1.39-5.53,2.13c0.05,3.41,3.6,2.07,5.62,2.07
		c69.81,0.07,139.62,0.06,209.43,0.06c1.16,0,2.38-0.21,3.48,0.06c1.05,0.26,1.98,1.03,2.96,1.57c-1.05,0.85-1.99,2.02-3.19,2.47
		c-1.13,0.43-2.55,0.1-3.84,0.1c-69.16,0-138.33,0-207.49,0c-0.65,0-1.31-0.1-1.94,0.02c-1.91,0.36-5.2-1.18-5.08,2.3
		c0.12,3.23,3.34,2.17,5.29,2.17c69.16,0.06,138.33,0.05,207.49,0.06c1.55,0,3.14-0.15,4.63,0.18c0.73,0.16,1.73,1.23,1.73,1.9
		c0,0.63-1.05,1.64-1.8,1.81c-1.36,0.31-2.82,0.13-4.25,0.13c-69.03,0-138.07-0.01-207.1,0.07c-2.14,0-5.92-1.44-5.98,2.16
		c-0.07,4.08,3.92,2.37,6.08,2.38c69.16,0.1,138.33,0.07,207.49,0.14c1.83,0,3.67,0.85,5.5,1.31c-0.94,3.22-3.63,1.81-5.49,1.81
		c-68.78,0.08-137.55,0.07-206.33,0.08c-1.68,0-3.46-0.24-5,0.26c-1.03,0.34-2.09,1.67-2.37,2.76c-0.13,0.52,1.42,1.86,2.42,2.16
		c1.31,0.4,2.82,0.15,4.24,0.15c69.03,0,138.07-0.01,207.1,0.06c1.82,0,3.65,0.87,5.47,1.33c-0.96,3.22-3.66,1.77-5.51,1.78
		c-68.78,0.09-137.55,0.07-206.33,0.08c-1.68,0-3.43-0.19-5.01,0.23c-0.98,0.26-1.68,1.52-2.51,2.33c0.85,0.81,1.58,2.02,2.58,2.32
		c1.44,0.42,3.07,0.2,4.62,0.2c69.55,0.01,139.1,0,208.65,0.01c2.48,0,5.51-0.66,5.24,4.01c-1.83,0-3.6,0-5.38,0
		c-69.68,0-139.36,0-209.04,0c-1.42,0-2.91-0.2-4.24,0.15c-0.9,0.24-1.6,1.27-2.39,1.95c0.72,0.77,1.31,1.98,2.18,2.22
		c1.45,0.4,3.07,0.22,4.62,0.22c70.46,0.01,140.91,0,211.37,0.02c2.43,0,5.53-0.8,5.36,4.02c-1.78,0-3.54,0-5.29,0
		c-70.46,0-140.91,0-211.37,0c-1.42,0-2.92-0.24-4.24,0.14c-0.99,0.28-1.75,1.38-2.61,2.11c0.9,0.74,1.7,1.67,2.73,2.15
		c0.75,0.35,1.78,0.12,2.68,0.12c32.71,0,65.41,0.06,98.12-0.02c29.47-0.07,58.93-0.35,88.4-0.43c9.69-0.03,19.38,0.5,29.06,0.35
		c3.85-0.06,6.1,1.08,7.11,4.78c0.36,1.33,1.06,2.57,1.91,4.56c-1.84,0-3.18,0-4.52,0c-72.14,0-144.27,0.01-216.41-0.01
		c-13.24,0-22.14-6.48-26.25-19.15c-1.42-4.37-2.52-8.84-3.76-13.26C123.28,493.67,123.28,490.57,123.28,487.47z"/>
	<path class="st0" d="M1194.85,152.57c-7.65-13.38-15.31-26.75-22.96-40.13c-0.33,0.03-0.67,0.06-1,0.09
		c-0.29,2.82-0.73,5.63-0.85,8.46c-0.43,9.93-0.7,19.86-1.13,29.78c-0.12,2.81,1.45,3.11,3.65,3.17c6.5,0.18,6.5,0.22,6.49,6.79
		c-0.01,5.68-0.01,5.68-5.75,5.69c-8.02,0.01-16.03-0.15-24.04,0.07c-3.48,0.09-4.76-1.16-4.32-4.48c0.08-0.63,0.01-1.29,0.01-1.94
		c-0.01-7.14-0.09-6.2,5.99-6.1c2.87,0.05,4.09-0.74,4.22-3.89c0.65-16.37,1.55-32.74,2.34-49.11c0.27-5.53,0.07-5.71-5.37-5.76
		c-5.14-0.05-5.17-0.05-5.15-5.17c0.03-8.48-0.62-7.23,7.18-7.32c4.01-0.05,8.03,0.19,12.02-0.07c3.05-0.2,4.61,1.06,6.01,3.64
		c7.04,13.06,14.25,26.03,21.43,39.02c0.54,0.98,1.27,1.86,2.32,3.4c1.09-1.75,1.93-2.96,2.64-4.24
		c7.07-12.75,14.2-25.47,21.12-38.31c1.43-2.66,3.09-3.64,6.08-3.5c5.16,0.24,10.34,0.15,15.51,0.04c2.28-0.05,3.43,0.67,3.21,3.08
		c-0.08,0.9,0,1.81-0.01,2.71c-0.02,7.66,0.48,6.79-6.57,6.72c-2.76-0.03-3.86,0.82-3.7,3.86c0.84,16.63,1.52,33.26,2.13,49.9
		c0.13,3.69,1.46,5.6,5.36,4.96c3.94-0.64,5.16,0.99,4.99,4.92c-0.35,8.48,0.9,7.53-7.83,7.58c-7.5,0.04-15-0.08-22.49,0.05
		c-2.77,0.05-4.2-0.79-3.87-3.73c0.06-0.51,0.01-1.03,0-1.55c-0.02-6.83-0.03-6.88,6.8-7.25c1.93-0.1,3.21-0.45,3.11-2.83
		c-0.52-12.38-0.95-24.76-1.44-37.13c-0.02-0.44-0.37-0.87-1.01-2.29c-8.14,14.16-15.88,27.64-23.62,41.11
		C1195.83,152.73,1195.34,152.65,1194.85,152.57z"/>
	<path class="st0" d="M1163.55,307.1c2.15,0.12,3.52,0.25,4.89,0.27c4.96,0.07,5.01,0.05,4.96,5.17c-0.09,8.23,1.2,7.27-7.5,7.32
		c-6.98,0.04-13.96-0.06-20.94,0.04c-2.42,0.03-3.59-0.69-3.44-3.31c0.17-2.81,0.04-5.64,0.04-8.18c0.52-0.45,0.74-0.77,0.9-0.75
		c5.37,0.76,7.13-2.45,8.66-6.92c5.61-16.33,11.6-32.54,17.42-48.81c0.3-0.83,0.4-1.73,0.71-3.13c-1.43-0.16-2.62-0.37-3.82-0.41
		c-4.96-0.15-5-0.13-4.96-5.25c0.06-7.94-0.93-6.94,7.05-6.98c12.02-0.05,24.04,0.12,36.06-0.09c3.5-0.06,4.61,1.06,4.27,4.41
		c-0.24,2.41-0.05,4.86-0.05,7.62c-3.01,0.2-5.65,0.37-8.96,0.59c1.8,5.1,3.4,9.69,5.04,14.25c4.83,13.47,9.76,26.9,14.46,40.41
		c1,2.89,2.33,4.44,5.5,4.04c2.31-0.29,3.21,0.78,3.17,3.13c-0.21,11.01,1.39,9.18-8.69,9.33c-6.59,0.09-13.18-0.07-19.77,0.05
		c-2.8,0.05-4.13-0.88-3.8-3.8c0.32-2.75-0.43-6.36,1.05-8.03c1.3-1.47,5.04-0.77,8.45-1.1c-1.41-4.22-2.59-8.23-4.17-12.08
		c-0.33-0.8-2.11-1.42-3.23-1.43c-8.66-0.12-17.32-0.13-25.98,0.02c-1.14,0.02-2.88,0.96-3.28,1.91
		C1166.1,298.93,1165.04,302.65,1163.55,307.1z M1172.24,281.27c8.18,0,15.46,0,23.48,0c-3.83-10.81-7.5-21.14-11.17-31.48
		c-0.39,0-0.78,0-1.18,0C1179.73,260.11,1176.08,270.42,1172.24,281.27z"/>
	<path class="st0" d="M773.42,96.02c1.64,4.78,3.16,9.38,4.79,13.94c4.26,11.89,8.65,23.73,12.84,35.65
		c1.67,4.76,2.36,10.3,10.16,8.19c0,3.92,0.16,7.25-0.12,10.54c-0.06,0.75-1.63,1.96-2.52,1.98c-8.91,0.15-17.83,0.09-26.74,0.08
		c-0.26,0-0.57,0.05-0.77-0.07c-4.06-2.42-1.15-6.28-1.88-9.4c-0.47-2.01,0.63-3.12,2.84-3.01c1.88,0.09,3.77,0.02,6.74,0.02
		c-1.74-4.93-3.06-9.03-4.71-12.99c-0.27-0.65-2.01-0.95-3.07-0.96c-8.53-0.08-17.05-0.09-25.58,0.02
		c-1.11,0.01-2.87,0.58-3.21,1.37c-1.59,3.74-2.79,7.64-4.34,12.1c2.37,0.19,3.96,0.33,5.56,0.44c0.9,0.06,2.02-0.27,2.67,0.15
		c3.69,2.34,1.16,6.04,1.77,9.08c0.38,1.89-0.44,3.26-2.72,3.25c-9.04-0.02-18.09,0-27.13,0c-0.26,0-0.58,0.06-0.76-0.07
		c-3.71-2.72-1.06-6.58-1.72-9.86c-0.43-2.09,1.02-2.79,2.83-2.51c3.73,0.57,5.11-1.41,6.24-4.66c5.7-16.3,11.63-32.52,17.48-48.76
		c1.8-5,1.74-5.22-3.54-5.26c-2.7-0.02-3.53-0.99-3.58-3.64c-0.15-8.92-0.24-8.92,8.61-8.92c11.63,0,23.26,0.07,34.88-0.05
		c2.95-0.03,4.44,0.8,3.96,3.93c-0.04,0.25-0.01,0.52,0,0.77c0.03,7.19,0.03,7.19-7.07,7.96C774.99,95.37,774.65,95.57,773.42,96.02
		z M758.94,96.88c-0.52,0.02-1.03,0.04-1.55,0.06c-3.57,10.13-7.14,20.26-10.83,30.74c8.22,0,15.44,0,23.34,0
		C766.1,117.01,762.52,106.95,758.94,96.88z"/>
	<path class="st0" d="M1350.49,154.21c3.22-0.21,5.97-0.4,9.47-0.63c-1.52-4.44-2.69-8.34-4.25-12.08
		c-0.34-0.81-2.07-1.47-3.16-1.48c-8.65-0.12-17.31-0.17-25.96,0.05c-1.22,0.03-2.95,1.4-3.48,2.58c-1.5,3.34-2.49,6.91-3.89,10.98
		c2.06,0.13,3.42,0.23,4.78,0.29c0.9,0.04,1.81,0.05,2.71,0.02c3.22-0.13,2.85,2.35,2.45,4.02c-0.67,2.83,2.59,7.81-2.41,8.23
		c-8.98,0.75-18.07,0.27-27.11,0.1c-0.81-0.01-2.21-1.4-2.28-2.24c-0.27-3.18-0.11-6.39-0.11-10.24c7.95,2.33,8.42-3.67,10.07-8.24
		c5.56-15.39,10.97-30.83,16.61-46.2c1.15-3.13,0.56-4.57-2.79-4.12c-4.25,0.56-5.48-1.31-5.02-5.23c0.25-2.16,0.04-4.37,0.04-6.93
		c15.8,0,31.33,0,47.46,0c0,3.39,0.21,6.84-0.16,10.23c-0.08,0.74-2.18,1.73-3.4,1.81c-5.64,0.37-5.62,0.26-3.74,5.48
		c5.63,15.63,11.35,31.24,16.81,46.94c1.47,4.24,2.86,7.87,8.71,6.22c0,4.24,0,8.04,0,12.32c-1.05,0.1-2.27,0.32-3.49,0.32
		c-7.88,0.03-15.77-0.15-23.64,0.09c-3.5,0.11-4.6-1.09-4.26-4.44C1350.7,159.55,1350.49,156.98,1350.49,154.21z M1351.34,127.8
		c-3.83-10.8-7.46-21.04-11.09-31.29c-0.41,0-0.82,0.01-1.23,0.01c-3.66,10.27-7.31,20.55-11.13,31.28
		C1335.98,127.8,1343.23,127.8,1351.34,127.8z"/>
	<path class="st0" d="M888.93,166.43c0-4.37,0-8.07,0-11.67c0.32-0.26,0.53-0.58,0.7-0.56c5.58,0.81,7.32-2.52,8.9-7.17
		c5.44-15.98,11.32-31.8,17.02-47.69c0.34-0.95,0.54-1.96,1.01-3.7c-2.1-0.16-3.92-0.43-5.73-0.41c-2.16,0.03-3.03-0.88-2.98-3.01
		c0.08-2.95,0.02-5.89,0.02-9.14c1.49-0.15,2.6-0.36,3.7-0.36c13.18-0.02,26.36,0.07,39.53-0.08c3.07-0.03,4.33,0.96,3.95,3.98
		c-0.05,0.38-0.01,0.77,0,1.16c0.03,6.77,0.03,6.77-6.71,7.53c-0.36,0.04-0.71,0.26-1.7,0.65c0.8,2.61,1.5,5.26,2.42,7.83
		c5.59,15.65,11.25,31.28,16.83,46.94c0.79,2.22,1.94,3.51,4.48,3.22c1.12-0.13,2.27,0.11,3.66,0.19c0,4,0,7.81,0,12.28
		c-3.92,0-7.75,0-11.58,0c-5.17,0-10.34-0.16-15.5,0.06c-3.41,0.14-4.84-0.77-4.74-4.5c0.21-7.37,0.01-7.37,7.26-8.13
		c0.48-0.05,0.93-0.29,2.05-0.65c-1.43-4.11-2.69-8.11-4.29-11.97c-0.29-0.71-1.92-1.22-2.94-1.23c-8.78-0.1-17.57-0.13-26.35,0.04
		c-1.08,0.02-2.64,1.12-3.1,2.13c-1.29,2.79-2.16,5.78-3.14,8.71c-0.75,2.25,0.32,2.93,2.49,3.06c6.51,0.39,6.51,0.46,6.49,7.17
		c-0.02,5.29-0.02,5.3-5.35,5.31C906.7,166.44,898.07,166.43,888.93,166.43z M931.91,96.72c-0.5,0.09-1,0.19-1.5,0.28
		c-3.55,10.09-7.11,20.18-10.83,30.78c8.14,0,15.39,0,23.41,0C939.16,117.06,935.54,106.89,931.91,96.72z"/>
	<path class="st0" d="M980.79,154.29c1.41-0.16,2.29-0.35,3.17-0.35c6.98,0.05,6.5,0.36,6.5-6.52c0.01-15.87-0.09-31.74,0.07-47.61
		c0.04-3.62-1.21-4.76-4.71-4.65c-5.03,0.16-5.04-0.02-5.05-5.06c0-2.29,0-4.58,0-7.11c1.6-0.11,2.73-0.26,3.86-0.26
		c10.59-0.02,21.18-0.1,31.77,0.02c9.31,0.11,18.2,2.18,26.26,6.96c13.36,7.91,18.47,20.22,18.2,35.21
		c-0.46,26.29-17.99,38.79-39.52,40.82c-12.43,1.17-25.02,0.5-37.54,0.71c-2.07,0.03-3.13-0.64-3.05-2.88
		C980.87,160.5,980.79,157.44,980.79,154.29z M1004.63,124.73c0,6.46-0.08,12.92,0.02,19.37c0.18,11.55-1.89,10,10.15,9.73
		c16.58-0.38,27.24-7.98,30.42-21.81c3.36-14.65-1.24-28.85-17.4-34.19c-5.52-1.83-11.64-2.1-17.52-2.52
		c-5.62-0.4-5.65-0.08-5.66,5.4C1004.62,108.71,1004.63,116.72,1004.63,124.73z"/>
	<path class="st0" d="M897.08,235.41c8.97,0.82,18.15,0.71,26.87,2.66c21.34,4.76,32.45,20.58,31.06,42.58
		c-1.26,19.98-13.38,34.6-33.39,37.32c-14.5,1.97-29.34,1.34-44.04,1.87c-0.26,0.01-0.58,0.05-0.76-0.08
		c-3.78-2.69-1.07-6.57-1.74-9.84c-0.43-2.11,1.08-2.46,2.87-2.56c6.9-0.39,6.9-0.43,6.9-7.26c0-15.5-0.09-30.99,0.06-46.49
		c0.03-3.56-0.83-5.19-4.73-5.02c-5.15,0.22-5.21-0.01-5.15-5.33c0.09-8.24-1.14-7,7.26-7.1c4.91-0.06,9.82-0.01,14.73-0.01
		C897.03,235.91,897.05,235.66,897.08,235.41z M899,277.96c0,7.99-0.01,15.99,0,23.98c0.01,5.42,0.02,5.58,5.23,5.38
		c4.37-0.16,8.75-0.52,13.07-1.19c11.78-1.8,20.53-10.57,22.65-22.39c2.34-13.1-2.38-24.56-12.7-30.35
		c-7.32-4.11-15.38-4.72-23.59-4.81c-3.51-0.04-4.81,1.03-4.73,4.62C899.13,261.45,899,269.71,899,277.96z"/>
	<path class="st0" d="M785.34,236.36c11.44,0,22.12,0,33.38,0c0,3.51,0.13,6.83-0.1,10.12c-0.05,0.76-1.25,1.74-2.12,2.05
		c-1.04,0.37-2.31,0.23-3.46,0.11c-3.39-0.35-4.5,1.11-4.46,4.47c0.15,12-0.04,24.01,0.09,36.01c0.12,10.87,5.11,17.59,14.41,19.11
		c8.96,1.46,19.5-2.57,20.04-15.06c0.6-13.79,0.24-27.61,0.36-41.42c0.02-2.75-1.57-3.13-3.77-3.11c-6.93,0.06-6.31,0.71-6.3-6.57
		c0.01-6.67-0.68-5.89,6.08-5.92c7.75-0.04,15.51,0.13,23.25-0.07c3.16-0.08,4.23,1.11,3.9,4.05c-0.07,0.64-0.01,1.29-0.01,1.94
		c0.01,6.11,0.01,6.24-6.01,6.55c-2.79,0.14-3.04,1.63-3.03,3.8c0.04,12.39,0.19,24.79-0.05,37.18c-0.16,8.23-1.73,16.16-7.6,22.57
		c-7.07,7.72-16.24,9.55-26.09,9.15c-3.31-0.13-6.69-0.78-9.87-1.74c-10.88-3.29-17.26-10.96-18.57-21.98
		c-1.08-9.05-0.79-18.27-0.99-27.42c-0.12-5.68-0.16-11.36,0.03-17.04c0.11-3.3-0.93-4.98-4.39-4.47c-3.71,0.54-5.2-0.91-4.78-4.69
		C785.55,241.58,785.34,239.13,785.34,236.36z"/>
	<path class="st0" d="M1120.8,142.88c4.04,0,7.76-0.14,11.45,0.11c0.77,0.05,2.03,1.55,2.06,2.41c0.16,6.07,0.01,12.14,0.07,18.21
		c0.03,2.99-1.99,2.81-3.97,2.81c-11.89,0-23.79,0-35.68,0c-6.46,0-12.93-0.08-19.39,0.03c-2.61,0.05-3.93-0.75-3.61-3.52
		c0.1-0.89,0.01-1.81,0.01-2.71c0-6,0-6.12,6.14-6.26c2.76-0.06,3.52-1.19,3.51-3.77c-0.07-17.05-0.08-34.1,0.01-51.16
		c0.01-2.88-1.1-3.93-3.89-3.85c-6.29,0.18-5.8,0.3-5.76-5.95c0.04-7.55-0.86-6.5,6.66-6.52c17.19-0.05,34.39,0.06,51.58-0.09
		c3.35-0.03,4.62,0.86,4.45,4.33c-0.26,5.28-0.15,10.59-0.04,15.89c0.05,2.52-0.99,3.58-3.45,3.38c-0.38-0.03-0.78,0.02-1.16,0
		c-2.7-0.1-6.23,0.78-7.87-0.6c-1.46-1.22-0.6-4.99-1.23-7.51c-0.28-1.11-1.68-2.73-2.62-2.76c-6.45-0.24-12.92-0.11-19.39-0.14
		c-2.11-0.01-3.06,0.92-3.05,3.04c0.04,5.55,0.06,11.11-0.01,16.66c-0.03,2.44,1.28,3.08,3.42,3.07c6.08-0.03,12.15,0.08,18.23-0.03
		c2.64-0.05,3.69,0.86,3.64,3.58c-0.17,10.25,0.9,8.32-8.39,8.49c-4.39,0.08-8.79,0.1-13.19-0.01c-2.53-0.06-3.83,0.65-3.75,3.49
		c0.15,5.68,0.11,11.37,0.02,17.05c-0.04,2.5,0.95,3.44,3.44,3.4c6.2-0.1,12.41-0.1,18.62,0c2.35,0.04,3.26-0.89,3.15-3.21
		C1120.71,148.31,1120.8,145.87,1120.8,142.88z"/>
	<path class="st0" d="M875.1,143.85c2.86,2.93,5.6,5.48,7.93,8.35c0.49,0.61-0.1,2.87-0.89,3.64c-9.28,8.87-20.63,12.6-33.25,12.16
		c-13.17-0.46-25.03-4.68-33.24-15.53c-10.91-14.42-12.44-30.48-5.05-46.75c7.22-15.91,20.55-23.61,37.85-24.47
		c9.91-0.5,19.3,1.25,27.45,7.4c5.78,4.36,8.31,10.59,6.63,16.1c-1.53,5.04-5.6,7.51-10.7,6.53c-5.27-1.02-8.26-4.65-7.39-9.96
		c0.53-3.24-0.72-4.37-3.38-5.31c-22.07-7.75-43.51,10.35-39.51,33.37c1.96,11.3,7.74,19.65,18.75,23.57
		c11.59,4.12,22.09,1.56,31.47-6.16C872.75,145.95,873.69,145.08,875.1,143.85z"/>
	<path class="st0" d="M1080.31,297.27c2.76,2.89,5.53,5.56,7.94,8.52c0.45,0.56-0.15,2.66-0.9,3.39
		c-5.68,5.52-12.44,9.29-20.19,10.88c-15.76,3.24-30.42,0.99-42.69-10.19c-19.51-17.77-18.57-57.58,11.89-71.22
		c14.18-6.35,28.67-6.01,42.44,1.83c4.48,2.55,7.87,6.33,9.1,11.56c1.96,8.37-4.42,14.58-12.48,12.24c-3.9-1.13-6.3-4.24-5.68-8.93
		c0.52-3.95-1.31-5.14-4.44-6.24c-20.96-7.38-42.33,10.8-38.71,33c4.03,24.7,30.08,34.34,49.82,18.44
		C1077.59,299.59,1078.74,298.59,1080.31,297.27z"/>
	<path class="st0" d="M1263.68,319.87c-8.66,0-17.32-0.13-25.97,0.07c-3.3,0.07-4.48-1.12-4.07-4.25c0.08-0.63,0.01-1.29,0.01-1.94
		c0-6.04,0-6.13,6.08-6.34c2.46-0.08,3.5-0.98,3.5-3.45c-0.04-17.3-0.05-34.61,0.01-51.91c0.01-3.2-1.94-3.39-4.36-3.41
		c-5.21-0.05-5.26-0.1-5.21-5.34c0.08-8.38-1.04-7.05,7.21-7.13c7.88-0.08,15.77,0.09,23.65-0.07c2.88-0.06,4.12,0.9,3.76,3.77
		c-0.05,0.38,0,0.77,0,1.16c0.04,7.26,0.04,7.34-7.28,7.6c-2.57,0.09-3.77,0.98-3.77,3.66c0.05,17.17,0.05,34.35-0.01,51.52
		c-0.01,2.69,1.13,3.65,3.74,3.6c5.43-0.11,10.86-0.13,16.28,0.01c2.75,0.07,3.52-1.1,3.58-3.69c0.21-8.54,0.3-8.29,8.9-8.62
		c4.11-0.15,5.09,1.26,4.86,5.04c-0.29,5.02-0.26,10.08-0.01,15.1c0.18,3.51-0.92,4.78-4.55,4.69
		C1281.26,319.72,1272.47,319.87,1263.68,319.87z"/>
	<path class="st0" d="M743.94,248.68c0-4.43,0-8.13,0-12.05c0.95-0.17,1.8-0.44,2.65-0.44c9.82-0.03,19.63,0.03,29.45-0.06
		c2.46-0.02,3.66,0.74,3.42,3.3c-0.08,0.9-0.01,1.81-0.01,2.71c0,6.06,0.01,6.21-6.06,6.48c-3.17,0.14-3.03,2.06-3.03,4.2
		c0.01,13.16,0.13,26.33-0.05,39.49c-0.11,7.98-1.47,15.71-7.3,21.84c-12.27,12.88-39.18,8.12-44.29-8.09
		c-1.11-3.52-0.82-8.01,0.32-11.57c1.56-4.88,7.36-6.39,11.99-4.08c3.92,1.95,5.76,7.13,3.33,11.36c-1.88,3.28-0.37,4.43,2.13,5.51
		c10.19,4.4,19.14-0.51,19.57-11.49c0.57-14.69,0.22-29.41,0.28-44.12c0.01-2.11-1.01-3.03-3.1-3
		C750.3,248.71,747.35,248.68,743.94,248.68z"/>
	<path class="st0" d="M849.5,439.03c0.3,0.38,0.43,0.47,0.44,0.58c1.18,7.64,0.97,7.89-6.61,7.89c-4.27,0-8.54-0.16-12.79,0.05
		c-3.35,0.16-3.85-1.57-3.76-4.29c0.08-2.42-0.22-4.91,3.46-4.4c2.77,0.38,3.66-0.95,3.55-3.57c-0.14-3.09-0.11-6.2-0.02-9.3
		c0.07-2.51-1.02-3.4-3.49-3.36c-6.59,0.11-13.19,0.13-19.78-0.01c-2.73-0.06-3.74,1.03-3.62,3.64c0.1,2.06,0.1,4.14-0.01,6.2
		c-0.22,3.87-0.33,7.18,5.39,6.56c3.05-0.33,1.84,2.77,1.98,4.45c0.15,1.72,0.48,3.93-2.31,3.96c-6.33,0.06-12.67,0.2-19-0.06
		c-3.52-0.15-1.98-3.26-2.23-5.18c-0.24-1.8,0.07-3.59,2.53-3.3c3.73,0.44,4.2-1.56,4.16-4.63c-0.13-10.2-0.11-20.41-0.01-30.61
		c0.03-3-0.36-4.96-4.12-4.81c-3.62,0.14-2.4-2.92-2.56-4.88c-0.17-2.02-0.12-3.98,2.82-3.96c5.95,0.05,11.89,0.07,17.84-0.01
		c3.24-0.04,3.02,2.15,2.93,4.24c-0.08,2.04,0.78,4.98-2.83,4.63c-4.06-0.39-4.65,1.59-4.61,5.02c0.09,10.26-0.02,10.26,10.2,10.26
		c4.14,0,8.29-0.2,12.41,0.06c3.52,0.23,4.66-1.24,4.35-4.5c-0.15-1.54-0.1-3.1-0.01-4.65c0.22-3.58,0.33-6.58-4.95-6.34
		c-3.08,0.14-2-3.15-1.88-4.92c0.08-1.29,1.32-3.54,2.13-3.57c6.32-0.3,12.66-0.21,18.99-0.12c0.68,0.01,1.86,0.78,1.93,1.32
		c0.25,1.9,0.66,4.09-0.05,5.71c-0.45,1.04-2.85,1.11-4.21,1.9c-0.95,0.55-2.29,1.58-2.3,2.41c-0.15,11.62-0.17,23.25,0,34.87
		c0.01,0.85,1.51,2,2.56,2.44C847.09,439.2,848.48,438.97,849.5,439.03z"/>
	<path class="st0" d="M1290.35,82.71c0,3.76,0.13,7.09-0.1,10.39c-0.05,0.74-1.3,1.72-2.17,1.98c-1.19,0.35-2.57,0.21-3.85,0.11
		c-3.08-0.24-4.01,1.19-3.99,4.14c0.09,16.78,0.1,33.55-0.01,50.33c-0.02,3.13,0.91,4.62,4.19,4.28c1.28-0.13,2.59-0.11,3.87,0.06
		c0.67,0.09,1.81,0.62,1.82,0.98c0.12,3.46,0.13,6.94-0.09,10.39c-0.03,0.4-1.69,0.98-2.6,0.99c-9.56,0.07-19.11,0.02-28.67,0.07
		c-2.1,0.01-3.17-0.74-2.97-2.95c0.07-0.77,0.01-1.55,0-2.32c-0.01-6.96-0.01-7.08,6.75-7.19c2.76-0.04,3.56-1.14,3.55-3.72
		c-0.06-17.03-0.08-34.07,0.02-51.1c0.02-3.09-1.21-4.23-4.15-3.95c-0.9,0.09-1.82-0.07-2.71,0.02c-2.76,0.29-3.48-1.03-3.51-3.63
		c-0.1-8.88-0.19-8.88,8.63-8.88C1272.85,82.71,1281.35,82.71,1290.35,82.71z"/>
	<path class="st0" d="M966.06,307.37c2.47,0,4.5-0.11,6.52,0.03c2.73,0.19,3.58-1.05,3.57-3.66c-0.07-17.03-0.09-34.06,0.02-51.09
		c0.02-3.05-1.1-4.27-4.09-4c-1.15,0.11-2.47,0.33-3.44-0.1c-1.02-0.45-2.37-1.55-2.46-2.48c-0.31-3.04-0.12-6.14-0.12-9.46
		c1.3-0.18,2.27-0.43,3.24-0.43c9.17-0.03,18.34,0.08,27.5-0.08c2.92-0.05,4.06,0.96,3.73,3.79c-0.07,0.64-0.01,1.29-0.01,1.93
		c0.01,6.47,0.01,6.57-6.53,6.8c-2.64,0.09-3.63,1.09-3.62,3.73c0.07,17.16,0.07,34.32-0.01,51.48c-0.01,2.74,1.11,3.74,3.7,3.55
		c1.03-0.08,2.07-0.01,3.1,0c0.52,0.01,1.15-0.14,1.53,0.1c3.84,2.5,1.15,6.3,1.66,9.46c0.13,0.81-1.59,2.76-2.49,2.78
		c-9.81,0.2-19.63,0.18-29.44,0.02c-0.8-0.01-2.2-1.39-2.27-2.22C965.9,314.35,966.06,311.13,966.06,307.37z"/>
	<path class="st0" d="M1117.57,236.16c4.65,0,9.3,0.1,13.94-0.04c2.57-0.08,3.54,0.97,3.31,3.42c-0.07,0.77,0,1.55,0,2.32
		c0.01,6.44,0.01,6.53-6.56,6.77c-2.64,0.09-3.68,1.13-3.68,3.74c0.04,17.16,0.05,34.32,0,51.47c-0.01,2.71,1.17,3.74,3.76,3.55
		c1.03-0.08,2.06-0.01,3.1,0c0.52,0.01,1.14-0.14,1.53,0.1c3.78,2.33,1.13,6.02,1.8,9.03c0.4,1.8-0.2,3.33-2.57,3.33
		c-9.81-0.02-19.62-0.01-29.43-0.01c-0.26,0-0.58,0.03-0.76-0.1c-3.69-2.73-1.2-6.59-1.63-9.9c-0.09-0.68,1.82-2.25,2.9-2.35
		c7.29-0.68,7.3-0.59,7.3-7.83c0-15.22,0.01-30.45,0-45.67c0-5.17-0.13-5.28-5.11-5.33c-5.26-0.05-5.3-0.05-5.26-5.4
		c0.06-7.94-1-7.04,6.92-7.11C1110.6,236.13,1114.08,236.15,1117.57,236.16z"/>
	<path class="st0" d="M956.39,390.01c6.07,0,12.15,0.08,18.22-0.04c2.49-0.05,3.52,0.76,3.4,3.33c-0.16,3.35-0.15,6.72-0.01,10.07
		c0.13,3.06-1.91,2.99-3.86,2.79c-2.02-0.21-5.42,1.26-5.16-2.62c0.31-4.62-1.84-5.51-5.77-5.16c-2.82,0.25-5.68,0.09-8.53,0.06
		c-2.29-0.03-3.32,1.08-3.25,3.32c0,0.13,0,0.26-0.01,0.39c-0.66,12.21-0.66,12.13,11.62,12.29c2.25,0.03,5.83-1.75,6,3.03
		c0.17,4.71-0.01,5.02-4.8,5.03c-3.1,0.01-6.21,0.09-9.3-0.02c-2.4-0.08-3.43,0.74-3.56,3.31c-0.68,13.09-0.74,12.97,12.37,13.14
		c3.65,0.05,5.57-0.56,5.2-4.78c-0.35-3.98,2.99-2.58,5-2.73c1.98-0.15,4.33-0.57,4.19,2.82c-0.15,3.48,0.17,6.99-0.16,10.45
		c-0.1,1-1.69,2.66-2.62,2.67c-12.4,0.18-24.81,0.08-37.22,0.15c-3.64,0.02-2.87-2.51-2.91-4.56c-0.03-1.99-0.56-4.5,2.86-4.08
		c2.94,0.36,3.78-0.97,3.75-3.78c-0.12-10.72-0.1-21.44-0.01-32.15c0.02-2.6-0.45-4.26-3.58-4.03c-4.31,0.32-2.75-3.04-3.02-5.16
		c-0.3-2.42,0.36-3.87,3.32-3.78C944.49,390.13,950.44,390.01,956.39,390.01z"/>
	<path class="st0" d="M776.72,432.5c8.5,6.69,7.66,6.87-0.07,11.58c-15.74,9.6-36.96,3.65-43.94-12.3
		c-4.6-10.5-3.95-21.07,2.84-30.52c6.73-9.37,16.34-12.89,27.74-12.02c5.57,0.42,10.64,2.01,14.99,5.55
		c3.87,3.16,5.16,7.69,3.49,11.28c-1.5,3.21-4.05,4.26-7.3,3.5c-3.33-0.78-5.21-3.07-4.68-6.5c0.42-2.68-0.95-3.35-2.97-4.03
		c-9.02-3.01-18.94,0.47-23.64,8.37c-5.43,9.14-3.72,20.5,4.14,27.47c6.87,6.1,18.21,6.18,26.17,0.18
		C774.59,434.22,775.67,433.33,776.72,432.5z"/>
	<path class="st0" d="M887.49,439.11c1.1-0.12,1.75-0.33,2.36-0.24c3.3,0.5,3.81-1.24,3.78-4.06c-0.12-10.58-0.11-21.16-0.01-31.73
		c0.03-2.73-0.34-4.38-3.72-4.24c-4.03,0.17-2.27-3.19-2.55-5.14c-0.31-2.09,0.01-3.8,2.93-3.73c5.81,0.14,11.62,0.14,17.43,0
		c3.13-0.07,3.27,1.84,3.13,4.05c-0.14,2.12,0.89,5.18-3,4.86c-3.48-0.28-4.43,1.22-4.38,4.51c0.16,10.45,0.16,20.9,0,31.35
		c-0.05,3.25,1.12,4.38,4.28,4.14c2.7-0.21,5.43-0.19,8.13,0c2.68,0.18,3.96-0.78,3.51-3.5c-0.78-4.71,2.31-4.24,5.42-4.44
		c3.8-0.24,4.26,1.7,4.07,4.71c-0.16,2.7-0.18,5.43,0,8.12c0.19,2.92-1.06,3.78-3.85,3.75c-11.1-0.11-22.21-0.18-33.31,0.04
		c-3.72,0.07-4.86-1.32-4.41-4.72C887.43,441.73,887.42,440.58,887.49,439.11z"/>
	<path class="st0" d="M873.75,438.46c1.04,0.16,1.82,0.46,2.53,0.35c3.94-0.63,4.39,1.55,4.38,4.76c-0.01,3.09-1.22,4.05-4.16,3.96
		c-5.29-0.16-10.59-0.19-15.88,0.01c-3.16,0.12-4.08-1.19-3.89-4.1c0.15-2.48-0.39-5.22,3.61-4.61c3.01,0.46,3.69-1.1,3.66-3.83
		c-0.11-10.71-0.14-21.42,0.01-32.12c0.04-3.07-1.05-4.27-4.04-3.97c-3.85,0.39-3.12-2.44-3.19-4.66c-0.08-2.29-0.19-4.4,3.25-4.29
		c5.8,0.18,11.62,0.13,17.43,0.02c3.48-0.06,3.13,2.29,3.13,4.48c0,2.19,0.35,4.79-3.12,4.42c-3.48-0.37-4.01,1.41-3.97,4.36
		c0.13,10.45,0.04,20.9,0.06,31.35C873.54,435.86,873.67,437.12,873.75,438.46z"/>
</g>
<g id="Capa_2">
</g>
</svg>
