<?xml version="1.0" encoding="utf-8"?>
<!-- Generator: Adobe Illustrator 27.4.0, SVG Export Plug-In . SVG Version: 6.00 Build 0)  -->
<svg version="1.1" xmlns="http://www.w3.org/2000/svg" xmlns:xlink="http://www.w3.org/1999/xlink" x="0px" y="0px"
	 viewBox="0 0 1500 600" style="enable-background:new 0 0 1500 600;" xml:space="preserve">
<style type="text/css">
	.st0{fill:#666666;}
	.st1{fill:#21B8CC;}
</style>
<g id="Capa_1">
	<g>
		<path class="st0" d="M361.28,52.65c5.2,4.85,10.21,9.47,15.15,14.16c21.55,20.43,43.04,40.92,64.66,61.28
			c2.46,2.32,3.38,4.72,3.37,8.01c-0.09,85.13-0.14,170.26-0.02,255.39c0.01,4.53-1.62,5.18-5.53,5.17
			c-49.03-0.09-98.06-0.05-147.08-0.02c-3.36,0-6.71,0.1-10.07,0.19c-2.56,0.07-3.56-1-3.56-3.67c0.03-79.46,0-158.92-0.01-238.38
			c0-6.39-0.11-12.79,0.27-19.17c0.13-2.25,0.98-5.04,2.53-6.53c25.89-24.96,51.93-49.75,77.95-74.57
			C359.48,54.01,360.08,53.6,361.28,52.65z"/>
		<path class="st0" d="M83.81,131c1.47-0.15,2.61-0.36,3.75-0.36c47.87,0.04,95.74,0.14,143.6,0.05c4.32-0.01,5.37,1.5,5.36,5.48
			c-0.1,83.82-0.09,167.65-0.15,251.47c-0.01,8.76-0.15,8.81-8.7,8.82c-46.69,0.04-93.39,0.05-140.08,0.06
			c-1.15,0-2.31-0.12-3.79-0.21C83.81,307.92,83.81,219.68,83.81,131z"/>
		<path class="st0" d="M486.29,131.04c2.01-0.17,3.71-0.43,5.41-0.43c45.95,0,91.9,0.03,137.85,0.05c1.31,0,2.64,0.16,3.94,0.03
			c3.82-0.38,4.91,1.22,4.88,5.01c-0.28,40.94-0.43,81.88-0.51,122.82c-0.08,44.58-0.06,89.15,0.02,133.73
			c0.01,3.08-0.54,4.26-4.04,4.25c-46.96-0.06-93.93,0.05-140.89,0.12c-6.65,0.01-6.66,0.01-6.66-6.51c0-84.66,0-169.31,0-253.97
			C486.29,134.59,486.29,133.01,486.29,131.04z"/>
		<path class="st0" d="M940.41,396.62c-2.69,0.16-4.51,0.37-6.33,0.36c-20.71-0.05-41.43-0.21-62.14-0.14
			c-3.42,0.01-5.25-0.96-6.46-4.3c-4.48-12.41-9.4-24.67-13.83-37.09c-1.18-3.32-2.83-4.51-6.28-4.51
			c-28.74,0.07-57.48,0.04-86.22-0.09c-2.79-0.01-3.75,1.29-4.62,3.53c-5,12.84-10.22,25.6-15.13,38.47
			c-1.1,2.88-2.6,4.25-5.69,4.25c-21.88-0.04-43.76-0.01-65.64-0.03c-0.83,0-1.65-0.3-3.01-0.56c0.64-1.97,1.11-3.73,1.76-5.42
			c31.89-82.69,63.79-165.37,95.7-248.04c3.55-9.2,3.56-9.15,13.37-9.12c20.13,0.05,40.27,0.11,60.4-0.03
			c3.62-0.03,5.31,1.08,6.63,4.58c31.04,82.54,62.22,165.02,93.39,247.51C937.53,389.22,938.8,392.44,940.41,396.62z M831.38,298.52
			c-9.23-27.7-18.31-54.97-27.39-82.23c-0.45,0.01-0.91,0.02-1.36,0.03c-9.21,27.27-18.42,54.55-27.76,82.2
			C794,298.52,812.31,298.52,831.38,298.52z"/>
		<path class="st0" d="M1223.6,265.12c0-42.12,0.05-84.23-0.09-126.35c-0.01-3.84,1.02-4.96,4.9-4.95
			c33.12,0.16,66.24,0.1,99.36,0.15c17.49,0.02,34.65,2.07,50.86,9.08c26.98,11.66,41.42,32.5,44.37,61.3
			c1.61,15.8,1.53,31.68-2.08,47.23c-7.12,30.65-29.75,50.64-62.15,55.8c-20.15,3.21-40.42,2.61-60.69,2.54
			c-5.59-0.02-5.52-0.02-5.5,5.7c0.06,25.56,0,51.12,0.17,76.68c0.03,3.86-1.13,4.84-5,4.79c-19.4-0.22-38.8-0.12-58.21-0.08
			c-5.92,0.01-5.92,0.1-5.92-5.99C1223.61,349.06,1223.61,307.09,1223.6,265.12z M1292.62,189.32c0,18.56,0.02,36.39-0.01,54.21
			c-0.02,10.82-0.05,10.82,10.9,10.83c10.19,0.01,20.41,0.47,30.32-2.69c9.31-2.96,16.01-8.69,17.67-18.48
			c1.05-6.2,1.3-12.71,0.74-18.97c-0.99-10.93-6.99-18.39-17.68-21.98c-8.89-2.99-18.04-2.93-27.22-2.92
			C1302.45,189.33,1297.55,189.32,1292.62,189.32z"/>
		<path class="st0" d="M1049.58,265.09c0-42.4,0.03-84.79-0.06-127.19c-0.01-3.05,0.93-3.99,3.99-3.99
			c47.28,0.09,94.55,0.11,141.83,0.05c3.35,0,4.56,0.94,4.52,4.49c-0.19,16.26-0.23,32.53-0.01,48.8c0.05,3.9-1.13,4.95-4.94,4.93
			c-23.35-0.16-46.69-0.11-70.04-0.12c-6.47,0-6.48,0-6.48,6.19c0,10.17,0.03,20.33,0.05,30.5c0.01,6.94,0,7.02,7.18,7.04
			c21.74,0.05,43.48,0.16,65.22-0.06c4.02-0.04,4.88,1.13,4.83,4.88c-0.18,16.26-0.16,32.53,0.03,48.8
			c0.04,3.41-1.15,4.12-4.29,4.11c-22.47-0.07-44.94,0.11-67.41-0.03c-4.17-0.03-5.89,0.77-5.74,5.43
			c0.37,11.46,0.36,22.95,0.05,34.42c-0.12,4.42,1.52,5.37,5.53,5.35c23.35-0.1,46.69-0.01,70.04,0.03c5.96,0.01,5.91,0.03,5.9,5.97
			c-0.02,15.69-0.13,31.37,0.09,47.06c0.06,4.05-1.21,5.25-5.22,5.24c-46.84-0.09-93.68-0.13-140.51,0.11
			c-5.83,0.03-4.57-3.51-4.58-6.55c-0.05-41.82-0.04-83.63-0.04-125.45C1049.54,265.09,1049.56,265.09,1049.58,265.09z"/>
		<path class="st0" d="M956.35,396.85c0-5.58,0-10.06,0-14.55c-0.04-79.58-0.07-159.16-0.11-238.73c0-0.29,0.01-0.58,0.01-0.87
			c-0.1-8.84-0.1-8.8,9.16-8.77c18.09,0.05,36.18,0.14,54.27,0c3.91-0.03,5.19,0.97,5.18,5.11c-0.13,83.93-0.1,167.87-0.11,251.8
			c0,6.22-0.02,6.14-6.35,6.11c-18.09-0.09-36.18-0.07-54.27-0.1C961.7,396.85,959.26,396.85,956.35,396.85z"/>
		<path class="st0" d="M1216.85,455.03c11.42,0.59,22.9,0.61,34.22,1.99c7.54,0.92,11.35,5.72,12.03,11.89
			c0.83,7.43-1.36,10.78-10.28,15.42c1.13,0.66,2.05,1.27,3.03,1.75c7.52,3.69,10.3,9.45,8.82,18.31
			c-0.99,5.92-6.52,10.85-13.84,11.25c-10.32,0.57-20.68,0.61-31.02,0.61c-1.14,0-3.27-1.76-3.28-2.72
			c-0.13-19-0.02-38.01,0.06-57.01c0-0.12,0.14-0.23,0.22-0.35C1216.83,455.79,1216.84,455.41,1216.85,455.03z M1229.78,498.32
			c0,0.72,0,1.45,0,2.17c0,8.19,0,8.21,8.31,7.98c1.59-0.04,3.19-0.22,4.76-0.51c5.59-1.04,8.29-4.46,8.05-10.06
			c-0.24-5.64-3.52-8.43-10.64-9.03C1229.7,487.97,1229.7,487.97,1229.78,498.32z M1229.79,471.73c0,2.03-0.29,4.12,0.11,6.07
			c0.23,1.11,1.57,2.84,2.42,2.84c4.06,0,8.22-0.05,12.14-0.95c3.95-0.91,5.94-3.92,5.54-8.21c-0.35-3.72-3.04-6.62-7.01-7.17
			c-1.73-0.24-3.49-0.31-5.24-0.31C1227.88,464.02,1229.78,463.61,1229.79,471.73z"/>
		<path class="st0" d="M326.93,455.8c3.99,0,8.02,0,12.47,0c0.15,2.94,0.4,5.67,0.42,8.39c0.09,10.89-0.1,21.78,0.21,32.66
			c0.25,8.87,6.05,13.2,14.2,11.25c4.37-1.04,6.84-3.9,7.55-8.05c0.63-3.7,0.87-7.49,0.91-11.25c0.11-10.85,0.04-21.71,0.04-32.89
			c4.49,0,8.5,0,13.02,0c0.11,1.48,0.32,3,0.32,4.53c0.01,11.76,0.07,23.52-0.07,35.28c-0.15,13.06-6,19.69-18.92,20.92
			c-5.16,0.49-10.5,0.31-15.65-0.36c-7.6-0.99-13.97-6.74-14.3-14.35C326.47,486.77,326.93,471.55,326.93,455.8z"/>
		<path class="st0" d="M1026.4,471.38c0-4.48,0.12-8.5-0.04-12.52c-0.1-2.43,0.73-3.84,3.13-4.42c3.19-0.77,6.36-1.66,9.86-2.58
			c0,9.91-0.02,19.16,0,28.42c0.02,9.71-0.02,19.43,0.19,29.14c0.08,3.5-1.06,5.78-4.65,5.98c-8.83,0.5-17.68,1.19-26.5,1
			c-7.32-0.16-12.58-4.63-14.14-11.55c-1.4-6.23-2.18-13.01-1.26-19.26c1.73-11.84,12.34-17.89,25.41-15.73
			C1020.92,470.28,1023.44,470.82,1026.4,471.38z M1026.57,494.49c-0.03,0-0.06,0-0.09,0c0-3.62,0.08-7.24-0.05-10.85
			c-0.04-1.22-0.26-2.79-1.03-3.57c-4.18-4.19-14.99-3.08-17.48,2.08c-3.73,7.71-3.31,15.91,0.13,23.49
			c2.65,5.84,8.65,4.1,13.61,3.87c3.33-0.15,5.35-1.62,4.97-5.49C1026.33,500.88,1026.57,497.67,1026.57,494.49z"/>
		<path class="st0" d="M836.31,451.95c0,7.51-0.01,14.46,0,21.42c0.03,12.2,0.03,24.4,0.13,36.6c0.02,2.79-0.51,5.04-3.76,5.27
			c-8.25,0.59-16.57,1.89-24.76,1.38c-11.4-0.71-16.26-5.75-18.11-16.99c-0.67-4.1-0.85-8.44-0.32-12.56
			c1.6-12.45,12.27-19.44,25.71-17.21c2.56,0.42,5.09,0.98,8.19,1.58c0-4.26,0.21-8.15-0.07-12c-0.23-3.08,1.03-4.61,3.85-5.27
			C830.1,453.48,833.01,452.75,836.31,451.95z M823.44,494.12c-0.01,0-0.03,0-0.04,0c0-3.62,0.07-7.24-0.04-10.85
			c-0.03-1.07-0.25-2.46-0.95-3.14c-5.57-5.44-17.55-2.47-18.78,5.11c-0.95,5.86-0.3,12.05,0.27,18.04c0.32,3.35,2.9,5.88,6.4,6.23
			c3.28,0.32,6.7,0.14,9.93-0.5c1.26-0.25,2.91-2.25,3.07-3.6C823.72,501.68,823.44,497.88,823.44,494.12z"/>
		<path class="st0" d="M873.32,516.4c4.17-12.62,8.01-24.28,11.88-35.92c2.42-7.29,4.77-14.61,7.46-21.8
			c0.49-1.3,2.46-2.06,3.76-3.06c0.09-0.07,0.29-0.02,0.43-0.02c16.63,0.57,12.21-3.6,17.67,12.43c5.05,14.82,9.89,29.7,14.81,44.56
			c0.3,0.92,0.5,1.87,0.98,3.68c-4.43,0-8.43,0.19-12.38-0.14c-0.95-0.08-2.11-1.8-2.53-2.99c-1.07-3-2.01-6.08-2.54-9.21
			c-0.57-3.33-2.36-4.34-5.47-4.01c-1.44,0.15-2.92,0-4.37,0.03c-14.75,0.34-10.41-2.44-14.56,11.4c-1.14,3.82-2.5,5.45-6.44,5.08
			C879.34,516.2,876.63,516.4,873.32,516.4z M902.44,466.97c-0.48-0.04-0.96-0.08-1.44-0.12c-2.31,8.02-4.63,16.04-7,24.25
			c5.46,0,10.11,0,15.16,0C906.82,482.67,904.63,474.82,902.44,466.97z"/>
		<path class="st0" d="M711.95,471.44c0-4.67-0.24-8.71,0.12-12.7c0.14-1.5,1.35-3.63,2.63-4.17c3.01-1.26,6.36-1.74,9.95-2.62
			c0.21,1.38,0.5,2.46,0.5,3.53c0.01,18.12-0.01,36.24-0.02,54.37c0,2.4-0.02,4.65-3.2,5.25c-9.63,1.8-19.25,3.01-29.03,1.1
			c-9.12-1.79-13.05-8.15-14.35-16.48c-1.29-8.3-1.41-16.6,4.46-23.56c5.61-6.66,13.25-7.19,21.19-6.23
			C706.61,470.2,708.98,470.85,711.95,471.44z M712.06,493.96c0.03,0,0.05,0,0.08,0c0-3.48,0.09-6.97-0.05-10.45
			c-0.05-1.22-0.25-2.82-1.03-3.58c-5.58-5.41-17.29-2.14-18.9,5.42c-0.84,3.92-1.04,8.09-0.76,12.1
			c0.76,10.7,5.98,14.26,16.48,11.96c2.88-0.63,4.31-1.96,4.2-4.99C711.96,500.93,712.06,497.44,712.06,493.96z"/>
		<path class="st0" d="M116.66,470.85c0-4.31-0.17-8.5,0.1-12.67c0.09-1.27,1.16-3.15,2.23-3.55c3.22-1.19,6.66-1.78,10.37-2.7
			c0.18,1.49,0.43,2.58,0.43,3.67c0.03,18.15,0,36.3,0.06,54.44c0.01,2.55-0.26,4.6-3.32,5.14c-9.37,1.66-18.76,2.94-28.23,1.04
			c-9.41-1.89-14.13-7.94-14.78-18.8c-0.23-3.76-0.21-7.56-0.01-11.32c0.45-8.73,8.64-16.19,18.42-16.42
			C106.67,469.59,111.43,470.41,116.66,470.85z M116.76,494.37c0.01,0,0.03,0,0.04,0c0-3.62,0.08-7.23-0.04-10.85
			c-0.04-1.21-0.2-2.81-0.97-3.55c-5.31-5.13-16.54-2.49-18.46,4.61c-1.11,4.09-1.29,8.58-1.04,12.84
			c0.62,10.16,5.16,13.53,15.16,12.16c3.74-0.51,5.8-1.95,5.37-6.11C116.51,500.47,116.76,497.41,116.76,494.37z"/>
		<path class="st0" d="M1375.76,494.07c-0.42-19.96,11.76-26.11,29.57-24.17c12.47,1.36,17.35,6.71,18.27,19.16
			c0.35,4.73-0.01,9.59-0.7,14.3c-1.06,7.28-5.65,11.98-12.89,12.83c-6.29,0.74-12.83,0.82-19.1-0.02
			c-9.35-1.26-13.76-7.04-14.87-17.62C1375.86,496.81,1375.82,495.07,1375.76,494.07z M1411.39,492.76
			c-0.38-2.5-0.55-5.42-1.29-8.18c-1.33-4.96-4.74-7.04-10.66-6.96c-5.04,0.07-8.82,2.41-9.49,7.21c-0.73,5.22-0.86,10.67-0.25,15.9
			c0.75,6.35,4.32,8.98,10.25,9c6.07,0.02,9.12-2.47,10.45-8.82C1410.94,498.37,1411.05,495.75,1411.39,492.76z"/>
		<path class="st0" d="M738.22,480.34c-1.53-6.58-1.12-7.37,4.86-8.64c8.14-1.72,16.29-3.13,24.65-1.17
			c8.01,1.88,11.7,6.11,11.81,14.34c0.12,8.85,0.03,17.7,0.16,26.55c0.03,2.4-0.6,4.04-3.23,4.14c-9.72,0.37-19.46,1.24-29.15,0.84
			c-7.85-0.32-12.63-5.67-13.21-12.65c-0.52-6.28,3.46-12.06,10.79-13.9c5.58-1.4,11.51-1.42,17.24-2.29
			c1.77-0.27,3.41-1.34,5.11-2.04c-1.06-2.09-1.74-5.61-3.24-6c-4.8-1.25-9.91-1.82-14.88-1.71
			C745.47,477.89,741.85,479.44,738.22,480.34z M767.26,502.05c0-1.59,0.27-3.24-0.09-4.75c-0.24-1-1.4-2.58-2.1-2.56
			c-4.61,0.16-9.25,0.4-13.78,1.2c-3.29,0.58-4.59,3.45-4.58,6.57c0.02,3.26,1.35,6.05,4.79,6.96c2.35,0.62,4.85,0.93,7.29,0.96
			C767,510.53,767.39,510.07,767.26,502.05z"/>
		<path class="st0" d="M247.83,480.33c-1.48-6.65-1.11-7.38,4.95-8.64c8-1.66,15.99-3.09,24.22-1.22
			c8.33,1.89,12.03,6.03,12.15,14.49c0.12,8.85,0.2,17.7-0.01,26.54c-0.03,1.36-1.69,3.79-2.72,3.86
			c-9.85,0.64-19.74,1.42-29.58,1.05c-7.8-0.29-12.61-5.72-13.13-12.7c-0.47-6.32,3.54-12.1,10.82-13.89
			c5.59-1.38,11.51-1.39,17.25-2.26c1.76-0.27,3.39-1.36,5.08-2.07c-1.07-2.08-1.76-5.59-3.27-5.98c-4.8-1.24-9.91-1.8-14.88-1.69
			C255.07,477.9,251.45,479.44,247.83,480.33z M276.85,502.21c0-1.73,0.28-3.53-0.11-5.18c-0.22-0.95-1.54-2.36-2.32-2.33
			c-4.46,0.15-8.97,0.37-13.35,1.17c-3.48,0.64-4.82,3.58-4.72,6.9c0.1,3.3,1.58,5.96,5.04,6.77c2.37,0.56,4.86,0.87,7.3,0.89
			C276.62,510.49,276.99,510.05,276.85,502.21z"/>
		<path class="st0" d="M969.66,516.4c0-7.48,0-14.28,0-21.08c0-1.6-0.01-3.19-0.05-4.79c-0.27-11.04-3.86-13.97-14.75-12.26
			c-3.26,0.51-4.73,1.79-4.63,5.38c0.29,9.57,0.05,19.16,0.31,28.74c0.08,3.08-0.81,4.04-3.88,4.09c-9.03,0.14-9.04,0.26-9.12-8.47
			c-0.09-10.01,0-20.03-0.31-30.04c-0.12-3.83,1.34-5.47,4.96-6.2c8.9-1.77,17.78-3.3,26.85-1.37c9.54,2.03,13.2,6.34,13.32,15.92
			c0.12,8.85,0.04,17.71,0.2,26.56c0.04,2.39-0.71,3.55-3.18,3.52C976.24,516.36,973.09,516.4,969.66,516.4z"/>
		<path class="st0" d="M433.59,515.73c-0.88,0.37-1.01,0.46-1.14,0.47c-11.75,1.15-11.75,1.15-11.78-10.28
			c-0.01-5.95,0.03-11.9-0.09-17.85c-0.07-3.51-0.17-7.94-4.04-8.83c-4.32-1-9.09-0.3-13.63,0.1c-0.62,0.05-1.44,2.66-1.44,4.09
			c-0.03,9.57-0.02,19.15,0.32,28.72c0.12,3.36-0.97,4.28-4.16,4.31c-9.07,0.08-8.91,0.19-8.82-8.76c0.1-10.01,0-20.03-0.32-30.03
			c-0.11-3.45,1.14-4.99,4.38-5.71c9.16-2.04,18.32-3.44,27.68-1.46c9.03,1.91,12.99,6.66,13.03,15.78
			C433.62,496.09,433.59,505.93,433.59,515.73z"/>
		<path class="st0" d="M152.81,496.07c-0.59,8.09,3.37,13.45,10.35,13.57c6.12,0.1,12.25-1.01,18.62-1.61
			c1.81,5.06,0.95,7.14-4.91,7.72c-6.91,0.68-13.92,1.01-20.86,0.73c-7.49-0.3-12.42-4.68-14.63-11.76
			c-2.15-6.92-2.62-13.98-0.46-21.01c3.15-10.27,13.45-15.82,25.6-13.85c13.16,2.13,18.14,11.56,18.14,23.32
			c0,0.9-2.11,2.54-3.29,2.59c-7.72,0.3-15.46,0.25-23.19,0.31C156.45,496.08,154.73,496.07,152.81,496.07z M152.71,488.71
			c6.43,0,12.71,0,19.23,0c0.31-4.4-0.75-8.52-4.56-10.08c-3-1.23-7.26-1.33-10.28-0.17C153.2,479.96,152.2,484.12,152.71,488.71z"
			/>
		<path class="st0" d="M1315.98,506.82c0.69,7.88,0.74,8.35-6.26,9.1c-6.89,0.75-13.92,0.8-20.85,0.44
			c-5.97-0.31-10.39-3.77-12.67-9.33c-3-7.31-3.71-14.95-1.65-22.61c2.75-10.25,11.88-15.69,24.2-14.79
			c10.57,0.77,18.07,7.7,19.4,17.92c0.04,0.29,0.06,0.58,0.1,0.87c1.06,8.34,0.65,7.47-6.56,7.46c-7.29-0.02-14.58,0.24-21.87,0.16
			c-3-0.03-3.87,1.09-3.4,3.92c0.85,5.15,4.47,9.48,9.7,9.67c5.14,0.18,10.33-0.83,15.49-1.45
			C1312.99,508.01,1314.32,507.35,1315.98,506.82z M1306.95,489.21c-1.03-3.11-1.41-5.24-2.4-7.05c-2.39-4.4-6.55-6.06-11.46-4.74
			c-4.41,1.19-6.18,4.56-6.49,8.72c-0.07,0.97,1.11,2.91,1.77,2.93C1294.14,489.31,1299.91,489.21,1306.95,489.21z"/>
		<path class="st0" d="M531.12,496.31c-0.4,7.62,3.51,13.06,10.17,13.23c5.4,0.13,10.83-1.22,16.24-1.95
			c0.82-0.11,1.62-0.38,2.42-0.57c1.86,6.62,1.19,8.14-5.26,8.84c-6.47,0.7-13.04,0.95-19.55,0.72
			c-8.25-0.28-14.06-4.87-15.48-12.84c-1.14-6.4-1.54-13.39-0.2-19.68c2.35-10.99,13.79-16.54,26.38-14.06
			c13.03,2.56,17.26,12.24,17.14,23.19c-0.01,0.91-2.15,2.52-3.35,2.56c-7.72,0.3-15.45,0.24-23.17,0.32
			C534.75,496.1,533.03,496.23,531.12,496.31z M551.67,489.05c-1.7-3.78-2.48-6.89-4.29-9.2c-2.76-3.55-7.01-3.34-10.83-2.09
			c-3.88,1.28-5.29,4.81-5.51,8.58c-0.05,0.85,1.46,2.55,2.31,2.58C538.96,489.17,544.58,489.05,551.67,489.05z"/>
		<path class="st0" d="M1126.73,506.85c1.05,7.66,0.93,8.35-6.25,9.12c-6.9,0.74-13.94,0.79-20.87,0.39
			c-6.38-0.37-10.71-4.31-12.9-10.27c-2.46-6.68-3.13-13.56-1.47-20.55c2.09-8.73,7.93-14,16.89-15.36
			c16.19-2.45,25.8,5.08,27.41,21.31c0.32,3.18-0.48,4.46-3.94,4.4c-8.02-0.14-16.05,0.08-24.07,0.18c-4.34,0.05-5.2,1.14-3.89,5.24
			c1.54,4.8,4.56,8.44,9.91,8.41c5.02-0.03,10.05-0.96,15.06-1.62C1123.99,507.93,1125.31,507.3,1126.73,506.85z M1118.02,489.13
			c-1.31-3.31-1.89-5.69-3.12-7.67c-2.36-3.84-6.65-5.21-11.07-3.89c-4.18,1.25-6.02,4.44-6.32,8.45c-0.07,0.98,1.33,2.94,2.13,2.98
			C1105.27,489.25,1110.92,489.13,1118.02,489.13z"/>
		<path class="st0" d="M605.67,507.5c4.82,0.86,9.21,1.85,13.65,2.34c2.56,0.28,5.39,0.24,7.76-0.59c1.93-0.68,4.19-2.49,4.74-4.27
			c0.34-1.11-1.91-3.76-3.57-4.58c-4.41-2.17-9.21-3.56-13.72-5.57c-4.64-2.07-8.74-4.88-9.12-10.61
			c-0.38-5.63,2.87-10.45,8.76-12.64c9-3.35,18.11-2.45,27,0.37c4.58,1.45,2.31,5.42,2.57,8.85c-4.06-1.08-7.63-2.5-11.3-2.88
			c-3.52-0.36-7.21,0.08-10.7,0.77c-1.31,0.26-2.94,2.08-3.19,3.42c-0.2,1.05,1.23,2.95,2.41,3.6c2.91,1.59,6.1,2.67,9.16,3.98
			c3.33,1.42,6.83,2.58,9.93,4.39c4.04,2.36,6.23,5.99,5.58,10.93c-0.67,5.1-3.46,8.77-8.23,10.31c-9.27,2.98-18.73,2.39-28.03,0.04
			C605.58,514.39,604.93,511.23,605.67,507.5z"/>
		<path class="st0" d="M490.25,507.35c0.79-2.08,1.44-3.48,1.85-4.93c2.65-9.34,5.42-18.65,7.76-28.07
			c0.77-3.09,2.18-4.05,5.12-3.88c2.71,0.16,5.44,0.03,8.67,0.03c-0.27,1.81-0.28,2.95-0.63,3.96
			c-4.42,12.88-8.82,25.78-13.46,38.58c-0.5,1.39-2.53,2.24-3.88,3.3c-0.19,0.15-0.57,0.04-0.86,0.06
			c-13.2,0.85-13.18,0.84-17.54-11.7c-3.52-10.13-7.05-20.25-10.68-30.34c-0.97-2.69-0.3-3.71,2.57-3.86
			c9.41-0.48,9.4-0.54,12.07,8.41c2.52,8.47,5.03,16.95,7.58,25.41C489.05,505.13,489.53,505.86,490.25,507.35z"/>
		<path class="st0" d="M1136.97,508c6.21,0.66,11.91,1.33,17.62,1.84c1.28,0.12,2.8,0.08,3.85-0.52c1.76-1,4.5-2.51,4.5-3.79
			c-0.01-1.79-1.79-4.17-3.49-5.22c-2.8-1.74-6.15-2.57-9.24-3.87c-2.41-1.01-4.88-1.96-7.12-3.28c-4.17-2.45-6.64-6.02-6.38-11.09
			c0.25-5.01,3.41-8.02,7.52-9.87c9.28-4.2,18.75-3.31,28.12-0.14c3.29,1.11,3.23,4.03,2.34,6.51c-0.25,0.69-3.03,0.73-4.62,0.63
			c-5.16-0.32-10.31-1.21-15.44-1.08c-1.8,0.05-3.54,2.4-5.31,3.71c1.46,1.64,2.65,3.71,4.44,4.81c2.31,1.42,5.12,2.01,7.68,3.06
			c3.09,1.27,6.33,2.32,9.16,4.03c4.01,2.42,7.23,5.78,6.34,10.98c-0.92,5.36-3.82,9.47-9.35,10.98c-9.24,2.52-18.54,1.85-27.71-0.3
			C1135.42,514.34,1136.69,510.65,1136.97,508z"/>
		<path class="st0" d="M234.8,451.77c0,3.36,0,5.8,0,8.24c-0.04,17.25-0.17,34.5-0.05,51.76c0.02,3.54-0.91,4.82-4.64,4.74
			c-8.51-0.17-8.49,0.01-8.51-8.37c-0.04-15.66,0.05-31.32-0.26-46.97c-0.09-4.59,1.09-7.12,5.95-7.55
			C229.54,453.42,231.72,452.55,234.8,451.77z"/>
		<path class="st0" d="M1341,451.89c0,4.52,0,8.28,0,12.03c0.01,16.26-0.06,32.51,0.1,48.77c0.03,2.93-0.87,3.7-3.7,3.76
			c-9.28,0.19-9.2,0.29-9.21-8.79c-0.02-15.68,0.01-31.36-0.31-47.03c-0.09-4.43,1.5-6.4,5.75-6.93
			C1335.9,453.43,1338.1,452.63,1341,451.89z"/>
		<path class="st0" d="M1365.65,451.85c0.16,2.91,0.4,5.18,0.4,7.45c-0.01,17.86-0.1,35.73-0.06,53.59
			c0.01,2.64-0.84,3.48-3.52,3.57c-9.52,0.29-9.47,0.39-9.5-8.9c-0.04-15.54-0.03-31.08-0.31-46.62c-0.08-4.43,1.27-6.82,5.86-7.28
			C1360.67,453.44,1362.75,452.61,1365.65,451.85z"/>
		<path class="st0" d="M1064.07,515.64c-0.87,0.4-1.12,0.59-1.39,0.62c-11.54,1.17-11.53,1.16-11.53-10.11
			c0-9.72,0.08-19.44-0.1-29.16c-0.06-3.04,0.98-4.76,3.96-5.1c7.06-0.8,14.13-1.57,21.21-2.25c3.59-0.35,3.84,2.1,3.92,4.81
			c0.08,2.91-1.09,3.53-3.95,3.46c-11.98-0.27-12.21,0.11-12.13,12.06C1064.12,498.52,1064.07,507.07,1064.07,515.64z"/>
		<path class="st0" d="M600.98,477.59c-3.89,0.33-7.77,0.62-11.65,0.99c-2.95,0.29-4.16,1.76-4.05,4.92
			c0.32,9.42,0.16,18.86,0.51,28.27c0.14,3.7-1.14,4.8-4.72,4.72c-10.01-0.22-8.2,0.74-8.34-8.36c-0.15-10.15-0.11-20.31-0.4-30.45
			c-0.11-3.76,1.25-5.65,5.01-6.04c5.92-0.62,11.82-1.67,17.75-1.99C601.9,469.28,602.8,470.75,600.98,477.59z"/>
		<path class="st0" d="M458.02,516.01c-12.6,1.42-12.55,1.42-12.58-10.16c-0.02-10.14-0.04-20.29-0.31-30.43
			c-0.1-3.74,1.01-5.13,4.95-4.99c8.13,0.29,8.09,0.1,8.08,8.07c-0.02,11.45,0.04,22.9,0.05,34.34
			C458.21,513.83,458.09,514.82,458.02,516.01z"/>
		<path class="st0" d="M668.13,493.55c0,6.39-0.11,12.78,0.05,19.16c0.06,2.57-0.64,3.59-3.37,3.72c-9.57,0.47-9.54,0.57-9.54-8.7
			c0-10.9,0.07-21.79-0.15-32.68c-0.07-3.43,0.96-4.6,4.44-4.56c8.44,0.09,8.44-0.05,8.42,8.24c-0.01,2.47-0.06,4.94-0.07,7.41
			c-0.01,2.47,0,4.94,0,7.41C667.99,493.55,668.06,493.55,668.13,493.55z"/>
		<path class="st0" d="M1119.15,452.24c-5.74,11.19-8.24,12.94-16.37,11.61C1103.89,454.83,1110.36,450.11,1119.15,452.24z"/>
		<path class="st0" d="M668.62,454.65c-0.51,2.41-0.47,6.54-1.62,6.9c-3.29,1.04-7.11,0.93-10.63,0.49c-2.11-0.26-2.17-4.18,0-5.05
			c3.55-1.42,7.3-2.34,10.96-3.48C667.76,453.89,668.19,454.27,668.62,454.65z"/>
		<path class="st0" d="M457.98,453.39c0.19,2.29,0.29,3.56,0.39,4.82c0.24,2.97-0.71,4.68-4.14,4.27c-2-0.24-4.11,0.21-6.05-0.2
			c-1.16-0.24-2.75-1.39-2.96-2.38c-0.19-0.9,0.98-2.72,1.96-3.12C450.48,455.48,453.96,454.62,457.98,453.39z"/>
	</g>
</g>
<g id="Capa_2">
</g>
</svg>
