<?xml version="1.0" encoding="utf-8"?>
<!-- Generator: Adobe Illustrator 27.4.0, SVG Export Plug-In . SVG Version: 6.00 Build 0)  -->
<svg version="1.1" xmlns="http://www.w3.org/2000/svg" xmlns:xlink="http://www.w3.org/1999/xlink" x="0px" y="0px"
	 viewBox="0 0 1500 600" style="enable-background:new 0 0 1500 600;" xml:space="preserve">
<style type="text/css">
	.st0{fill:#666666;}
	.st1{fill:#21B8CC;}
</style>
<g id="Capa_1">
	<g>
		<path class="st0" d="M1362.16,554.72c-250.73,0-500.33,0-750.4,0c0-170.17,0-339.64,0-509.84c250.26,0,500.14,0,750.4,0
			C1362.16,215,1362.16,384.46,1362.16,554.72z M1156.36,288.1c0.52-0.02,1.03-0.05,1.55-0.07c5.28,15.68,10.39,31.42,16.01,46.97
			c1.05,2.9,4.17,5.06,6.33,7.56c2.31-2.35,5.61-4.31,6.75-7.14c4.59-11.38,8.5-23.03,12.71-34.56c1.78-4.89,3.69-9.73,6.5-17.11
			c1.02,18.98,2.18,34.87,2.61,50.79c0.22,8.03,3.42,9.82,11.28,6.99c-1.6-24.65-3.2-49.29-4.76-73.37
			c-9.61-3.12-14.36-0.54-16.81,8.06c-2.63,9.23-6.5,18.11-9.8,27.15c-2.38,6.51-4.72,13.04-7.59,20.99
			c-6.43-18.58-11.85-35.3-18.23-51.65c-1.08-2.76-6.14-4.75-9.68-5.41c-1.56-0.29-5.49,3.48-5.67,5.63
			c-1.85,22.16-3.16,44.36-4.55,66.56c-0.05,0.87,0.6,1.79,1.14,3.28c2.8-0.22,5.58-0.44,8.86-0.69
			C1154.15,323.62,1155.26,305.86,1156.36,288.1z M1024.33,323.21c-10.9-17.33-21.3-33.35-31.13-49.71
			c-4.02-6.69-8.72-8.12-15.36-5.31c0,24.99,0,49.44,0,74.65c3.5-0.3,6.27-0.54,9.87-0.85c0-18.77,0-36.79,0-57.06
			c11.59,18.59,22.11,35,32.1,51.74c3.56,5.96,7.69,7.62,14.9,4.72c0-21.93,0.17-44.15-0.22-66.37c-0.05-2.7-3.04-5.35-4.66-8.03
			c-1.83,2.76-5.16,5.47-5.25,8.28C1024.06,290.73,1024.33,306.22,1024.33,323.21z M957.28,304.55
			c0.06-19.04-9.77-33.73-25.16-37.63c-19.56-4.95-37.82,5.99-42.98,25.75c-6.1,23.34,4.1,45,23.68,50.28
			C936.89,349.45,957.19,331.91,957.28,304.55z M1054.97,311.44c0.39,9.56,4.85,22.73,19.74,29.57c13.33,6.12,26.56,4.51,37.25-5.33
			c13.74-12.64,14.99-29.18,10.07-46.09c-5.63-19.31-24.54-28.33-43.65-21.7C1063.41,273.09,1054.92,286.84,1054.97,311.44z
			 M795.31,268.17c0,11.47,0.22,23.01-0.08,34.54c-0.19,7.24-0.36,14.64-2.02,21.62c-1.71,7.22-7.62,10.6-15.1,10.55
			c-7.55-0.05-12.84-3.71-14.79-10.97c-1.27-4.74-1.86-9.77-1.98-14.69c-0.28-11.95,0.17-23.93-0.36-35.86
			c-0.1-2.21-3.37-4.27-5.17-6.41c-1.77,2.15-5.02,4.25-5.08,6.44c-0.44,14.27-0.6,28.58-0.06,42.84
			c0.69,18.16,10.57,28.07,26.98,28.1c16.47,0.03,27.24-9.75,28.3-27.12c0.87-14.23,0.24-28.55,0.57-42.83
			C806.7,266.21,802.49,265.93,795.31,268.17z M1236.12,341.4c8.73,3.51,11.79,0,13.95-6.98c1.64-5.28,4.06-12.98,8.02-14.42
			c14.11-5.14,22.36-0.28,26.96,14.09c2.32,7.24,5.55,11.2,14.35,7.25c-7.92-23.17-15.68-46.44-24.06-69.5
			c-0.85-2.34-5.38-4.51-8.27-4.6c-2.39-0.07-6.28,2.55-7.1,4.84C1251.8,294.88,1244.14,317.86,1236.12,341.4z M734.53,341.43
			c-7.98-23.34-15.87-46.81-24.2-70.12c-0.72-2-4.33-4.11-6.61-4.13c-2.76-0.02-7.33,1.5-8.04,3.46
			c-8.5,23.53-16.42,47.26-24.47,70.86c8.76,3.45,11.73-0.41,14.01-7.09c1.79-5.25,4.07-12.92,8.04-14.39
			c13.86-5.14,22.19-0.25,26.9,14.05C722.49,341.16,725.59,345.26,734.53,341.43z M756.06,197.64
			c10.18,16.37,18.61,30.51,27.77,44.16c1.96,2.92,6.56,4.09,9.94,6.06c1.13-3.09,3.16-6.17,3.23-9.28
			c0.34-15.59,0.4-31.2-0.05-46.79c-0.09-3.12-2.79-6.16-4.29-9.23c-1.64,2.95-4.55,5.83-4.69,8.84
			c-0.54,12.36-0.22,24.76-0.22,39.1c-9.62-15.3-17.73-28.95-26.72-42c-2.37-3.44-7.48-5-11.33-7.43c-0.88,0.8-1.76,1.59-2.65,2.39
			c0,18.84-0.18,37.69,0.21,56.53c0.06,2.67,2.93,5.29,4.5,7.93c1.43-2.78,4.01-5.51,4.11-8.34
			C756.31,226.51,756.06,213.41,756.06,197.64z M1247.39,182.78c-0.72,1.81-1.38,2.72-1.39,3.64c-0.16,13.29-0.28,26.57-0.31,39.86
			c-0.06,24.22,2.46,26.2,26.91,21.13c3.24-0.67,6.51-1.51,9.53-2.82c12.62-5.48,19.34-19.51,17.43-35.93
			c-1.6-13.8-10.18-23.88-23.84-25.64C1266.33,181.81,1256.67,182.78,1247.39,182.78z M1108.99,215.38c0,3.32,0,6.63,0,9.95
			c0,25.17,2.66,27.28,27.82,21.96c18.57-3.92,27.82-16.98,26.4-37.25c-1.16-16.62-11.78-26.47-30.37-27.8
			c-5.26-0.38-10.59,0.21-15.88,0.04c-5.86-0.18-8.36,2.13-8.07,8.23C1109.29,198.79,1109,207.09,1108.99,215.38z M997.37,215.41
			c0.82-0.89,3.03-2.85,4.74-5.17c6.04-8.21,4.18-21.78-5.02-24.71c-9.08-2.9-19.37-2.23-29.15-2.52c-1.11-0.03-3.32,3.88-3.36,5.98
			c-0.27,17.56-0.3,35.12,0.04,52.68c0.04,2.11,2.73,4.18,4.2,6.26c1.68-2.22,4.57-4.32,4.8-6.68c0.66-6.72,0.23-13.55,0.23-20.1
			c14.05-1.5,16.72,0.19,19.65,11.2c0.85,3.2,1.55,6.44,2.4,9.64c1.65,6.19,5.26,7.51,11.77,4.3
			C1004.24,235.99,1000.94,226.12,997.37,215.41z M1174.72,246.33c8.62,4.4,10.98-0.76,12.06-6.69c1.71-9.4,6.5-12.26,16.31-12.47
			c10.55-0.23,11.88,6.08,13.92,13.04c1.81,6.18,4.48,10.29,12.41,6.08c-6.81-19.9-13.42-39.66-20.5-59.25
			c-0.74-2.04-4.21-4.15-6.53-4.28c-2.34-0.13-6.32,1.61-6.99,3.47C1188.22,206.12,1181.56,226.2,1174.72,246.33z M725.73,183.49
			c-6.67-2.21-9.48-0.66-9.4,6.04c0.16,12.61,0.25,25.26-0.56,37.83c-0.53,8.22-5.44,13.56-14.37,13.41
			c-8.53-0.15-12.28-5.73-13.62-13.28c-0.57-3.24-0.51-6.61-0.53-9.93c-0.07-9.63,0.23-19.28-0.24-28.89
			c-0.1-2.11-2.82-4.09-4.33-6.14c-1.71,1.86-4.83,3.68-4.89,5.58c-0.39,12.94-0.72,25.94,0.09,38.84
			c0.87,13.87,9.4,21.57,22.39,21.9c14.36,0.36,24.17-7.01,25.23-21.17C726.57,213.21,725.73,198.6,725.73,183.49z M919.85,190.39
			c7.24,0,13.5,0.3,19.7-0.17c2.06-0.16,3.96-2.32,5.94-3.57c-2.08-1.4-4.1-3.85-6.27-4c-7.27-0.51-14.61,0.12-21.89-0.3
			c-6.36-0.37-7.98,2.48-7.8,8.25c0.31,9.94,0.08,19.89,0.09,29.83c0.01,28.72,0.01,28.72,29.06,27.72
			c0.33-0.01,0.74,0.12,0.98-0.03c2.43-1.47,4.83-2.99,7.24-4.49c-2.27-1.22-4.48-3.32-6.84-3.5c-6.52-0.49-13.09-0.17-20.13-0.17
			c0-7.77,0-14.27,0-22.24c6.22,0,12.12,0.31,17.96-0.16c2.07-0.17,3.98-2.23,5.96-3.43c-2.07-1.46-4.04-3.96-6.24-4.19
			c-5.74-0.6-11.59-0.2-17.75-0.2C919.85,202.6,919.85,197.41,919.85,190.39z M856.15,276.65c6.08,0,11.37,0.53,16.47-0.23
			c2.39-0.36,4.41-3.19,6.6-4.9c-2.05-1.54-4.06-4.37-6.15-4.43c-14.95-0.38-29.93-0.38-44.88,0.01c-2.03,0.05-3.98,2.98-5.97,4.57
			c1.91,1.66,3.67,4.48,5.76,4.74c5.44,0.68,11.01,0.23,17.7,0.23c0,22.83,0,44.22,0,66.3c4.07-0.37,6.87-0.62,10.48-0.94
			C856.15,320.15,856.15,299.01,856.15,276.65z M841.82,183.68c6.56,20.19,12.75,39.78,19.48,59.18c0.79,2.28,4.72,4.97,7,4.81
			c2.39-0.17,5.67-3.12,6.63-5.6c5.28-13.6,10.01-27.42,14.86-41.19c2.02-5.73,3.87-11.52,5.76-17.19c-7.47-2.94-10.16,0.15-12,5.79
			c-4.73,14.52-9.8,28.93-15.29,45c-5.21-16.36-10.1-30.8-14.32-45.43C852.1,182.66,848.8,181.23,841.82,183.68z M671.57,370.24
			c0,18.08,0,34.86,0,51.51c17.55,4.24,32.3,0.37,39.26-10.01c6.21-9.27,6.47-24.67-0.26-32.82
			C700.12,366.25,686.21,367.9,671.57,370.24z M1019.98,237.85c2.44,3.99,3.58,8.25,5.6,8.72c6.02,1.38,12.51,2.25,18.6,1.52
			c8.58-1.02,14.79-6.15,16.32-15.17c1.62-9.48-2.89-16.01-11.11-20.24c-4.13-2.13-8.99-3.29-12.42-6.18
			c-2.62-2.2-5.32-6.85-4.69-9.67c0.66-2.92,4.96-5.85,8.29-7.08c2.76-1.01,6.46,0.88,9.69,0.67c2.36-0.15,4.63-1.61,6.94-2.49
			c-1.73-1.88-3.13-4.48-5.27-5.45c-2.6-1.18-5.83-1.34-8.79-1.33c-11.18,0.06-19.23,5.82-21.04,14.75
			c-1.8,8.89,2.63,15.84,13.26,20.79c3.31,1.54,7.43,2.28,9.76,4.73c2.66,2.8,5.83,7.76,4.95,10.6c-1.07,3.45-5.84,7.37-9.54,8.01
			C1035.28,240.94,1029.54,239.05,1019.98,237.85z M995.05,390.52c0-5.23,0.44-9.84-0.18-14.31c-0.32-2.36-2.47-4.47-3.8-6.69
			c-1.43,2.07-4.03,4.1-4.09,6.21c-0.37,13.61-0.37,27.24,0,40.85c0.06,2.08,2.72,4.08,4.17,6.12c1.29-1.94,3.51-3.8,3.69-5.83
			c0.5-5.82,0.18-11.71,0.18-17.87c8.57,0,15.7,0,23.92,0c0,6.51-0.33,12.44,0.19,18.3c0.17,1.91,2.56,3.62,3.94,5.42
			c1.39-1.8,3.95-3.58,3.99-5.41c0.33-14.28,0.33-28.57-0.02-42.85c-0.04-1.67-2.88-3.27-4.43-4.91c-1.22,1.61-3.34,3.15-3.5,4.85
			c-0.47,5.16-0.17,10.4-0.17,16.12C1010.49,390.52,1003.38,390.52,995.05,390.52z M1260.97,376.42c5.88,0,10.54,0.37,15.09-0.17
			c2.01-0.24,3.8-2.33,5.69-3.58c-2-1.14-3.94-3.09-6.02-3.26c-5.61-0.45-11.39-0.8-16.88,0.15c-2.41,0.42-6,4-6.09,6.27
			c-0.57,13.57-0.52,27.19-0.03,40.78c0.08,2.16,3.24,5.77,5.3,6.01c6.55,0.78,13.27,0.52,19.88,0.11c1.67-0.1,3.22-2.28,4.82-3.51
			c-1.77-1.06-3.47-2.89-5.31-3.04c-5.2-0.42-10.45-0.15-16.04-0.15c0-6.44,0-11.77,0-16.19c6.54-4.01,15.15,2.38,20.91-7.42
			c-8.29-0.43-14.7-0.76-21.33-1.1C1260.97,386.06,1260.97,381.87,1260.97,376.42z M771.62,376.39c5.93,0,10.89,0.31,15.77-0.17
			c1.71-0.16,3.23-2.24,4.84-3.44c-1.67-1.16-3.24-3.12-5.02-3.33c-4.26-0.51-8.67,0.2-12.93-0.3c-8.42-0.98-12.36,1.63-11.34,10.84
			c0.76,6.88,0.15,13.92,0.15,20.89c0,23.71,0,23.71,23.71,22.07c0.66-0.05,1.52,0.21,1.96-0.11c1.6-1.17,3.05-2.53,4.57-3.82
			c-1.48-0.98-2.92-2.7-4.46-2.8c-5.53-0.34-11.1-0.13-17.08-0.13c0-6.38,0-11.5,0-16.55c6.96-1.07,13.33-2.05,19.7-3.03
			c-0.15-1.32-0.29-2.64-0.44-3.97c-3.11-0.23-6.22-0.56-9.34-0.68c-3.22-0.12-6.44-0.03-10.08-0.03
			C771.62,386.36,771.62,382.14,771.62,376.39z M941.86,415.34c-6.99,0.64-10.26,1.14-13.55,1.2c-12.38,0.22-19.85-7.04-20.24-19.49
			c-0.47-15.07,8.67-22.59,25.29-21.14c2.05,0.18,4.24-1.3,6.37-2.02c-1.29-1.56-2.27-3.89-3.92-4.54
			c-9.92-3.9-24.92,1.13-31.17,10.11c-7.28,10.47-6.94,26.07,0.76,35.4c6.44,7.8,21.94,11.72,31.1,7.49
			C938.17,421.57,939.05,419.12,941.86,415.34z M827.55,183.96c-1.02-0.86-2.05-1.71-3.07-2.57c-2.11,2.2-5.97,4.35-6.04,6.6
			c-0.5,18.21-0.43,36.44-0.05,54.66c0.04,1.8,3.35,3.54,5.13,5.31c1.34-1.83,3.82-3.64,3.85-5.48
			C827.66,222.97,827.55,203.47,827.55,183.96z M1173.46,416.02c0-14.31,0.18-26.93-0.16-39.53c-0.06-2.35-2.21-4.64-3.4-6.96
			c-1.46,2.41-4,4.74-4.17,7.24c-0.54,7.95-0.21,15.95-0.21,23.93c0,23.6,0,23.69,23.62,22.1c2.28-0.15,4.42-2.38,6.63-3.65
			c-2.08-1.05-4.1-2.8-6.27-3C1184.62,415.7,1179.67,416.02,1173.46,416.02z M1087.9,214.84c0-8.65,0.29-17.31-0.2-25.93
			c-0.12-2.18-2.71-4.22-4.16-6.32c-1.67,1.86-4.76,3.7-4.8,5.59c-0.37,17.95-0.37,35.92-0.01,53.87c0.04,1.98,2.99,3.91,4.59,5.86
			c1.53-2.05,4.25-4.03,4.37-6.15C1088.18,232.82,1087.89,223.82,1087.9,214.84z M1089.88,394.77c0,7.32-0.26,14.65,0.17,21.94
			c0.12,2.04,2.3,3.97,3.53,5.95c1.41-2.1,3.99-4.16,4.05-6.3c0.37-13.62,0.33-27.27,0.03-40.89c-0.05-2-2.25-3.94-3.45-5.91
			c-1.45,2.09-3.94,4.08-4.14,6.29C1089.5,382.1,1089.87,388.45,1089.88,394.77z"/>
		<path class="st0" d="M584.72,44.62c0,4.44,0,8,0,11.57c0,162.31-0.11,324.63,0.25,486.94c0.02,10.31-2.79,12.61-12.77,12.58
			c-132.57-0.34-265.15-0.33-397.73,0c-9.88,0.02-11.97-2.97-11.95-12.35c0.28-162.65,0.28-325.29,0-487.94
			c-0.02-9.29,2.67-11.58,11.73-11.56c132.91,0.28,265.82,0.19,398.73,0.21C576.54,44.07,580.1,44.39,584.72,44.62z M504,162.6
			c-87.1,0-174.43,0-261.28,0c0,45.74-1.21,90.64,0.49,135.43c0.9,23.69,4.5,47.87,10.99,70.66
			c17.45,61.28,61.26,100.41,115.61,129.43c2.29,1.23,6.57,0.64,9.05-0.7c9.35-5.07,18.6-10.41,27.42-16.34
			c49.4-33.21,82.78-77.41,92.95-137.12c10.13-59.44,5.24-119.41,5.87-179.18C505.1,164.22,504.54,163.64,504,162.6z M365.6,127.25
			c0-10.55,0-18.15,0-26.27c-2.42,0.36-4.82,0.71-6.86,1.01c0.91,3.73,1.66,6.8,2.75,11.26c-6.96-4.78-12.18-8.37-18.79-12.91
			c1.13,8.49,2.16,13.85,2.35,19.25c0.06,1.56-2.27,3.22-3.51,4.83c-1.16-1.38-3.16-2.67-3.33-4.17c-0.66-5.57-0.73-11.2-1.04-17.28
			c-2.91,0.47-5.78,0.92-7.64,1.22c1.06,8.25,2.04,15.93,3.06,23.87c5.84-0.52,12.07-1.07,18.31-1.63
			c-0.55-4.16-1.07-8.07-1.94-14.67C355.23,117.6,359.43,121.5,365.6,127.25z M413.08,125.22c1.51-7.98,2.68-14.15,4.02-21.22
			c-2.39-0.27-5.42-0.62-7.46-0.85c-0.91,7.59-1.72,14.37-2.53,21.16c-1.19,0.24-2.37,0.49-3.56,0.73
			c-3.8-7.89-7.59-15.77-12.16-25.25c-5,9.61-8.99,17.29-13.04,25.07c1.13,0.38,2.01,0.95,2.33,0.73c2.94-2.09,6.01-6.3,8.6-6.01
			c3.17,0.36,5.57,5.82,8.9,6.66c7.01,1.75,14.4,2.37,21.66,2.48c2.65,0.04,5.34-2.7,8.01-4.17c-0.44-0.59-0.87-1.19-1.31-1.78
			C422.66,123.48,418.77,124.19,413.08,125.22z M499.96,149.05c3.17-7.69,6.14-14.89,9.13-22.15c-8.93-7.57-11.17,7.46-18.25,6.54
			c-2.66-5.6,2.64-14.65-6.85-15.87c-3.31,7.51-6.46,14.67-9.8,22.25c1.54,0.53,3.89,1.35,6.12,2.12c0.81-3.49,1.51-6.45,2.2-9.42
			c0.63,0.14,1.25,0.28,1.88,0.42c0.52,3.43,1.04,6.86,1.75,11.54c4.01-2.95,7.16-5.28,10.32-7.61c0.37,0.34,0.74,0.68,1.11,1.02
			c-1.73,2.77-3.47,5.55-5.4,8.64C495.19,147.5,497.96,148.4,499.96,149.05z M247.95,151.48c5.82-4.75,12.37-8.86,16.94-14.56
			c1.37-1.71-1.61-9.37-4.62-11.64c-7.85-5.95-15.65-0.93-22.29,1.81C241.05,134.6,243.97,141.74,247.95,151.48z M263.89,117.74
			c2.04,4.58,3,8.56,5.31,11.48c2.95,3.72,6.55,8.02,10.72,9.27c2.4,0.72,9.11-3.89,9.27-6.4c0.44-6.79-1.58-13.74-2.69-21.05
			c-2.72,1.09-5.02,2.01-7.44,2.97c0.67,1.11,1.14,1.63,1.31,2.23c1.56,5.42,3.14,10.84,4.36,16.34c0.05,0.24-4.8,1.96-4.88,1.79
			c-2.47-5.08-4.68-10.3-6.77-15.55c-0.37-0.92-0.05-2.12-0.05-3.61C269.54,116.18,267.03,116.87,263.89,117.74z M462.62,111.77
			c-2.91-0.49-5.66-0.95-8.04-1.36c-1.1,5.1-2.07,9.53-3,13.97c-1.26,6.04,0.44,10.51,6.85,12.19c6,1.57,10.39-0.34,12.66-6.35
			c1.79-4.76,3.59-9.51,5.58-14.76c-2.19-0.35-4.55-0.72-6.32-1c-1.14,5.32-1.53,9.99-3.29,14.07c-0.85,1.97-4.28,2.84-6.54,4.2
			c-0.98-2.14-3.09-4.49-2.73-6.37C458.65,121.78,460.66,117.39,462.62,111.77z M316.48,112.57c-3.17-2.13-5.6-5.12-8.13-5.2
			c-7.48-0.24-14.05,2.22-15.03,11.01c-0.87,7.75,2.92,12.94,10.56,14.34c6.04,1.11,10.67-1.41,13.02-5.11
			c-5.72-0.81-11.24-0.39-15.13-2.7c-1.78-1.05-1.92-8.95,0.07-11.09C303.79,111.72,309.37,112.97,316.48,112.57z M448.05,115.99
			c0.66-0.31,1.32-0.62,1.98-0.93c-0.9-2.15-1.6-6.03-2.75-6.17c-6.39-0.76-12.9-0.62-19.36-0.61c-0.11,0-0.2,2.36-0.35,4.09
			c2.71-0.78,4.89-1.4,8.74-2.5c-2.06,7.61-3.71,13.7-5.56,20.51c2.5,0.3,5.52,0.66,7.7,0.92c1.21-7.05,2.27-13.21,3.56-20.72
			C444.98,113.24,446.52,114.62,448.05,115.99z"/>
		<path class="st0" d="M898.95,305.89c0.4-3.82,0.52-6.16,0.91-8.44c2.34-13.76,11.22-22.56,22.62-22.51
			c11.4,0.04,20.63,8.85,22.28,22.7c0.76,6.43,0.33,13.35-1.24,19.63c-2.87,11.48-11.1,17.68-21.24,17.67
			c-9.97-0.02-17.85-6.42-21.26-17.81C899.81,313.03,899.45,308.69,898.95,305.89z"/>
		<path class="st0" d="M1113.66,305.71c-1.44,5.08-2.51,10.99-4.79,16.39c-3.35,7.95-9.7,12.5-18.59,12.77
			c-9.36,0.28-17.28-4.06-19.51-12.53c-2.51-9.54-3.34-20.19-1.92-29.92c1.62-11.06,10.53-17.15,20.17-17.44
			c9.61-0.29,17.72,5.62,21.42,16.24C1111.95,295.53,1112.47,300.19,1113.66,305.71z"/>
		<path class="st0" d="M1267.36,280.11c3.81,11.2,6.79,19.99,10.12,29.77c-6.84,0-12.82,0-19.85,0
			C1260.63,300.67,1263.6,291.59,1267.36,280.11z"/>
		<path class="st0" d="M702.48,279.55c3.71,11.29,6.79,20.68,10.09,30.7c-6.74,0-12.64,0-19.77,0
			C695.89,300.43,698.82,291.12,702.48,279.55z"/>
		<path class="st0" d="M1256.09,190.37c11.57-1.89,21.82-1.16,29.35,8.23c5.89,7.35,5.98,22.78,0.4,31.17
			c-7.04,10.58-17.62,11.61-29.75,10.19C1256.09,223.65,1256.09,207.59,1256.09,190.37z"/>
		<path class="st0" d="M1119.05,240.18c0-15.7-0.29-29.97,0.3-44.21c0.09-2.26,3.88-5.9,6.36-6.27c13.81-2.09,25.45,6.3,27.21,18.79
			c2.46,17.52-5.39,29.61-20.82,31.62C1128.26,240.6,1124.29,240.18,1119.05,240.18z"/>
		<path class="st0" d="M973,211.66c4.5-7.54-6.53-18.8,7.42-22.07c8.77-2.06,15.14,3.8,15.08,11.23
			C995.44,209.64,989.21,213.09,973,211.66z"/>
		<path class="st0" d="M1193.33,219.45c2.75-8.38,5.29-16.1,8.46-25.74c3.16,9.57,5.68,17.18,8.5,25.74
			C1204.33,219.45,1199.34,219.45,1193.33,219.45z"/>
		<path class="st0" d="M679.66,376.51c9.25-1.52,17.91-1.76,23.69,6.41c5.47,7.75,5.02,16.59,0.5,24.49
			c-5.15,8.99-14.05,9.99-24.19,8.59C679.66,402.9,679.66,389.9,679.66,376.51z"/>
		<path class="st0" d="M254.13,173.82c79.99,0,159.07,0,237.89,0c0.61,1.06,1.2,1.61,1.2,2.17c-0.28,52.12,3.1,104.3-3.82,156.29
			c-7.87,59.12-37.93,104.4-86.88,136.96c-34.76,23.12-22.96,23.04-58.1-0.25c-55.19-36.57-85.32-88.68-88.45-154.88
			c-2.12-44.78-1.81-89.67-2.54-134.51C253.4,177.98,253.81,176.35,254.13,173.82z M285.98,269.09c10.24,3.53,9.63,11.51,9.44,19.65
			c-0.26,11.29-0.38,22.61,0.13,33.88c0.74,16.28,10.42,25.7,26.55,26.51c3.98,0.2,8,0.21,11.97-0.04
			c15.66-0.99,25.12-10.33,25.9-26.08c0.46-9.28,0.08-18.6,0.18-27.9c0.1-9.84-2.33-20.74,10.27-25.51c-9.13,0-18.26,0-25.46,0
			c2.82,4.22,7.73,8.25,8.02,12.59c0.95,14.21,0.9,28.58-0.06,42.8c-0.88,12.99-9.29,18.67-23.84,17.99
			c-12.33-0.58-18.94-6.89-19.4-19.37c-0.4-10.95-0.25-21.93-0.13-32.89c0.09-8.44-3.02-18.5,9.81-21.63
			C308.23,269.09,297.1,269.09,285.98,269.09z M418.3,264.6c-6.73,14.72-12.1,27.48-18.32,39.81c-7.25,14.38-10.5,30.99-23.97,42.64
			c8.49,0,16.14,0,25.24,0c-9.67-5.76-9.22-5.62-6.46-14.47c2.45-7.88,6.72-11.51,15.16-10.25c3.91,0.58,8.12,0.78,11.94-0.03
			c10.49-2.22,12.77,5.61,14.52,12.37c0.95,3.68-1.68,8.29-2.68,12.39c8.14,0,18.15,0,27.13,0c-3.49-5.15-7.51-9.79-10.1-15.11
			c-9.16-18.8-17.82-37.85-26.73-56.78C422.69,272.31,421.02,269.6,418.3,264.6z"/>
		<path class="st0" d="M252.05,143.3c-2.1-4.88-4.2-9.76-6.3-14.64c0.86-0.94,1.72-1.89,2.58-2.83c3.45,2.32,8.33,3.96,9.88,7.19
			c1.22,2.54-1.67,7.04-2.74,10.67C254.34,143.56,253.2,143.43,252.05,143.3z"/>
		<path class="st0" d="M428.75,316.15c-9.5,0-17.03,0-26.49,0c4.27-9.86,8.17-18.86,13.01-30.05
			C420.23,297.16,424.27,306.16,428.75,316.15z"/>
	</g>
</g>
<g id="Capa_2">
</g>
</svg>
