<?xml version="1.0" encoding="utf-8"?>
<!-- Generator: Adobe Illustrator 25.2.1, SVG Export Plug-In . SVG Version: 6.00 Build 0)  -->
<svg version="1.1" id="Capa_1" xmlns="http://www.w3.org/2000/svg" xmlns:xlink="http://www.w3.org/1999/xlink" x="0px" y="0px"
	 viewBox="0 0 433.8 338.6" style="enable-background:new 0 0 433.8 338.6;" xml:space="preserve">
<style type="text/css">
	.st0{fill:#EBEAE5;}
	.st1{fill:#D7D5D2;}
	.st2{fill:#25A5BB;}
	.st3{fill:#2CABC0;}
	.st4{fill:#A8A8A6;}
	.st5{fill:#999C9A;}
	.st6{fill:#878B8B;}
	.st7{fill:#66696A;}
	.st8{fill:#4E5152;}
	.st9{fill:#29B1C6;}
	.st10{fill:#BAB9B8;}
	.st11{fill:#A4C88B;}
	.st12{fill:#D5572F;}
	.st13{fill:#F0EDB4;}
	.st14{fill:#9A2717;}
</style>
<path class="st0" d="M265.6,191c-0.1,4-3.3,9.1-7,10.1c-1.7,0.5-2.6,1-1.2,3.3c1.5,2.6,3.3,3,5.8,2.6c3.5-0.7,7-0.4,10.5,0.1
	c5.4,0.8,10.9,1.5,16.3,2.3c4.6,0.6,9.2,1.2,13.8,1.9c6.1,0.9,12.2,1.8,18.3,2.7c7.2,1,14.5,2.1,21.7,3.1c8.5,1.1,16.9,2.4,25.3,3.5
	c4.5,0.6,9,1.3,13.6,1.9c5.2,0.7,10.4,1.5,15.6,2.2c4.4,0.6,8.8,1.2,13.1,1.9c4.1,0.6,8.3,1.4,12.4,1.7c2.8,0.2,5.6,0.8,8.3,1.7
	c2.2,0.7,2.3,1.8,0.5,3.4c-2.5-0.2-4.7,1.2-7,1.9c-3.9,1.1-7.8,2.3-11.7,3.6c-7.3,2.4-14.5,4.9-21.8,7.4c-1.8,0.6-3.5,0.7-5-0.7
	c-0.7-0.1-1.2-0.7-1.9-0.5c-0.6-0.2-1.3-0.6-1.9-0.7c-8-1.5-15.9-3-23.9-4.5c-9.7-1.8-19.4-3.4-29.1-5.3c-4.5-0.8-8.9-1.4-13.4,0
	c-3.4,1.1-6.8,2.3-10.3,2.8c-3.5,0.4-6.7,1.7-10.1,2.3c-3.8,0.7-7.5,2.1-11.4,2.9c-3.8,0.8-7.5,1.7-11.2,2.7c-4,1.1-8,2.2-12.1,3
	c-2.4,0.5-4.7,0.8-7.1,1.5c-1,0.3-1.9,1-2.9,1c-4.3,0.3-8.4,1.6-12.5,2.6c-7.7,1.8-15.3,3.5-23,5.4c-1,0.2-2.4,0-2.9,1.5
	c-0.6,0.1-1.3,0.2-1.3,1c0,0.8,0.7,0.8,1.3,1c10.4,3.3,20.7,6.6,31.1,10c7.2,2.3,14.4,4.7,21.6,6.9c3.8,1.2,7.4,3.1,11.4,3
	c1.3,1.1-0.2,1.1-0.6,1.3c-7.2,2.4-14.4,4.7-21.7,7.1c-4.4,1.4-8.7,3-13,4.3c-5.3,1.6-10.5,3.6-15.8,5.1c-7.7,2.2-15.2,5.3-22.9,7.3
	c-4.3,1.1-8.5,2.9-12.7,4.3c-3.7,1.2-7.5,2.3-11.1,3.6c-5.5,2.1-11.4,3-17.1,4.2c-5.3,1.1-10.9,0.7-16.3,0.5
	c-2.2-0.1-4.5-0.4-6.7-1.2c-2.2-0.8-4-2.1-6-3.3c-5-3-10.1-5.9-15-9c-5.5-3.4-11-6.8-16.5-10.2c-5.3-3.2-10.7-6.4-16.1-9.6
	c-8.1-4.7-15.9-9.7-23.9-14.5c-7.2-4.3-14.4-8.6-21.6-13c-4.4-2.7-8.7-5.7-13.2-8.2c-1.7-0.9-3.1-2.6-5.3-2.5
	c-1.7-1.6-1.8-2,0.3-3.1c1.8-1,3.8-1.6,5.8-2c3.8-0.6,7.5-1.8,11.4-2c1.2-0.1,2.1-0.7,1.9-2.3c-0.1-1.7,0-3.4,0-5
	c1.8-0.5,3.6-1,5.4-1.5c-6.6,0-13,0-19.1-2.8c-1.4-0.6-2.9-0.3-3.4,1.6c-5.4-3.1-9.1-7.5-9.6-13.9c-0.7-8.2-1.3-16.4-1.9-24.6
	c-0.1-0.7-0.3-1.3-0.4-2c-0.2-2.2,0.4-4.5-0.5-6.6c0.1-0.7,0.5-1.2,0.4-2c-0.4-2.9-0.5-5.8-0.9-8.6c-0.4-3.2,0-6.5-0.5-9.6
	c-1.3-8.1-1.3-16.3-2.1-24.4c-0.8-8-1.5-16.1-1.8-24.2c-0.3-8.3-1.9-16.4-1.6-24.7c0-0.7,0.3-1.6-0.9-1.8c0.2-8.8-1.2-17.6-1.4-26.4
	c0-1.1-0.4-2.1-0.9-3c0.9-2.1,0.6-4.3,0.4-6.4c-0.6-5.3-1.2-10.6-1.3-16C1.2,30.7-0.2,24.2,0,17.6C0.2,10.9,3.1,5.5,8.8,1.9
	c1.9-1.2,4.6-1.6,7-1.8c4.2-0.4,8.4,0.2,12.5,0.9c6.1,1.1,12.1,2.3,18.2,3.3c4,0.7,8.1,1.5,12.1,2.3c7.6,1.5,15.3,2.7,22.9,4.3
	c7.1,1.5,14.3,2.7,21.5,3.9c6.1,1,12.1,2.1,18.2,3.3c5.7,1.1,11.4,2.1,17,3.2c6.6,1.3,13.2,2.2,19.8,3.6c4.2,0.9,8.4,1.7,12.6,2.4
	c5.8,1,11.7,2.1,17.5,3.2c3.9,0.7,7.8,1.5,11.6,2.2c6.1,1.1,12.2,2.4,18.4,3.3c5.2,0.8,10.3,2.2,14.3,6.1c3.3,3.2,4.5,7.4,5.5,11.6
	c0.4,1.9,0.3,4,1.4,5.7c0.1,0.7,0,1.4,0.2,2c1,5.4,1.9,10.8,3.2,16.2c0.8,3.6,1.1,7.4,2.7,10.8c0.8,1.5,0.1,3.2,0.4,4.7
	c2.2,10.8,4.4,21.6,6.6,32.4c1.6,7.8,3.3,15.6,4.9,23.4c1.6,7.7,3.1,15.4,4.6,23c0.1,0.7,0.3,1.2,1,1.3
	C263.2,179.4,265,185.2,265.6,191z M255,193.7L255,193.7c0.7-0.2,1.2-0.6,1.4-1.4c0.1-0.1,0.1-0.2,0.1-0.3c0.1-0.2,0.3-0.4,0.4-0.6
	c0.3-0.2,0.4-0.6,0.4-0.9c0.3-0.2,0.5-0.5,0.4-0.9c0.1-0.4,0.1-0.8,0.2-1.2c1.3-2.3,1-4.5,0-6.8c-0.1-0.6-0.2-1.2-0.2-1.8
	c-0.1-0.2-0.2-0.3-0.2-0.5c0-0.2-0.1-0.3-0.1-0.5c0.2-1.6-0.1-3.1-0.8-4.6c-0.1-0.3-0.1-0.6-0.2-0.9c-0.4-1.9-0.1-3.9-1.2-5.6
	c0-0.3-0.1-0.6-0.1-0.9c-0.4-2-0.2-4.2-1.3-6.1c0-0.3-0.1-0.6-0.1-0.9c-0.5-1.7,0-3.7-1.3-5.2c0.1-0.9,0-1.8-0.3-2.6
	c0.2-0.4,0-0.7-0.3-0.9c0-0.3-0.1-0.6-0.1-1c0.2-1.2-0.3-2.2-0.7-3.3c0-0.1,0-0.3-0.1-0.4c-0.4-2.2-0.4-4.4-1.3-6.5
	c0-0.1,0-0.3-0.1-0.4c-0.4-2.2-0.4-4.4-1.3-6.5c0-0.1,0-0.3-0.1-0.4c-0.4-2.2-0.4-4.4-1.3-6.5c0-0.1,0-0.3-0.1-0.4
	c-0.3-2.2-0.4-4.4-1.3-6.5c0-0.1,0-0.3-0.1-0.4c0-0.6,0.2-1.3-0.5-1.8c-0.1-0.5-0.1-0.9-0.2-1.4c0.3-0.9,0.1-1.8-0.6-2.4
	c-0.1-0.4-0.1-0.8-0.2-1.3c0.1-0.7,0.2-1.3-0.4-1.8c-0.1-0.5-0.1-0.9-0.2-1.4c0.2-0.8,0.3-1.5-0.6-2c-0.1-0.7-0.2-1.4-0.3-2.1
	c0.2-0.5,0.2-1-0.3-1.4c-0.1-0.5-0.1-0.9-0.2-1.4c0.3-0.9,0.1-1.8-0.6-2.4c-0.1-0.4-0.1-0.8-0.2-1.3c-0.3-1.9-0.1-3.9-1.2-5.7
	c-0.1-0.6-0.2-1.1-0.2-1.7c0.2-0.5,0.2-1-0.3-1.4c-0.1-0.5-0.1-0.9-0.2-1.4c0.3-0.9,0.1-1.8-0.6-2.4c-0.1-0.4-0.1-0.8-0.2-1.3
	c-0.2-1.8-0.1-3.7-1.2-5.3c-0.1-0.9-0.2-1.7-0.3-2.6c-0.5-1.7,0-3.6-1.1-5.1c-0.1-0.6-0.2-1.2-0.2-1.8c-0.1-0.2-0.2-0.3-0.2-0.5
	c0-0.3-0.1-0.6-0.1-0.9c0-1.2,0.2-2.4-0.7-3.3c-0.1-0.7-0.2-1.5-0.3-2.2c-0.1-0.1-0.2-0.3-0.2-0.4c0-0.3-0.1-0.6-0.1-0.9
	c0.1-1.3,0.1-2.6-0.8-3.7c-0.1-0.6-0.2-1.2-0.2-1.8c-0.1-0.2-0.2-0.3-0.2-0.5c0-0.3-0.1-0.6-0.1-0.9c0-0.8,0.1-1.5-0.7-2
	c-1.4-4.9-4.8-7.8-9.3-9.6c-6.2-2.5-13-2.3-19.4-3.6c-2.1-1.8-4.9-1.2-7.3-1.7c-0.6-0.1-1.2-0.1-1.8-0.2c-2.3-1.4-5-1-7.5-1.6
	c-1.1-0.3-2.3-0.9-3.6-0.1c-0.8-0.1-1.6-0.2-2.3-0.6c-0.4-0.5-0.9-0.4-1.4-0.3c-0.5-0.1-0.9-0.1-1.4-0.2c-2.3-0.4-4.6-1.1-6.9-1.3
	c-4.2-0.4-8.4-1.4-12.6-2.1c-6-1.1-12.1-2.1-18.1-3.4c-5.8-1.2-11.7-1.9-17.5-3c-1.4-0.3-2.8,0-4.1-0.4c-5.1-1.4-10.2-2.3-15.5-2.7
	l0,0c-0.5-1.1-1.5-0.7-2.4-0.7c-0.5,0-0.9-0.1-1.4-0.1c-0.7-0.5-1.5-0.4-2.3-0.4c-6.2-0.4-12.2-2.2-18.4-3.1
	c-4.9-0.7-9.8-1.9-14.7-2.8c-7.4-1.5-14.9-2.7-22.4-4c-5.5-1-11-1.8-16.6-0.7c-3.4,0.7-6.1,2.5-8,5c-1.7,2.3-1.9,5.4-1.3,8.4
	c0.2,3.2,0.3,6.3,0.5,9.5c0,0.3,0.4,0.6,0.6,0.9c0,0.3,0,0.7,0,1c-0.3,0.2-0.3,0.5,0,0.7c0,0.3,0,0.5,0,0.8c0,0-0.1,0.1-0.1,0.1
	c0,0.1,0.1,0.2,0.1,0.3c0,0.9,0.1,1.8,0.1,2.7c0.2,3.6,0.3,7.3,0.6,10.9c0,0.6,0.4,1.1,0.7,1.7c0,0.3,0,0.5,0,0.8
	c0,0-0.1,0.1-0.1,0.1c0,0.1,0.1,0.2,0.1,0.3c0,0.9,0.1,1.8,0.1,2.7c0.2,3.7,0.2,7.5,0.7,11.2c0.2,1.5-0.1,3.1,0.7,4.5
	c0,0.3,0,0.6,0,0.9c0.2,3.6,0.3,7.3,0.6,10.9c0,0.6,0.4,1.1,0.7,1.7c0,0.3,0,0.5,0,0.8c0,0-0.1,0.1-0.1,0.1c0,0.1,0.1,0.2,0.1,0.3
	c0,0.3,0,0.6,0,0.9c0,4.7,0.4,9.4,1,14c0,0.1,0.2,0.2,0.3,0.4c0,0.7,0.1,1.5,0.1,2.2c0,4.7,0.4,9.4,1,14c0,0.1,0.2,0.2,0.3,0.4
	c0,0.7,0.1,1.5,0.1,2.2c-0.3,0.3-0.3,0.6,0,0.9c0,0.3,0,0.6,0,0.9c0.2,3.6,0.3,7.3,0.6,10.9c0,0.6,0.4,1.1,0.7,1.7
	c0,0.7,0.1,1.5,0.1,2.2c0,4.7,0.4,9.4,1,14c0,0.1,0.2,0.2,0.3,0.4c0,0.7,0.1,1.5,0.1,2.2c-0.1,4.7,0.4,9.4,1,14
	c0,0.1,0.2,0.2,0.3,0.4c0,0.7,0.1,1.5,0.1,2.2c-0.3,0.3-0.3,0.6,0,0.9c0,0.3,0,0.6,0,0.9c0.2,3.6,0.3,7.3,0.6,10.9
	c0,0.6,0.4,1.1,0.7,1.7c-0.1,7.1,1.3,14.2,1.5,21.3c0.1,2.9,1.2,5.7,2.7,7.9c3,4.3,7.4,6.9,12.8,7.7c0.2,0.5,0.5,0.7,1.1,0.7
	c3.5,0,7,0,10.6,0c0.5,0,0.9-0.2,1.1-0.7c0.4,0,0.8-0.1,1.2-0.1c3.6,0,7.1-0.2,10.6-1.4c0.6-0.1,1.2-0.1,1.8-0.2
	c2.9-0.2,5.9-0.1,8.8-1.2c0.3,0,0.6,0,0.9,0c3.1-0.3,6.3,0,9.2-1.3c0.5,0,0.9-0.1,1.4-0.1c3.1-0.2,6.3,0,9.2-1.3
	c0.6,0,1.2,0,1.8-0.1c3.1-0.2,6.2-0.2,9.2-1.3c0.5,0,0.9-0.1,1.4-0.1c2.9-0.4,6,0.1,8.8-1.3c0.5,0,0.9,0,1.4-0.1
	c3.1-0.2,6.3,0,9.2-1.3c0.6,0,1.2,0,1.9-0.1c3.1-0.2,6.2-0.2,9.2-1.3c0.3,0,0.6,0,1,0c3.1-0.4,6.3,0,9.2-1.3c0.3,0,0.6,0,0.9,0
	c3.2-0.4,6.6,0,9.7-1.4c0.3,0,0.6,0,0.9,0c3.4-0.3,6.8-0.2,10.1-1.3c0.3,0,0.6,0,1,0c3.1-0.3,6.2-0.1,9.2-1.3c0.5,0,0.9-0.1,1.4-0.1
	c3.1-0.4,6.3,0,9.2-1.3c0.3,0,0.6,0,1,0c2.9-0.1,5.7,0,8.4-1.2c0.9-0.1,1.8-0.1,2.6-0.2c3.1-0.3,6.2-0.1,9.2-1.3
	c0.5,0,0.9,0,1.4-0.1c3.1-0.4,6.3,0,9.2-1.3c0.3,0,0.6,0,0.9,0c3.1-0.3,6.3,0,9.2-1.3c0.5,0,0.9-0.1,1.4-0.1c3.8-0.2,7.8,0,11.3-2.1
	c0.2-0.1,0.5-0.1,0.7-0.2c0.2-0.1,0.4-0.2,0.6-0.3l0.2,0l0.2-0.1C254.4,195,254.8,194.5,255,193.7z M318.1,222.2
	C318.1,222.2,318.1,222.2,318.1,222.2c-0.7,0.2-1.5,0.3-2.2,0.5c-0.1,0-0.3-0.1-0.4-0.1c-0.7-0.7-1.3-0.1-1.9,0.1
	c-0.6-0.1-1.2-0.1-1.8-0.2c-0.5-1-1.5-1.1-2.5-1.2c-0.9-0.1-2.1,0.2-2.2-1.3c1,0,1.7-0.2,0.8-1.3c-1.1-1.2-2.1-2.5-3.9-2.6
	c-3-0.3-5.8-1.3-8.8-1.3c-1.2,0-2.7,0.5-3.6,0c-3.1-1.7-6.5-1.8-9.8-2.1c-4.2-0.4-8.3,0.2-12.1,2.3c-0.4-0.7-0.9-0.6-1.5-0.4
	c-0.4,0-0.8,0-1.2,0c0-0.2,0-0.5-0.1-0.7c0.6-0.2,1.8-0.1,1.2-1.1c-0.6-1-1.2-2.3-2.5-2.5c-2.9-0.6-5.9-1.4-8.8-1.3
	c-4.9,0.2-9.7,1.9-14.7,2.2c-3.9,0.2-7.6,1.8-11.6,2c-3.4,0.2-6.9,1.5-10.2,1.9c-3.6,0.4-7.2,1.2-10.8,1.2c-1.7,0-2.6,1.8-4,1.4
	c-2.5-0.8-4.7,0.3-7,0.6c-1.4,0.2-3.1-0.2-4.3,0.9c-0.7,0-1.4,0-2,0.6c-0.4,0.2-0.9,0.5-1.3,0.4c-3.9-1-7.6,0.4-11.3,1
	c-1.1,0.2-2.4-0.4-3.2,0.8c-0.4,0-0.7,0.1-0.8,0.5c-0.7,0-1.4,0.2-2,0.1c-3.8-0.4-7.3,0.4-10.9,1.5c-0.3,0-0.5,0-0.8,0
	c-1,0-2.1-0.5-2.7,0.8c-0.1,0.1-0.2,0.2-0.2,0.3c-3.9-0.1-7.9-0.1-11.7,1.1c-1.9,0.6-4.1-0.2-5.8,1.3c-0.1,0.1-0.3,0.3-0.4,0.4
	c-0.6,0.2-1.1,0.8-1.9,0.6c-3.9-1.3-7.6,0.3-11.4,0.8c-1.3,0.2-2.8-0.4-3.9,0.8c-1.3-0.2-2,0.6-2.7,1.5c-3-0.3-6-0.8-9.1,0.1
	c-3.2,0.9-6.6,0.6-9.7,1.9c-0.7,0.1-1.1,0.7-1.5,1.2c-1,0.5-2,0.4-2.9-0.1c-1.1-0.6-2.1-0.5-3.3-0.3c-3.1,0.5-6.2,0.8-9.2,1.5
	c-1.7,0.4-3.5-0.1-5,1.1c-1.4,0.7-2.1,2.1-3.1,3.2c-0.6,0.7-0.4,1.4,0.4,1.6c2.2,0.5,3.9,1.9,6,2.5c0.2,0.1,0.3,0.2,0.5,0.3
	c0.1,0,0.3,0.1,0.4,0.1c0,0.3,0.1,0.6,0.5,0.6c0.4,0,0.4-0.3,0.5-0.6c0.1-0.1,0.2-0.2,0.4-0.2c0.5,0,1,0.1,1.5,0.1
	c0.8,0.6,1.5,0.8,1.9-0.4c1.2-0.5,2.4-0.5,3.7-0.5c0.6,0.6,0.8,0.2,0.9-0.4c0.6,0,1.2-0.1,1.8-0.1c1.3,0.7,0.4,1.8,0.5,2.7
	c-1.9,2.6-1.9,2.6,1.1,3.9c0.4,0.2,0.8,0.5,1.2,0.6c2.1,0.7,4,2.1,6.3,2.2c0.4,0.1,0.9,0.1,1.3,0.2c0,0.9,0.6,1.2,1.2,1.4
	c3.3,1.3,6.5,2.9,9.9,3.9c1.1,0.6,2.5-1.3,3.5,0.3c-0.9,0.7-0.7,1.1,0.3,1.5c1.9,0.7,3.7,1.9,5.7,2.4c2.1,0.6,3.9,2.3,6.2,2.1
	c0.6,0.1,1.2,0.2,1.8,0.3c-0.8,1.3,0.3,1.5,1.1,1.9c2,0.9,3.9,2,6,2.6c2.2,0.6,3.9,2.5,6.3,2.1l0.2,0.1l0.2,0
	c4.1-0.1,7.9-1.5,11.8-2.4c11.5-2.6,22.9-5.4,34.4-8.1c0.8-0.2,1.4-0.5,1.8-1.2c0.6-0.1,1.2-0.1,1.8-0.2c1.2-0.2,2.5-0.3,3.7-0.5
	c1,0.1,2,0.1,2.8-0.8c0.3,0,0.6-0.1,0.9-0.1c0.5,0.1,1.1,0.2,1.4-0.4c0.5-0.1,0.9-0.2,1.4-0.2c0.8,0.2,1.6,0.4,2-0.6
	c6.3-1.1,12.6-2.7,18.8-4.4c0.7,0.1,1.4,0.3,1.8-0.5c0.3,0,0.6-0.1,1-0.1c0.6,0.3,0.9-0.1,1.1-0.5c0.7-0.1,1.4-0.2,2.1-0.3
	c0.5,0.1,1.1,0.3,1.4-0.4c0.5-0.1,0.9-0.1,1.4-0.2c0.7,0.3,1.2,0.2,1.5-0.6c0.4,0,0.9-0.1,1.3-0.1c0.8,0.1,1.6,0.2,2-0.7
	c0.8-0.1,1.5-0.1,2.3-0.3c5.7-1.3,11.4-2.7,17.1-4c8.2-2,16.5-3.9,24.7-5.9c1.2-0.3,3.2,0,3.4-1.2c0.2-1.3-1.6-2.3-2.6-3.3
	c-0.2-0.2-0.7-0.2-1.1-0.4c-0.3-0.8-0.9-0.9-1.6-0.7c-0.4,0-0.9,0-1.3,0c-0.5-0.3-0.9-0.7-1.4-1c0.8-0.8,1.8-0.9,2.9-1
	c0.6-0.1,1.5-0.5,1-1c-1.1-1.2-1.5-3.3-3.8-3.1c-0.3-0.8-0.9-0.9-1.6-0.7c-0.5,0-0.9-0.1-1.4-0.1c-0.5-0.3-0.4-0.8-0.5-1.3
	c0.5-0.1,0.9-0.2,1.4-0.2c0.8,0.1,1.6,0.2,2.1-0.6c1.5-0.1,4-0.9,4.3-0.3c1.3,2.3,3.5,1.2,5.2,2c-1,1.1-2.1,2.3-3.1,3.4
	c-0.3,0.4-1,0.7-0.8,1.3c0.2,0.7,1,0.7,1.5,0.8c3.4,0.6,6.8,1,10.1,1.9c5.3,1.5,10-0.8,14.9-2.1c8.5-1.5,16.7-3.7,25.1-5.6
	c3.1-0.7,3-1,0.6-3.4c-0.1-1.1-0.7-1.5-1.8-1.2c-0.3,0-0.6-0.1-0.9-0.1c-4.5-1.2-9-2.1-13.5-1.1c-1.3,0.3-3-0.4-3.9,1.2
	c-0.3,0-0.6,0-0.9,0C318.9,221.4,318.3,221.4,318.1,222.2z"/>
<path class="st1" d="M22.1,248.6c2.2-0.1,3.6,1.6,5.3,2.5c4.5,2.5,8.8,5.5,13.2,8.2c7.2,4.4,14.4,8.6,21.6,13
	c8,4.8,15.9,9.8,23.9,14.5c5.4,3.1,10.8,6.3,16.1,9.6c5.5,3.3,11,6.7,16.5,10.2c4.9,3.1,10,5.9,15,9c2,1.2,3.8,2.5,6,3.3
	c2.2,0.8,4.5,1.1,6.7,1.2c5.4,0.2,10.9,0.6,16.3-0.5c5.7-1.2,11.6-2.1,17.1-4.2c3.6-1.4,7.4-2.4,11.1-3.6c4.2-1.4,8.4-3.2,12.7-4.3
	c7.8-2,15.2-5.1,22.9-7.3c5.3-1.5,10.5-3.5,15.8-5.1c4.4-1.3,8.7-2.9,13-4.3c7.2-2.4,14.4-4.7,21.7-7.1c0.5-0.2,1.9-0.1,0.6-1.3
	c1.6-0.3,3.2-0.4,4.7-0.9c9.3-3.3,18.7-6.1,28-9.2c15-4.9,29.9-9.9,44.9-14.8c10.2-3.3,20.3-6.6,30.5-9.8c1-0.3,2-0.7,1.3-2.1
	c1.5,1.4,3.2,1.3,5,0.7c7.3-2.5,14.5-5,21.8-7.4c3.9-1.3,7.8-2.5,11.7-3.6c2.3-0.7,4.5-2,7-1.9c-2,4.5-4.7,8.7-7.4,12.9
	c-1.1,1.8-3.2,1.6-4.9,2.2c-9.1,3.4-18.1,6.8-27.3,10c-8.6,3-17.2,6.2-25.9,9.2c-8.7,3-17.3,6.4-26,9.6c-9.4,3.4-18.8,6.7-28.2,10.1
	c-5.1,1.8-10.1,4-15.2,5.7c-8.5,2.8-16.9,6.1-25.4,9.1c-6.8,2.4-13.6,4.8-20.3,7.5c-4,1.6-8.2,2.9-12.3,4.4
	c-6.4,2.4-12.8,4.7-19.3,6.9c-8.9,3-17.6,6.4-26.4,9.5c-5.3,1.8-10.5,4.2-16,5.5c-8,1.9-16.1,3.1-24.3,2.6
	c-6.2-0.4-11.5-3.3-16.5-6.8c-5.8-4.1-11.8-7.9-17.8-11.8c-7.7-5-15.3-10.1-23-15.1c-5.8-3.8-11.7-7.6-17.5-11.4
	c-7.5-4.9-15.1-9.9-22.6-14.9c-5.8-3.8-11.4-7.8-17.3-11.2c-6.2-3.6-10.9-8.4-14.3-14.7C24,251.2,22.6,250.2,22.1,248.6z"/>
<path class="st1" d="M24.5,231.5c0.5-1.9,2.1-2.3,3.4-1.6c6.1,2.9,12.6,2.8,19.1,2.8c-1.8,0.5-3.6,1-5.4,1.5
	c-2.1-0.9-4.4-0.5-6.6-0.3c-3.3,0.2-6.3-0.9-9.2-2.1C25.4,231.6,24.9,231.6,24.5,231.5z"/>
<path class="st2" d="M18.1,55.8c0-0.9-0.1-1.8-0.1-2.7c0-0.2,0-0.3,0-0.5c0-0.3,0-0.5,0-0.8c0.4-3.8-0.7-7.6-0.4-11.4
	c0-0.6-0.1-1.1-0.8-1.2c0-0.9-0.1-1.8-0.1-2.7c0-0.2,0-0.3,0-0.5c0-0.3,0-0.5,0-0.8c0-0.2,0-0.5,0-0.7c0-0.3,0-0.7,0-1
	c0.4-3.2-0.7-6.3-0.4-9.5c0-0.4-0.3-0.7-0.7-0.8c-0.6-3-0.4-6.1,1.3-8.4c1.9-2.5,4.6-4.3,8-5c5.6-1.1,11.1-0.3,16.6,0.7
	c7.5,1.3,15,2.5,22.4,4c4.9,1,9.8,2.1,14.7,2.8c6.2,0.9,12.2,2.6,18.4,3.1c0.6,0.7,1.5,0.3,2.3,0.4c0.5,0,0.9,0.1,1.4,0.1
	c0.4,1.4,1.5,0.6,2.4,0.7c0,0,0,0,0,0c-0.4,1.5-1.5,1-2.4,0.9c-4.3-0.3-8.6-0.9-12.9-1.4c-3.1-0.3-6.1,0.8-9.1-0.2
	c-0.6-0.2-1,0.3-1.4,0.5c-2.5,1.1-4.2,3.8-7.4,3.2c-0.7-0.1-1.9,0.4-2.1,1.2c-0.5,2.4-2.1,2.2-3.8,2c-2.1-0.3-3.8,0.8-4.4,2.9
	c-0.4,1.3-1.2,1.9-2.6,1.4c-1.2-0.4-2,0.3-2.2,1.4c-0.4,2,1.6,4.4,3.7,4.7c0.8,0.1,1.5,0.1,2.3,0.1c0.9,0,1.5,0.3,1.7,1.2
	c-2.1,0.4-3.9-1-6-0.6c-0.5-0.1-1-0.2-1.5-0.3c-2.8-0.4-5.7-0.9-8.5-1.2c-1.7-0.2-3.4-0.9-5.1,0.1c-0.9-0.1-1.7-0.2-2.2,0.7
	c-0.9,1.8,0.6,6.7,2.4,8c1.1,0.9,2.5,1.1,3.8,1.3c10.3,1.3,20.6,2.6,31,3.8c-1.2,0.7-2.7,1-3.3,2.4C72.8,54,72.1,54,71.7,54
	c-1.8,0-2.2,0.8-1.1,2.1c0.9,1,0.5,1.6,0.1,2.8c-0.7,2.1-2.4,3.5-3.3,5.5c-1,2.2-3.1,3.9-3.5,6.5c0,0.1-0.2,0.3-0.3,0.3
	c-2.6,1.2-3.2,3.2-2.8,5.8c0.2,1.7-0.2,3.2-2,3.6c-1.3,0.3-3.9-1.6-4.3-2.9c-0.2-0.6-0.4-1.5,0.1-1.7c2.2-1,1.9-3.1,2.4-5
	c0.4-1.2,1.4-2.2,0.8-3.6c-0.2-0.4,0.3-0.9,0.7-1.1c1.5-0.5,1.4-2.5,2.9-3.1c0.4-0.1,0.4-0.7,0.2-1c-0.3-0.5-0.8-0.4-1.2-0.1
	c-0.4,0.4-0.7,0.8-1,1.2c-2.6,3-3.9,6.9-6.3,10.1c-0.8,1.1-1.3,2.4-2.7,1.3c-1.2-0.9-0.5-2,0-3.2c0.8-1.8,3.1-2.6,3-4.9
	c0-1.2,0.2-2.3,1.2-3.1c0.4-0.3,0.8-0.8,0.6-1.4c-0.5-1.1,0.1-1.9,0.8-2.7c0.8-1.1,1.3-2.4,2.3-3.4c0.5-0.5,0.4-1.4-0.2-1.8
	c-0.7-0.4-1.5-1-2.3-0.4c-0.6,0.4-1,1-0.5,1.7c0.8,1.1,0.3,2-0.5,2.9c-0.7,0.8-1.3,1.6-1.2,2.6c0.1,1.2-0.5,2-1.5,2.6
	c-0.6,0.3-1.4,0.9-1.4,1.4c-0.3,2.5-0.4,5-2.5,6.7c1.2,2.7-1.4,3.9-2.4,5.6c-1.2,2.1-1.3,3.5,0.5,5c-0.2,0.2-0.4,0.4-0.6,0.6
	c-0.7,0.1-1.5,0-2,0.9c-1.1,2.3,0.4,7.6,2.5,9c-0.1,2.3-1.5,3.6-3.4,4.8c-1.8,1.1-1.7,2.8-0.1,4.1c1.3,1.1,2.5,2.5,4,3.5
	c-1.7,2.4-0.8,4.9-0.5,7.4c0.2,1.3,0.8,2.1,2.2,2.1c0.1,0.1,0.3,0.1,0.4,0.1c0.2,0.4,0.5,0.8,1,0.4c5.2,0.2,10.5,0.4,15.7,0.5
	c-0.2,0.8-0.9,0.7-1.5,0.7c-2.2,0.3-4.4,0.9-6.5,0.8c-3.4-0.2-6.9,1.7-10.3-0.4c-1.3-0.8-1.1,0.6-1.1,1.2c0.3,3.1,0.6,6.2,0.9,9.3
	c0,0.5,0.1,1.1,0.7,1c1.4-0.1,2.3,1.2,3.7,1.1c-0.1,0.3-0.2,0.7-0.3,1c-0.7-0.1-1.2,0.2-1.7,0.6c-1.5,1.2-0.9,7.7,0.8,8.8
	c2,1.9,4.6,1,6.9,1.2c-0.5,1.7-1.9,2.2-3.4,2.5c-1,0.2-1.9,0.5-2,1.5c-0.1,1.5-0.7,2.4-2.1,2.9c-0.8,0.3-1.4,1.3-1,2.1
	c0.4,1,1.1,0.1,1.7-0.2c0.9-0.4,1.8-0.5,2.1,0.6c0.3,0.8,0.7,2-0.8,2.4c-0.9,0.2-1.9,0.6-1.5,1.6c0.4,1.1,1.6,0.9,2.3,0.3
	c2-1.6,2.4-0.4,2.7,1.3c0.1,0.5,0.1,1.1,0.3,1.6c0.9,2.1,1.5,4.5,4,5.4c0.8,0.3,1,0.8,1.1,1.5c0.3,2,0.8,3.8,2.8,5.2
	c1.7,1.1,3.7,2.4,4.3,4.6c0.7,2.4,2.5,3.3,4.6,3.9c0.8,0.2,1.4,0.6,1.4,1.2c0,1.5,1.1,2.1,2.1,2.7c0.7,0.4,1.3,0.8,1.3,1.7
	c0,0.6,0.1,1.1,0.8,1.2c1.6,0.3,2.6,1.9,4.2,2.1c0.9,0.1,1.1,0.8,0.2,1.5c-0.8,0.6-1,1.3-0.3,1.9c1,0.9,1.2-0.3,1.7-0.8
	c1.2-1.1,2.2-1.6,2.7,0.6c0.2,0.7,0.5,1.3,1.2,1.6c3.6,1.7,6.7,4.2,10.2,6c1.6,0.9,2.8,2.2,4.3,3.2c1.8,1.2,4.3,1,5.6,3.3
	c0.4,0.7,1.6,0.9,2.5,0.9c0.9,0,1.6,0.3,2.4,0.6c2.7,0.9,5.3,1.9,7.9,2.9c1.8,0.7,3.2,1.2,3.8,3c0,0.3,0,0.5,0,0.8
	c-0.5,0-0.9,0-1.4,0.1c-2.7,0.2-5.5,0.4-8.2,0.6c-0.2,0-0.4,0.4-0.6,0.6c-0.5,0-0.9,0.1-1.4,0.1c-3.1-0.4-6,0.6-9,0.9
	c-0.1,0-0.1,0.3-0.2,0.4c-0.6,0-1.2,0-1.8,0.1c-3.1-0.2-6,0.6-9,0.9c-0.1,0-0.1,0.3-0.2,0.4c-0.5,0-0.9,0.1-1.4,0.1
	c-0.3-0.1-0.6-0.4-0.8-0.3c-2.4,0.6-4.8,1-7.3,0.8c-0.6,0-1.1,0.2-1.2,0.8c-0.3,0-0.6,0-0.9,0c-1.2-1-2.5-0.1-3.4,0.2
	c-1.8,0.5-3.8-0.4-5.3,1.1c-0.6,0.1-1.2,0.1-1.8,0.2c-3.6,0.2-7.1,0.2-10.6,1.4c-0.4,0-0.8,0.1-1.2,0.1c-4.2,0-8.5,0-12.7,0
	c-5.3-0.8-9.8-3.4-12.8-7.7c-1.5-2.2-2.6-5-2.7-7.9c-0.2-7.1-1.6-14.1-1.5-21.3c0.4-3.8-0.7-7.6-0.4-11.4c0-0.6-0.1-1.1-0.8-1.2
	c0-0.3,0-0.6,0-0.9c0.4-0.3,0.4-0.6,0-0.9c0-0.7-0.1-1.5-0.1-2.2c0.4-3.9-0.6-7.7-0.5-11.6c0-0.9-0.2-2-0.8-2.8
	c0-0.7-0.1-1.5-0.1-2.2c0.4-4-0.7-8-0.5-12.1c0-0.8-0.3-1.6-0.8-2.3c0-0.7-0.1-1.5-0.1-2.2c0.4-3.8-0.7-7.6-0.4-11.4
	c0-0.6-0.1-1.1-0.8-1.2c0-0.3,0-0.6,0-0.9c0.4-0.3,0.4-0.6,0-0.9c0-0.7-0.1-1.5-0.1-2.2c0.4-3.9-0.6-7.7-0.5-11.6
	c0-0.9-0.2-2-0.8-2.8c0-0.7-0.1-1.5-0.1-2.2c0.4-3.9-0.6-7.7-0.5-11.6c0-0.9-0.2-2-0.8-2.8c0-0.3,0-0.6,0-0.9c0-0.2,0-0.3,0-0.5
	c0-0.3,0-0.5,0-0.8c0.4-3.8-0.7-7.6-0.4-11.4c0-0.6-0.1-1.1-0.8-1.2c0-0.3,0-0.6,0-0.9c0.6-1-0.2-1.9-0.1-2.8
	c0.4-3.8-0.6-7.6-0.4-11.4C18.9,56.6,18.9,56,18.1,55.8z"/>
<path class="st3" d="M124.5,212.2c-0.6-1.8-2-2.3-3.8-3c-2.6-1-5.3-2-7.9-2.9c-0.8-0.3-1.6-0.5-2.4-0.6c-0.9,0-2.1-0.2-2.5-0.9
	c-1.3-2.2-3.8-2.1-5.6-3.3c-1.5-1-2.7-2.3-4.3-3.2c-3.5-1.8-6.6-4.3-10.2-6c-0.7-0.3-1.1-0.9-1.2-1.6c-0.5-2.1-1.6-1.7-2.7-0.6
	c-0.5,0.5-0.7,1.7-1.7,0.8c-0.7-0.6-0.5-1.4,0.3-1.9c0.9-0.6,0.6-1.3-0.2-1.5c-1.7-0.3-2.6-1.8-4.2-2.1c-0.7-0.1-0.8-0.6-0.8-1.2
	c0-0.9-0.6-1.3-1.3-1.7c-1-0.6-2.1-1.2-2.1-2.7c0-0.7-0.6-1-1.4-1.2c-2.1-0.5-3.9-1.5-4.6-3.9c-0.6-2.2-2.7-3.5-4.3-4.6
	c-2.1-1.4-2.5-3.1-2.8-5.2c-0.1-0.7-0.3-1.3-1.1-1.5c-2.5-0.9-3.1-3.3-4-5.4c-0.2-0.5-0.2-1-0.3-1.6c-0.2-1.8-0.7-2.9-2.7-1.3
	c-0.7,0.6-1.9,0.9-2.3-0.3c-0.4-1,0.6-1.4,1.5-1.6c1.6-0.4,1.1-1.6,0.8-2.4c-0.3-1-1.2-1-2.1-0.6c-0.6,0.3-1.2,1.1-1.7,0.2
	c-0.4-0.8,0.2-1.8,1-2.1c1.5-0.5,2-1.4,2.1-2.9c0.1-1,1-1.3,2-1.5c1.5-0.3,2.9-0.8,3.4-2.5c7.8-0.2,15.6-0.3,23.5-0.5
	c2.7,1.3,5.5,0.8,8.2,0.3c0.1,0,0.1-0.3,0.2-0.4c3.8,0,7.7,0,11.5,0c0.1,1.2-0.6,1.4-1.6,1.3c-1.5-0.2-2.9,0.2-4.3,0.7
	c-1.1,0.4-2.4,1.1-1.8,2.5c1,2.3,2.2,4.7,3.7,6.7c1.3,1.8,4,2.4,3.9,5.3c0,0.4,0.7,0.8,1,1.2c0.4,0.5,1.1,1.1,1.1,1.7
	c0.1,2.9,2.3,4,4.4,5c2.9,1.4,5.5,3.1,7.2,5.8c0.7,1.1,1.7,2.2,2.5,2.1c3.1-0.2,3.8,4.5,7.2,3.3c0.3-0.1,0.4,0.6,0.5,0.9
	c0.8,1.6,3,1.7,3.9,3.4c0.1,0.3,0.9,0,1.3-0.2c1.6-1,3-0.7,4.5,0.3c0.7,0.4,1.5,1.2,2.3,0.7c1.4-0.8,2.2-0.1,3.5,0.4
	c1.6,0.6,3,1,4.1,2.4c0.5,0.6,1.3,0.5,2.1,0.4c1.6-0.3,3.4-0.6,5-0.4c1.9,0.3,3.8,2,5.6-0.1c0.1-0.1,0.4-0.1,0.4,0
	c1.9,1.9,4.4,0.1,6.8,0.9c1.5,0.5,4-0.5,6.2-0.5c1.1,0,2.5-1,3.6-1.8c1.1-0.7,2.3-2,3.6-1.7c1.5,0.3,2.4-0.2,3.2-1.2
	c0.9-1.1,2-1.5,3.4-1.4c1.4,0.1,2.6-0.1,3-1.8c0.2-0.6,0.6-1.2,1.4-0.8c1.7,0.7,2.4-0.5,3-1.6c0.8-1.4,1.1-3.1,2-4.3
	c1.7-2.2,4.7-3.5,4.5-6.9c0-0.2,0.2-0.4,0.4-0.6c1.2-2.2,0.4-3.6-1.8-4.7c-1.8-0.9-3.6-1.2-5.6-1.5c-1.3-0.2-3-0.3-4.1-1.5
	c0.5-0.1,0.9-0.2,1.4-0.2c11.9-0.5,23.8-0.9,35.6-1.4c1.4-0.1,2.9,0,3.7-1.6c0.1,0,0.2-0.1,0.2-0.2c0.4,0,0.6-0.2,0.7-0.5l-0.1-0.1
	c0.4-0.1,0.5-0.4,0.5-0.8l0,0c0.9-0.5,0.7-1.4,0.8-2.3c0.1-1.9-0.4-3.6-0.8-5.4c-1.6-8.3-3.1-16.6-4.7-25c0.3-1.4-0.2-2.7-0.4-4
	c-0.2-1.3,0.3-1.9,1.7-1.6c1.6,0.4,3.1,0.6,4.6-0.1c0.9,0,2.1,0.2,1.7-1.2c-0.2-0.9-0.9-1.8-2.1-0.9c-2.3-0.6-4.6-0.6-6.9-0.4
	c-0.1-0.3-0.2-0.6-0.2-0.9c-0.4-2.5-0.3-2.7,2.3-2.6c2.9,0.1,5.8,0.3,8.7,0.5c0.1,0.8-0.6,1.4-0.3,2.2c0.8,2.3,1.1,4.8,1.7,7.1
	c0.6,2.4,1.8,4.8,1.3,7.3c-0.4,2.1-1.2,4.1,0.7,5.9c0.2,0.2,0.3,0.6,0.2,0.9c-1.9,3.6,0.7,7.5-0.7,11.2c-0.8,2,0.3,4.2-0.3,6
	c-0.9,2.4-0.3,4.9-1.3,7.4c-0.9,2-0.2,4.6-1,6.9c-0.9,2.7-2.2,5.1-2.9,7.9c-0.3,1.3-1.4,3.4-3.3,4.2c-0.6,0.2-0.9,0.8-0.7,1.6
	c0.5,2.6-1.2,4.8-2.4,6.5c-2.8,4.2-7.1,7.4-9.5,12.1c-0.1,0.3-0.6,0.5-0.9,0.6c-1.1,0.3-1.8,1.2-2.4,2.1c-1.1,1.8-2.9,2.5-4.7,2.9
	c-2,0.5-2.7,0.8-0.9,2.4c0.2,0.2,0.2,0.6,0.3,0.8c-2.2,0.1-4.3,0.7-6.6,0.5c-0.6,0-1,0.3-1.3,0.8c-0.3,0-0.6,0-1,0
	c-2.9,0.2-5.8,0.4-8.7,0.6c-0.2,0-0.3,0.4-0.5,0.7c-0.5,0-0.9,0.1-1.4,0.1c-0.3-0.1-0.5-0.4-0.8-0.4c-2.4,0.5-4.9,1-7.4,0.9
	c-0.5,0-0.8,0.4-1.1,0.8c-0.3,0-0.6,0-1,0c-0.3-0.3-0.6-0.5-1-0.4c-2.6,0.6-5.2,1-7.9,0.9c-0.6,0-1.1,0.1-1.2,0.8
	c-0.3,0-0.6,0-0.9,0c-3.1-0.1-6.1,0.6-9.2,0.9c-0.2,0-0.3,0.3-0.4,0.5c-0.3,0-0.6,0-0.9,0c-1-0.6-2.2-0.1-3,0.1
	c-2,0.7-4.4-0.5-6.2,1.2c-0.3,0-0.6,0-1,0c-3.1-0.4-6,0.6-9,0.9c-0.1,0-0.1,0.3-0.2,0.4c-0.6,0-1.2,0-1.9,0.1
	C130.6,211.5,127.6,212.6,124.5,212.2z"/>
<path class="st4" d="M239.3,253.5c4.1-1,8.2-2.3,12.5-2.6c1.1-0.1,1.9-0.8,2.9-1c2.3-0.7,4.7-1,7.1-1.5c4.1-0.8,8.1-1.9,12.1-3
	c3.7-1,7.5-1.9,11.2-2.7c3.8-0.8,7.5-2.2,11.4-2.9c3.4-0.6,6.6-1.8,10.1-2.3c3.5-0.4,6.9-1.7,10.3-2.8c4.5-1.4,8.9-0.8,13.4,0
	c9.7,1.8,19.4,3.5,29.1,5.3c8,1.5,15.9,3,23.9,4.5c0.7,0.1,1.3,0.5,1.9,0.7c0,0.9-0.3,1.4-1.2,1.7c-2.9,0.9-5.8,1.9-8.7,2.8
	c-6.5,2.1-13,4.1-19.4,6.2c-9,2.9-17.8,6.2-26.9,8.9c-9.2,2.8-18.2,6-27.4,8.8c-4.9,1.5-9.8,3.1-14.8,4.6c-0.1-0.7-0.4-0.9-1.1-0.6
	c-0.5,0.2-1.2,0.7-1.7,0.5c-3.5-1.2-7.2-1-10.8-1.8c-4-0.9-7.7-2.9-11.8-3.5c-1.1-0.2-2.6,0.1-3.3-0.5c-2.8-2-6.1-2.7-9.2-4.1
	c-2-0.9-4.2-1.8-5.6-3.4c-1.4-1.6-3.6-2.7-4.2-5.1c-0.4-1.6-2.9-3.1-0.1-4.8C239.5,254.7,239.3,254,239.3,253.5z"/>
<path class="st2" d="M206.2,202c-0.1-0.3-0.1-0.7-0.3-0.8c-1.8-1.6-1.1-2,0.9-2.4c1.8-0.4,3.6-1.2,4.7-2.9c0.6-0.9,1.3-1.7,2.4-2.1
	c0.3-0.1,0.8-0.3,0.9-0.6c2.3-4.7,6.7-7.8,9.5-12.1c1.2-1.8,2.8-3.9,2.4-6.5c-0.1-0.7,0.2-1.3,0.7-1.6c1.9-0.8,3-2.9,3.3-4.2
	c0.7-2.8,2-5.2,2.9-7.9c0.8-2.3,0.1-4.9,1-6.9c1.1-2.4,0.5-5,1.3-7.4c0.7-1.8-0.4-4.1,0.3-6c1.4-3.6-1.2-7.5,0.7-11.2
	c0.1-0.2,0-0.7-0.2-0.9c-1.9-1.8-1-3.8-0.7-5.9c0.4-2.5-0.7-4.9-1.3-7.3c-0.6-2.4-0.8-4.8-1.7-7.1c-0.3-0.8,0.4-1.5,0.3-2.2
	c0,0,0.2,0,0.2,0l0.2,0c2.8,0,0.7-1.4,0.6-2.2l-0.1-0.1c-0.2-0.1-0.3-0.3-0.5-0.4l0,0c-0.4-0.5-0.9-0.5-1.4-0.5
	c-4.1-0.2-4.4-0.5-5.7-4.5c-0.5-1.6-1.2-3.1-1.8-4.6c-0.8-2.1-2.9-3.7-2.9-6c-0.1-1.8-0.8-3-1.9-4.2c0.2-0.5,0.5-1.1,1-1.4
	c0.1-0.2,0.3-0.3,0.4-0.5l0,0c1.5-1,1.6-1.7,0.5-2.7c-0.2-0.2-0.4-0.3-0.5-0.5c-0.9-0.5-1.6-1.1-2.3-2c-1-1.4-1.8-3-2.8-4.4
	c-0.9-1.2-1.8-1.9-3.4-1.9c-1.8,0-3.7-0.1-5.4-0.6c-1.5-0.4-3.3-0.5-4.1-2.3c2.8-0.3,5.5,0.8,8.3,0.7c1,0,2,0,2.3-1.3
	c0.8-0.9,0.6-4.1-0.4-5.3c-0.4-0.5-0.9-0.8-1.6-0.8c-3.5-0.4-7-0.8-10.4-1.5c-2.7-0.5-5.4-0.5-8-1.3c3-1,5.8,0.2,8.7,0.6
	c2.8,0.3,5.5,1.3,8.3,0.4c1.4-0.4,1.7-1.2,0.4-2.2c-2.7-2.3-4.4-5.4-7.5-7.5c-2.7-1.8-4.9-4.3-7.9-5.8c-4.1-2-7.6-5.5-12.6-5.6
	c-1.4,0-2.8-0.8-4.2-1.2c-0.9-0.3-1.5-0.8-1.3-1.8c0.5,0.1,0.9,0.1,1.4,0.2c0.3,1,0.8,1,1.4,0.3c0.7,0.5,1.5,0.5,2.3,0.6
	c3.6,0.8,7.3,1.9,11.1,1.8c0.6,0.1,1.2,0.1,1.8,0.2c0.1,0.4,0.3,0.7,0.8,0.7c2.2,0.3,4.4,0.6,6.5,1c6.5,1.2,13.2,1,19.4,3.6
	c4.5,1.8,7.9,4.8,9.3,9.6c-0.1,0.8-0.1,1.5,0.7,2c0,0.3,0.1,0.6,0.1,0.9c0.1,0.2,0.2,0.3,0.2,0.5c0.1,0.6,0.2,1.2,0.2,1.8
	c0,1.3-0.2,2.6,0.8,3.7c0,0.3,0.1,0.6,0.1,0.9c0.1,0.1,0.2,0.3,0.2,0.4c0.1,0.7,0.2,1.5,0.3,2.2c-0.1,1.2-0.1,2.3,0.7,3.3
	c0,0.3,0.1,0.6,0.1,0.9c0.1,0.2,0.2,0.3,0.2,0.5c0.1,0.6,0.2,1.2,0.2,1.8c-0.1,1.8,0,3.6,1.1,5.1c0.1,0.9,0.2,1.7,0.3,2.6
	c0.2,1.8-0.2,3.7,1.2,5.3c0.1,0.4,0.1,0.8,0.2,1.3c0.1,0.8-0.5,1.9,0.6,2.4c0.1,0.5,0.1,0.9,0.2,1.4c-0.6,0.6-0.5,1.1,0.3,1.4
	c0.1,0.6,0.2,1.1,0.2,1.7c0.2,1.9-0.2,4,1.2,5.7c0.1,0.4,0.1,0.8,0.2,1.3c0.1,0.8-0.5,1.9,0.6,2.4c0.1,0.5,0.1,0.9,0.2,1.4
	c-0.6,0.6-0.5,1.1,0.3,1.4c0.1,0.7,0.2,1.4,0.3,2.1c0,0.7-0.4,1.6,0.6,2c0.1,0.5,0.1,0.9,0.2,1.4c-0.5,0.8-0.7,1.4,0.4,1.8
	c0.1,0.4,0.1,0.8,0.2,1.3c0.1,0.8-0.5,1.9,0.6,2.4c0.1,0.5,0.1,0.9,0.2,1.4c-0.5,0.8-0.7,1.5,0.5,1.8c0.1,0.1,0.1,0.3,0.1,0.4
	c0,0.7-0.2,1.5,0,2c0.7,1.4-0.4,3.4,1.3,4.5c0.1,0.1,0.1,0.3,0.1,0.4c0,0.7-0.2,1.5,0,2c0.7,1.4-0.4,3.4,1.3,4.5
	c0.1,0.1,0.1,0.3,0.1,0.4c0,0.7-0.2,1.5,0,2c0.7,1.4-0.4,3.4,1.3,4.5c0.1,0.1,0.1,0.3,0.1,0.4c0,0.7-0.2,1.5,0,2
	c0.7,1.4-0.4,3.4,1.3,4.5c0.1,0.1,0.1,0.3,0.1,0.4c0.2,1.1-0.7,2.5,0.7,3.3c0,0.3,0.1,0.6,0.1,1c-0.5,0.5-0.2,0.7,0.3,0.9
	c0.3,0.8,0.4,1.7,0.3,2.6c0.3,1.8-0.2,3.7,1.3,5.2c0,0.3,0.1,0.6,0.1,0.9c0.1,2.1-0.1,4.2,1.3,6.1c0,0.3,0.1,0.6,0.1,0.9
	c0,2-0.1,3.9,1.2,5.6c0.1,0.3,0.1,0.6,0.2,0.9c0,1.6-0.1,3.2,0.8,4.6c0,0.2,0.1,0.3,0.1,0.5c0.1,0.2,0.2,0.3,0.2,0.5
	c0.1,0.6,0.2,1.2,0.2,1.8c0,2.3,0,4.5,0,6.8c-0.1,0.4-0.1,0.8-0.2,1.2c-0.6,0.1-1,0.3-0.4,0.9c0,0.4,0,0.7-0.4,0.9
	c-0.1,0.2-0.3,0.4-0.4,0.6c0,0.1,0,0.2-0.1,0.3c-0.9,0.1-1.3,0.5-1.4,1.4c0,0,0,0,0,0c-0.9,0-1.3,0.5-1.4,1.3l-0.2,0.1
	c0,0-0.2,0-0.2,0c-0.2,0.1-0.4,0.2-0.6,0.3c-0.2,0.1-0.5,0.1-0.7,0.2c-3.5,0.4-6.9,1.7-10.5,1.4c-0.4,0-0.6,0.4-0.7,0.7
	c-0.5,0-0.9,0.1-1.4,0.1c-2.9,0.2-5.8,0.4-8.7,0.6c-0.2,0-0.3,0.4-0.5,0.7c-0.3,0-0.6,0-0.9,0c-3.1-0.1-6,0.5-9,0.9
	c-0.1,0-0.1,0.3-0.2,0.4c-0.5,0-0.9,0-1.4,0.1c-1-0.9-2.2-0.1-3,0.2c-2.1,0.7-4.4-0.5-6.2,1.2c-0.9,0.1-1.8,0.1-2.6,0.2
	C206.5,202,206.3,202,206.2,202z"/>
<path class="st3" d="M177.6,34.6c-0.2,1,0.4,1.6,1.3,1.8c1.4,0.4,2.8,1.1,4.2,1.2c5,0.2,8.4,3.6,12.6,5.6c3.1,1.5,5.3,4,7.9,5.8
	c3.1,2.1,4.9,5.2,7.5,7.5c1.2,1.1,1,1.8-0.4,2.2c-2.8,0.8-5.5-0.1-8.3-0.4c-2.9-0.3-5.7-1.6-8.7-0.6c-0.4,0-0.9-0.1-1.3-0.1
	c-1.1-1.6-2.8-0.4-4.2-0.8c-0.3,0-0.6,0-0.9-0.1c-0.1-0.4-0.2-0.8-0.7-0.8c-3.5-0.5-7-1-10.5-1.4c-0.7-0.1-1.6-0.3-2.2,0.4
	c-0.5,0-0.9-0.1-1.4-0.1c-2.7-1.5-5.7-2-8.7-1.3c-0.3,0-0.6,0-0.9,0c-1.3-1.6-3-1.3-4.6-0.8c-0.1,0-0.3,0-0.4,0
	c-1.2-1.7-2.7-0.9-4.1-0.5c-0.5,0-0.9-0.1-1.4-0.1c-1.1-1.6-2.8-0.4-4.1-0.8c-0.3,0-0.6,0-0.9,0c-0.9-1.5-2.1-1-3.2-0.5
	c-0.5,0-0.9-0.1-1.4-0.1c-1.2-1.6-2.8-0.4-4.2-0.8c-0.3,0-0.6,0-0.9-0.1c-1-1.6-2.4-0.9-3.7-0.5c-0.3,0-0.6-0.1-0.9-0.1
	c-1.5-1.7-3.4-0.4-5.1-0.8c-0.2,0-0.3,0-0.5,0c-1-1.7-2.4-0.9-3.7-0.5c-0.3,0-0.6,0-1,0c-1.3-1.6-3.1-0.5-4.6-0.8
	c-0.1,0-0.3,0-0.4,0c-0.9-1.5-2.1-1-3.3-0.4c-0.5,0-0.9-0.1-1.4-0.1c-1.3-1.6-3.1-0.5-4.6-0.8c-0.4,0-0.9,0-1.3-0.1
	c-0.7-1.5-1.8-0.9-2.8-0.4c-0.5,0-0.9-0.1-1.4-0.1c-1.4-1.2-2.9-1.5-4.7-0.8c-0.3,0-0.6,0-0.9-0.1c-0.7-1.5-1.8-0.9-2.8-0.4
	c-0.4,0-0.9-0.1-1.3-0.1C91.9,42,90,43.3,88.5,43c-0.4,0-0.9,0-1.3-0.1c-0.6-1.4-1.4-1-2.4-0.4c-0.8,0-1.5-0.1-2.3-0.1
	c-2.4-1.6-5.1-1.9-7.9-1.2c-0.3,0-0.6,0-0.9-0.1c-1.7-1-3.5-1.7-5.5-0.9c-0.3,0-0.6,0-0.9,0c-0.7-1.5-1.7-0.9-2.8-0.5
	c-0.8,0-1.5-0.1-2.3-0.1c-0.2-1-0.8-1.2-1.7-1.2c-0.8,0-1.5,0-2.3-0.1c-2.1-0.3-4.1-2.7-3.7-4.7c0.2-1.1,0.9-1.8,2.2-1.4
	c1.4,0.4,2.2-0.1,2.6-1.4c0.6-2.1,2.3-3.2,4.4-2.9c1.6,0.2,3.3,0.4,3.8-2c0.2-0.8,1.4-1.3,2.1-1.2c3.2,0.6,5-2.1,7.4-3.2
	c0.5-0.2,0.8-0.7,1.4-0.5c3,1,6-0.1,9.1,0.2c4.3,0.5,8.6,1.1,12.9,1.4c0.9,0.1,2.1,0.6,2.4-0.9c5.2,0.4,10.4,1.3,15.5,2.7
	c1.3,0.4,2.7,0.1,4.1,0.4c5.8,1.1,11.7,1.8,17.5,3c6,1.3,12.1,2.3,18.1,3.4c4.2,0.8,8.3,1.7,12.6,2.1
	C173,33.5,175.3,34.1,177.6,34.6z"/>
<path class="st5" d="M238.4,251.1c-0.5,0.1-0.9,0.1-1.4,0.2c-0.6-0.6-1.1-0.5-1.4,0.4c-0.7,0.1-1.4,0.2-2.1,0.3
	c-0.5-0.1-0.9,0-1.1,0.5c-0.3,0-0.6,0.1-1,0.1c-0.8-0.4-1.4-0.6-1.8,0.5c-6.2,1.6-12.4,3.3-18.8,4.4c-0.7,0-1.5-0.4-2,0.6
	c-0.5,0.1-0.9,0.2-1.4,0.2c0-0.2,0-0.3,0-0.5c-1.3-1.3-2.9-1.9-4.6-1.8c-1.7,0.1-2.9-0.5-3.8-1.9c0-0.1-0.1-0.2,0-0.3
	c2.2-0.4,4.3-1,6.5-1.4c11.7-2.3,23.3-5.1,35-7.7c7.3-1.6,14.6-3.3,21.8-5c2-0.5,4.2-0.3,6-1.9c-3.8-0.7-7.3-2-11.1-1.7
	c0.5-1.6-0.7-2.5-1.4-3.6c1.8-0.1,3.5,0.1,5.2-0.2c5.6-1.1,11.3-2.4,16.9-3.6c0.9-0.2,2.1-0.3,1.9-1.8c0.5,0,0.9,0.1,1.4,0.1
	c0.2,1,0.9,0.8,1.6,0.7c2.3-0.2,2.7,1.9,3.8,3.1c0.5,0.6-0.4,1-1,1c-1,0.1-2.1,0.3-2.9,1c-1.4-0.5-2.5,1-3.9,0.3
	c-3.9-1.9-7.5,0.1-11.3,0.6c-0.4,0.1-0.8,0.1-0.8,0.6c0.1,0.4,0.4,0.6,0.8,0.7c2.4,0.5,4.9,1.1,7.3,1.4c3,0.4,5.7-1.3,8.6-1.5
	c0.5,0,0.5-0.7,0.5-1.1c0.4,0,0.9,0,1.3,0c0.2,1,0.9,0.8,1.6,0.7c0.4,0.1,0.8,0.1,1.1,0.4c1.1,1,2.8,2,2.6,3.3
	c-0.1,1.2-2.2,0.9-3.4,1.2c-8.2,1.9-16.5,3.9-24.7,5.9c-5.7,1.4-11.4,2.7-17.1,4c-0.7,0.2-1.5,0.2-2.3,0.2c-0.8,0-1.7-0.5-2,0.7
	c-0.4,0-0.9,0.1-1.3,0.1C239.3,250.4,238.7,250.3,238.4,251.1z"/>
<path class="st6" d="M267,214.7c0.4,0,0.8,0,1.2,0c0.3,0.7,0.9,0.8,1.5,0.4c3.8-2.1,7.9-2.6,12.1-2.3c3.3,0.3,6.7,0.4,9.8,2.1
	c0.9,0.5,2.4,0,3.6,0c3,0,5.9,1,8.8,1.3c1.8,0.2,2.8,1.5,3.9,2.6c1,1,0.2,1.3-0.8,1.3c-1.6-0.1-2.9,1.1-4.6,0.9
	c-2.7-0.3-5.5-0.1-8.2,0.4c-0.5,0.1-1.2,0-1.3,0.6c-0.2,1,0.8,0.6,1.2,0.9c1,0.7,2.2,1,3.3,1.4c1,0.3,1.8,0.9,1.6,2.1
	c-0.6,0-1.2,0-1.8,0c-0.7-0.7-0.8-0.1-0.9,0.5c-0.3,0-0.6,0-0.9,0c-1.1-0.2-2.2-0.3-3.2-0.5c-1.6-0.8-3.8,0.3-5.2-2
	c-0.3-0.5-2.8,0.2-4.3,0.3c-0.8-0.1-1.7-0.6-2.1,0.6c-0.5,0.1-0.9,0.2-1.4,0.2c0,0,0-0.2,0-0.2c0-0.8,0-1.7,0-2.5
	c0-0.8-0.3-1.5-1.1-1.5c-4.1-0.1-8.1-1.9-12.2-0.6c-1,0.3-2.8-0.6-2.9,0.9c0,0.9,2,1,3.1,1c2.7-0.1,3.7,1.3,3.8,3.7
	c-1.7-0.4-3,1-4.6,0.9c0.6-2.1,0.1-3.3-2.4-3.3c-1.8,0-3.6-0.6-5.4-1.1c-3.3-0.8-6.1,0.8-9.1,1.6c2.7,1,6.5,0.2,6.7,4.6
	c-1.3,0.9-2.8,0.3-4.2,0.5c0-1.8-0.8-2.6-2.6-2.8c-1.4-0.2-2.9-0.4-4.2-0.8c-4.2-1.4-7.9,0.4-11.8,1.3c1,0.7,2.1,0.8,3.2,1.1
	c3.4,0.7,3.5,0.8,3.4,4.1c-0.8,0-1.5,0-2.3,0.1c-1.7-1.4-3.2-3.1-5.6-3.1c-0.9,0-1.8-0.3-2.7-0.6c-0.5-0.1-1.2,0.1-1.2-0.7
	c0-0.5,0.6-1.1,1.1-1.1c1.3-0.1,2.2-1.2,3.7-1.1c1.2,0.1,0.9-0.6,0.5-1.3c-0.5-0.7-1.1-1-1.9-1c-1,0.1-1.6-0.4-1.7-1.4
	c0.2-0.3,0.4-0.5,0.6-0.8c0.5-0.1,1,0,1.3-0.4c1.2-0.1,2.5-0.1,3.7-0.2c0.1,0.3,0.1,0.7,0.3,0.8c3.5,1.8,7.1,1.1,10.7,0.6
	c0.4-0.1,0.7-0.3,0.7-0.8c0-0.5-0.5-0.5-0.9-0.5c-0.8-0.1-2,0.3-2.2-1c3.6-2.2,7.8-2,11.7-2.6c1.1-0.2,2.2-0.2,3.1-0.9
	c2.1-0.3,4.2-0.5,6.3-0.9C265.4,215.3,266.6,215.9,267,214.7z M288.8,219c-3.3-1.2-6.3-0.8-9.3-0.8c-0.6,0-1.3,0.2-1.2,1
	c0.1,0.6,0.7,0.8,1.2,0.8c1.2,0,2.4,0.5,3.4,0.3C284.7,220,286.8,220.6,288.8,219z"/>
<path class="st6" d="M194.2,219.3c1.2-1.2,2.9-0.7,4.3-0.9c2.3-0.3,4.5-1.4,7-0.6c1.4,0.4,2.3-1.4,4-1.4c3.6,0,7.3-0.8,10.8-1.2
	c3.4-0.4,6.8-1.7,10.2-1.9c4-0.2,7.7-1.8,11.6-2c5-0.3,9.8-1.9,14.7-2.2c2.9-0.1,5.9,0.7,8.8,1.3c1.3,0.2,1.9,1.6,2.5,2.5
	c0.6,1-0.6,0.9-1.2,1.1c-3.1,0.4-6.2,0.5-9.2,1.5c-0.7,0.1-1.5,0.3-2.2,0.4c-8.2,1.4-16.3,2.8-24.5,4.2c-0.5,0-1,0-1.4,0.4
	c-3.8,0.6-7.7,1.1-11.5,1.7c-5.9,0.9-11.7,1.9-17.6,2.9c0-0.5,0-0.9,0-1.4c0.1-1.5,0.1-2.5-2-3C197.2,220.3,195.4,220.5,194.2,219.3
	z"/>
<path class="st5" d="M239.3,253.5c0,0.5,0.2,1.2-0.3,1.5c-2.9,1.7-0.3,3.2,0.1,4.8c0.6,2.4,2.8,3.5,4.2,5.1c1.4,1.6,3.6,2.5,5.6,3.4
	c3,1.4,6.4,2,9.2,4.1c0.8,0.6,2.2,0.3,3.3,0.5c4.1,0.6,7.8,2.6,11.8,3.5c3.6,0.8,7.3,0.6,10.8,1.8c0.5,0.2,1.2-0.3,1.7-0.5
	c0.7-0.3,1-0.1,1.1,0.6c-2.4,1.4-5.2,1.4-7.8,2.3c-1.6,0.6-3.3,0.3-5-0.1c-2.5-0.6-4.9-1.9-7.3-2.5c-3.9-0.9-7.6-2.3-11.4-3.5
	c-8.4-2.7-16.9-5.5-25.3-8.3c-5.6-1.9-11.3-3.2-16.6-5.8c0.5-1.4,1.9-1.2,2.9-1.5C223.9,257,231.6,255.2,239.3,253.5z"/>
<path class="st6" d="M196.9,260.2c-0.4,0.7-1,1-1.8,1.2c-11.5,2.7-22.9,5.5-34.4,8.1c-3.9,0.9-7.7,2.3-11.8,2.4
	c0.5-1.1,0.6-2.3,0.4-3.5c0-0.4,0.1-0.9,0.1-1.3c1.2-1.6,0-2.1-1.2-2.6c-1.3-0.6-2.9-0.6-3.8-1.9c0.4-0.8,0.8-0.2,1.3,0
	c2.7,0.9,5.1,2.6,8.3,1.8c4.5-1.2,9-2,13.6-3c4.8-1,9.7-1.8,14.4-3.1c3.2-0.9,6.7-0.7,9.6-2.7c1.1-0.1,1.7,0.6,2.3,1.3
	C194.8,257.9,195.9,259,196.9,260.2z"/>
<path class="st7" d="M213.4,260.3c5.3,2.6,11.1,3.9,16.6,5.8c8.4,2.8,16.9,5.5,25.3,8.3c3.8,1.2,7.5,2.6,11.4,3.5
	c2.5,0.6,4.8,1.8,7.3,2.5c1.7,0.4,3.3,0.7,5,0.1c2.6-0.9,5.4-0.9,7.8-2.3c4.9-1.5,9.8-3,14.8-4.6c9.1-2.9,18.2-6.1,27.4-8.8
	c9-2.7,17.9-5.9,26.9-8.9c6.5-2.1,12.9-4.1,19.4-6.2c2.9-0.9,5.8-1.9,8.7-2.8c0.9-0.3,1.2-0.8,1.2-1.7c0.7-0.2,1.3,0.3,1.9,0.5
	c0.6,1.4-0.4,1.7-1.4,2.1c-10.2,3.3-20.3,6.5-30.5,9.8c-15,4.9-29.9,9.9-44.9,14.8c-9.3,3-18.7,5.9-28,9.2c-1.5,0.5-3.1,0.6-4.7,0.9
	c-4.1,0-7.7-1.9-11.4-3c-7.2-2.2-14.4-4.6-21.6-6.9c-10.4-3.3-20.7-6.7-31.1-10c-0.6-0.2-1.3-0.2-1.3-1
	C212.1,260.6,212.8,260.4,213.4,260.3z"/>
<path class="st5" d="M299.3,226.4c0.2-1.3-0.6-1.8-1.6-2.1c-1.1-0.4-2.3-0.7-3.3-1.4c-0.4-0.3-1.5,0.2-1.2-0.9
	c0.1-0.6,0.8-0.5,1.3-0.6c2.7-0.5,5.5-0.7,8.2-0.4c1.7,0.2,3-1.1,4.6-0.9c0,1.5,1.3,1.2,2.2,1.3c1,0.1,1.9,0.2,2.5,1.2
	c0.2,1.5-1.6,1.3-2.3,2.1c2,0.8,7.9,1.7,9.6,1.1c1.4-0.5,3.4,0.5,4.1-1.7c0.8,0,1.9-0.3,2.1,0.8c0.2,1.1-1,0.9-1.6,1.2
	c-1.3,0.6-3,0.9-3.9,1.8c-1.8,1.9-3.1,2-4.7,0c0,0-0.2,0.1-0.5,0.2c0.5,1.1,0.3,2.3,0.4,3.6c-4.9,1.2-9.5,3.6-14.9,2.1
	c-3.3-0.9-6.7-1.3-10.1-1.9c-0.6-0.1-1.3-0.1-1.5-0.8c-0.2-0.6,0.4-0.9,0.8-1.3c1-1.1,2.1-2.3,3.1-3.4c1.1,0.2,2.2,0.3,3.2,0.5
	c-0.1,1,0.3,1.4,1.3,1.4c1.2-0.1,2.2,0.3,3.3,0.6c3.2,1.1,6.3,0.2,9.3-0.6c0.4-0.1,0.7-0.3,0.7-0.8c0-0.2-0.4-0.5-0.6-0.5
	C306.1,227.1,302.8,225.4,299.3,226.4z"/>
<path class="st6" d="M121,258.8c-1-1.6-2.4,0.3-3.5-0.3c0.6-1.8,1.4-3.7,0.9-5.5c-0.4-1.6-2.4-1.3-3.6-2c-4.3-2.2-4.3-2.2-8.4,2.2
	c-0.4-0.1-0.9-0.1-1.3-0.2c0-0.3,0-0.5,0-0.8c0.5-0.3,0.5-0.6,0.1-0.9c0-0.3,0-0.6,0.1-0.9c0.5-0.2,1.1-0.3,0.4-1c0-0.3,0-0.6,0-0.9
	c1.2-0.8,0.9-1.3-0.2-1.9c-1.6-0.8-3.6-1-4.9-2.5c1.6-1,3.6-0.8,5.3-1.1c4.1-0.5,8.2-2.7,12.5-0.6c0.5,0.3,1-0.2,1.5-0.5
	c0.1,0.6,0.3,1.3,1,1.4c2.1,0.3,3.2,1.9,4.7,3c-0.2,1-1,0.7-1.7,0.8c-1.9,0.2-3.7,0.8-5.6,1.3c-1.2,0.3-1.5,1.1-0.5,1.7
	c2,1.1,4,2.4,6.4,1.3c1.7-0.7,3.5-0.9,5.3-1.1c1.8-0.3,3.8-0.1,5.1-1.8c2.4-0.1,3.3,1.9,4.6,3.3c-0.1,0.4-0.3,0.8-0.7,0.8
	c-2.8,0.1-5.5,1.2-8.3,1.5c-1,0.1-2.3,0.2-2.1,1.8c-3.4-1.8-5.4-0.2-7,2.8C121.2,258.8,121.1,258.8,121,258.8z"/>
<path class="st1" d="M119.8,242c-0.5,0.3-0.9,0.8-1.5,0.5c-4.3-2-8.4,0.1-12.5,0.6c-1.8,0.2-3.7,0.1-5.3,1.1
	c-0.8,0.2-1.7-0.3-2.3,0.5c-0.6,0.5-1.2,1-1.8,1.6c-0.1-0.9,0.9-2-0.5-2.7c0.7-0.6,1.7-0.7,2.6-0.8c2.7-0.3,5.4-0.9,8-1.5
	c0.6-0.1,1.3-0.3,1.9-0.4c4-0.3,8-1.1,12-1.9c2.5-0.5,5.2-0.2,7.5-1.6c0.6-0.1,1.2-0.2,1.7-0.2c5.9-0.5,11.7-1.7,17.5-2.9
	c0.6-0.1,1.2-0.2,1.9-0.4c5.4-0.6,10.9-1.1,16.2-2.9c0.8,0.1,1.6,0.3,2.3-0.3c1.3-0.2,2.6-0.2,3.8-0.5c3.8-0.8,7.7-0.9,11.4-2.1
	c0.6,0.1,1.2,0.1,1.8-0.2c4.8-0.8,9.6-1.7,14.3-2.5c0.6,0.1,1.3,0.3,1.7-0.4c5.9-1,11.7-1.9,17.6-2.9c3.8-0.6,7.7-1.1,11.5-1.7
	c0,0.3,0,0.7,0.1,1c-0.2,0.3-0.4,0.5-0.6,0.8c-0.3,0.1-0.7,0.4-1,0.3c-3.2-0.7-6.1,0.2-9.1,1c-2,0.4-4.4-0.5-5.7,1.9
	c-4.7-1.4-9.1,0.9-13.7,1.3c-0.9,0-1.6,0.6-2.3,1.1c-0.6,0.4-1.3,0.6-2,0.4c-3.9-0.7-7.6,0.6-11.4,1.4c-1.7,0-3.4-0.2-4.4,1.7
	c-0.4,0-0.9,0.1-1.3,0c-3.9-1-7.6,0.5-11.4,1.1c-0.8,0.1-1.8-0.3-2.3,0.8c-1.5-0.5-2.7-0.2-3.4,1.3c-0.8,0-1.5,0.2-2.3,0.1
	c-5.2-0.7-10,1.1-15,1.9c-1.6-0.1-2.6,0.7-3,2.3c-6.1-2.4-11.9,0.6-17.8,1.4C121.6,240,120.7,241,119.8,242z"/>
<path class="st6" d="M106.5,241.3c-2.7,0.5-5.3,1.2-8,1.5c-0.9,0.1-1.8,0.1-2.6,0.8c-0.6,0-1.2,0.1-1.8,0.1c-0.4-0.1-0.7,0-0.9,0.4
	c-1.2,0-2.5,0-3.7,0.5c-0.7,0-1.3-0.2-1.9,0.4c-0.5,0-1-0.1-1.5-0.1c0-1.1,0.2-2.1,0.6-3.1c0.6-1.3,0.4-2-1-2.7
	c-1.7-0.8-3.4-1.2-5.2-1.7c1.5-1.2,3.3-0.7,5-1.1c3-0.7,6.1-1,9.2-1.5c1.2-0.2,2.2-0.3,3.3,0.3c0.8,0.5,1.9,0.5,2.9,0.1
	c0,0.8,0.3,1.2,1.2,1.6C104.1,237.6,105.7,239.2,106.5,241.3z"/>
<path class="st6" d="M127.9,237.4c-2.3,1.4-5,1.1-7.5,1.6c-4,0.8-7.9,1.6-12,1.9c-0.2-1,0.1-2,0.5-2.9c0.6-1.4,0.1-1.9-1.2-2.5
	c-1.7-0.9-3.6-1-5.3-1.6c3.1-1.3,6.6-1,9.7-1.9c3.1-0.9,6.1-0.3,9.1,0c0.1,0.3,0.2,0.8,0.4,0.8C124.6,233.1,126,235.5,127.9,237.4z"
	/>
<path class="st6" d="M315,231.8c-0.1-1.2,0.1-2.4-0.4-3.6c0.3-0.1,0.5-0.3,0.5-0.2c1.6,2,2.9,1.9,4.7,0c0.9-1,2.6-1.2,3.9-1.8
	c0.6-0.3,1.8-0.2,1.6-1.2c-0.2-1.1-1.3-0.8-2.1-0.8c-1.7,0-3.3-0.8-5-0.5c0-0.5,0-1-0.1-1.4c0,0,0,0,0,0c0.6,0.1,1.3,0.2,1.5-0.7
	c0.3,0,0.6,0,0.9,0c2.6,1.3,5.4,1.6,8.2,2.1c3.3,0.6,6.3-0.9,9.3-2.2c0.3,0,0.6,0.1,0.9,0.1c0.2,0.9,1,1.1,1.8,1.2
	c2.4,2.4,2.5,2.7-0.6,3.4C331.7,228.1,323.4,230.3,315,231.8z"/>
<path class="st6" d="M147.1,234.2c-5.8,1.1-11.6,2.4-17.5,2.9c0-0.8-0.2-1.7,0.1-2.5c0.7-1.6,0-2.2-1.4-2.6c-1.5-0.5-3-1.1-4.5-1.6
	c1.1-1.2,2.6-0.7,3.9-0.8c3.8-0.5,7.5-2.1,11.4-0.8c0.8,0.3,1.3-0.4,1.9-0.6c-0.1,1,0.4,1.5,1.4,1.7
	C145,230.3,146.1,232.2,147.1,234.2z"/>
<path class="st6" d="M165.1,231c-5.2,1.8-10.7,2.3-16.2,2.9c-0.1-4.6-0.1-4.6-4.6-5.7c-0.9-0.2-1.9-0.3-2.9-0.5
	c1.7-1.5,3.9-0.7,5.8-1.3c3.8-1.2,7.8-1.1,11.7-1.1c0.1,1,0.6,1.4,1.6,1.5C163.1,227.1,164.5,228.7,165.1,231z"/>
<path class="st6" d="M182.7,228.1c-3.7,1.2-7.6,1.3-11.4,2.1c-1.3,0.3-2.6,0.3-3.8,0.5c0-0.4-0.1-0.8-0.1-1.1
	c0.6-2.7-1.1-3.5-3.2-3.9c-0.9-0.2-1.5-0.3-1.4-1.3c3.5-1.1,7.1-1.9,10.9-1.5c0.7,0.1,1.4-0.1,2-0.1c0.3,1.4,1.6,1.2,2.6,1.4
	C180.5,224.5,182,225.9,182.7,228.1z"/>
<path class="st6" d="M198.8,225.3c-4.8,0.8-9.6,1.7-14.3,2.5c0-0.5-0.1-0.9,0-1.4c0.4-2.1-0.5-3.1-2.6-3.4c-1.8-0.3-3.6-0.6-5.4-0.9
	c0.8-1.2,2.1-0.6,3.2-0.8c3.7-0.6,7.4-2,11.3-1c0.4,0.1,0.8-0.3,1.3-0.4c0,1.2,0.7,1.4,1.7,1.5C196.4,221.7,198.2,222.8,198.8,225.3
	z"/>
<path class="st4" d="M251.3,229.7c1.4-0.2,2.9,0.4,4.2-0.5c3.4-0.3,6.8-1.2,10.1-1.8c1.6,0,2.9-1.3,4.6-0.9c3.1-0.3,6.3,1,9.3-1
	c0,0,0,0.2,0,0.2c0,0.5-0.1,1,0.5,1.3c0.2,1.5-1,1.6-1.9,1.8c-5.6,1.3-11.2,2.5-16.9,3.6c-1.7,0.3-3.5,0.1-5.2,0.2
	c-1.7-0.2-3.4-0.3-5-0.5C250.8,231.2,250.9,230.4,251.3,229.7z"/>
<path class="st6" d="M135.1,265.2c-0.6-0.1-1.2-0.2-1.8-0.3c0.2-1.4,0.3-2.8,0.7-4.2c0.4-1.4,0-2-1.3-2.6c-1.3-0.5-2.8-0.7-3.6-2
	c1.4-0.1,2.5,0.7,3.7,1.2c1.4,0.5,2.7,1.2,4.4,0.8c3.7-0.8,7.5-1.3,11.2-2.2c1-0.2,2.6,0.3,3.1-1.3c1.9,0,2.3,1.7,3.2,2.8
	c-0.1,0.5-0.3,0.9-0.8,0.9c-3,0.3-5.8,1.3-8.8,1.8c-0.7,0.1-1.7-0.2-2.1,0.6c-0.5,1,1,1,1.1,1.8c-1.2,0-2.3-0.5-3.4-1
	c-1.3-0.7-2.1-0.3-2.6,1C136.8,263.2,135.9,264.1,135.1,265.2z"/>
<path class="st8" d="M129,256.1c0.9,1.3,2.4,1.5,3.6,2c1.4,0.5,1.7,1.2,1.3,2.6c-0.4,1.4-0.5,2.8-0.7,4.2c-2.4,0.2-4.1-1.6-6.2-2.1
	c-2-0.5-3.8-1.7-5.7-2.4c-1-0.4-1.2-0.8-0.3-1.5c0.1,0,0.2,0,0.2-0.1c1.5-2.9,3.6-4.5,7-2.8C128.5,256,128.7,256.1,129,256.1z"/>
<path class="st8" d="M135.1,265.2c0.8-1.1,1.7-2,2.7-2.8c4.1,1,8,2.3,11.5,4.7c0,0.4-0.1,0.9-0.1,1.3c-1.5,0.9-0.5,2.3-0.8,3.4
	c-2.5,0.4-4.2-1.6-6.3-2.1c-2.1-0.5-4-1.6-6-2.6C135.4,266.7,134.4,266.5,135.1,265.2z"/>
<path class="st8" d="M106.4,253.2c4.1-4.3,4.1-4.4,8.4-2.2c1.2,0.6,3.2,0.4,3.6,2c0.5,1.8-0.3,3.7-0.9,5.5c-3.4-1-6.6-2.6-9.9-3.9
	C106.9,254.4,106.3,254.1,106.4,253.2z"/>
<path class="st7" d="M196.9,260.2c-1.1-1.2-2.1-2.3-3.2-3.5c-0.6-0.7-1.2-1.4-2.3-1.3c-1-0.4-2-0.9-3.1-1c-1-0.2-2.3,0-3-1.2
	c0.4-2.5,2.5-2,4.1-2.2c0.3,0.1,0.6,0.3,0.9,0.4c0.2,0.5,0.3,1.1,1,0.5c0.4,0,0.9,0,1.3,0.1c0.1,0.5,0.4,0.8,1,0.8
	c1.8,0.4,3.6,0.7,5.4,1.1c0,0.1,0,0.2,0,0.3c-0.8,1.9-0.2,4-0.4,5.9C198.1,260.1,197.5,260.1,196.9,260.2z"/>
<path class="st8" d="M96.4,246.3c0.6-0.5,1.2-1,1.8-1.6c0.4,0.9,1.2,1.1,2,1.3c1.9,0.8,3.7,1.5,5.5,2.5c0,0.3,0,0.6,0,0.9
	c-0.4,0.2-0.5,0.6-0.4,1c0,0.3,0,0.6-0.1,0.9c-0.5,0.3-0.5,0.6-0.1,0.9c0,0.3,0,0.5,0,0.8c-2.3-0.1-4.2-1.6-6.3-2.2
	c-0.4-0.1-0.8-0.4-1.2-0.6C94.5,248.9,94.5,248.9,96.4,246.3z"/>
<path class="st8" d="M80.6,237.3c1.8,0.5,3.5,0.9,5.2,1.7c1.4,0.7,1.6,1.4,1,2.7c-0.4,1-0.6,2-0.6,3.1c-0.1,0-0.3,0.1-0.4,0.2
	c-0.3,0-0.6,0-0.9,0c-0.1-0.1-0.3-0.1-0.4-0.1c-0.1-0.3-0.2-0.4-0.5-0.3c-2.1-0.6-3.9-2-6-2.5c-0.9-0.2-1-0.9-0.4-1.6
	C78.5,239.4,79.1,238,80.6,237.3z"/>
<path class="st4" d="M284.1,234c0,0.5,0,1.1-0.5,1.1c-2.9,0.2-5.6,1.9-8.6,1.5c-2.5-0.3-4.9-0.9-7.3-1.4c-0.4-0.1-0.8-0.3-0.8-0.7
	c-0.1-0.5,0.4-0.6,0.8-0.6c3.7-0.5,7.4-2.5,11.3-0.6c1.4,0.7,2.6-0.8,3.9-0.3C283.2,233.3,283.6,233.6,284.1,234z"/>
<path class="st5" d="M338,221.4c-3,1.3-6,2.8-9.3,2.2c-2.8-0.5-5.6-0.8-8.2-2.1c0.9-1.6,2.6-0.9,3.9-1.2
	C329.1,219.3,333.6,220.2,338,221.4z"/>
<path class="st7" d="M102.4,233.9c1.8,0.6,3.6,0.7,5.3,1.6c1.3,0.7,1.8,1.1,1.2,2.5c-0.4,0.9-0.7,1.9-0.5,2.9
	c-0.6,0.1-1.3,0.3-1.9,0.4c-0.9-2.1-2.5-3.6-4.4-4.6c-0.9-0.4-1.1-0.8-1.2-1.6C101.3,234.6,101.7,234,102.4,233.9z"/>
<path class="st7" d="M123.9,230.4c1.5,0.5,3,1.1,4.5,1.6c1.4,0.4,2.1,1,1.4,2.6c-0.3,0.7-0.1,1.6-0.1,2.5c-0.6,0.1-1.2,0.2-1.7,0.2
	c-1.9-1.8-3.3-4.2-6.3-4.7c-0.2,0-0.3-0.5-0.4-0.8C121.9,231,122.6,230.2,123.9,230.4z"/>
<path class="st4" d="M318.2,223.7c1.7-0.3,3.3,0.5,5,0.5c-0.7,2.2-2.8,1.1-4.1,1.7c-1.6,0.6-7.6-0.3-9.6-1.1
	c0.6-0.9,2.4-0.6,2.3-2.1c0.6,0.1,1.2,0.1,1.8,0.2C314.8,224.7,316.7,223.2,318.2,223.7z"/>
<path class="st6" d="M198.7,260c0.2-2-0.4-4,0.4-5.9c0.9,1.4,2.1,2.1,3.8,1.9c1.7-0.1,3.3,0.4,4.6,1.8c-0.6,0.1-1.3,0-1.4,0.8
	c-0.3,0-0.6,0.1-0.9,0.1c-1.3-1.1-2,0-2.8,0.8C201.2,259.7,200,259.9,198.7,260z"/>
<path class="st7" d="M162.7,224.3c0,1,0.6,1.2,1.4,1.3c2.1,0.4,3.8,1.3,3.2,3.9c-0.1,0.4,0,0.7,0.1,1.1c-0.7,0.6-1.5,0.4-2.3,0.3
	c-0.7-2.3-2-3.8-4.5-4c-1-0.1-1.5-0.5-1.6-1.5c0-0.1,0.1-0.2,0.2-0.3c0.9-0.3,2.1,0.5,2.7-0.8C162.2,224.3,162.5,224.3,162.7,224.3z
	"/>
<path class="st7" d="M141.5,227.8c1,0.2,1.9,0.2,2.9,0.5c4.5,1.1,4.5,1.1,4.6,5.7c-0.6,0.1-1.2,0.2-1.9,0.4c-1-2-2.1-4-4.7-4.4
	c-1-0.1-1.5-0.7-1.4-1.7C141.2,228.1,141.3,227.9,141.5,227.8z"/>
<path class="st7" d="M198.8,225.3c-0.6-2.5-2.4-3.7-4.8-3.9c-1-0.1-1.8-0.3-1.7-1.5c0.5-0.6,1.2-0.6,2-0.6c1.2,1.2,3,1,4.4,1.3
	c2.1,0.5,2,1.5,2,3c0,0.5,0,0.9,0,1.4C200.1,225.6,199.4,225.4,198.8,225.3z"/>
<path class="st7" d="M176.5,222.2c1.8,0.3,3.6,0.6,5.4,0.9c2,0.3,2.9,1.3,2.6,3.4c-0.1,0.4,0,0.9,0,1.4c-0.6,0.4-1.2,0.3-1.8,0.2
	c-0.7-2.2-2.2-3.5-4.5-4c-1-0.2-2.2,0-2.6-1.4C175.8,222.3,176.1,222.2,176.5,222.2z"/>
<path class="st9" d="M18.1,55.8c0.8,0.2,0.8,0.8,0.8,1.4c-0.2,3.8,0.8,7.6,0.4,11.4c-0.1,1,0.7,1.9,0.1,2.8c-0.8-1.4-0.5-3-0.7-4.5
	C18.4,63.3,18.3,59.6,18.1,55.8z"/>
<path class="st10" d="M257.8,215.5c3-1,6.1-1.1,9.2-1.5c0,0.2,0,0.5,0.1,0.7c-0.5,1.2-1.6,0.6-2.4,0.8c-2.1,0.4-4.2,0.6-6.3,0.9
	C258.1,216.1,257.9,215.8,257.8,215.5z"/>
<path class="st9" d="M25,137c0.6,0.7,0.9,1.5,0.8,2.3c-0.2,4,0.8,8,0.5,12.1c-0.1-0.1-0.2-0.2-0.3-0.4C25.4,146.4,24.9,141.7,25,137
	z"/>
<path class="st9" d="M22.2,103.8c0.6,0.8,0.8,1.9,0.8,2.8c-0.1,3.9,0.9,7.7,0.5,11.6c-0.1-0.1-0.2-0.2-0.3-0.4
	C22.6,113.2,22.1,108.5,22.2,103.8z"/>
<path class="st9" d="M26.3,153.6c0.6,0.8,0.9,1.9,0.8,2.8c-0.1,3.9,0.9,7.7,0.5,11.6c-0.1-0.1-0.2-0.2-0.3-0.4
	C26.8,163,26.3,158.3,26.3,153.6z"/>
<path class="st9" d="M20.8,87.2c0.6,0.8,0.9,1.9,0.8,2.8c-0.1,3.9,0.9,7.7,0.5,11.6c-0.1-0.1-0.2-0.2-0.3-0.4
	C21.2,96.6,20.8,91.9,20.8,87.2z"/>
<path class="st9" d="M46,221.4c4.2,0,8.5,0,12.7,0c-0.2,0.4-0.6,0.7-1.1,0.7c-3.5,0-7,0-10.6,0C46.5,222.2,46.2,221.9,46,221.4z"/>
<path class="st9" d="M27.8,172c0.7,0.1,0.8,0.6,0.8,1.2c-0.3,3.8,0.8,7.6,0.4,11.4c-0.2-0.6-0.6-1.1-0.7-1.7
	C28.1,179.3,28,175.7,27.8,172z"/>
<path class="st9" d="M19.5,72.4c0.7,0.1,0.8,0.6,0.8,1.2c-0.3,3.8,0.8,7.6,0.4,11.4c-0.2-0.6-0.6-1.1-0.7-1.7
	C19.8,79.7,19.7,76.1,19.5,72.4z"/>
<path class="st9" d="M23.7,122.2c0.7,0.1,0.8,0.6,0.8,1.2c-0.3,3.8,0.8,7.6,0.4,11.4c-0.2-0.6-0.6-1.1-0.7-1.7
	C24,129.5,23.8,125.9,23.7,122.2z"/>
<path class="st9" d="M16.7,39.2c0.7,0.1,0.8,0.6,0.8,1.2c-0.3,3.8,0.8,7.6,0.4,11.4c-0.2-0.6-0.6-1.1-0.7-1.7
	C17.1,46.5,16.9,42.9,16.7,39.2z"/>
<path class="st3" d="M193.7,37.4c-3.8,0.1-7.4-0.9-11.1-1.8c1.2-0.8,2.4-0.1,3.6,0.1C188.7,36.3,191.4,36,193.7,37.4z"/>
<path class="st9" d="M240.7,197.7c0.1-0.4,0.3-0.8,0.7-0.7c3.6,0.3,7-0.9,10.5-1.4C248.5,197.8,244.6,197.5,240.7,197.7z"/>
<path class="st9" d="M166.5,207.4c0.1-0.7,0.6-0.8,1.2-0.8c2.7,0.1,5.3-0.3,7.9-0.9c0.4-0.1,0.8,0.1,1,0.4
	C173.3,207.3,169.9,207.2,166.5,207.4z"/>
<path class="st9" d="M15.4,23.1c0.4,0.1,0.7,0.4,0.7,0.8c-0.3,3.2,0.8,6.3,0.4,9.5c-0.2-0.3-0.6-0.6-0.6-0.9
	C15.7,29.4,15.6,26.3,15.4,23.1z"/>
<path class="st9" d="M92.7,217.1c0.1-0.1,0.1-0.4,0.2-0.4c3-0.3,6-1.1,9-0.9C99,217.1,95.8,216.9,92.7,217.1z"/>
<path class="st9" d="M103.7,215.7c0.1-0.1,0.1-0.4,0.2-0.4c3-0.3,6-1.3,9-0.9C110,215.5,106.9,215.5,103.7,215.7z"/>
<path class="st9" d="M135.6,211.6c0.1-0.1,0.1-0.4,0.2-0.4c3-0.3,6-1.3,9-0.9C141.8,211.4,138.7,211.4,135.6,211.6z"/>
<path class="st9" d="M60,221.3c3.4-1.2,7-1.2,10.6-1.4C67.1,221.1,63.6,221.3,60,221.3z"/>
<path class="st9" d="M155.9,208.9c0.1-0.2,0.3-0.5,0.4-0.5c3.1-0.2,6.1-1,9.2-0.9C162.4,208.8,159.1,208.5,155.9,208.9z"/>
<path class="st9" d="M82.1,218.5c0.1-0.7,0.6-0.9,1.2-0.8c2.5,0.1,4.9-0.2,7.3-0.8c0.2-0.1,0.5,0.2,0.8,0.3
	C88.4,218.6,85.2,218.2,82.1,218.5z"/>
<path class="st9" d="M177.6,206.1c0.2-0.4,0.6-0.8,1.1-0.8c2.5,0.1,4.9-0.5,7.4-0.9c0.2,0,0.5,0.2,0.8,0.4
	C183.8,205.9,180.6,205.8,177.6,206.1z"/>
<path class="st9" d="M124.5,212.2c3.1,0.4,6.1-0.6,9.2-0.5c-3,1.3-6.1,1.1-9.2,1.3C124.5,212.7,124.5,212.4,124.5,212.2z"/>
<path class="st9" d="M220,200.5c0.1-0.1,0.1-0.4,0.2-0.4c3-0.4,6-1,9-0.9C226.2,200.5,223,200.1,220,200.5z"/>
<path class="st9" d="M145.7,210.2c1.8-1.7,4.2-0.5,6.2-1.2c0.8-0.3,2-0.7,3-0.1C152,210.2,148.8,209.9,145.7,210.2z"/>
<path class="st9" d="M72.4,219.8c1.5-1.5,3.6-0.6,5.3-1.1c1-0.3,2.3-1.2,3.4-0.2C78.3,219.7,75.3,219.6,72.4,219.8z"/>
<path class="st9" d="M188.1,204.7c0.2-0.2,0.3-0.7,0.5-0.7c2.9-0.2,5.8-0.4,8.7-0.6C194.4,204.7,191.2,204.3,188.1,204.7z"/>
<path class="st9" d="M209.4,201.9c1.8-1.7,4.2-0.5,6.2-1.2c0.8-0.3,1.9-1.1,3-0.2C215.6,201.8,212.5,201.6,209.4,201.9z"/>
<path class="st9" d="M230.1,199.2c0.2-0.2,0.3-0.7,0.5-0.7c2.9-0.2,5.8-0.4,8.7-0.6C236.4,199.2,233.2,198.9,230.1,199.2z"/>
<path class="st9" d="M114.4,214.3c0.2-0.2,0.3-0.6,0.6-0.6c2.7-0.2,5.5-0.4,8.2-0.6C120.3,214.4,117.3,213.9,114.4,214.3z"/>
<path class="st9" d="M206.2,202c0.2,0,0.4,0.1,0.6,0.1c-2.7,1.2-5.6,1.1-8.4,1.2c0.3-0.5,0.7-0.9,1.3-0.8
	C201.8,202.7,204,202.1,206.2,202z"/>
<path class="st3" d="M202.8,39.3c-2.2-0.3-4.4-0.6-6.5-1c-0.4-0.1-0.7-0.3-0.8-0.7C198,38.1,200.7,37.4,202.8,39.3z"/>
<path class="st9" d="M257.9,188.4c0-2.3,0-4.5,0-6.8C258.8,183.9,259.1,186.1,257.9,188.4z"/>
<path class="st5" d="M318.2,223.7c-1.5-0.4-3.4,1-4.6-0.9c0.6-0.2,1.2-0.8,1.9-0.1c0.1,0.4,0.2,0.4,0.4,0.1c0.8-0.2,1.5-0.3,2.3-0.5
	C318.2,222.7,318.2,223.2,318.2,223.7z"/>
<path class="st9" d="M249.4,139.8c-1.7-1.1-0.6-3.1-1.3-4.5c-0.3-0.5,0-1.3,0-2C249,135.3,249.1,137.6,249.4,139.8z"/>
<path class="st9" d="M250.8,146.7c-1.7-1.1-0.6-3.1-1.3-4.5c-0.3-0.5,0-1.3,0-2C250.4,142.2,250.5,144.5,250.8,146.7z"/>
<path class="st9" d="M246.7,125.9c-1.7-1.1-0.6-3.1-1.3-4.5c-0.3-0.5,0-1.3,0-2C246.3,121.5,246.3,123.7,246.7,125.9z"/>
<path class="st9" d="M248.1,132.9c-1.7-1.1-0.6-3.1-1.3-4.5c-0.3-0.5,0-1.3,0-2C247.7,128.4,247.7,130.7,248.1,132.9z"/>
<path class="st9" d="M255,167c-1.4-1.8-1.2-4-1.3-6.1C254.8,162.8,254.5,165,255,167z"/>
<path class="st9" d="M241.1,98.3c-1.4-1.7-1-3.7-1.2-5.7C240.9,94.4,240.8,96.4,241.1,98.3z"/>
<path class="st9" d="M256.2,173.4c-1.3-1.7-1.2-3.6-1.2-5.6C256.2,169.6,255.8,171.6,256.2,173.4z"/>
<path class="st9" d="M253.6,160.1c-1.5-1.5-1-3.4-1.3-5.2C253.6,156.4,253.1,158.3,253.6,160.1z"/>
<path class="st9" d="M238.3,84.4c-1.3-1.5-1-3.5-1.2-5.3C238.2,80.8,238.1,82.7,238.3,84.4z"/>
<path class="st9" d="M236.8,76.6c-1.1-1.5-1.2-3.3-1.1-5.1C236.8,73,236.3,74.9,236.8,76.6z"/>
<path class="st9" d="M257.2,178.9c-0.9-1.4-0.9-3-0.8-4.6C257.1,175.8,257.4,177.3,257.2,178.9z"/>
<path class="st7" d="M148.5,271.8c0.2-1.2-0.7-2.6,0.8-3.4c0.2,1.2,0.1,2.4-0.4,3.5c0,0-0.2,0-0.2,0L148.5,271.8z"/>
<path class="st4" d="M202.4,259.5c0.8-0.9,1.5-1.9,2.8-0.8C204.5,259.6,203.5,259.6,202.4,259.5z"/>
<path class="st9" d="M233.7,61.3c-1-1.1-0.8-2.4-0.8-3.7C233.8,58.8,233.8,60,233.7,61.3z"/>
<path class="st6" d="M161.9,224.3c-0.6,1.4-1.8,0.5-2.7,0.8C159.8,223.8,160.9,224.3,161.9,224.3z"/>
<path class="st9" d="M235.1,68.3c-0.9-1-0.9-2.1-0.7-3.3C235.3,65.9,235.1,67.1,235.1,68.3z"/>
<path class="st9" d="M251.6,150.4c-1.4-0.8-0.5-2.2-0.7-3.3C251.3,148.1,251.8,149.2,251.6,150.4z"/>
<path class="st3" d="M102.9,21.6c-0.8-0.1-1.9,0.6-2.4-0.7C101.4,21,102.4,20.6,102.9,21.6z"/>
<path class="st9" d="M241.8,102c-1.1-0.6-0.5-1.6-0.6-2.4C242,100.2,242.1,101,241.8,102z"/>
<path class="st9" d="M244.6,115.8c-1.1-0.6-0.5-1.6-0.6-2.4C244.7,114,244.9,114.9,244.6,115.8z"/>
<path class="st9" d="M239.1,88.1c-1.1-0.6-0.5-1.6-0.6-2.4C239.2,86.4,239.3,87.2,239.1,88.1z"/>
<path class="st5" d="M340.7,222.8c-0.8-0.2-1.5-0.4-1.8-1.2C340,221.3,340.6,221.7,340.7,222.8z"/>
<path class="st9" d="M243.8,112.1c-1.1-0.4-0.9-1.1-0.4-1.8C244,110.8,243.9,111.4,243.8,112.1z"/>
<path class="st9" d="M245.3,119c-1.2-0.3-1-1-0.5-1.8C245.4,117.7,245.3,118.4,245.3,119z"/>
<path class="st1" d="M87.6,244.9c0.5-0.6,1.2-0.4,1.9-0.4C89.1,245.7,88.4,245.5,87.6,244.9z"/>
<path class="st9" d="M243.2,108.9c-1-0.4-0.6-1.3-0.6-2C243.5,107.3,243.4,108.1,243.2,108.9z"/>
<path class="st4" d="M229.6,253c0.4-1.1,1.1-0.9,1.8-0.5C231,253.4,230.3,253.1,229.6,253z"/>
<path class="st4" d="M208.9,258c0.4-1,1.2-0.6,2-0.6C210.4,258.4,209.7,258.2,208.9,258z"/>
<path class="st5" d="M280.8,225.4c0.4-1.2,1.3-0.7,2.1-0.6C282.4,225.6,281.6,225.5,280.8,225.4z"/>
<path class="st4" d="M241.2,250.3c0.3-1.2,1.3-0.7,2-0.7C242.8,250.5,242,250.4,241.2,250.3z"/>
<path class="st9" d="M255,193.7c0-0.9,0.5-1.3,1.4-1.4C256.2,193.1,255.8,193.6,255,193.7z"/>
<path class="st9" d="M253.6,195c0.1-0.9,0.5-1.3,1.4-1.3C254.8,194.5,254.4,195,253.6,195z"/>
<path class="st9" d="M232.3,54.4c-0.8-0.5-0.9-1.2-0.7-2C232.4,52.9,232.3,53.7,232.3,54.4z"/>
<path class="st9" d="M242.4,104.7c-0.8-0.3-0.9-0.7-0.3-1.4C242.5,103.7,242.6,104.2,242.4,104.7z"/>
<path class="st3" d="M180.3,35c-0.6,0.8-1.1,0.7-1.4-0.3C179.4,34.6,179.9,34.6,180.3,35z"/>
<path class="st4" d="M287,234.6c-0.7,0.1-1.4,0.3-1.6-0.7C286.1,233.8,286.7,233.8,287,234.6z"/>
<path class="st4" d="M282.9,227.7c-0.7,0.1-1.4,0.3-1.6-0.7C282,226.9,282.6,226.9,282.9,227.7z"/>
<path class="st4" d="M238.4,251.1c0.3-0.8,0.9-0.6,1.5-0.6C239.6,251.3,239.1,251.4,238.4,251.1z"/>
<path class="st4" d="M235.6,251.7c0.3-0.9,0.7-1,1.4-0.4C236.7,251.9,236.2,251.8,235.6,251.7z"/>
<path class="st10" d="M269.8,215.1c-0.7,0.5-1.2,0.3-1.5-0.4C268.8,214.5,269.4,214.4,269.8,215.1z"/>
<path class="st4" d="M206.1,258.6c0.1-0.8,0.8-0.8,1.4-0.8c0,0.2,0,0.3,0,0.5C207.2,258.8,206.6,258.7,206.1,258.6z"/>
<path class="st9" d="M239.6,90.9c-0.8-0.3-0.9-0.7-0.3-1.4C239.8,89.9,239.8,90.4,239.6,90.9z"/>
<path class="st5" d="M319.6,221.5c-0.2,0.9-0.8,0.8-1.5,0.7C318.3,221.4,318.9,221.4,319.6,221.5z"/>
<path class="st3" d="M99.1,20.8c-0.8-0.1-1.6,0.3-2.3-0.4C97.7,20.3,98.5,20.2,99.1,20.8z"/>
<path class="st9" d="M252,152.2c-0.5-0.2-0.9-0.4-0.3-0.9C252,151.6,252.2,151.8,252,152.2z"/>
<path class="st9" d="M23.6,120.4c0.4,0.3,0.5,0.6,0,0.9C23.2,121,23.2,120.7,23.6,120.4z"/>
<path class="st9" d="M257.3,190.5c-0.6-0.6-0.2-0.8,0.4-0.9C257.8,190,257.6,190.3,257.3,190.5z"/>
<path class="st4" d="M232.4,252.4c0.2-0.5,0.6-0.7,1.1-0.5C233.3,252.4,233,252.8,232.4,252.4z"/>
<path class="st1" d="M84.8,245c0.3,0,0.6,0,0.9,0c0,0.3-0.1,0.6-0.5,0.6C85,245.6,84.9,245.3,84.8,245z"/>
<path class="st9" d="M27.7,170.2c0.4,0.3,0.5,0.6,0,0.9C27.4,170.8,27.4,170.5,27.7,170.2z"/>
<path class="st1" d="M93.2,244c0.2-0.4,0.5-0.5,0.9-0.4C94,244.2,93.8,244.7,93.2,244z"/>
<path class="st9" d="M20.8,85.8c0,0.2,0,0.3,0,0.5c0-0.1-0.1-0.2-0.1-0.3C20.6,85.9,20.7,85.9,20.8,85.8z"/>
<path class="st9" d="M257.6,179.8c-0.1-0.2-0.2-0.3-0.2-0.5C257.4,179.5,257.5,179.7,257.6,179.8z"/>
<path class="st1" d="M83.9,244.5c0.3-0.1,0.4,0.1,0.5,0.3C84.3,244.8,84.1,244.6,83.9,244.5z"/>
<path class="st9" d="M16.6,34.5c0,0.2,0,0.5,0,0.7C16.3,35,16.3,34.7,16.6,34.5z"/>
<path class="st9" d="M16.6,36c0,0.2,0,0.3,0,0.5c0-0.1-0.1-0.2-0.1-0.3C16.5,36.1,16.6,36.1,16.6,36z"/>
<path class="st9" d="M252.7,195.5c0.2-0.1,0.4-0.2,0.6-0.3C253.1,195.2,252.9,195.3,252.7,195.5z"/>
<path class="st4" d="M315.9,222.7c-0.2,0.4-0.3,0.3-0.4-0.1C315.6,222.7,315.7,222.7,315.9,222.7z"/>
<path class="st9" d="M18,52.6c0,0.2,0,0.3,0,0.5c0-0.1-0.1-0.2-0.1-0.3C17.9,52.7,17.9,52.7,18,52.6z"/>
<path class="st9" d="M232.7,55.8c-0.1-0.2-0.2-0.3-0.2-0.5C232.5,55.5,232.6,55.7,232.7,55.8z"/>
<path class="st9" d="M234,62.7c-0.1-0.1-0.2-0.3-0.2-0.4C233.9,62.4,234,62.6,234,62.7z"/>
<path class="st9" d="M235.4,69.6c-0.1-0.2-0.2-0.3-0.2-0.5C235.3,69.3,235.4,69.5,235.4,69.6z"/>
<path class="st9" d="M256.5,192.1c0.1-0.2,0.3-0.4,0.4-0.6C256.8,191.6,256.6,191.8,256.5,192.1z"/>
<path class="st3" d="M46.1,82.5c-1.8-1.5-1.7-2.9-0.5-5c1-1.7,3.6-3,2.4-5.6c2.2-1.7,2.3-4.2,2.5-6.7c0.1-0.5,0.9-1.1,1.4-1.4
	c1-0.6,1.6-1.4,1.5-2.6c-0.1-1.1,0.5-1.9,1.2-2.6c0.8-0.8,1.3-1.7,0.5-2.9c-0.5-0.8-0.1-1.3,0.5-1.7c0.9-0.5,1.7,0,2.3,0.4
	c0.7,0.4,0.7,1.3,0.2,1.8c-1,1-1.5,2.3-2.3,3.4c-0.6,0.8-1.3,1.5-0.8,2.7c0.2,0.6-0.1,1.1-0.6,1.4c-1,0.8-1.2,1.8-1.2,3.1
	c0.1,2.2-2.2,3.1-3,4.9c-0.6,1.2-1.2,2.3,0,3.2c1.4,1.1,1.9-0.2,2.7-1.3c2.4-3.2,3.7-7,6.3-10.1c0.3-0.4,0.6-0.9,1-1.2
	c0.4-0.3,0.9-0.4,1.2,0.1c0.2,0.3,0.2,0.9-0.2,1c-1.5,0.6-1.4,2.6-2.9,3.1c-0.4,0.1-0.9,0.6-0.7,1.1c0.7,1.5-0.4,2.4-0.8,3.6
	c-0.5,1.8-0.2,3.9-2.4,5c-0.4,0.2-0.2,1.1-0.1,1.7c0.4,1.3,3,3.2,4.3,2.9c1.8-0.5,2.2-2,2-3.6c-0.4-2.6,0.3-4.7,2.8-5.8
	c0.1-0.1,0.3-0.2,0.3-0.3c0.4-2.6,2.5-4.4,3.5-6.5c0.9-2,2.6-3.4,3.3-5.5c0.4-1.1,0.7-1.7-0.1-2.8C69.6,54.8,70,54,71.7,54
	c0.4,0,1,0,1.1-0.1c0.7-1.5,2.1-1.8,3.3-2.4c1.8,0.2,3.6,0.5,5.5,0.7c0.4,1.4,1.1,1.3,1.9,0.3c7.1,0.8,14.3,1.6,21.4,2.4
	c5.6,0.7,11.2,1.5,16.8,2.2c0,1.6-1.1,1.5-2.3,1.6c-4.7,0.1-9.4-0.8-14.2-0.5c-1.2,0.1-2.1,0.4-2.9,1.3c-1.5,1.6-3.2,3.2-4.8,4.6
	c-3,2.5-5.8,5.1-7.8,8.6c-0.8,1.4-0.9,3.3-2.6,4.2c-1.1,0.6-1.8,1.4-2.2,2.5c-0.3,0.9-0.8,1.1-1.5,0.6c-1.9-1.3-2.3-0.2-2.9,1.5
	c-0.5,1.3,0.7,1.9,0.7,3c-1.1,0.5-2.2-1-3.2,0c-1.5,0-3.1-0.1-4.6-0.1c-1.2-1.7-2.9-0.5-4.3-0.8c-1,0-2,0-3,0c-0.6,0-1.3,0-1.9,0
	l0,0c-1.8-0.4-3.6-1.5-5.5-0.5c-1.2,0-2.5-0.1-3.7-0.1c-1.6-1.6-3.3-0.8-5-0.4C48.6,82.5,47.4,82.5,46.1,82.5z"/>
<path class="st11" d="M51.1,130.8c0.1-0.3,0.2-0.7,0.3-1c0.4,0,0.7,0,1.1,0c3.2,0.7,6.5,0.2,9.8,0.3l0.2,0.1l0.2,0
	c4.8,0,9.5,0,14.3,0c0.9,0,1.8,0.1,2.8,0.1c18.8,0,37.5,0,56.3,0c0.7,0,1.4-0.1,2.1,0.1c0.9,0.2,1.8,0.5,2,1.6
	c0.4,1.9,1,3.8,0.9,5.9c-0.1,0.9-0.1,1.7-1.4,1.6c-0.6-0.1-1.2-0.3-1.8-0.3c-12.6,0.2-25.3,0.1-37.9,0.4
	c-15.3,0.4-30.5,0.2-45.8,0.3c-1,0-1.8-0.3-2.6-0.9C51.3,136.1,51,133.4,51.1,130.8z"/>
<path class="st11" d="M66,83.5c1,0,2,0,3,0c1.2,1.5,2.8,0.6,4.3,0.8c1.5,0,3.1,0.1,4.6,0.1c1.6,0.9,3.4,0.3,5.1,0.5
	c2.3,0.2,4.6,0.3,6.9,0.5c0.8,0.8,1.8,0.4,2.8,0.3c1.5,0,3.1,0.1,4.6,0.1c2.2,1,4.5,0.9,6.8,0.7c1,0,1.9,0.1,2.9,0.1
	c1.6,1,3.4,0.4,5,0.5c0.8,0,1.5,0,2.3,0.1c2.7,0.6,5.4,0.9,8.2,0.8c1.1,0,2.2,0.1,3.4,0.1c1.5,0.9,3,0.4,4.6,0.4
	c3.4,0.4,5.2,5.4,3.2,8.4c-5.8-0.4-11.6-0.9-17.4-1.2c-16.1-1-32.3-1.9-48.4-2.8c-6.1-0.4-12.2-0.7-18.4-1c-2.1-0.1-3.4-0.8-3.6-3.2
	c-0.1-1.8-0.3-3.7-0.4-5.5c0.2-0.2,0.4-0.4,0.6-0.6c1.2,0,2.5,0,3.7,0c1.6,1,3.4,0.3,5,0.4c1.2,0,2.5,0.1,3.7,0.1
	c1.8,0.9,3.7,0.3,5.5,0.5c0,0,0,0,0,0C64.7,84.1,65.4,84,66,83.5z"/>
<path class="st3" d="M77,130c-4.8,0-9.5,0-14.3,0c-0.1-0.1-0.3-0.2-0.4-0.4c-3.3-0.7-6.5-0.9-9.8,0.1c-0.4,0-0.7,0-1.1,0
	c-1.3,0.1-2.3-1.2-3.7-1.1c-0.5,0-0.6-0.5-0.7-1c-0.3-3.1-0.6-6.2-0.9-9.3c-0.1-0.6-0.2-2,1.1-1.2c3.4,2.1,6.9,0.2,10.3,0.4
	c2.2,0.1,4.3-0.5,6.5-0.8c0.6-0.1,1.3,0.1,1.5-0.7c0,0,0-0.2,0-0.2l0.2,0.1l0.2,0c3.6,0.1,7.1,0.2,10.7,0.4l-0.1,0.2
	c0.4,1,0.9,1,1.5,0.1c0.3-0.1,0.5-0.2,0.8-0.3c4.4,0,8.9,0.1,13.3,0.1c0.3,0.2,0.5,0.4,0.8,0.7c-1.8,0-3.7,0.2-5.5,0.1
	c-2-0.1-3.8,0-4.1,2.6c-0.1,0.5-0.8,0.9-1.2,1.4c-1.2,1.5-2.7,2.8-1.9,5.1c0.4,1.1-0.4,2-1.4,2.6C78.1,129.1,77.1,128.9,77,130z
	 M55.3,123.9c0-1.5-0.7-2.4-1.5-2.4c-1,0-4,2-4,2.6c0,0.8,0.6,1.6,1.2,1.3C52.4,124.5,54.8,126.1,55.3,123.9z"/>
<path class="st3" d="M46.7,105.4c-1.5-1-2.6-2.3-4-3.5c-1.6-1.4-1.8-3,0.1-4.1c1.9-1.1,3.2-2.5,3.4-4.8c1.4,0.4,2.8,0.5,4.3,0.6
	c9,0.5,18,1,27.1,1.5c-0.1,1.1,0,2.2,1.5,2.3c0.3,0,0.7,0.3,0.6,0.6c-1.3,1.4,0.2,3.8-1.7,5c-0.6,0.4-0.9,0.8-0.8,1.5
	c0.2,0.8,0.9,0.7,1.5,0.7c0.6,0,1.3-0.1,1.7,0.5c-5.9-0.2-11.7-0.4-17.6-0.6c-2.7-0.9-5.4-1.2-8.2-0.4c-1.9,0.4-3.8-0.6-5.7,0.1
	c-0.2,0-0.3,0.1-0.3,0.3l-0.1,0.2C47.8,105.3,47.2,105.3,46.7,105.4z"/>
<path class="st8" d="M81.6,52.1c-1.8-0.2-3.6-0.5-5.5-0.7c-10.3-1.3-20.6-2.6-31-3.8c-1.4-0.2-2.7-0.4-3.8-1.3
	c0.1-0.6,0.1-1.2,0.2-1.9c1,0.6,1.9,1.5,3.2,1.4c0.1,0.2,0.3,0.3,0.5,0.1c0.4,0.1,0.9,0.2,1.3,0.3c0.2,0.5,0.5,0.6,0.9,0.2
	c0.9,0.1,1.8,0.2,2.8,0.2c0.3,0.5,0.7,0.6,1.1,0.4c0.5,0,1.1,0.1,1.6,0.1c0.2,0,0.3,0,0.5,0c1.5-0.1,3.1,0.3,4.6,0.4
	c3.1,0.2,6.2,1.4,9.3,0.9c0.8,0.2,1.6,0.3,2.4,0.1c0,0.4,0.2,0.6,0.6,0.6c7.5,1,15,1.9,22.5,2.8c8.3,1,16.5,2,24.8,3
	c6.6,0.8,13.2,1.7,19.8,2.5c6.9,0.9,13.8,1.7,20.7,2.6c6.1,0.8,12.1,1.6,18.2,2.3c6.7,0.8,13.3,1.7,20,2.4
	c5.9,0.6,11.6,1.8,17.5,1.9c-0.3,1.3-1.2,1.3-2.3,1.3c-2.8,0.1-5.5-1-8.3-0.7c-1.8-0.1-3.4-1.2-5.3-0.4c0,0-0.1,0-0.1,0
	c-0.4-0.2-0.8-0.5-1.2-0.5c-3.1-0.5-6.2-0.9-9.3-1.3c-2.7-0.3-5.5-0.6-8.2-0.9c-5.2-0.7-10.4-1.5-15.7-1.8c-2.9-0.9-6-0.8-9-1.3
	c-10.9-1.5-21.9-2.7-32.9-4c-5.6-0.7-11.2-1.5-16.8-2.2c-7.1-0.9-14.3-1.6-21.4-2.4C83,51.9,82.3,52,81.6,52.1z"/>
<path class="st8" d="M77.5,95.1c-9-0.5-18-1-27.1-1.5c-1.5-0.1-2.9-0.2-4.3-0.6c-2.1-1.4-3.6-6.7-2.5-9c0.4-0.9,1.2-0.8,2-0.9
	c0.1,1.8,0.3,3.7,0.4,5.5c0.2,2.4,1.5,3.1,3.6,3.2c6.1,0.3,12.2,0.7,18.4,1c16.1,0.9,32.3,1.9,48.4,2.8c5.8,0.3,11.6,0.8,17.4,1.2
	c-0.4,1.2-1.5,1.2-2.5,1.2c-1.4-0.1-2.7-0.3-4.1-0.3c-11.6-0.7-23.2-1.3-34.8-1.9c-1.2-0.4-2.5-0.2-3.8-0.1
	C84.9,95.5,81.2,95.3,77.5,95.1z"/>
<path class="st8" d="M51.7,138.7c0.8,0.5,1.6,0.9,2.6,0.9c15.3-0.1,30.5,0,45.8-0.3c12.7-0.3,25.3-0.2,37.9-0.4
	c0.6,0,1.2,0.2,1.8,0.3c-0.3,1-1.2,0.8-1.9,0.9c-3.7,0.2-7.4,0.3-11,0.4c-8.7,0.1-17.5,0.2-26.2,0.3c-3.8,0-7.7,0-11.5,0
	c-2.8-0.1-5.6-0.3-8.4,0.1c-7.8,0.2-15.6,0.3-23.5,0.5c-2.3-0.2-4.9,0.6-6.9-1.2c-0.2-1-0.7-2-0.2-3.2
	C50.5,137.7,50.1,139.2,51.7,138.7z"/>
<path class="st4" d="M44.7,45.8c-1.3,0.1-2.2-0.8-3.2-1.4c-0.5-2.3-0.9-4.6-0.4-6.9c1.7-1,3.4-0.3,5.1-0.1c2.9,0.4,5.7,0.8,8.5,1.2
	c-1.6,0.2-3.5,0-4.3,1.9c-0.7,1.7,0.3,4.1,2.3,5.2c2.3,1.3,4.6,1.2,5.6-0.2c1.1-1.4,0.6-4.2-0.9-5.7c-0.4-0.4-0.8-0.6-1.2-0.9
	c2.1-0.4,3.9,1,6,0.6c0.8,0,1.5,0.1,2.3,0.1c0.8,0.9,1.8,0.4,2.8,0.5c0.3,0,0.6,0,0.9,0c0,0.1,0,0.3,0,0.4c-4.1,0.1-5.4,1.4-4.6,4.4
	c0.5,1.8,2,2.8,3.7,3.4c-3.2,0.5-6.2-0.7-9.3-0.9c-1.5-0.1-3-0.4-4.6-0.4c-0.1-0.2-0.3-0.2-0.5,0c-0.5,0-1.1-0.1-1.6-0.1
	c-0.3-0.5-0.6-0.7-1.1-0.4c-0.9-0.1-1.8-0.2-2.8-0.2c-0.3-0.4-0.6-0.5-0.9-0.2c-0.4-0.1-0.9-0.2-1.3-0.3
	C45,45.8,44.9,45.8,44.7,45.8z"/>
<path class="st8" d="M92.2,116.4c-4.4,0-8.9-0.1-13.3-0.1c-0.7-0.7-1.5-0.6-2.2-0.1c-3.6-0.1-7.1-0.2-10.7-0.4
	c-0.1-0.3-0.2-0.3-0.3-0.1c0,0,0,0.2,0,0.2c-5.2-0.2-10.5-0.4-15.7-0.5c-0.2-0.5-0.6-0.5-1-0.4c-0.1,0-0.3,0-0.4-0.1
	c-0.3-0.7-0.5-1.4,0.6-1.6c0.7,0.4,1.5,0.7,2.4,0.7c5.6,0.2,11.2,0.6,16.8,0.7c16,0.2,32.1,0.7,48.1,1.2c6.7,0.2,13.5,0.4,20.2,0.5
	c0,0.2,0,0.4,0,0.6c-0.1,0-0.3,0.1-0.4,0.2c-0.5,0-1-0.1-1.3,0.4c-0.5,0-1,0-1.5,0c-2.7-0.7-5.5-0.4-8.2-0.8c-0.1,0-0.3,0.3-0.5,0.4
	c-1.6,0-3.1,0.2-4.7-0.2c-0.6-0.5-1.2-0.5-1.7,0c-1.3,0-2.5,0-3.8,0c-0.3-0.4-0.5-0.4-0.8,0c-4.3,0.2-8.7-0.1-13-0.3
	C97.8,115.7,94.9,116.5,92.2,116.4z"/>
<path class="st12" d="M56.3,38.9c0.4,0.3,0.9,0.6,1.2,0.9c1.5,1.4,1.9,4.2,0.9,5.7c-1,1.4-3.3,1.5-5.6,0.2c-1.9-1.1-3-3.5-2.3-5.2
	c0.9-1.9,2.7-1.7,4.3-1.9C55.3,38.7,55.8,38.8,56.3,38.9z"/>
<path class="st7" d="M48.9,113.3c-1.1,0.2-0.9,0.9-0.6,1.6c-1.4-0.1-2-0.8-2.2-2.1c-0.3-2.5-1.2-5,0.5-7.4c0.6-0.1,1.2-0.1,1.7-0.2
	C48.3,107.9,48.3,110.7,48.9,113.3z"/>
<path class="st7" d="M51.7,138.7c-1.6,0.5-1.2-1.1-1.6-1.8c-0.5,1.2,0.1,2.2,0.2,3.2c-1.7-1.1-2.4-7.6-0.8-8.8
	c0.5-0.4,1-0.7,1.7-0.6C51,133.4,51.3,136.1,51.7,138.7z"/>
<path class="st7" d="M41.1,37.5c-0.5,2.3-0.1,4.6,0.4,6.9c-0.1,0.6-0.1,1.2-0.2,1.9c-1.8-1.3-3.3-6.2-2.4-8
	C39.4,37.3,40.3,37.4,41.1,37.5z"/>
<path class="st7" d="M48.8,115c0.4-0.1,0.8,0,1,0.4C49.2,115.8,49,115.4,48.8,115z"/>
<path class="st9" d="M100.5,116.8c4.3,0.2,8.6,0.5,13,0.3c0.3,0,0.5,0,0.8,0c1.3,0,2.5,0,3.8,0c0.6,0,1.2,0,1.7,0
	c1.5,0.3,3.1,0.2,4.7,0.2c2.9,0.6,5.8,0.4,8.7,0.3c0.5,0,1,0,1.5,0c0.4,0,0.9,0,1.4,0c0.1-0.2,0.2-0.4,0.4-0.6c0-0.2,0-0.4,0-0.6
	c1.1-0.3,1.1-1.2,1-2c-0.1-1.2-0.4-2.4-0.5-3.6c-0.1-1.9-1.1-2.8-2.9-2.8c-2.9-0.1-5.8-0.2-8.7-0.4c-6.9-0.3-13.8-0.7-20.8-0.9
	c-8.1-0.3-16.2-0.6-24.3-1.1c-0.4-0.6-1.1-0.4-1.7-0.5c-0.6,0-1.3,0.1-1.5-0.7c-0.1-0.7,0.2-1.2,0.8-1.5c1.9-1.2,0.5-3.5,1.7-5
	c0.2-0.2-0.2-0.5-0.6-0.6c-1.5-0.1-1.6-1.2-1.5-2.3c3.7,0.2,7.4,0.4,11.1,0.6c1.2,1.3,2.5,1,3.8,0.1c11.6,0.6,23.2,1.3,34.8,1.9
	c1.4,0.1,2.7,0.3,4.1,0.3c1,0,2,0,2.5-1.2c2-3.1,0.2-8.1-3.2-8.4c-1.4-1.5-3-0.8-4.6-0.4c-1.1,0-2.2-0.1-3.4-0.1
	c-2.7-0.8-5.4-1.2-8.2-0.8c-0.8,0-1.5,0-2.3-0.1c-1.6-1.6-3.3-0.8-5-0.5c-1,0-1.9-0.1-2.9-0.1c-2.2-1-4.5-0.7-6.8-0.7
	c-1.5,0-3.1-0.1-4.6-0.1c-0.8-1.4-1.8-0.9-2.8-0.3c-2.3-0.2-4.6-0.3-6.9-0.5c-0.5-0.7-1.2-0.4-1.9-0.5c0-1-1.2-1.6-0.7-3
	c0.6-1.7,1-2.8,2.9-1.5c0.8,0.5,1.2,0.4,1.5-0.6c0.3-1.2,1.1-2,2.2-2.5c1.7-0.8,1.8-2.8,2.6-4.2c2-3.4,4.8-6,7.8-8.6
	c1.7-1.4,3.3-3,4.8-4.6c0.9-1,1.7-1.3,2.9-1.3c4.8-0.3,9.5,0.6,14.2,0.5c1.1,0,2.2,0,2.3-1.6c11,1.3,22,2.5,32.9,4
	c3,0.4,6.1,0.3,9,1.3c0.2,1.4,1.3,1.6,2.3,1.8c4.5,0.6,9,1.3,13.6,1.8c2.1,0.2,4.1,0,4.1,3c0,0.2,0.3,0.5,0.6,0.7
	c1.8,1,2.7,2.9,3.9,4.4c0.8,1,1.3,2.5,0.5,3.9c-0.8,1.3-1.9,1.8-3.5,1.5c-0.9-0.2-1.8,0-2.8,0c-1.7-1.7-3.5-3.4-5.2-5.1
	c-0.7-0.7-1.4-1.2-2.3-0.3c-0.8,0.9-0.6,1.6,0.1,2.4c0.8,0.9,2,1.5,2.5,3.1c-1.3-0.2-2.3-0.3-3.3-0.4c-1.1,0-2.2-0.1-3.3-0.1
	c-1.4-0.6-3-1-4.4-0.8c-2.6,0.3-5.3-1.3-7.8,0.4l-0.1,0.1c-2.5,0.7-4.2,3-3.9,5.4c0.8,5,1.7,10.1,2.5,15.1
	c0.8,5.2,1.6,10.4,2.4,15.6c0.7,4.7,1.4,9.4,2.2,14c0.8,5.3,1.8,10.7,2.4,16c0.7,6.4,2.5,11.2,11,10.4c3.8-0.4,7.7-0.3,11.5-0.4
	c1.1,1.2,2.8,1.4,4.1,1.5c2,0.2,3.8,0.6,5.6,1.5c2.2,1.1,3,2.5,1.8,4.7c-0.1,0.2-0.4,0.4-0.4,0.6c0.2,3.5-2.8,4.7-4.5,6.9
	c-0.9,1.2-1.2,2.9-2,4.3c-0.6,1.1-1.3,2.4-3,1.6c-0.8-0.3-1.2,0.2-1.4,0.8c-0.4,1.6-1.6,1.9-3,1.8c-1.4-0.1-2.5,0.3-3.4,1.4
	c-0.8,1-1.6,1.5-3.2,1.2c-1.3-0.3-2.5,1-3.6,1.7c-1.2,0.7-2.5,1.8-3.6,1.8c-2.2,0-4.7,1-6.2,0.5c-2.3-0.8-4.8,0.9-6.8-0.9
	c-0.1-0.1-0.4,0-0.4,0c-1.9,2.2-3.7,0.4-5.6,0.1c-1.6-0.2-3.3,0.1-5,0.4c-0.8,0.2-1.7,0.2-2.1-0.4c-1.1-1.4-2.5-1.9-4.1-2.4
	c-1.3-0.4-2.1-1.1-3.5-0.4c-0.8,0.5-1.6-0.3-2.3-0.7c-1.5-1-2.9-1.3-4.5-0.3c-0.4,0.3-1.1,0.5-1.3,0.2c-0.8-1.7-3-1.8-3.9-3.4
	c-0.2-0.3-0.2-1-0.5-0.9c-3.4,1.2-4.1-3.5-7.2-3.3c-0.8,0.1-1.9-1.1-2.5-2.1c-1.7-2.7-4.4-4.4-7.2-5.8c-2.1-1-4.3-2.1-4.4-5
	c0-0.6-0.7-1.1-1.1-1.7c-0.3-0.4-1-0.8-1-1.2c0.1-2.9-2.7-3.5-3.9-5.3c-1.5-2.1-2.7-4.4-3.7-6.7c-0.6-1.3,0.7-2.1,1.8-2.5
	c1.4-0.5,2.8-0.8,4.3-0.7c1,0.1,1.7-0.1,1.6-1.3c8.7-0.1,17.5-0.1,26.2-0.3c3.7-0.1,7.4-0.2,11-0.4c0.7,0,1.6,0.1,1.9-0.9
	c1.2,0.1,1.3-0.6,1.4-1.6c0.1-2-0.5-3.9-0.9-5.9c-0.2-1.1-1.1-1.4-2-1.6c-0.7-0.1-1.4-0.1-2.1-0.1c-18.8,0-37.5,0-56.3,0
	c-0.9,0-1.8,0-2.8-0.1c0.1-1.1,1.1-0.9,1.7-1.2c1-0.6,1.8-1.4,1.4-2.6c-0.8-2.3,0.7-3.6,1.9-5.1c0.4-0.5,1.1-0.9,1.2-1.4
	c0.4-2.6,2.1-2.7,4.1-2.6c1.8,0.1,3.7-0.1,5.5-0.1C95.4,116.8,98,117.3,100.5,116.8z"/>
<path class="st13" d="M233.7,106l-0.2,0c0,0-0.2,0-0.2,0c-2.9-0.2-5.8-0.3-8.7-0.5c-2.5-0.1-2.7,0.1-2.3,2.6
	c0.1,0.3,0.2,0.6,0.2,0.9c-0.1,1.2-0.3,2.4,0.4,3.5c-0.5,0.4-0.3,1-0.4,1.5c-0.3,4.4-1.7,8.6-3.9,12.4c-2.6-0.7-5.3-0.6-8-0.4
	c-0.9-0.1-1.9-0.2-2.7,0.4c-2.9,0.4-5.6,1.3-7.9,3.1c-5.6-4.9-8.9-11-10.1-18.3c-0.7-4.5-0.5-8.8,2-12.8c0.3-0.3,0.7-0.6,1-0.9
	c3.3-3.8,7.5-5.9,12.5-5.9c1.4,0,2.8,0.2,4.2,0.2c0.3,0,0.6,0.1,0.9,0.1c3.9,1.4,7.2,3.6,9.3,7.3c0.7,3.4,0.8,3.5,4.2,3.7
	c3.2,0.1,6.4,0.3,9.6,0.4c0,0,0,0,0,0c0.2,0.1,0.3,0.3,0.5,0.4c0,0,0.1,0.1,0.1,0.1C234.3,104.6,234.5,105.5,233.7,106z"/>
<path class="st12" d="M218.7,126.4c2.2-3.8,3.6-8,3.9-12.4c0-0.5-0.1-1.1,0.4-1.5c0.4,1.6,0.1,3.3,1,4.8c1.6,8.3,3.1,16.6,4.7,25
	c-0.1,2.6,1,5.1,0,7.7c0,0,0,0,0,0c-0.2,0.3-0.4,0.5-0.5,0.8c0,0,0.1,0.1,0.1,0.1c-0.2,0.2-0.5,0.4-0.7,0.5c0,0.1-0.1,0.2-0.2,0.2
	c-0.5,0-0.9,0.1-1.4,0.1c-1.1-0.4-2.1-0.8-3,0.4c-5-0.3-9.9,0.7-14.9,0.5c-0.2-0.4-0.7-0.7-0.4-1.2c1.4-2.2,2.6-4.4,3.1-7
	c1.8-0.1,3.7-0.5,4.5-2.2c1.2-2.5,3.5-4.6,3.1-7.7c-0.1-0.8,0.6-1.4,0.9-2c0.8-1.7,1.3-3.4-0.4-5l0,0
	C219,127.1,218.8,126.8,218.7,126.4z"/>
<path class="st8" d="M226,151.7c0.5,0,0.9-0.1,1.4-0.1c-0.8,1.6-2.3,1.5-3.7,1.6c-11.9,0.5-23.8,0.9-35.6,1.4
	c-0.5,0-0.9,0.1-1.4,0.2c-3.8,0.1-7.7,0.1-11.5,0.4c-8.5,0.8-10.3-3.9-11-10.4c-0.6-5.4-1.5-10.7-2.4-16c-0.7-4.7-1.5-9.4-2.2-14
	c-0.8-5.2-1.5-10.4-2.4-15.6c-0.8-5-1.7-10.1-2.5-15.1c-0.4-2.4,1.4-4.8,3.9-5.4c-1.7,1.6-2.4,3.4-1.9,5.7c0.6,2.8,0.8,5.7,1.4,8.6
	c0.8,4.1,0.9,8.4,2.1,12.4c0.1,1.1,0.1,2.2,0.2,3.3c0.9,5.1,1.8,10.2,2.6,15.3c1.2,7.8,2.3,15.5,3.7,23.3c0.7,4.3,3.5,6.4,7.8,6.5
	c9.6,0,19.1-1.1,28.7-0.9c1.6,0,3.3,0,4.9-0.1c5,0.2,9.9-0.8,14.9-0.5C224,152.1,225.1,152.6,226,151.7z"/>
<path class="st6" d="M224,117.3c-1-1.5-0.7-3.2-1-4.8c-0.6-1.1-0.4-2.3-0.4-3.5c2.3-0.2,4.7-0.2,6.9,0.4c0.4,0.7,0.5,1.4,0.4,2.1
	c-1.5,0.7-3.1,0.5-4.6,0.1c-1.4-0.3-1.8,0.3-1.7,1.6C223.8,114.6,224.4,115.9,224,117.3z"/>
<path class="st2" d="M80.6,140.9c2.8-0.4,5.6-0.2,8.4-0.1c-0.1,0.1-0.1,0.4-0.2,0.4C86.1,141.7,83.3,142.2,80.6,140.9z"/>
<path class="st14" d="M228.7,149.9c1-2.6-0.1-5.1,0-7.7c0.4,1.8,0.9,3.6,0.8,5.4C229.5,148.5,229.6,149.4,228.7,149.9z"/>
<path class="st2" d="M230,111.6c0.1-0.8,0-1.5-0.4-2.1c1.2-1,1.9,0,2.1,0.9C232,111.8,230.9,111.6,230,111.6z"/>
<path class="st14" d="M228.2,150.7c0.2-0.3,0.4-0.5,0.5-0.8C228.7,150.3,228.6,150.6,228.2,150.7z"/>
<path class="st8" d="M227.6,151.3c0.2-0.2,0.5-0.4,0.7-0.5C228.2,151.2,228,151.4,227.6,151.3z"/>
<path class="st10" d="M214,66.6c-5.9-0.1-11.7-1.3-17.5-1.9c-6.7-0.7-13.4-1.6-20-2.4c-6.1-0.8-12.1-1.6-18.2-2.3
	c-6.9-0.9-13.8-1.7-20.7-2.6c-6.6-0.8-13.2-1.7-19.8-2.5c-8.3-1-16.5-2-24.8-3c-7.5-0.9-15-1.9-22.5-2.8c-0.3,0-0.5-0.2-0.6-0.6
	c1.8-0.6,2.3-1.9,2.2-3.7c0-1.7-1.2-2.5-2-3.6c1.3,0,2.5,0,3.8,0c0.3,0,0.6,0,0.9,0.1c1.6,0.9,3.6,0.3,5.2,1.3
	c-3.8,1.6-4.2,3.7-1.3,5.9c1,0.8,4.1,0.8,4.9,0.1c1.2-1.1,1.2-3.2-0.1-4.6c-0.5-0.5-1.2-0.9-1.8-1.3c0.3-0.1,0.7-0.1,1-0.2
	c0.8,0,1.5,0.1,2.3,0.1c0.7,0.7,1.5,0.4,2.4,0.4c0.4,0,0.9,0,1.3,0.1c1.5,0.8,3,1,4.7,0.8c0.4,0,0.9,0.1,1.3,0.1
	c0.8,0.8,1.9,0.4,2.8,0.4c0.3,0,0.6,0,0.9,0.1c1.5,0.6,3,1,4.7,0.8c0.5,0,0.9,0.1,1.4,0.1c0.8,0.8,1.8,0.4,2.8,0.4
	c0.4,0,0.9,0,1.3,0.1c1.5,0.8,3,1,4.6,0.8c0.5,0,0.9,0.1,1.4,0.1c1,0.9,2.2,0.4,3.3,0.4c0.1,0,0.3,0.1,0.4,0c1.5,0.6,3,0.8,4.6,0.8
	c0.3,0,0.6,0,1,0c1.1,1,2.4,0.4,3.7,0.5c0.1,0,0.3,0,0.5,0c1.6,0.7,3.3,1.1,5.1,0.8c0.3,0,0.6,0.1,0.9,0.1c1.1,0.9,2.5,0.4,3.7,0.5
	c0.3,0,0.6,0,0.9,0.1c1.3,0.6,2.7,1,4.2,0.8c0.5,0,0.9,0.1,1.4,0.1c1,0.8,2.1,0.4,3.2,0.5c0.3,0,0.6,0,0.9,0c1.3,0.7,2.7,1,4.1,0.8
	c0.5,0,0.9,0.1,1.4,0.1c1.3,0.9,2.8,0.4,4.1,0.5c0.1,0,0.3,0.1,0.4,0c1.5,0.8,3,1,4.6,0.8c0.3,0,0.6,0,0.9,0
	c2.9,0.8,5.8,1.1,8.7,1.3c0.5,0,0.9,0.1,1.4,0.1c4.4,0.8,8.9,1.7,13.4,1.8c0.3,0,0.6,0,0.9,0.1c1.3,0.5,2.7,1,4.2,0.8
	c0.4,0,0.9,0.1,1.3,0.1c2.6,0.9,5.3,0.8,8,1.3c3.4,0.7,6.9,1,10.4,1.5c0.7,0.1,1.2,0.3,1.6,0.8C214.6,62.5,214.8,65.7,214,66.6z"/>
<path class="st3" d="M198.1,66.9c1.8-0.8,3.5,0.3,5.3,0.4c0.8,1.7,2.6,1.9,4.1,2.3c1.7,0.4,3.6,0.6,5.4,0.6c1.6,0,2.5,0.6,3.4,1.9
	c1,1.4,1.7,3,2.8,4.4c0.7,0.9,1.4,1.5,2.3,2c-1.6-0.1-2.4,0.9-3.2,2.1c-0.4,0.6-0.3,1.6-1.3,1.7c-3.1-0.7-6.3,0.2-9.4,0l0,0
	c-1.1-1.5-2.4-1.1-3.7-0.5c-0.4,0-0.9,0-1.3,0c-0.2-0.1-0.4-0.3-0.6-0.4c-0.1-0.4-0.3-0.8-0.4-1.3C200.4,75.6,200.9,70.8,198.1,66.9
	z"/>
<path class="st3" d="M233.8,103.3c-3.2-0.1-6.4-0.3-9.6-0.4c-3.4-0.1-3.5-0.3-4.2-3.7c0.1-4.3-0.7-8.5-2.4-12.5
	c0.6-1.2,1.2-2.4,2.3-3.3c1.1,1.2,1.9,2.5,1.9,4.2c0.1,2.4,2.1,3.9,2.9,6c0.6,1.5,1.3,3,1.8,4.6c1.3,4,1.6,4.4,5.7,4.5
	C232.9,102.9,233.4,102.8,233.8,103.3z"/>
<path class="st13" d="M219.9,83.5c-1.1,0.8-1.7,2.1-2.3,3.3c-1,1.4-2.1,2.8-3.1,4.2c-0.9,1.3-1.8,1.5-3,0.4c0.5-2.9,2.9-4.7,4.3-7.2
	c0.7-0.5,1-1.2,1.1-2c1-0.1,0.9-1.1,1.3-1.7c0.8-1.2,1.6-2.2,3.2-2.1c0.2,0.2,0.4,0.3,0.5,0.5c0.2,1-0.4,1.8-0.5,2.7c0,0,0,0,0,0
	c-0.1,0.2-0.3,0.3-0.4,0.5C220.4,82.4,220.2,83,219.9,83.5z"/>
<path class="st3" d="M221.3,81.6c0.2-0.9,0.8-1.8,0.5-2.7C222.9,79.9,222.8,80.6,221.3,81.6z"/>
<path class="st3" d="M233.7,106c0.8-0.6,0.6-1.4,0.6-2.2C234.3,104.6,236.5,106,233.7,106z"/>
<path class="st3" d="M234.3,103.8c-0.2-0.1-0.3-0.3-0.5-0.4C234,103.5,234.1,103.6,234.3,103.8z"/>
<path class="st3" d="M221,82.1c0.1-0.2,0.3-0.3,0.4-0.5C221.2,81.8,221.1,82,221,82.1z"/>
<path class="st2" d="M187.3,56.7c-4.5-0.2-9-1-13.4-1.8c0.6-0.7,1.5-0.5,2.2-0.4c3.5,0.4,7,0.9,10.5,1.4
	C187,56,187.2,56.3,187.3,56.7z"/>
<path class="st2" d="M172.5,54.8c-2.9-0.2-5.9-0.6-8.7-1.3C166.8,52.8,169.7,53.3,172.5,54.8z"/>
<path class="st2" d="M82.6,42.3c-0.3,0.1-0.7,0.1-1,0.2c-0.6,0-1.1-0.1-1.7-0.1c-1.6-1.1-3.6-0.4-5.2-1.3
	C77.5,40.4,80.1,40.8,82.6,42.3z"/>
<path class="st2" d="M73.8,41.1c-1.3,0-2.5,0-3.8,0c-0.6-0.2-1.2-0.3-1.7-0.5c0-0.1,0-0.3,0-0.4C70.3,39.3,72.1,40,73.8,41.1z"/>
<path class="st2" d="M162.8,53.4c-1.6,0.2-3.2,0-4.6-0.8C159.8,52.2,161.5,51.8,162.8,53.4z"/>
<path class="st2" d="M102.8,45.1c-1.6,0.2-3.2-0.2-4.7-0.8C99.9,43.6,101.5,43.9,102.8,45.1z"/>
<path class="st2" d="M157.7,52.6c-1.4-0.1-2.9,0.4-4.1-0.5C155,51.7,156.5,50.9,157.7,52.6z"/>
<path class="st2" d="M132.8,49.3c-1.8,0.3-3.4-0.1-5.1-0.8C129.4,48.9,131.4,47.6,132.8,49.3z"/>
<path class="st2" d="M137.4,49.8c-1.2-0.1-2.6,0.4-3.7-0.5C135.1,48.9,136.4,48.2,137.4,49.8z"/>
<path class="st2" d="M127.3,48.4c-1.2-0.1-2.6,0.4-3.7-0.5C124.9,47.6,126.3,46.7,127.3,48.4z"/>
<path class="st2" d="M113,46.5c-1.6,0.2-3.2,0-4.6-0.8C109.9,46,111.7,44.9,113,46.5z"/>
<path class="st2" d="M93.2,43.8c-1.6,0.2-3.2,0-4.7-0.8C90,43.3,91.9,42,93.2,43.8z"/>
<path class="st2" d="M152.2,52c-1.5,0.3-2.8-0.1-4.1-0.8C149.4,51.6,151.1,50.4,152.2,52z"/>
<path class="st2" d="M147.1,51.2c-1.1,0-2.3,0.4-3.2-0.5C145.1,50.2,146.2,49.7,147.1,51.2z"/>
<path class="st2" d="M142.5,50.6c-1.5,0.3-2.9-0.1-4.2-0.8C139.7,50.2,141.4,49,142.5,50.6z"/>
<path class="st2" d="M122.7,47.9c-1.6,0.1-3.1-0.2-4.6-0.8C119.6,47.4,121.4,46.3,122.7,47.9z"/>
<path class="st2" d="M117.6,47.1c-1.1-0.1-2.3,0.4-3.3-0.4C115.5,46,116.7,45.5,117.6,47.1z"/>
<path class="st2" d="M192.3,57.5c-1.5,0.2-2.8-0.2-4.2-0.8C189.5,57.2,191.2,55.9,192.3,57.5z"/>
<path class="st2" d="M107,45.7c-1,0-2,0.3-2.8-0.4C105.2,44.7,106.3,44.1,107,45.7z"/>
<path class="st2" d="M67.3,40.1c-0.9-0.1-2,0.4-2.8-0.5C65.6,39.2,66.7,38.6,67.3,40.1z"/>
<path class="st2" d="M97.3,44.3c-1,0-2,0.4-2.8-0.4C95.6,43.3,96.6,42.7,97.3,44.3z"/>
<path class="st2" d="M87.2,42.9c-0.8,0-1.7,0.3-2.4-0.4C85.7,41.9,86.6,41.5,87.2,42.9z"/>
<path class="st4" d="M199.1,253.8c-1.8-0.4-3.6-0.7-5.4-1.1c0-0.6-0.4-1-1-0.8c-0.4,0-0.9,0-1.3-0.1c0-0.2,0-0.4,0-0.5
	c0-0.7,0.1-1.3,1.1-1.4c2.3-0.4,4.6-0.9,6.8-1.3c0.6-0.1,1.2-0.1,1.4-0.9c0.6,0,1.2-0.1,1.8-0.1c1.3,0.2,2.1-1,3.4-1
	c4.7,0,9-2.1,13.6-2.4c0.2,0,0.3-0.5,0.5-0.7c0.6,0,1.2-0.1,1.8-0.1c2.8-0.6,5.6-1.1,8.4-1.7c2.3-0.5,4.5-1.1,6.8-1.6
	c1.2,0.2,2.1-0.8,3.2-0.9c3.1,0.3,5.9-1.3,8.9-1.7c1.6-0.2,3.2,0,4.6-1.1c1.2-0.2,2.4-0.3,3.6-0.5c3.7-0.3,7.2,1,11.1,1.7
	c-1.8,1.6-4,1.5-6,1.9c-7.3,1.7-14.5,3.4-21.8,5c-11.7,2.5-23.3,5.4-35,7.7C203.4,252.8,201.2,253.4,199.1,253.8z"/>
<path class="st6" d="M257.3,236.1c-1.2,0.2-2.4,0.3-3.6,0.5c-0.1-2.1-1.2-3-3.3-2.7c-2-0.3-3.9-1.4-6-1.4c0.5-2.2,2.1-2.2,3.7-1.5
	c0.9,0.4,1.8,0.8,2.8,1c1.7,0.2,3.4,0.3,5,0.5C256.6,233.6,257.8,234.5,257.3,236.1z"/>
<path class="st5" d="M184,229.6c3.8-0.7,7.4-2.1,11.4-1.4c0.7,0.1,1.4,0,2-0.4c0.1,1.1,0.8,1.2,1.7,1.5c1.5,0.3,3.3,0.1,4.3,1.6
	c0.9,1.4,1.9,1.1,3.2,0.7c0.9-0.3,1-0.8,0.9-1.6c-0.2-1.3-1.4-1.4-2.3-1.8c-1.8-0.8-3.8-0.5-5.5-1.5c4.6-0.4,9-2.7,13.7-1.3
	c1.2,0.5,2.4,1,3.7,1c0.9,0,2.1,0.2,2.5,0.9c1.2,2.4,2.9,1.2,4.5,0.9c0.6-0.1,1-0.2,0.6-1c-0.5-1.1-0.9-1.8-2.4-1.9
	c-1.1-0.1-3,0.2-3.2-1.9c3-0.8,5.9-1.7,9.1-1c0.3,0.1,0.7-0.2,1-0.3c0.1,1,0.7,1.5,1.7,1.4c0.8-0.1,1.4,0.2,1.9,1
	c0.5,0.7,0.7,1.4-0.5,1.3c-1.4-0.1-2.3,1-3.7,1.1c-0.5,0-1,0.5-1.1,1.1c-0.1,0.8,0.7,0.6,1.2,0.7c0.9,0.2,1.8,0.5,2.7,0.6
	c2.5,0,4,1.7,5.6,3.1c-0.1,0.8-0.8,0.8-1.4,0.9c-0.9,0.2-2.1,0.1-2.4,1.4c-0.8-0.1-1.6,0-2.4-0.4c-2.2-1.1-2.6-0.8-3.1,1.7
	c-2-0.6-4-0.6-6,0c1-3.4,0.9-3.3-2.4-4.3c-1.6-0.5-3.4-0.5-4.8-1.9c-0.5-0.6-1.8-0.4-2.6,0.2c-0.4,0.3-0.9,0.8-0.7,1.3
	c0.4,0.9,1.3,0.9,2.1,1c2.5,0.6,5.1,1.1,6.5,3.7c-0.8,0.7-1.8,0.7-2.7,0.9c-1.1,0.2-1.5,0.8-1.4,1.8c-0.9-0.3-1.8-0.6-2.7-0.9
	c-1.8-0.7-3-0.3-3.8,1.5c-1.5,0-3.1,0-4.6,0c0-3.5,0-3.5-3.4-4.3c-1.1-0.3-2.8-0.4-3.1-1.1c-1.4-3-2.8-0.6-4.1-0.2
	c-0.4,0.1-1.1,0.4-1,1c0.1,0.6,0.7,0.7,1.2,0.8c2.8,0.7,5.8,1.3,7.8,3.7c0.1,0.1,0.3,0.1,0.4,0.1c-0.9,1.4-2.5,1.1-3.8,1.2
	c-1.2,0.2-1.8,0.6-1.7,1.8c-1-0.2-2.2-0.2-3.1-0.7c-2.2-1.4-3-0.3-3.5,1.7c-1.8-0.2-3.7-0.4-5.5-0.5c0.2-1.3,1.7-3-0.9-3.6
	c0-0.7-0.4-0.9-1-0.8c-0.6,0-1.2-0.1-1.7-0.1c-0.1-0.7-1.2-0.7-1.1-1.8c2.2-0.5,4.4-0.9,6.5-1.5c1.2-0.4,3.4,0.2,3.3-1.9
	c-0.1-2-2.1-1.8-3.4-2.2c-0.3-0.1-0.6,0-0.9-0.1C184.9,230.8,184.1,230.6,184,229.6z"/>
<path class="st5" d="M250.9,232c-1-0.2-1.8-0.6-2.8-1c-1.6-0.7-3.2-0.8-3.7,1.5c-1.7,0-3.4,0-5.1,0c0-3.2-0.1-3.4-3.4-4.1
	c-1.1-0.2-2.2-0.4-3.2-1.1c3.9-0.8,7.6-2.7,11.8-1.3c1.3,0.5,2.8,0.7,4.2,0.8c1.8,0.2,2.6,1,2.6,2.8
	C250.9,230.4,250.8,231.2,250.9,232z"/>
<path class="st5" d="M279.5,225.5c-2.9,2-6.2,0.6-9.3,1c-0.1-2.5-1.1-3.8-3.8-3.7c-1.1,0-3.2-0.1-3.1-1c0-1.5,1.8-0.6,2.9-0.9
	c4.1-1.3,8.1,0.5,12.2,0.6c0.8,0,1.1,0.7,1.1,1.5C279.5,223.8,279.5,224.6,279.5,225.5z"/>
<path class="st5" d="M265.6,227.4c-3.4,0.7-6.7,1.5-10.1,1.8c-0.3-4.4-4-3.6-6.7-4.6c3-0.9,5.8-2.5,9.1-1.6c1.8,0.4,3.6,1,5.4,1.1
	C265.7,224.1,266.2,225.3,265.6,227.4z"/>
<path class="st4" d="M239.3,232.4c1.7,0,3.4,0,5.1,0c2.1,0,4,1.1,6,1.4c-0.1,0.8-0.7,0.9-1.3,0.9c-3.4,0.3-6.7,1.7-10.2,1.4
	c-1.8-0.5-3.7-0.9-5.5-1.4c0.3-1.3,1.5-1.2,2.4-1.4c0.6-0.1,1.2-0.1,1.4-0.9C237.8,232.5,238.6,232.5,239.3,232.4z"/>
<path class="st1" d="M257.8,215.5c0.2,0.3,0.4,0.6,0.5,0.9c-0.9,0.7-2,0.8-3.1,0.9c-4,0.6-8.1,0.4-11.7,2.6c-3-0.6-5.9-0.2-8.7,0.9
	c-1.2,0.1-2.5,0.1-3.7,0.2c0-0.3,0-0.7,0-1c8.2-1.4,16.3-2.8,24.5-4.2C256.3,215.7,257,215.6,257.8,215.5z"/>
<path class="st4" d="M299.3,226.4c3.5-1.1,6.9,0.7,10.3,0.6c0.2,0,0.6,0.3,0.6,0.5c0.1,0.4-0.3,0.7-0.7,0.8
	c-3.1,0.8-6.2,1.7-9.3,0.6c-1.1-0.4-2.1-0.7-3.3-0.6c-1,0.1-1.4-0.4-1.3-1.4c0.3,0,0.6,0,0.9,0c0.4,0,0.7-0.1,0.9-0.5
	C298.1,226.4,298.7,226.4,299.3,226.4z"/>
<path class="st5" d="M234.7,220.8c2.8-1.1,5.7-1.5,8.7-0.9c0.2,1.4,1.3,0.9,2.2,1c0.4,0,0.8,0,0.9,0.5c0,0.5-0.3,0.7-0.7,0.8
	c-3.6,0.5-7.2,1.2-10.7-0.6C234.9,221.5,234.8,221.1,234.7,220.8z"/>
<path class="st5" d="M288.8,219c-2,1.5-4.1,0.9-5.9,1.3c-1,0.2-2.2-0.3-3.4-0.3c-0.6,0-1.2-0.2-1.2-0.8c-0.1-0.8,0.6-1,1.2-1
	C282.5,218.2,285.5,217.9,288.8,219z"/>
<path class="st10" d="M231.1,220c0,0.3,0,0.7,0,1c-0.3,0.5-0.9,0.4-1.3,0.4c0-0.3,0-0.7-0.1-1C230,220,230.5,220,231.1,220z"/>
<path class="st5" d="M297.4,226.4c-0.2,0.4-0.5,0.5-0.9,0.5C296.6,226.3,296.7,225.8,297.4,226.4z"/>
<path class="st5" d="M185.4,253.2c0.6,1.2,2,1.1,3,1.2c1.1,0.2,2.1,0.6,3.1,1c-2.9,2-6.4,1.8-9.6,2.7c-4.7,1.3-9.6,2.1-14.4,3.1
	c-4.5,1-9.1,1.8-13.6,3c-3.2,0.8-5.6-0.9-8.3-1.8c-0.5-0.2-0.9-0.7-1.3,0c-0.2,0-0.3-0.1-0.5-0.1c0-0.8-1.5-0.8-1.1-1.8
	c0.4-0.8,1.3-0.5,2.1-0.6c2.9-0.5,5.8-1.6,8.8-1.8c0.6,0,0.8-0.4,0.8-0.9c1.4,0.3,2.9,0.7,4.1-0.5c4.9-0.8,9.7-2.2,14.7-2.9
	c1.3-0.2,3.3,0,4.3-1.8c1.2,0.2,2.4,0.7,3.6,0C182.7,251.9,183.9,253.2,185.4,253.2z"/>
<path class="st7" d="M143.9,262.5c0.2,0,0.3,0.1,0.5,0.1c1,1.3,2.5,1.3,3.8,1.9c1.2,0.5,2.3,1.1,1.2,2.6c-3.5-2.4-7.5-3.7-11.5-4.7
	c0.5-1.3,1.3-1.6,2.6-1C141.5,262,142.6,262.4,143.9,262.5z"/>
<path class="st5" d="M129,256.1c-0.3,0-0.5-0.1-0.8-0.1c-0.1-1.6,1.2-1.7,2.1-1.8c2.8-0.3,5.4-1.4,8.3-1.5c0.4,0,0.6-0.4,0.7-0.8
	c0.9-0.1,1.8-0.1,2.7-0.2c1.6,0.2,3.1,0.4,4.7,0.5c1.2,1.5,3.2,1.3,4.7,2.2c-0.5,1.7-2.1,1.1-3.1,1.3c-3.7,0.9-7.5,1.4-11.2,2.2
	c-1.6,0.4-3-0.3-4.4-0.8C131.4,256.8,130.3,256,129,256.1z"/>
<path class="st5" d="M134.7,248.6c-1.3,1.7-3.3,1.5-5.1,1.8c-1.8,0.3-3.6,0.4-5.3,1.1c-2.4,1-4.5-0.2-6.4-1.3
	c-1.1-0.6-0.7-1.4,0.5-1.7c1.8-0.5,3.7-1.1,5.6-1.3c0.7-0.1,1.4,0.2,1.7-0.8c1.1,0,2.1-0.1,3.2-0.1c1.1,0.5,2.1,0.9,3.2,1.4
	C132.7,248.3,133.7,248.2,134.7,248.6z"/>
<path class="st7" d="M134.7,248.6c-0.9-0.4-2-0.3-2.8-0.9c0.6-2.6,1.6-3.2,3.9-2.2c0.8,0.3,1.7,0.5,2.6,0.8c1,0.2,2.1,0.4,3.1,0.6
	c0.1,0.5,0.4,0.9,1,0.8l0,0c0,1.4,0.1,2.8-0.6,4.1c-0.9,0.1-1.8,0.1-2.7,0.2C138,250.5,137.1,248.5,134.7,248.6z"/>
<path class="st7" d="M128.7,246.3c-1.1,0-2.1,0.1-3.2,0.1c-1.5-1.2-2.6-2.7-4.7-3c-0.7-0.1-0.9-0.8-1-1.4c0.9-1.1,1.8-2,3.3-1.8
	c0.6,1.9,2.5,1.6,3.9,2.2C129.2,243.2,129.7,244.3,128.7,246.3z"/>
<path class="st7" d="M105.6,248.6c-1.7-1-3.6-1.8-5.5-2.5c-0.7-0.3-1.6-0.5-2-1.3c0.7-0.7,1.6-0.2,2.3-0.5c1.3,1.5,3.3,1.7,4.9,2.5
	C106.6,247.3,106.8,247.8,105.6,248.6z"/>
<path class="st7" d="M105.1,252.3c-0.4-0.3-0.4-0.6,0.1-0.9C105.6,251.7,105.6,252,105.1,252.3z"/>
<path class="st7" d="M105.2,250.5c-0.1-0.4,0-0.8,0.4-1C106.3,250.2,105.8,250.3,105.2,250.5z"/>
<path class="st6" d="M143.9,236.6c5-0.8,9.8-2.7,15-1.9c0.7,0.1,1.5-0.1,2.3-0.1c0.5,0.9,1.4,1,2.3,1.2c1.7,0.5,3.3,1.1,4,3
	c-0.9,0.2-1.8,0.4-2.7,0.6c-1.6,0.3-4.1,0.3-4.4,1.5c-0.2,1.2,2.4,1.4,3.7,2.1c0.6,0.3,1.3,0.5,2,0.5c4.1-0.2,8-1.5,12.1-1.6
	c0.9,0,1.3-0.8,1.2-1.7c1.2,0.8,2.3,1.7,2.8,3.1c-1.7,1.2-3.8,0.9-5.6,1.5c-1,0.1-2.4-0.5-2.3,1.4c-0.5-0.1-1.1,0-1.6-0.2
	c-1.6-0.7-2.6-0.1-3.1,1.5c-1.9-0.2-3.7-0.4-5.6-0.6c0.5-1.9-0.2-3-2-3.7c-2-0.7-4.1-1.1-6.1-2.1c-1.3-0.6-2.2,0.3-2.4,1.6
	c-1.1,0-2.1-0.2-2.8-1c0.4-2.2-0.3-3.5-2.7-3.9C146.6,238,145.3,237.2,143.9,236.6z"/>
<path class="st6" d="M128.7,246.3c1-2,0.5-3.1-1.6-3.9c-1.4-0.5-3.3-0.2-3.9-2.2c5.9-0.8,11.6-3.7,17.8-1.4c2.6,0.4,4.6,2,6.7,3.3
	c-0.2,0.2-0.3,0.6-0.5,0.7c-2.6,0.5-5.2,1.2-7.8,1.5c-1.7,0.2-1.6,0.8-0.9,1.9c-0.9-0.3-1.7-0.5-2.6-0.8c-2.4-0.9-3.4-0.4-3.9,2.2
	C130.8,247.2,129.7,246.8,128.7,246.3z"/>
<path class="st6" d="M184,229.6c0,1,0.8,1.2,1.6,1.4c0.3,0.1,0.6,0,0.9,0.1c1.4,0.4,3.4,0.2,3.4,2.2c0.1,2.1-2.1,1.6-3.3,1.9
	c-2.1,0.6-4.4,1-6.5,1.5c0,1,1.1,1,1.1,1.8c-1.3,0-2.4-0.6-3.6-1.1c-1.6-0.6-2.8-0.4-3.3,1.5c-1.3-0.1-2.6-0.3-3.7-0.9
	c0.5-0.8,0.5-1.8,0.4-2.7c3.2,0.1,6.2-1.2,9.3-1.5c1-0.1,1.1-0.7,0.5-1.4c-0.3-0.4-0.8-0.7-1.2-1.1
	C180.6,229.5,182.4,229.6,184,229.6z"/>
<path class="st5" d="M179.7,231.3c0.4,0.3,0.8,0.7,1.2,1.1c0.6,0.7,0.5,1.3-0.5,1.4c-3.1,0.3-6.1,1.5-9.3,1.5c-0.3,0-0.6,0-0.9-0.1
	c-0.1-0.6-0.2-1.2-0.9-0.4c-0.6-0.2-1.2-0.3-1.9-0.5c-0.2-0.6-0.3-1.2-0.5-1.8c3.8-0.7,7.5-2.1,11.4-1.1
	C178.7,231.5,179.2,231.4,179.7,231.3z"/>
<path class="st7" d="M147.6,242.2c-2.1-1.3-4.1-2.9-6.7-3.3c0.4-1.5,1.4-2.3,3-2.3c1.4,0.5,2.8,1.3,4.2,1.6c2.4,0.4,3,1.7,2.7,3.9
	C149.7,242.1,148.7,242.2,147.6,242.2z"/>
<path class="st6" d="M219,223.6c0.2,2,2,1.8,3.2,1.9c1.4,0.1,1.9,0.8,2.4,1.9c0.4,0.8,0.1,0.9-0.6,1c-1.6,0.3-3.3,1.4-4.5-0.9
	c-0.4-0.7-1.6-0.9-2.5-0.9c-1.3,0-2.5-0.5-3.7-1C214.6,223.1,217,224,219,223.6z"/>
<path class="st7" d="M170.2,235.2c0.3,0,0.6,0,0.9,0.1c0.1,0.9,0.1,1.8-0.4,2.7c-1.1,0-2,1.1-3.1,0.8c-0.6-1.9-2.3-2.5-4-3
	c-0.9-0.2-1.8-0.3-2.3-1.2c0.8-1.4,2-1.8,3.4-1.3c0.7,0.8,1.7,0.9,2.8,1c0.6,0.2,1.2,0.3,1.9,0.5
	C169.4,235.2,169.8,235.2,170.2,235.2z"/>
<path class="st6" d="M199.6,226.7c1.7,1,3.8,0.7,5.5,1.5c1,0.4,2.1,0.5,2.3,1.8c0.1,0.7-0.1,1.3-0.9,1.6c-1.2,0.4-2.3,0.7-3.2-0.7
	c-1-1.6-2.8-1.3-4.3-1.6c-0.9-0.2-1.6-0.4-1.7-1.5C198,227.3,198.7,226.8,199.6,226.7z"/>
<path class="st6" d="M167.4,234.3c-1-0.1-2-0.2-2.8-1c0.5-1.1,1.5-0.8,2.3-0.8C167.1,233.1,167.2,233.7,167.4,234.3z"/>
<path class="st7" d="M151.3,254.5c-1.5-0.9-3.5-0.7-4.7-2.2c1.2-2,2.6-2.6,5-1.4c2,1,4.2,2,6.5,2.3c0.3,0,0.6,0.1,0.8,0.1
	c-0.1,1.2-0.3,2.4-0.4,3.6c-1.2,1.2-2.7,0.8-4.1,0.5C153.6,256.2,153.2,254.5,151.3,254.5z"/>
<path class="st5" d="M200.6,247.7c-0.1,0.8-0.8,0.8-1.4,0.9c-2.3,0.4-4.6,1-6.8,1.3c-0.9,0.2-1,0.7-1.1,1.4c-0.3,0-0.7,0.1-1,0.1
	c-0.3-0.1-0.6-0.3-0.9-0.4c0.2-1.8-0.9-1.7-2-1.3c-1.9,0.6-3.8,0.8-5.5-0.6c0-0.3,0-0.5,0-0.8c4.1-0.1,8-1.5,12-2
	c0.7-0.1,1-0.6,1.1-1.3c0.7,0.4,1.7,0.6,2.1,1.2C198,247.5,199.2,247.8,200.6,247.7z"/>
<path class="st6" d="M182,249.1c1.7,1.4,3.5,1.2,5.5,0.6c1.1-0.3,2.2-0.5,2,1.3c-1.6,0.2-3.7-0.3-4.1,2.2c-1.5,0-2.7-1.3-4.3-1
	C181.3,251.1,181.1,249.9,182,249.1z"/>
<path class="st6" d="M190.4,251.5c0.3,0,0.7-0.1,1-0.1c0,0.2,0,0.4,0,0.5C190.7,252.6,190.5,251.9,190.4,251.5z"/>
<path class="st6" d="M192.7,252c0.7-0.2,1,0.1,1,0.8C193.1,252.8,192.8,252.5,192.7,252z"/>
<path class="st2" d="M54.9,83c-1.7-0.1-3.4,0.5-5-0.4C51.6,82.1,53.3,81.4,54.9,83z"/>
<path class="st2" d="M73.3,84.3c-1.4-0.2-3.1,0.7-4.3-0.8C70.5,83.9,72.1,82.7,73.3,84.3z"/>
<path class="st2" d="M64.1,83.5c-1.8-0.1-3.7,0.4-5.5-0.5C60.5,82,62.3,83.1,64.1,83.5z"/>
<path class="st2" d="M81.2,84.4c0.6,0.1,1.4-0.2,1.9,0.5c-1.7-0.1-3.5,0.4-5.1-0.5C79,83.4,80.1,84.9,81.2,84.4z"/>
<path class="st2" d="M81.6,52.1c0.7-0.1,1.4-0.2,1.9,0.3C82.7,53.4,82.1,53.5,81.6,52.1z"/>
<path class="st2" d="M66,83.5c-0.6,0.5-1.3,0.6-1.9,0C64.8,83.5,65.4,83.5,66,83.5z"/>
<path class="st2" d="M52.5,129.7c3.3-0.9,6.5-0.8,9.8-0.1c0,0.1,0,0.2,0,0.3C59,130,55.7,130.4,52.5,129.7z"/>
<path class="st9" d="M62.3,130c0-0.1,0-0.2,0-0.3c0.1,0.1,0.3,0.2,0.4,0.4c0,0-0.2,0-0.2,0L62.3,130z"/>
<path class="st2" d="M114.4,87.2c2.8-0.4,5.5,0,8.2,0.8C119.8,88,117.1,87.8,114.4,87.2z"/>
<path class="st2" d="M107,86.6c1.7-0.3,3.5-1.1,5,0.5C110.4,87,108.6,87.6,107,86.6z"/>
<path class="st2" d="M97.3,85.8c2.3,0,4.6-0.2,6.8,0.7C101.8,86.8,99.5,86.8,97.3,85.8z"/>
<path class="st2" d="M125.9,88c1.6-0.4,3.2-1.1,4.6,0.4C129,88.4,127.4,89,125.9,88z"/>
<path class="st3" d="M89.9,85.4c1-0.5,2-1.1,2.8,0.3C91.8,85.7,90.8,86.1,89.9,85.4z"/>
<path class="st2" d="M55.3,123.9c-0.5,2.2-2.9,0.7-4.3,1.5c-0.6,0.4-1.2-0.5-1.2-1.3c0-0.6,3-2.6,4-2.6
	C54.7,121.5,55.4,122.4,55.3,123.9z"/>
<path class="st7" d="M100.5,116.8c-2.5,0.5-5.1,0-7.6,0.2c-0.2-0.2-0.5-0.4-0.8-0.7C94.9,116.5,97.8,115.7,100.5,116.8z"/>
<path class="st7" d="M76.6,116.2c0.8-0.6,1.5-0.6,2.2,0.1c-0.3,0.1-0.5,0.2-0.8,0.3c-0.5-0.3-1-0.3-1.5-0.1L76.6,116.2z"/>
<path class="st2" d="M76.5,116.4c0.5-0.2,1-0.2,1.5,0.1C77.5,117.4,77,117.4,76.5,116.4z"/>
<path class="st7" d="M65.5,115.8c0.2-0.3,0.3-0.2,0.3,0.1c0,0-0.2,0-0.2,0L65.5,115.8z"/>
<path class="st11" d="M80.3,105.6c8.1,0.4,16.2,0.8,24.3,1.1c6.9,0.2,13.8,0.6,20.8,0.9c2.9,0.1,5.8,0.3,8.7,0.4
	c1.8,0,2.8,0.9,2.9,2.8c0.1,1.2,0.4,2.4,0.5,3.6c0.1,0.9,0.1,1.7-1,2c-6.7-0.2-13.5-0.3-20.2-0.5c-16-0.5-32-1-48.1-1.2
	c-5.6-0.1-11.2-0.5-16.8-0.7c-0.9,0-1.6-0.3-2.4-0.7c-0.7-2.7-0.6-5.4-0.6-8.1c0,0,0.1-0.2,0.1-0.2c0.1-0.1,0.2-0.2,0.3-0.3
	c1.9-0.7,3.8,0.3,5.7-0.1c2.7,1,5.5,0.4,8.2,0.4C68.5,105.3,74.4,105.5,80.3,105.6z"/>
<path class="st2" d="M62.7,105.1c-2.7-0.1-5.5,0.6-8.2-0.4C57.3,103.8,60,104.2,62.7,105.1z"/>
<path class="st2" d="M48.8,104.7c-0.1,0.1-0.2,0.2-0.3,0.3C48.5,104.9,48.7,104.8,48.8,104.7z"/>
<path class="st3" d="M182.4,79.4c0.9,0,1.9-0.2,2.8,0c1.6,0.3,2.7-0.2,3.5-1.5c0.8-1.4,0.3-2.9-0.5-3.9c-1.2-1.5-2.1-3.4-3.9-4.4
	c-0.2-0.1-0.6-0.4-0.6-0.7c0.1-3-2-2.8-4.1-3c-4.5-0.5-9.1-1.1-13.6-1.8c-1.1-0.2-2.2-0.4-2.3-1.8c5.3,0.3,10.4,1.1,15.7,1.8
	c2.7,0.4,5.5,0.6,8.2,0.9c3.1,0.4,6.2,0.8,9.3,1.3c0.4,0.1,0.8,0.3,1.2,0.5c-1,1.4-1.3,2.8-1,4.5c0.6,3.2,1.1,6.4,1.6,9.7
	c-1.1-0.1-2.3-0.4-3.4-0.3c-1.5,0.1-2.1-0.5-2.3-2c-0.2-1.9-0.7-3.9-1.2-5.8c-0.2-0.6-0.6-1.4-1.5-1.2c-0.9,0.2-0.8,1-0.7,1.7
	c0.1,1.3,0.2,2.6,0.5,3.8c0.7,2.4-0.3,3.1-2.5,3c-1.5,0-2.9,0-4.4,0C183,80,182.7,79.7,182.4,79.4z"/>
<path class="st13" d="M198.7,81.1c-0.5-3.2-1-6.5-1.6-9.7c-0.3-1.7,0-3.2,1-4.5c0,0,0.1,0,0.1,0c2.8,3.9,2.3,8.7,3.4,13.1
	c0.1,0.4,0.3,0.8,0.4,1.3c0,0.2,0,0.4,0.1,0.6c0.2,1.3,0.5,2.7,0.6,4c0.1,0.8,0.5,1.9-0.9,2.1c-1.3,0.2-1.7-0.5-1.9-1.7
	c-0.2-1.6-0.6-3.1-0.9-4.7C198.7,81.5,198.7,81.3,198.7,81.1z"/>
<path class="st11" d="M68.3,40.6c0.6,0.2,1.2,0.3,1.7,0.5c0.8,1.1,2,1.9,2,3.6c0,1.8-0.5,3.1-2.2,3.7c-0.8,0.2-1.6,0.1-2.4-0.1
	c-1.7-0.6-3.2-1.6-3.7-3.4C62.9,41.9,64.2,40.7,68.3,40.6z"/>
<path class="st7" d="M50.3,46.5c0.5-0.4,0.9-0.1,1.1,0.4C50.9,47.1,50.5,47,50.3,46.5z"/>
<path class="st7" d="M46.5,46.1c0.4-0.3,0.7-0.2,0.9,0.2C47.1,46.7,46.8,46.5,46.5,46.1z"/>
<path class="st7" d="M44.7,45.8c0.2,0,0.3,0,0.5,0.1C45,46,44.9,46,44.7,45.8z"/>
<path class="st7" d="M53,47c0.2-0.2,0.3-0.2,0.5,0C53.3,47,53.2,47,53,47z"/>
<path class="st3" d="M92.3,95.8c-1.3,0.8-2.5,1.2-3.8-0.1C89.8,95.6,91.1,95.4,92.3,95.8z"/>
<path class="st7" d="M133.2,117.6c-2.9,0.1-5.8,0.2-8.7-0.3c0.2-0.2,0.3-0.5,0.5-0.4C127.7,117.2,130.5,116.9,133.2,117.6z"/>
<path class="st7" d="M119.9,117.1c-0.6,0-1.2,0-1.7,0C118.7,116.6,119.3,116.6,119.9,117.1z"/>
<path class="st7" d="M136.1,117.6c-0.5,0-0.9,0-1.4,0c0.3-0.5,0.8-0.4,1.3-0.4C136.1,117.3,136.1,117.5,136.1,117.6z"/>
<path class="st7" d="M114.3,117.1c-0.3,0-0.5,0-0.8,0C113.8,116.7,114.1,116.7,114.3,117.1z"/>
<path class="st2" d="M136.1,117.6c0-0.1,0-0.3,0-0.4c0.1-0.1,0.3-0.1,0.4-0.2C136.3,117.2,136.2,117.4,136.1,117.6z"/>
<path class="st12" d="M198.8,81.7c0.3,1.6,0.7,3.1,0.9,4.7c0.2,1.2,0.6,1.9,1.9,1.7c1.5-0.2,1-1.3,0.9-2.1c-0.1-1.4-0.4-2.7-0.6-4
	c0.2-0.1,0.4-0.1,0.5-0.2c0.4,0,0.9,0,1.3,0c1.2,0.7,2.4,0.6,3.7,0.5c0,0,0,0,0,0c1.9,0.7,4,0.1,5.9,1c-0.4,2.4-2.1,4.1-3.5,6
	c-0.6,0.9-1.4,1.7-0.2,2.7c-1.4-0.1-2.8-0.2-4.2-0.2c-5.1,0-9.2,2.1-12.5,5.9c-0.3,0.3-0.7,0.6-1,0.9c-1.9-0.7-3.4,0.1-4.6,2.4
	c-5.9-0.7-11.7-1.1-17.6-1.1c-0.7,0-1.7,0.1-1.5,1.2c0.2,1.1,0.7,1.7,2,1.7c4.7,0.2,9.3,0.6,14,0.9c0.6,1.6-0.3,3.2-0.3,4.8
	c-0.3,8.2,2.7,15.4,7.1,22.1c1.6,2.4,3.6,4.6,3.1,7.8c-0.2,1,0.7,1.8,1.3,2.6c2.6,3.7,4.5,7.9,7.8,11.1c0.1,0.1,0,0.4,0,0.7
	c-9.6-0.1-19.1,1-28.7,0.9c-4.3,0-7.1-2.2-7.8-6.5c-1.3-7.7-2.4-15.5-3.7-23.3c-0.8-5.1-1.7-10.2-2.6-15.3c1-0.1,2-0.2,3-0.2
	c4.9,0,9.8,0.7,14.7,0.5c0.6,0,1.5,0.2,1.6-0.8c0.1-1-0.5-1.6-1.4-1.8c-0.5-0.1-1.1,0-1.6-0.1c-5.5-0.6-11-0.1-16.5-0.9
	c-1.3-4-1.3-8.3-2.1-12.4c-0.6-2.8-0.9-5.7-1.4-8.6c-0.5-2.3,0.2-4.2,1.9-5.7c0,0,0.1-0.1,0.1-0.1c2.4-0.1,4.9-0.5,7.3,0.4
	c0.1,0.3,0.1,0.7,0.3,0.9c4.9,4.9,9.7,9.8,14.6,14.7c0.5,0.5,1,0.7,1.6,0.1c0.5-0.5,0.6-1.1,0.2-1.6c-0.5-0.7-1.1-1.3-1.6-1.9
	c-3.8-4-8-7.6-11.5-11.9c0.5-0.1,0.9-0.1,1.4-0.2c1.1,0,2.2,0.1,3.3,0.1c3.1,0,5.5,1.5,7.5,3.9c1.9,2.3,4.2,4.5,6.3,6.7
	c0.7,0.7,1.3,1.2,2.3,0.3c1.1-1,0.6-1.7-0.2-2.5c-2.3-2.4-4.5-4.8-6.7-7.2c1.5,0,2.9,0,4.4,0c1.2,0.8,2.7,0.3,4,0.8
	c0.7,3,1.4,6.1,1.6,9.2c0.1,1,0.6,1.9,1.7,1.8c1.3-0.2,1-1.2,0.8-2.2c-0.5-2.8-1.3-5.6-1.1-8.6C196.1,81,197.4,81.9,198.8,81.7z"/>
<path class="st13" d="M183.2,80.3c2.2,2.4,4.5,4.8,6.7,7.2c0.8,0.8,1.3,1.5,0.2,2.5c-1,0.9-1.6,0.4-2.3-0.3
	c-2.1-2.2-4.3-4.3-6.3-6.7c-2-2.4-4.3-3.9-7.5-3.9c1.1,0.1,2.1,0.3,3.4,0.4c-0.4-1.5-1.7-2.2-2.5-3.1c-0.7-0.8-0.9-1.5-0.1-2.4
	c0.9-1,1.6-0.4,2.3,0.3c1.7,1.7,3.5,3.4,5.2,5.1C182.7,79.7,183,80,183.2,80.3z"/>
<path class="st8" d="M170.9,78.9c-0.5,0.1-0.9,0.1-1.4,0.2c-1.2-0.1-2.3-0.1-3.5-0.2c-2.4-0.8-4.9-0.5-7.3-0.4
	c2.5-1.7,5.2-0.1,7.8-0.4C167.9,77.9,169.5,78.3,170.9,78.9z"/>
<path class="st14" d="M203.2,152.7c0-0.2,0.1-0.6,0-0.7c-3.3-3.2-5.1-7.4-7.8-11.1c-0.6-0.8-1.4-1.6-1.3-2.6
	c0.5-3.3-1.6-5.4-3.1-7.8c-4.4-6.7-7.3-13.9-7.1-22.1c0.1-1.6,0.9-3.1,0.3-4.8c4-0.3,4-0.3,3.2-2.8c1.2-2.3,2.7-3.1,4.6-2.4
	c-2.5,4-2.8,8.3-2,12.8c1.2,7.3,4.4,13.5,10.1,18.3c0.1,1.3-1,2.8-0.2,3.8c2,2.5,3.7,5.3,5.7,7.7c1.3,1.5,3.2,2.8,5.3,3.5
	c-0.5,2.6-1.7,4.8-3.1,7c-0.3,0.5,0.1,0.8,0.4,1.2C206.5,152.7,204.9,152.7,203.2,152.7z"/>
<path class="st8" d="M210.9,144.5c-2.1-0.7-4-2.1-5.3-3.5c-2.1-2.4-3.8-5.2-5.7-7.7c-0.8-1,0.4-2.5,0.2-3.8c2.3-1.8,5-2.8,7.9-3.1
	c0.2,0.4,1.2,0.8,0,1.3c-0.6,0.2-1.6,0.1-1.6,1c0.1,0.9,1.1,0.9,1.8,1.3c0.8,0.5,1.7,0.7,2.6,0.6c1.9-0.2,3.8-0.4,5.7-0.4
	c1.8,0,2.7-0.7,2.6-2.6c1.7,1.5,1.1,3.3,0.4,5c-0.3,0.7-1,1.2-0.9,2c0.4,3.2-1.9,5.2-3.1,7.7C214.5,144,212.7,144.4,210.9,144.5z"/>
<path class="st12" d="M211.6,91.4c1.2,1,2.1,0.8,3-0.4c1-1.4,2.1-2.8,3.1-4.2c1.7,4,2.5,8.2,2.4,12.5c-2.1-3.7-5.4-5.9-9.3-7.3
	C211,91.8,211.3,91.6,211.6,91.4z"/>
<path class="st7" d="M219.1,127.5c0.1,1.9-0.8,2.5-2.6,2.6c-1.9,0-3.8,0.3-5.7,0.4c-0.9,0.1-1.8-0.1-2.6-0.6
	c-0.6-0.4-1.7-0.4-1.8-1.3c-0.1-0.9,1-0.8,1.6-1c1.2-0.5,0.2-0.8,0-1.3c0.8-0.6,1.8-0.5,2.7-0.4c0.2,1.3,1.2,0.9,2,0.9
	C214.8,126.9,217,126.8,219.1,127.5L219.1,127.5z"/>
<path class="st14" d="M211.6,91.4c-0.3,0.2-0.6,0.4-0.9,0.6c-0.3,0-0.6-0.1-0.9-0.1c-1.3-1-0.4-1.8,0.2-2.7c1.3-1.9,3-3.6,3.5-6
	c1.1-0.2,1.8,0.4,2.4,1.1C214.5,86.7,212.1,88.5,211.6,91.4z"/>
<path class="st8" d="M219.1,127.5c-2.1-0.7-4.2-0.6-6.4-0.6c-0.8,0-1.8,0.4-2-0.9c2.7-0.2,5.4-0.3,8,0.4
	C218.8,126.8,219,127.1,219.1,127.5z"/>
<path class="st14" d="M226,151.7c-0.9,0.9-2,0.4-3,0.4C223.8,150.9,224.9,151.2,226,151.7z"/>
<path class="st14" d="M160.3,105.2c5.5,0.7,11,0.3,16.5,0.9c0.5,0.1,1.1-0.1,1.6,0.1c0.9,0.2,1.5,0.8,1.4,1.8c-0.1,1-1,0.8-1.6,0.8
	c-4.9,0.2-9.8-0.4-14.7-0.5c-1,0-2,0.1-3,0.2C160.4,107.5,160.3,106.4,160.3,105.2z"/>
<path class="st0" d="M79.9,42.4c0.6,0,1.1,0.1,1.7,0.1c0.6,0.4,1.3,0.8,1.8,1.3c1.3,1.4,1.3,3.5,0.1,4.6c-0.8,0.8-3.9,0.7-4.9-0.1
	C75.6,46.1,76.1,44,79.9,42.4z"/>
<path class="st2" d="M215.8,84.2c-0.6-0.7-1.3-1.3-2.4-1.1c-1.9-0.8-4-0.3-5.9-1c3.1,0.3,6.3-0.6,9.4,0
	C216.8,83,216.5,83.7,215.8,84.2z"/>
<path class="st2" d="M207.5,82.1c-1.3,0.1-2.5,0.2-3.7-0.5C205.1,81,206.4,80.7,207.5,82.1z"/>
<path class="st2" d="M202.5,81.7c-0.2,0.1-0.4,0.1-0.5,0.2c0-0.2,0-0.4-0.1-0.6C202.1,81.4,202.3,81.5,202.5,81.7z"/>
<path class="st5" d="M220,243.6c-0.2,0.2-0.3,0.7-0.5,0.7c-4.6,0.3-9,2.4-13.6,2.4c-1.3,0-2.2,1.2-3.4,1c0-1.2,0-2.5,0-3.7
	c3.7-0.2,7.3-1.4,10.9-1.9c0.7-0.1,1-0.6,1-1.3c1.3-0.3,2.2,0.4,3,1.3C218.1,242.8,218.8,243.7,220,243.6z"/>
<path class="st5" d="M237.1,240.2c-2.3,0.5-4.5,1.1-6.8,1.6c-2.8,0.6-5.6,1.1-8.4,1.7c0-1.2,0-2.4,0-3.7c3.6-0.3,7.2-0.9,10.7-1.9
	c0.3,0,0.5,0,0.8,0c0.2-0.2,0.3-0.3,0.5-0.5C235.6,237.6,236.5,238.7,237.1,240.2z"/>
<path class="st5" d="M238.9,236.1c3.5,0.3,6.8-1.1,10.2-1.4c0.7-0.1,1.2-0.1,1.3-0.9c2.1-0.3,3.2,0.6,3.3,2.7
	c-1.3,1.1-3,0.9-4.6,1.1c-3,0.4-5.7,1.9-8.9,1.7C240.4,238,240.1,236.9,238.9,236.1z"/>
<path class="st6" d="M202.4,244c0,1.2,0,2.5,0,3.7c-0.6,0-1.2,0.1-1.8,0.1c-1.4,0-2.6-0.2-3.5-1.6c-0.4-0.6-1.4-0.8-2.1-1.2
	c-1.5-0.7-3.3-0.2-4.6-1.4c0.5-1.9,1.2-3.1,3.5-1.7c0.8,0.5,2,0.5,3.1,0.7c0.5,0,0.9,0,1.4,0c0.1,0.9,0.7,0.9,1.4,0.9
	C200.6,243.7,201.5,244.1,202.4,244z"/>
<path class="st6" d="M238.9,236.1c1.3,0.7,1.6,1.9,1.4,3.2c-1.1,0.1-2,1.1-3.2,0.9c-0.6-1.5-1.5-2.7-3.3-2.7
	c-0.2,0.2-0.3,0.3-0.5,0.5c-0.3,0-0.5,0-0.8,0c-0.1-0.6-0.1-1.2-0.9-1.3c-1.3-0.2-2.5-0.3-3.8-0.5c0.4-2.5,0.9-2.8,3.1-1.7
	c0.8,0.4,1.6,0.3,2.4,0.4C235.2,235.2,237,235.7,238.9,236.1z"/>
<path class="st6" d="M221.8,239.9c0,1.2,0,2.4,0,3.7c-0.6,0-1.2,0.1-1.8,0.1c-1.2,0.1-1.9-0.7-2.6-1.5c-0.8-0.9-1.7-1.5-3-1.3
	c-1.6-0.7-3.6-0.2-5.1-1.4c0.8-1.7,2-2.2,3.8-1.5c0.9,0.4,1.8,0.6,2.7,0.9c0.9,0.2,1.8,0.3,2.7,0.5c0.3,0.5,0.6,0.5,0.9,0
	C220.3,239.5,221,239.7,221.8,239.9z"/>
<path class="st4" d="M190.4,243.5c1.3,1.2,3.2,0.7,4.6,1.4c0,0.7-0.4,1.2-1.1,1.3c-4,0.6-7.9,1.9-12,2c-0.6,0-1.1,0-1.7,0
	c-0.3-0.7-0.9-0.6-1.4-0.5c-0.4,0-0.9-0.1-1.3-0.1c-0.1-0.6-0.4-0.9-1-0.8l0-0.1c0-0.6,0-1.3,0-1.9c1.8-0.6,3.9-0.3,5.6-1.5
	c0.9-0.1,1.8-0.3,2.7-0.4C186.7,243.2,188.6,243.4,190.4,243.5z"/>
<path class="st4" d="M209.3,239.4c1.5,1.2,3.5,0.7,5.1,1.4c0,0.7-0.3,1.2-1,1.3c-3.7,0.5-7.2,1.7-10.9,1.9c-1,0.1-1.8-0.3-2.7-0.5
	c-0.1-0.9-0.8-0.9-1.4-0.9c-0.5,0-0.9,0-1.4,0c-0.1-1.3,0.5-1.7,1.7-1.8c1.3-0.2,2.9,0.2,3.8-1.2c0.8,0,1.5-0.1,2.3-0.1
	C206.3,239.4,207.8,239.4,209.3,239.4z"/>
<path class="st4" d="M218.6,239.3c-0.9-0.2-1.8-0.3-2.7-0.5c-0.1-1.1,0.3-1.6,1.4-1.8c0.9-0.2,1.9-0.2,2.7-0.9c0.6,0,1.2,0,1.8,0
	c2-0.6,4-0.6,6,0c1.3,0.2,2.5,0.4,3.8,0.5c0.8,0.1,0.8,0.7,0.9,1.3c-3.5,1-7.1,1.6-10.7,1.9c-0.8-0.2-1.5-0.3-2.3-0.5
	C219.2,238.9,218.9,238.9,218.6,239.3z"/>
<path class="st6" d="M204.7,239.4c-0.8,0-1.5,0.1-2.3,0.1c-0.1,0-0.4,0-0.4-0.1c-2-2.4-5-3-7.8-3.7c-0.5-0.1-1.2-0.2-1.2-0.8
	c-0.1-0.6,0.7-0.9,1-1c1.3-0.4,2.8-2.8,4.1,0.2c0.3,0.7,2,0.8,3.1,1.1C204.8,235.9,204.8,235.9,204.7,239.4z"/>
<path class="st7" d="M184.9,243c-0.9,0.1-1.8,0.3-2.7,0.4c-0.5-1.5-1.7-2.3-2.8-3.1c-1.8,0.1-3.4-0.9-5-1.4c0.4-1.9,1.7-2.1,3.3-1.5
	c1.2,0.5,2.3,1.1,3.6,1.1c0.6,0,1.2,0.1,1.7,0.1c0.1,0.5,0.4,0.9,1,0.8C186.6,240,185.1,241.7,184.9,243z"/>
<path class="st6" d="M221.8,236.1c-0.6,0-1.2,0-1.8,0c-1.4-2.6-4-3.1-6.5-3.7c-0.8-0.2-1.7-0.1-2.1-1c-0.2-0.6,0.3-1,0.7-1.3
	c0.8-0.6,2-0.8,2.6-0.2c1.4,1.4,3.2,1.4,4.8,1.9C222.7,232.8,222.8,232.8,221.8,236.1z"/>
<path class="st6" d="M184,239.4c-0.6,0-0.9-0.3-1-0.8C183.6,238.4,184,238.7,184,239.4z"/>
<path class="st6" d="M158.6,256.8c0.1-1.2,0.3-2.4,0.4-3.6c3.3-0.2,6.5-1.4,9.8-1.8c2-0.3,4-0.5,5.5-2c1.6,0.2,2.3,1.6,3.2,2.7
	c-0.9,1.7-2.9,1.6-4.3,1.8C168.3,254.7,163.5,256,158.6,256.8z"/>
<path class="st7" d="M177.6,252.2c-0.9-1.1-1.6-2.4-3.2-2.7c-1.4-1-3.4-0.4-4.6-1.8c0.4-1.7,1.4-2.2,3.1-1.5c0.5,0.2,1,0.1,1.6,0.2
	c0.8,0.2,1.5,0.3,2.3,0.5c0,0,0,0.1,0,0.1c0.1,0.6,0.4,0.9,1,0.8c0.4,0,0.9,0.1,1.3,0.1c0.2,0.9,0.7,1.1,1.4,0.5c0.6,0,1.1,0,1.7,0
	c0,0.3,0,0.5,0,0.8c-0.9,0.9-0.7,2-0.9,3.1C179.9,252.9,178.7,252.4,177.6,252.2z"/>
<path class="st6" d="M158.2,253.2c-2.4-0.2-4.5-1.3-6.5-2.3c-2.4-1.2-3.8-0.6-5,1.4c-1.6-0.2-3.1-0.4-4.7-0.5
	c0.6-1.3,0.6-2.7,0.6-4.1c4,0.3,7.6-1.4,11.5-1.8c1.2-0.1,2.7,0.2,3.3-1.4c1.2-0.3,2,0.3,2.8,1.1c0.7,0.7,1.2,1.6,2.3,1.8
	c-0.2,0.2-0.3,0.6-0.5,0.7c-2.2,0.4-4.3,0.7-6.5,1c-0.8,0.1-1.9-0.2-2.1,0.9c-0.2,1.2,1.2,0.9,1.7,1.4
	C155.9,252.2,157.7,251.6,158.2,253.2z"/>
<path class="st5" d="M157.3,244.5c-0.6,1.6-2.1,1.3-3.3,1.4c-3.9,0.4-7.5,2.1-11.5,1.8c0,0,0,0,0,0c-0.1-0.6-0.4-0.9-1-0.8
	c-1-0.2-2.1-0.4-3.1-0.6c-0.6-1.1-0.8-1.7,0.9-1.9c2.6-0.3,5.2-0.9,7.8-1.5c0.2,0,0.3-0.5,0.5-0.7c1.1-0.1,2.1-0.1,3.2-0.2
	c0.8,0.8,1.8,1,2.8,1C154.8,243.5,156,244,157.3,244.5z"/>
<path class="st6" d="M141.5,246.8c0.6-0.1,1,0.2,1,0.8C141.9,247.7,141.6,247.4,141.5,246.8z"/>
<path class="st5" d="M158.2,253.2c-0.5-1.5-2.3-1-3.2-1.8c-0.6-0.5-2-0.1-1.7-1.4c0.2-1.1,1.3-0.8,2.1-0.9c2.2-0.3,4.3-0.7,6.5-1
	c0.2,0,0.4-0.4,0.5-0.7c0.6-0.1,1.1-0.1,1.7-0.2c1.9,0.2,3.7,0.4,5.6,0.6c1.2,1.5,3.3,0.8,4.6,1.8c-1.5,1.5-3.5,1.7-5.5,2
	c-3.3,0.4-6.4,1.6-9.8,1.8C158.7,253.2,158.5,253.2,158.2,253.2z"/>
<path class="st5" d="M174.4,238.9c1.7,0.5,3.2,1.5,5,1.4c0.1,0.9-0.3,1.7-1.2,1.7c-4.1,0-8,1.4-12.1,1.6c-0.7,0-1.4-0.2-2-0.5
	c-1.3-0.7-3.9-0.9-3.7-2.1c0.2-1.2,2.8-1.2,4.4-1.5c0.9-0.2,1.8-0.4,2.7-0.6c1.2,0.2,2-0.8,3.1-0.8
	C171.8,238.6,173.1,238.7,174.4,238.9z"/>
<path class="st7" d="M164.1,247.1c-0.6,0.1-1.1,0.1-1.7,0.2c-1.1-0.2-1.6-1.1-2.3-1.8c-0.8-0.8-1.6-1.4-2.8-1.1
	c-1.2-0.5-2.4-0.9-3.6-1.4c0.3-1.4,1.2-2.3,2.4-1.6c2,1,4,1.4,6.1,2.1C163.9,244.1,164.6,245.2,164.1,247.1z"/>
<path class="st5" d="M176.6,246.8c-0.8-0.2-1.5-0.3-2.3-0.5c-0.1-1.9,1.3-1.4,2.3-1.4C176.6,245.5,176.6,246.2,176.6,246.8z"/>
<path class="st6" d="M170.2,235.2c-0.4,0-0.7-0.1-0.9-0.4C170,234,170.1,234.6,170.2,235.2z"/>
<path class="st6" d="M191.6,81.2c-1.3-0.6-2.8-0.1-4-0.8c2.2,0.1,3.2-0.6,2.5-3c-0.4-1.2-0.4-2.5-0.5-3.8c-0.1-0.7-0.2-1.5,0.7-1.7
	c0.8-0.2,1.3,0.5,1.5,1.2c0.5,1.9,1,3.8,1.2,5.8c0.2,1.5,0.8,2.1,2.3,2c1.1-0.1,2.3,0.2,3.4,0.3c0,0.2,0.1,0.4,0.1,0.6
	c-1.4,0.2-2.7-0.7-4.1-0.3C193.7,81.1,192.7,80.9,191.6,81.2z"/>
<path class="st13" d="M187.5,100.8c0.8,2.5,0.8,2.5-3.2,2.8c-4.7-0.3-9.3-0.7-14-0.9c-1.3-0.1-1.8-0.7-2-1.7
	c-0.2-1.2,0.8-1.2,1.5-1.2C175.7,99.7,181.6,100.1,187.5,100.8z"/>
<path class="st14" d="M166,78.9c1.2,0.1,2.3,0.1,3.5,0.2c3.5,4.3,7.7,7.9,11.5,11.9c0.6,0.6,1.1,1.2,1.6,1.9
	c0.4,0.6,0.4,1.1-0.2,1.6c-0.6,0.6-1.1,0.4-1.6-0.1c-4.9-4.9-9.7-9.8-14.6-14.7C166.1,79.5,166.1,79.2,166,78.9z"/>
<path class="st14" d="M191.6,81.2c1-0.3,2-0.1,3,0.2c-0.2,2.9,0.6,5.7,1.1,8.6c0.2,0.9,0.5,2-0.8,2.2c-1.1,0.1-1.6-0.8-1.7-1.8
	C193,87.3,192.4,84.2,191.6,81.2z"/>
<path class="st4" d="M233.3,238c0.2-0.2,0.3-0.3,0.5-0.5C233.6,237.7,233.5,237.8,233.3,238z"/>
<path class="st5" d="M198.3,242.6c0.7,0,1.3,0,1.4,0.9C199,243.5,198.4,243.5,198.3,242.6z"/>
<path class="st5" d="M218.6,239.3c0.3-0.5,0.6-0.4,0.9,0C219.2,239.8,218.9,239.8,218.6,239.3z"/>
<path class="st6" d="M180.3,248.2c-0.7,0.6-1.2,0.4-1.4-0.5C179.4,247.7,180,247.6,180.3,248.2z"/>
<path class="st6" d="M177.6,247.6c-0.6,0.1-0.9-0.2-1-0.8C177.2,246.7,177.5,247,177.6,247.6z"/>
</svg>
