<?xml version="1.0" encoding="utf-8"?>
<!-- Generator: Adobe Illustrator 25.2.1, SVG Export Plug-In . SVG Version: 6.00 Build 0)  -->
<svg version="1.1" id="Capa_1" xmlns="http://www.w3.org/2000/svg" xmlns:xlink="http://www.w3.org/1999/xlink" x="0px" y="0px"
	 viewBox="0 0 595.3 841.9" style="enable-background:new 0 0 595.3 841.9;" xml:space="preserve">
<style type="text/css">
	.st0{fill:#EBEAE5;}
	.st1{fill:#D7D5D2;}
	.st2{fill:#25A5BB;}
	.st3{fill:#2CABC0;}
	.st4{fill:#A8A8A6;}
	.st5{fill:#999C9A;}
	.st6{fill:#878B8B;}
	.st7{fill:#66696A;}
	.st8{fill:#4E5152;}
	.st9{fill:#29B1C6;}
	.st10{fill:#BAB9B8;}
	.st11{fill:#A4C88B;}
	.st12{fill:#D5572F;}
	.st13{fill:#F0EDB4;}
	.st14{fill:#9A2717;}
</style>
<path class="st0" d="M346.3,257.6c-0.1,4-3.3,9.1-7,10.1c-1.7,0.5-2.6,1-1.2,3.3c1.5,2.6,3.3,3,5.8,2.6c3.5-0.7,7-0.4,10.5,0.1
	c5.4,0.8,10.9,1.5,16.3,2.3c4.6,0.6,9.2,1.2,13.8,1.9c6.1,0.9,12.2,1.8,18.3,2.7c7.2,1,14.5,2.1,21.7,3.1c8.5,1.1,16.9,2.4,25.3,3.5
	c4.5,0.6,9,1.3,13.6,1.9c5.2,0.7,10.4,1.5,15.6,2.2c4.4,0.6,8.8,1.2,13.1,1.9c4.1,0.6,8.3,1.4,12.4,1.7c2.8,0.2,5.6,0.8,8.3,1.7
	c2.2,0.7,2.3,1.8,0.5,3.4c-2.5-0.2-4.7,1.2-7,1.9c-3.9,1.1-7.8,2.3-11.7,3.6c-7.3,2.4-14.5,4.9-21.8,7.4c-1.8,0.6-3.5,0.7-5-0.7
	c-0.7-0.1-1.2-0.7-1.9-0.5c-0.6-0.2-1.3-0.6-1.9-0.7c-8-1.5-15.9-3-23.9-4.5c-9.7-1.8-19.4-3.4-29.1-5.3c-4.5-0.8-8.9-1.4-13.4,0
	c-3.4,1.1-6.8,2.3-10.3,2.8c-3.5,0.4-6.7,1.7-10.1,2.3c-3.8,0.7-7.5,2.1-11.4,2.9c-3.8,0.8-7.5,1.7-11.2,2.7c-4,1.1-8,2.2-12.1,3
	c-2.4,0.5-4.7,0.8-7.1,1.5c-1,0.3-1.9,1-2.9,1c-4.3,0.3-8.4,1.6-12.5,2.6c-7.7,1.8-15.3,3.5-23,5.4c-1,0.2-2.4,0-2.9,1.5
	c-0.6,0.1-1.3,0.2-1.3,1c0,0.8,0.7,0.8,1.3,1c10.4,3.3,20.7,6.6,31.1,10c7.2,2.3,14.4,4.7,21.6,6.9c3.8,1.2,7.4,3.1,11.4,3
	c1.3,1.1-0.2,1.1-0.6,1.3c-7.2,2.4-14.4,4.7-21.7,7.1c-4.4,1.4-8.7,3-13,4.3c-5.3,1.6-10.5,3.6-15.8,5.1c-7.7,2.2-15.2,5.3-22.9,7.3
	c-4.3,1.1-8.5,2.9-12.7,4.3c-3.7,1.2-7.5,2.3-11.1,3.6c-5.5,2.1-11.4,3-17.1,4.2c-5.3,1.1-10.9,0.7-16.3,0.5
	c-2.2-0.1-4.5-0.4-6.7-1.2c-2.2-0.8-4-2.1-6-3.3c-5-3-10.1-5.9-15-9c-5.5-3.4-11-6.8-16.5-10.2c-5.3-3.2-10.7-6.4-16.1-9.6
	c-8.1-4.7-15.9-9.7-23.9-14.5c-7.2-4.3-14.4-8.6-21.6-13c-4.4-2.7-8.7-5.7-13.2-8.2c-1.7-0.9-3.1-2.6-5.3-2.5
	c-1.7-1.6-1.8-2,0.3-3.1c1.8-1,3.8-1.6,5.8-2c3.8-0.6,7.5-1.8,11.4-2c1.2-0.1,2.1-0.7,1.9-2.3c-0.1-1.7,0-3.4,0-5
	c1.8-0.5,3.6-1,5.4-1.5c-6.6,0-13,0-19.1-2.8c-1.4-0.6-2.9-0.3-3.4,1.6c-5.4-3.1-9.1-7.5-9.6-13.9c-0.7-8.2-1.3-16.4-1.9-24.6
	c-0.1-0.7-0.3-1.3-0.4-2c-0.2-2.2,0.4-4.5-0.5-6.6c0.1-0.7,0.5-1.2,0.4-2c-0.4-2.9-0.5-5.8-0.9-8.6c-0.4-3.2,0-6.5-0.5-9.6
	c-1.3-8.1-1.3-16.3-2.1-24.4c-0.8-8-1.5-16.1-1.8-24.2c-0.3-8.3-1.9-16.4-1.6-24.7c0-0.7,0.3-1.6-0.9-1.8c0.2-8.8-1.2-17.6-1.4-26.4
	c0-1.1-0.4-2.1-0.9-3c0.9-2.1,0.6-4.3,0.4-6.4c-0.6-5.3-1.2-10.6-1.3-16c-0.2-6.6-1.6-13.1-1.3-19.6c0.2-6.7,3.1-12.2,8.8-15.7
	c1.9-1.2,4.6-1.6,7-1.8c4.2-0.4,8.4,0.2,12.5,0.9c6.1,1.1,12.1,2.3,18.2,3.3c4,0.7,8.1,1.5,12.1,2.3c7.6,1.5,15.3,2.7,22.9,4.3
	c7.1,1.5,14.3,2.7,21.5,3.9c6.1,1,12.1,2.1,18.2,3.3c5.7,1.1,11.4,2.1,17,3.2c6.6,1.3,13.2,2.2,19.8,3.6c4.2,0.9,8.4,1.7,12.6,2.4
	c5.8,1,11.7,2.1,17.5,3.2c3.9,0.7,7.8,1.5,11.6,2.2c6.1,1.1,12.2,2.4,18.4,3.3c5.2,0.8,10.3,2.2,14.3,6.1c3.3,3.2,4.5,7.4,5.5,11.6
	c0.4,1.9,0.3,4,1.4,5.7c0.1,0.7,0,1.4,0.2,2c1,5.4,1.9,10.8,3.2,16.2c0.8,3.6,1.1,7.4,2.7,10.8c0.8,1.5,0.1,3.2,0.4,4.7
	c2.2,10.8,4.4,21.6,6.6,32.4c1.6,7.8,3.3,15.6,4.9,23.4c1.6,7.7,3.1,15.4,4.6,23c0.1,0.7,0.3,1.2,1,1.3
	C343.9,245.9,345.6,251.7,346.3,257.6z M335.7,260.2L335.7,260.2c0.7-0.2,1.2-0.6,1.4-1.4c0.1-0.1,0.1-0.2,0.1-0.3
	c0.1-0.2,0.3-0.4,0.4-0.6c0.3-0.2,0.4-0.6,0.4-0.9c0.3-0.2,0.5-0.5,0.4-0.9c0.1-0.4,0.1-0.8,0.2-1.2c1.3-2.3,1-4.5,0-6.8
	c-0.1-0.6-0.2-1.2-0.2-1.8c-0.1-0.2-0.2-0.3-0.2-0.5c0-0.2-0.1-0.3-0.1-0.5c0.2-1.6-0.1-3.1-0.8-4.6c-0.1-0.3-0.1-0.6-0.2-0.9
	c-0.4-1.9-0.1-3.9-1.2-5.6c0-0.3-0.1-0.6-0.1-0.9c-0.4-2-0.2-4.2-1.3-6.1c0-0.3-0.1-0.6-0.1-0.9c-0.5-1.7,0-3.7-1.3-5.2
	c0.1-0.9,0-1.8-0.3-2.6c0.2-0.4,0-0.7-0.3-0.9c0-0.3-0.1-0.6-0.1-1c0.2-1.2-0.3-2.2-0.7-3.3c0-0.1,0-0.3-0.1-0.4
	c-0.4-2.2-0.4-4.4-1.3-6.5c0-0.1,0-0.3-0.1-0.4c-0.4-2.2-0.4-4.4-1.3-6.5c0-0.1,0-0.3-0.1-0.4c-0.4-2.2-0.4-4.4-1.3-6.5
	c0-0.1,0-0.3-0.1-0.4c-0.3-2.2-0.4-4.4-1.3-6.5c0-0.1,0-0.3-0.1-0.4c0-0.6,0.2-1.3-0.5-1.8c-0.1-0.5-0.1-0.9-0.2-1.4
	c0.3-0.9,0.1-1.8-0.6-2.4c-0.1-0.4-0.1-0.8-0.2-1.3c0.1-0.7,0.2-1.3-0.4-1.8c-0.1-0.5-0.1-0.9-0.2-1.4c0.2-0.8,0.3-1.5-0.6-2
	c-0.1-0.7-0.2-1.4-0.3-2.1c0.2-0.5,0.2-1-0.3-1.4c-0.1-0.5-0.1-0.9-0.2-1.4c0.3-0.9,0.1-1.8-0.6-2.4c-0.1-0.4-0.1-0.8-0.2-1.3
	c-0.3-1.9-0.1-3.9-1.2-5.7c-0.1-0.6-0.2-1.1-0.2-1.7c0.2-0.5,0.2-1-0.3-1.4c-0.1-0.5-0.1-0.9-0.2-1.4c0.3-0.9,0.1-1.8-0.6-2.4
	c-0.1-0.4-0.1-0.8-0.2-1.3c-0.2-1.8-0.1-3.7-1.2-5.3c-0.1-0.9-0.2-1.7-0.3-2.6c-0.5-1.7,0-3.6-1.1-5.1c-0.1-0.6-0.2-1.2-0.2-1.8
	c-0.1-0.2-0.2-0.3-0.2-0.5c0-0.3-0.1-0.6-0.1-0.9c0-1.2,0.2-2.4-0.7-3.3c-0.1-0.7-0.2-1.5-0.3-2.2c-0.1-0.1-0.2-0.3-0.2-0.4
	c0-0.3-0.1-0.6-0.1-0.9c0.1-1.3,0.1-2.6-0.8-3.7c-0.1-0.6-0.2-1.2-0.2-1.8c-0.1-0.2-0.2-0.3-0.2-0.5c0-0.3-0.1-0.6-0.1-0.9
	c0-0.8,0.1-1.5-0.7-2c-1.4-4.9-4.8-7.8-9.3-9.6c-6.2-2.5-13-2.3-19.4-3.6c-2.1-1.8-4.9-1.2-7.3-1.7c-0.6-0.1-1.2-0.1-1.8-0.2
	c-2.3-1.4-5-1-7.5-1.6c-1.1-0.3-2.3-0.9-3.6-0.1c-0.8-0.1-1.6-0.2-2.3-0.6c-0.4-0.5-0.9-0.4-1.4-0.3c-0.5-0.1-0.9-0.1-1.4-0.2
	c-2.3-0.4-4.6-1.1-6.9-1.3c-4.2-0.4-8.4-1.4-12.6-2.1c-6-1.1-12.1-2.1-18.1-3.4c-5.8-1.2-11.7-1.9-17.5-3c-1.4-0.3-2.8,0-4.1-0.4
	c-5.1-1.4-10.2-2.3-15.5-2.7l0,0c-0.5-1.1-1.5-0.7-2.4-0.7c-0.5,0-0.9-0.1-1.4-0.1c-0.7-0.5-1.5-0.4-2.3-0.4
	c-6.2-0.4-12.2-2.2-18.4-3.1c-4.9-0.7-9.8-1.9-14.7-2.8c-7.4-1.5-14.9-2.7-22.4-4c-5.5-1-11-1.8-16.6-0.7c-3.4,0.7-6.1,2.5-8,5
	c-1.7,2.3-1.9,5.4-1.3,8.4c0.2,3.2,0.3,6.3,0.5,9.5c0,0.3,0.4,0.6,0.6,0.9c0,0.3,0,0.7,0,1c-0.3,0.2-0.3,0.5,0,0.7
	c0,0.3,0,0.5,0,0.8c0,0-0.1,0.1-0.1,0.1c0,0.1,0.1,0.2,0.1,0.3c0,0.9,0.1,1.8,0.1,2.7c0.2,3.6,0.3,7.3,0.6,10.9
	c0,0.6,0.4,1.1,0.7,1.7c0,0.3,0,0.5,0,0.8c0,0-0.1,0.1-0.1,0.1c0,0.1,0.1,0.2,0.1,0.3c0,0.9,0.1,1.8,0.1,2.7
	c0.2,3.7,0.2,7.5,0.7,11.2c0.2,1.5-0.1,3.1,0.7,4.5c0,0.3,0,0.6,0,0.9c0.2,3.6,0.3,7.3,0.6,10.9c0,0.6,0.4,1.1,0.7,1.7
	c0,0.3,0,0.5,0,0.8c0,0-0.1,0.1-0.1,0.1c0,0.1,0.1,0.2,0.1,0.3c0,0.3,0,0.6,0,0.9c0,4.7,0.4,9.4,1,14c0,0.1,0.2,0.2,0.3,0.4
	c0,0.7,0.1,1.5,0.1,2.2c0,4.7,0.4,9.4,1,14c0,0.1,0.2,0.2,0.3,0.4c0,0.7,0.1,1.5,0.1,2.2c-0.3,0.3-0.3,0.6,0,0.9c0,0.3,0,0.6,0,0.9
	c0.2,3.6,0.3,7.3,0.6,10.9c0,0.6,0.4,1.1,0.7,1.7c0,0.7,0.1,1.5,0.1,2.2c0,4.7,0.4,9.4,1,14c0,0.1,0.2,0.2,0.3,0.4
	c0,0.7,0.1,1.5,0.1,2.2c-0.1,4.7,0.4,9.4,1,14c0,0.1,0.2,0.2,0.3,0.4c0,0.7,0.1,1.5,0.1,2.2c-0.3,0.3-0.3,0.6,0,0.9
	c0,0.3,0,0.6,0,0.9c0.2,3.6,0.3,7.3,0.6,10.9c0,0.6,0.4,1.1,0.7,1.7c-0.1,7.1,1.3,14.2,1.5,21.3c0.1,2.9,1.2,5.7,2.7,7.9
	c3,4.3,7.4,6.9,12.8,7.7c0.2,0.5,0.5,0.7,1.1,0.7c3.5,0,7,0,10.6,0c0.5,0,0.9-0.2,1.1-0.7c0.4,0,0.8-0.1,1.2-0.1
	c3.6,0,7.1-0.2,10.6-1.4c0.6-0.1,1.2-0.1,1.8-0.2c2.9-0.2,5.9-0.1,8.8-1.2c0.3,0,0.6,0,0.9,0c3.1-0.3,6.3,0,9.2-1.3
	c0.5,0,0.9-0.1,1.4-0.1c3.1-0.2,6.3,0,9.2-1.3c0.6,0,1.2,0,1.8-0.1c3.1-0.2,6.2-0.2,9.2-1.3c0.5,0,0.9-0.1,1.4-0.1
	c2.9-0.4,6,0.1,8.8-1.3c0.5,0,0.9,0,1.4-0.1c3.1-0.2,6.3,0,9.2-1.3c0.6,0,1.2,0,1.9-0.1c3.1-0.2,6.2-0.2,9.2-1.3c0.3,0,0.6,0,1,0
	c3.1-0.4,6.3,0,9.2-1.3c0.3,0,0.6,0,0.9,0c3.2-0.4,6.6,0,9.7-1.4c0.3,0,0.6,0,0.9,0c3.4-0.3,6.8-0.2,10.1-1.3c0.3,0,0.6,0,1,0
	c3.1-0.3,6.2-0.1,9.2-1.3c0.5,0,0.9-0.1,1.4-0.1c3.1-0.4,6.3,0,9.2-1.3c0.3,0,0.6,0,1,0c2.9-0.1,5.7,0,8.4-1.2
	c0.9-0.1,1.8-0.1,2.6-0.2c3.1-0.3,6.2-0.1,9.2-1.3c0.5,0,0.9,0,1.4-0.1c3.1-0.4,6.3,0,9.2-1.3c0.3,0,0.6,0,0.9,0
	c3.1-0.3,6.3,0,9.2-1.3c0.5,0,0.9-0.1,1.4-0.1c3.8-0.2,7.8,0,11.3-2.1c0.2-0.1,0.5-0.1,0.7-0.2c0.2-0.1,0.4-0.2,0.6-0.3l0.2,0
	l0.2-0.1C335.1,261.5,335.5,261,335.7,260.2z M398.8,288.8C398.8,288.8,398.8,288.8,398.8,288.8c-0.7,0.2-1.5,0.3-2.2,0.5
	c-0.1,0-0.3-0.1-0.4-0.1c-0.7-0.7-1.3-0.1-1.9,0.1c-0.6-0.1-1.2-0.1-1.8-0.2c-0.5-1-1.5-1.1-2.5-1.2c-0.9-0.1-2.1,0.2-2.2-1.3
	c1,0,1.7-0.2,0.8-1.3c-1.1-1.2-2.1-2.5-3.9-2.6c-3-0.3-5.8-1.3-8.8-1.3c-1.2,0-2.7,0.5-3.6,0c-3.1-1.7-6.5-1.8-9.8-2.1
	c-4.2-0.4-8.3,0.2-12.1,2.3c-0.4-0.7-0.9-0.6-1.5-0.4c-0.4,0-0.8,0-1.2,0c0-0.2,0-0.5-0.1-0.7c0.6-0.2,1.8-0.1,1.2-1.1
	c-0.6-1-1.2-2.3-2.5-2.5c-2.9-0.6-5.9-1.4-8.8-1.3c-4.9,0.2-9.7,1.9-14.7,2.2c-3.9,0.2-7.6,1.8-11.6,2c-3.4,0.2-6.9,1.5-10.2,1.9
	c-3.6,0.4-7.2,1.2-10.8,1.2c-1.7,0-2.6,1.8-4,1.4c-2.5-0.8-4.7,0.3-7,0.6c-1.4,0.2-3.1-0.2-4.3,0.9c-0.7,0-1.4,0-2,0.6
	c-0.4,0.2-0.9,0.5-1.3,0.4c-3.9-1-7.6,0.4-11.3,1c-1.1,0.2-2.4-0.4-3.2,0.8c-0.4,0-0.7,0.1-0.8,0.5c-0.7,0-1.4,0.2-2,0.1
	c-3.8-0.4-7.3,0.4-10.9,1.5c-0.3,0-0.5,0-0.8,0c-1,0-2.1-0.5-2.7,0.8c-0.1,0.1-0.2,0.2-0.2,0.3c-3.9-0.1-7.9-0.1-11.7,1.1
	c-1.9,0.6-4.1-0.2-5.8,1.3c-0.1,0.1-0.3,0.3-0.4,0.4c-0.6,0.2-1.1,0.8-1.9,0.6c-3.9-1.3-7.6,0.3-11.4,0.8c-1.3,0.2-2.8-0.4-3.9,0.8
	c-1.3-0.2-2,0.6-2.7,1.5c-3-0.3-6-0.8-9.1,0.1c-3.2,0.9-6.6,0.6-9.7,1.9c-0.7,0.1-1.1,0.7-1.5,1.2c-1,0.5-2,0.4-2.9-0.1
	c-1.1-0.6-2.1-0.5-3.3-0.3c-3.1,0.5-6.2,0.8-9.2,1.5c-1.7,0.4-3.5-0.1-5,1.1c-1.4,0.7-2.1,2.1-3.1,3.2c-0.6,0.7-0.4,1.4,0.4,1.6
	c2.2,0.5,3.9,1.9,6,2.5c0.2,0.1,0.3,0.2,0.5,0.3c0.1,0,0.3,0.1,0.4,0.1c0,0.3,0.1,0.6,0.5,0.6c0.4,0,0.4-0.3,0.5-0.6
	c0.1-0.1,0.2-0.2,0.4-0.2c0.5,0,1,0.1,1.5,0.1c0.8,0.6,1.5,0.8,1.9-0.4c1.2-0.5,2.4-0.5,3.7-0.5c0.6,0.6,0.8,0.2,0.9-0.4
	c0.6,0,1.2-0.1,1.8-0.1c1.3,0.7,0.4,1.8,0.5,2.7c-1.9,2.6-1.9,2.6,1.1,3.9c0.4,0.2,0.8,0.5,1.2,0.6c2.1,0.7,4,2.1,6.3,2.2
	c0.4,0.1,0.9,0.1,1.3,0.2c0,0.9,0.6,1.2,1.2,1.4c3.3,1.3,6.5,2.9,9.9,3.9c1.1,0.6,2.5-1.3,3.5,0.3c-0.9,0.7-0.7,1.1,0.3,1.5
	c1.9,0.7,3.7,1.9,5.7,2.4c2.1,0.6,3.9,2.3,6.2,2.1c0.6,0.1,1.2,0.2,1.8,0.3c-0.8,1.3,0.3,1.5,1.1,1.9c2,0.9,3.9,2,6,2.6
	c2.2,0.6,3.9,2.5,6.3,2.1l0.2,0.1l0.2,0c4.1-0.1,7.9-1.5,11.8-2.4c11.5-2.6,22.9-5.4,34.4-8.1c0.8-0.2,1.4-0.5,1.8-1.2
	c0.6-0.1,1.2-0.1,1.8-0.2c1.2-0.2,2.5-0.3,3.7-0.5c1,0.1,2,0.1,2.8-0.8c0.3,0,0.6-0.1,0.9-0.1c0.5,0.1,1.1,0.2,1.4-0.4
	c0.5-0.1,0.9-0.2,1.4-0.2c0.8,0.2,1.6,0.4,2-0.6c6.3-1.1,12.6-2.7,18.8-4.4c0.7,0.1,1.4,0.3,1.8-0.5c0.3,0,0.6-0.1,1-0.1
	c0.6,0.3,0.9-0.1,1.1-0.5c0.7-0.1,1.4-0.2,2.1-0.3c0.5,0.1,1.1,0.3,1.4-0.4c0.5-0.1,0.9-0.1,1.4-0.2c0.7,0.3,1.2,0.2,1.5-0.6
	c0.4,0,0.9-0.1,1.3-0.1c0.8,0.1,1.6,0.2,2-0.7c0.8-0.1,1.5-0.1,2.3-0.3c5.7-1.3,11.4-2.7,17.1-4c8.2-2,16.5-3.9,24.7-5.9
	c1.2-0.3,3.2,0,3.4-1.2c0.2-1.3-1.6-2.3-2.6-3.3c-0.2-0.2-0.7-0.2-1.1-0.4c-0.3-0.8-0.9-0.9-1.6-0.7c-0.4,0-0.9,0-1.3,0
	c-0.5-0.3-0.9-0.7-1.4-1c0.8-0.8,1.8-0.9,2.9-1c0.6-0.1,1.5-0.5,1-1c-1.1-1.2-1.5-3.3-3.8-3.1c-0.3-0.8-0.9-0.9-1.6-0.7
	c-0.5,0-0.9-0.1-1.4-0.1c-0.5-0.3-0.4-0.8-0.5-1.3c0.5-0.1,0.9-0.2,1.4-0.2c0.8,0.1,1.6,0.2,2.1-0.6c1.5-0.1,4-0.9,4.3-0.3
	c1.3,2.3,3.5,1.2,5.2,2c-1,1.1-2.1,2.3-3.1,3.4c-0.3,0.4-1,0.7-0.8,1.3c0.2,0.7,1,0.7,1.5,0.8c3.4,0.6,6.8,1,10.1,1.9
	c5.3,1.5,10-0.8,14.9-2.1c8.5-1.5,16.7-3.7,25.1-5.6c3.1-0.7,3-1,0.6-3.4c-0.1-1.1-0.7-1.5-1.8-1.2c-0.3,0-0.6-0.1-0.9-0.1
	c-4.5-1.2-9-2.1-13.5-1.1c-1.3,0.3-3-0.4-3.9,1.2c-0.3,0-0.6,0-0.9,0C399.6,287.9,399,287.9,398.8,288.8z"/>
<path class="st1" d="M102.8,315.1c2.2-0.1,3.6,1.6,5.3,2.5c4.5,2.5,8.8,5.5,13.2,8.2c7.2,4.4,14.4,8.6,21.6,13
	c8,4.8,15.9,9.8,23.9,14.5c5.4,3.1,10.8,6.3,16.1,9.6c5.5,3.3,11,6.7,16.5,10.2c4.9,3.1,10,5.9,15,9c2,1.2,3.8,2.5,6,3.3
	c2.2,0.8,4.5,1.1,6.7,1.2c5.4,0.2,10.9,0.6,16.3-0.5c5.7-1.2,11.6-2.1,17.1-4.2c3.6-1.4,7.4-2.4,11.1-3.6c4.2-1.4,8.4-3.2,12.7-4.3
	c7.8-2,15.2-5.1,22.9-7.3c5.3-1.5,10.5-3.5,15.8-5.1c4.4-1.3,8.7-2.9,13-4.3c7.2-2.4,14.4-4.7,21.7-7.1c0.5-0.2,1.9-0.1,0.6-1.3
	c1.6-0.3,3.2-0.4,4.7-0.9c9.3-3.3,18.7-6.1,28-9.2c15-4.9,29.9-9.9,44.9-14.8c10.2-3.3,20.3-6.6,30.5-9.8c1-0.3,2-0.7,1.3-2.1
	c1.5,1.4,3.2,1.3,5,0.7c7.3-2.5,14.5-5,21.8-7.4c3.9-1.3,7.8-2.5,11.7-3.6c2.3-0.7,4.5-2,7-1.9c-2,4.5-4.7,8.7-7.4,12.9
	c-1.1,1.8-3.2,1.6-4.9,2.2c-9.1,3.4-18.1,6.8-27.3,10c-8.6,3-17.2,6.2-25.9,9.2c-8.7,3-17.3,6.4-26,9.6c-9.4,3.4-18.8,6.7-28.2,10.1
	c-5.1,1.8-10.1,4-15.2,5.7c-8.5,2.8-16.9,6.1-25.4,9.1c-6.8,2.4-13.6,4.8-20.3,7.5c-4,1.6-8.2,2.9-12.3,4.4
	c-6.4,2.4-12.8,4.7-19.3,6.9c-8.9,3-17.6,6.4-26.4,9.5c-5.3,1.8-10.5,4.2-16,5.5c-8,1.9-16.1,3.1-24.3,2.6
	c-6.2-0.4-11.5-3.3-16.5-6.8c-5.8-4.1-11.8-7.9-17.8-11.8c-7.7-5-15.3-10.1-23-15.1c-5.8-3.8-11.7-7.6-17.5-11.4
	c-7.5-4.9-15.1-9.9-22.6-14.9c-5.8-3.8-11.4-7.8-17.3-11.2c-6.2-3.6-10.9-8.4-14.3-14.7C104.7,317.7,103.3,316.7,102.8,315.1z"/>
<path class="st1" d="M105.1,298c0.5-1.9,2.1-2.3,3.4-1.6c6.1,2.9,12.6,2.8,19.1,2.8c-1.8,0.5-3.6,1-5.4,1.5
	c-2.1-0.9-4.4-0.5-6.6-0.3c-3.3,0.2-6.3-0.9-9.2-2.1C106,298.1,105.6,298.1,105.1,298z"/>
<path class="st2" d="M98.8,122.3c0-0.9-0.1-1.8-0.1-2.7c0-0.2,0-0.3,0-0.5c0-0.3,0-0.5,0-0.8c0.4-3.8-0.7-7.6-0.4-11.4
	c0-0.6-0.1-1.1-0.8-1.2c0-0.9-0.1-1.8-0.1-2.7c0-0.2,0-0.3,0-0.5c0-0.3,0-0.5,0-0.8c0-0.2,0-0.5,0-0.7c0-0.3,0-0.7,0-1
	c0.4-3.2-0.7-6.3-0.4-9.5c0-0.4-0.3-0.7-0.7-0.8c-0.6-3-0.4-6.1,1.3-8.4c1.9-2.5,4.6-4.3,8-5c5.6-1.1,11.1-0.3,16.6,0.7
	c7.5,1.3,15,2.5,22.4,4c4.9,1,9.8,2.1,14.7,2.8c6.2,0.9,12.2,2.6,18.4,3.1c0.6,0.7,1.5,0.3,2.3,0.4c0.5,0,0.9,0.1,1.4,0.1
	c0.4,1.4,1.5,0.6,2.4,0.7c0,0,0,0,0,0c-0.4,1.5-1.5,1-2.4,0.9c-4.3-0.3-8.6-0.9-12.9-1.4c-3.1-0.3-6.1,0.8-9.1-0.2
	c-0.6-0.2-1,0.3-1.4,0.5c-2.5,1.1-4.2,3.8-7.4,3.2c-0.7-0.1-1.9,0.4-2.1,1.2c-0.5,2.4-2.1,2.2-3.8,2c-2.1-0.3-3.8,0.8-4.4,2.9
	c-0.4,1.3-1.2,1.9-2.6,1.4c-1.2-0.4-2,0.3-2.2,1.4c-0.4,2,1.6,4.4,3.7,4.7c0.8,0.1,1.5,0.1,2.3,0.1c0.9,0,1.5,0.3,1.7,1.2
	c-2.1,0.4-3.9-1-6-0.6c-0.5-0.1-1-0.2-1.5-0.3c-2.8-0.4-5.7-0.9-8.5-1.2c-1.7-0.2-3.4-0.9-5.1,0.1c-0.9-0.1-1.7-0.2-2.2,0.7
	c-0.9,1.8,0.6,6.7,2.4,8c1.1,0.9,2.5,1.1,3.8,1.3c10.3,1.3,20.6,2.6,31,3.8c-1.2,0.7-2.7,1-3.3,2.4c-0.1,0.2-0.7,0.1-1.1,0.1
	c-1.8,0-2.2,0.8-1.1,2.1c0.9,1,0.5,1.6,0.1,2.8c-0.7,2.1-2.4,3.5-3.3,5.5c-1,2.2-3.1,3.9-3.5,6.5c0,0.1-0.2,0.3-0.3,0.3
	c-2.6,1.2-3.2,3.2-2.8,5.8c0.2,1.7-0.2,3.2-2,3.6c-1.3,0.3-3.9-1.6-4.3-2.9c-0.2-0.6-0.4-1.5,0.1-1.7c2.2-1,1.9-3.1,2.4-5
	c0.4-1.2,1.4-2.2,0.8-3.6c-0.2-0.4,0.3-0.9,0.7-1.1c1.5-0.5,1.4-2.5,2.9-3.1c0.4-0.1,0.4-0.7,0.2-1c-0.3-0.5-0.8-0.4-1.2-0.1
	c-0.4,0.4-0.7,0.8-1,1.2c-2.6,3-3.9,6.9-6.3,10.1c-0.8,1.1-1.3,2.4-2.7,1.3c-1.2-0.9-0.5-2,0-3.2c0.8-1.8,3.1-2.6,3-4.9
	c0-1.2,0.2-2.3,1.2-3.1c0.4-0.3,0.8-0.8,0.6-1.4c-0.5-1.1,0.1-1.9,0.8-2.7c0.8-1.1,1.3-2.4,2.3-3.4c0.5-0.5,0.4-1.4-0.2-1.8
	c-0.7-0.4-1.5-1-2.3-0.4c-0.6,0.4-1,1-0.5,1.7c0.8,1.1,0.3,2-0.5,2.9c-0.7,0.8-1.3,1.6-1.2,2.6c0.1,1.2-0.5,2-1.5,2.6
	c-0.6,0.3-1.4,0.9-1.4,1.4c-0.3,2.5-0.4,5-2.5,6.7c1.2,2.7-1.4,3.9-2.4,5.6c-1.2,2.1-1.3,3.5,0.5,5c-0.2,0.2-0.4,0.4-0.6,0.6
	c-0.7,0.1-1.5,0-2,0.9c-1.1,2.3,0.4,7.6,2.5,9c-0.1,2.3-1.5,3.6-3.4,4.8c-1.8,1.1-1.7,2.8-0.1,4.1c1.3,1.1,2.5,2.5,4,3.5
	c-1.7,2.4-0.8,4.9-0.5,7.4c0.2,1.3,0.8,2.1,2.2,2.1c0.1,0.1,0.3,0.1,0.4,0.1c0.2,0.4,0.5,0.8,1,0.4c5.2,0.2,10.5,0.4,15.7,0.5
	c-0.2,0.8-0.9,0.7-1.5,0.7c-2.2,0.3-4.4,0.9-6.5,0.8c-3.4-0.2-6.9,1.7-10.3-0.4c-1.3-0.8-1.1,0.6-1.1,1.2c0.3,3.1,0.6,6.2,0.9,9.3
	c0,0.5,0.1,1.1,0.7,1c1.4-0.1,2.3,1.2,3.7,1.1c-0.1,0.3-0.2,0.7-0.3,1c-0.7-0.1-1.2,0.2-1.7,0.6c-1.5,1.2-0.9,7.7,0.8,8.8
	c2,1.9,4.6,1,6.9,1.2c-0.5,1.7-1.9,2.2-3.4,2.5c-1,0.2-1.9,0.5-2,1.5c-0.1,1.5-0.7,2.4-2.1,2.9c-0.8,0.3-1.4,1.3-1,2.1
	c0.4,1,1.1,0.1,1.7-0.2c0.9-0.4,1.8-0.5,2.1,0.6c0.3,0.8,0.7,2-0.8,2.4c-0.9,0.2-1.9,0.6-1.5,1.6c0.4,1.1,1.6,0.9,2.3,0.3
	c2-1.6,2.4-0.4,2.7,1.3c0.1,0.5,0.1,1.1,0.3,1.6c0.9,2.1,1.5,4.5,4,5.4c0.8,0.3,1,0.8,1.1,1.5c0.3,2,0.8,3.8,2.8,5.2
	c1.7,1.1,3.7,2.4,4.3,4.6c0.7,2.4,2.5,3.3,4.6,3.9c0.8,0.2,1.4,0.6,1.4,1.2c0,1.5,1.1,2.1,2.1,2.7c0.7,0.4,1.3,0.8,1.3,1.7
	c0,0.6,0.1,1.1,0.8,1.2c1.6,0.3,2.6,1.9,4.2,2.1c0.9,0.1,1.1,0.8,0.2,1.5c-0.8,0.6-1,1.3-0.3,1.9c1,0.9,1.2-0.3,1.7-0.8
	c1.2-1.1,2.2-1.6,2.7,0.6c0.2,0.7,0.5,1.3,1.2,1.6c3.6,1.7,6.7,4.2,10.2,6c1.6,0.9,2.8,2.2,4.3,3.2c1.8,1.2,4.3,1,5.6,3.3
	c0.4,0.7,1.6,0.9,2.5,0.9c0.9,0,1.6,0.3,2.4,0.6c2.7,0.9,5.3,1.9,7.9,2.9c1.8,0.7,3.2,1.2,3.8,3c0,0.3,0,0.5,0,0.8
	c-0.5,0-0.9,0-1.4,0.1c-2.7,0.2-5.5,0.4-8.2,0.6c-0.2,0-0.4,0.4-0.6,0.6c-0.5,0-0.9,0.1-1.4,0.1c-3.1-0.4-6,0.6-9,0.9
	c-0.1,0-0.1,0.3-0.2,0.4c-0.6,0-1.2,0-1.8,0.1c-3.1-0.2-6,0.6-9,0.9c-0.1,0-0.1,0.3-0.2,0.4c-0.5,0-0.9,0.1-1.4,0.1
	c-0.3-0.1-0.6-0.4-0.8-0.3c-2.4,0.6-4.8,1-7.3,0.8c-0.6,0-1.1,0.2-1.2,0.8c-0.3,0-0.6,0-0.9,0c-1.2-1-2.5-0.1-3.4,0.2
	c-1.8,0.5-3.8-0.4-5.3,1.1c-0.6,0.1-1.2,0.1-1.8,0.2c-3.6,0.2-7.1,0.2-10.6,1.4c-0.4,0-0.8,0.1-1.2,0.1c-4.2,0-8.5,0-12.7,0
	c-5.3-0.8-9.8-3.4-12.8-7.7c-1.5-2.2-2.6-5-2.7-7.9c-0.2-7.1-1.6-14.1-1.5-21.3c0.4-3.8-0.7-7.6-0.4-11.4c0-0.6-0.1-1.1-0.8-1.2
	c0-0.3,0-0.6,0-0.9c0.4-0.3,0.4-0.6,0-0.9c0-0.7-0.1-1.5-0.1-2.2c0.4-3.9-0.6-7.7-0.5-11.6c0-0.9-0.2-2-0.8-2.8
	c0-0.7-0.1-1.5-0.1-2.2c0.4-4-0.7-8-0.5-12.1c0-0.8-0.3-1.6-0.8-2.3c0-0.7-0.1-1.5-0.1-2.2c0.4-3.8-0.7-7.6-0.4-11.4
	c0-0.6-0.1-1.1-0.8-1.2c0-0.3,0-0.6,0-0.9c0.4-0.3,0.4-0.6,0-0.9c0-0.7-0.1-1.5-0.1-2.2c0.4-3.9-0.6-7.7-0.5-11.6
	c0-0.9-0.2-2-0.8-2.8c0-0.7-0.1-1.5-0.1-2.2c0.4-3.9-0.6-7.7-0.5-11.6c0-0.9-0.2-2-0.8-2.8c0-0.3,0-0.6,0-0.9c0-0.2,0-0.3,0-0.5
	c0-0.3,0-0.5,0-0.8c0.4-3.8-0.7-7.6-0.4-11.4c0-0.6-0.1-1.1-0.8-1.2c0-0.3,0-0.6,0-0.9c0.6-1-0.2-1.9-0.1-2.8
	c0.4-3.8-0.6-7.6-0.4-11.4C99.6,123.1,99.6,122.5,98.8,122.3z"/>
<path class="st3" d="M205.2,278.7c-0.6-1.8-2-2.3-3.8-3c-2.6-1-5.3-2-7.9-2.9c-0.8-0.3-1.6-0.5-2.4-0.6c-0.9,0-2.1-0.2-2.5-0.9
	c-1.3-2.2-3.8-2.1-5.6-3.3c-1.5-1-2.7-2.3-4.3-3.2c-3.5-1.8-6.6-4.3-10.2-6c-0.7-0.3-1.1-0.9-1.2-1.6c-0.5-2.1-1.6-1.7-2.7-0.6
	c-0.5,0.5-0.7,1.7-1.7,0.8c-0.7-0.6-0.5-1.4,0.3-1.9c0.9-0.6,0.6-1.3-0.2-1.5c-1.7-0.3-2.6-1.8-4.2-2.1c-0.7-0.1-0.8-0.6-0.8-1.2
	c0-0.9-0.6-1.3-1.3-1.7c-1-0.6-2.1-1.2-2.1-2.7c0-0.7-0.6-1-1.4-1.2c-2.1-0.5-3.9-1.5-4.6-3.9c-0.6-2.2-2.7-3.5-4.3-4.6
	c-2.1-1.4-2.5-3.1-2.8-5.2c-0.1-0.7-0.3-1.3-1.1-1.5c-2.5-0.9-3.1-3.3-4-5.4c-0.2-0.5-0.2-1-0.3-1.6c-0.2-1.8-0.7-2.9-2.7-1.3
	c-0.7,0.6-1.9,0.9-2.3-0.3c-0.4-1,0.6-1.4,1.5-1.6c1.6-0.4,1.1-1.6,0.8-2.4c-0.3-1-1.2-1-2.1-0.6c-0.6,0.3-1.2,1.1-1.7,0.2
	c-0.4-0.8,0.2-1.8,1-2.1c1.5-0.5,2-1.4,2.1-2.9c0.1-1,1-1.3,2-1.5c1.5-0.3,2.9-0.8,3.4-2.5c7.8-0.2,15.6-0.3,23.5-0.5
	c2.7,1.3,5.5,0.8,8.2,0.3c0.1,0,0.1-0.3,0.2-0.4c3.8,0,7.7,0,11.5,0c0.1,1.2-0.6,1.4-1.6,1.3c-1.5-0.2-2.9,0.2-4.3,0.7
	c-1.1,0.4-2.4,1.1-1.8,2.5c1,2.3,2.2,4.7,3.7,6.7c1.3,1.8,4,2.4,3.9,5.3c0,0.4,0.7,0.8,1,1.2c0.4,0.5,1.1,1.1,1.1,1.7
	c0.1,2.9,2.3,4,4.4,5c2.9,1.4,5.5,3.1,7.2,5.8c0.7,1.1,1.7,2.2,2.5,2.1c3.1-0.2,3.8,4.5,7.2,3.3c0.3-0.1,0.4,0.6,0.5,0.9
	c0.8,1.6,3,1.7,3.9,3.4c0.1,0.3,0.9,0,1.3-0.2c1.6-1,3-0.7,4.5,0.3c0.7,0.4,1.5,1.2,2.3,0.7c1.4-0.8,2.2-0.1,3.5,0.4
	c1.6,0.6,3,1,4.1,2.4c0.5,0.6,1.3,0.5,2.1,0.4c1.6-0.3,3.4-0.6,5-0.4c1.9,0.3,3.8,2,5.6-0.1c0.1-0.1,0.4-0.1,0.4,0
	c1.9,1.9,4.4,0.1,6.8,0.9c1.5,0.5,4-0.5,6.2-0.5c1.1,0,2.5-1,3.6-1.8c1.1-0.7,2.3-2,3.6-1.7c1.5,0.3,2.4-0.2,3.2-1.2
	c0.9-1.1,2-1.5,3.4-1.4c1.4,0.1,2.6-0.1,3-1.8c0.2-0.6,0.6-1.2,1.4-0.8c1.7,0.7,2.4-0.5,3-1.6c0.8-1.4,1.1-3.1,2-4.3
	c1.7-2.2,4.7-3.5,4.5-6.9c0-0.2,0.2-0.4,0.4-0.6c1.2-2.2,0.4-3.6-1.8-4.7c-1.8-0.9-3.6-1.2-5.6-1.5c-1.3-0.2-3-0.3-4.1-1.5
	c0.5-0.1,0.9-0.2,1.4-0.2c11.9-0.5,23.8-0.9,35.6-1.4c1.4-0.1,2.9,0,3.7-1.6c0.1,0,0.2-0.1,0.2-0.2c0.4,0,0.6-0.2,0.7-0.5l-0.1-0.1
	c0.4-0.1,0.5-0.4,0.5-0.8l0,0c0.9-0.5,0.7-1.4,0.8-2.3c0.1-1.9-0.4-3.6-0.8-5.4c-1.6-8.3-3.1-16.6-4.7-25c0.3-1.4-0.2-2.7-0.4-4
	c-0.2-1.3,0.3-1.9,1.7-1.6c1.6,0.4,3.1,0.6,4.6-0.1c0.9,0,2.1,0.2,1.7-1.2c-0.2-0.9-0.9-1.8-2.1-0.9c-2.3-0.6-4.6-0.6-6.9-0.4
	c-0.1-0.3-0.2-0.6-0.2-0.9c-0.4-2.5-0.3-2.7,2.3-2.6c2.9,0.1,5.8,0.3,8.7,0.5c0.1,0.8-0.6,1.4-0.3,2.2c0.8,2.3,1.1,4.8,1.7,7.1
	c0.6,2.4,1.8,4.8,1.3,7.3c-0.4,2.1-1.2,4.1,0.7,5.9c0.2,0.2,0.3,0.6,0.2,0.9c-1.9,3.6,0.7,7.5-0.7,11.2c-0.8,2,0.3,4.2-0.3,6
	c-0.9,2.4-0.3,4.9-1.3,7.4c-0.9,2-0.2,4.6-1,6.9c-0.9,2.7-2.2,5.1-2.9,7.9c-0.3,1.3-1.4,3.4-3.3,4.2c-0.6,0.2-0.9,0.8-0.7,1.6
	c0.5,2.6-1.2,4.8-2.4,6.5c-2.8,4.2-7.1,7.4-9.5,12.1c-0.1,0.3-0.6,0.5-0.9,0.6c-1.1,0.3-1.8,1.2-2.4,2.1c-1.1,1.8-2.9,2.5-4.7,2.9
	c-2,0.5-2.7,0.8-0.9,2.4c0.2,0.2,0.2,0.6,0.3,0.8c-2.2,0.1-4.3,0.7-6.6,0.5c-0.6,0-1,0.3-1.3,0.8c-0.3,0-0.6,0-1,0
	c-2.9,0.2-5.8,0.4-8.7,0.6c-0.2,0-0.3,0.4-0.5,0.7c-0.5,0-0.9,0.1-1.4,0.1c-0.3-0.1-0.5-0.4-0.8-0.4c-2.4,0.5-4.9,1-7.4,0.9
	c-0.5,0-0.8,0.4-1.1,0.8c-0.3,0-0.6,0-1,0c-0.3-0.3-0.6-0.5-1-0.4c-2.6,0.6-5.2,1-7.9,0.9c-0.6,0-1.1,0.1-1.2,0.8
	c-0.3,0-0.6,0-0.9,0c-3.1-0.1-6.1,0.6-9.2,0.9c-0.2,0-0.3,0.3-0.4,0.5c-0.3,0-0.6,0-0.9,0c-1-0.6-2.2-0.1-3,0.1
	c-2,0.7-4.4-0.5-6.2,1.2c-0.3,0-0.6,0-1,0c-3.1-0.4-6,0.6-9,0.9c-0.1,0-0.1,0.3-0.2,0.4c-0.6,0-1.2,0-1.9,0.1
	C211.3,278,208.3,279.1,205.2,278.7z"/>
<path class="st4" d="M320,320c4.1-1,8.2-2.3,12.5-2.6c1.1-0.1,1.9-0.8,2.9-1c2.3-0.7,4.7-1,7.1-1.5c4.1-0.8,8.1-1.9,12.1-3
	c3.7-1,7.5-1.9,11.2-2.7c3.8-0.8,7.5-2.2,11.4-2.9c3.4-0.6,6.6-1.8,10.1-2.3c3.5-0.4,6.9-1.7,10.3-2.8c4.5-1.4,8.9-0.8,13.4,0
	c9.7,1.8,19.4,3.5,29.1,5.3c8,1.5,15.9,3,23.9,4.5c0.7,0.1,1.3,0.5,1.9,0.7c0,0.9-0.3,1.4-1.2,1.7c-2.9,0.9-5.8,1.9-8.7,2.8
	c-6.5,2.1-13,4.1-19.4,6.2c-9,2.9-17.8,6.2-26.9,8.9c-9.2,2.8-18.2,6-27.4,8.8c-4.9,1.5-9.8,3.1-14.8,4.6c-0.1-0.7-0.4-0.9-1.1-0.6
	c-0.5,0.2-1.2,0.7-1.7,0.5c-3.5-1.2-7.2-1-10.8-1.8c-4-0.9-7.7-2.9-11.8-3.5c-1.1-0.2-2.6,0.1-3.3-0.5c-2.8-2-6.1-2.7-9.2-4.1
	c-2-0.9-4.2-1.8-5.6-3.4c-1.4-1.6-3.6-2.7-4.2-5.1c-0.4-1.6-2.9-3.1-0.1-4.8C320.2,321.2,320,320.5,320,320z"/>
<path class="st2" d="M286.8,268.5c-0.1-0.3-0.1-0.7-0.3-0.8c-1.8-1.6-1.1-2,0.9-2.4c1.8-0.4,3.6-1.2,4.7-2.9
	c0.6-0.9,1.3-1.7,2.4-2.1c0.3-0.1,0.8-0.3,0.9-0.6c2.3-4.7,6.7-7.8,9.5-12.1c1.2-1.8,2.8-3.9,2.4-6.5c-0.1-0.7,0.2-1.3,0.7-1.6
	c1.9-0.8,3-2.9,3.3-4.2c0.7-2.8,2-5.2,2.9-7.9c0.8-2.3,0.1-4.9,1-6.9c1.1-2.4,0.5-5,1.3-7.4c0.7-1.8-0.4-4.1,0.3-6
	c1.4-3.6-1.2-7.5,0.7-11.2c0.1-0.2,0-0.7-0.2-0.9c-1.9-1.8-1-3.8-0.7-5.9c0.4-2.5-0.7-4.9-1.3-7.3c-0.6-2.4-0.8-4.8-1.7-7.1
	c-0.3-0.8,0.4-1.5,0.3-2.2c0,0,0.2,0,0.2,0l0.2,0c2.8,0,0.7-1.4,0.6-2.2l-0.1-0.1c-0.2-0.1-0.3-0.3-0.5-0.4l0,0
	c-0.4-0.5-0.9-0.5-1.4-0.5c-4.1-0.2-4.4-0.5-5.7-4.5c-0.5-1.6-1.2-3.1-1.8-4.6c-0.8-2.1-2.9-3.7-2.9-6c-0.1-1.8-0.8-3-1.9-4.2
	c0.2-0.5,0.5-1.1,1-1.4c0.1-0.2,0.3-0.3,0.4-0.5l0,0c1.5-1,1.6-1.7,0.5-2.7c-0.2-0.2-0.4-0.3-0.5-0.5c-0.9-0.5-1.6-1.1-2.3-2
	c-1-1.4-1.8-3-2.8-4.4c-0.9-1.2-1.8-1.9-3.4-1.9c-1.8,0-3.7-0.1-5.4-0.6c-1.5-0.4-3.3-0.5-4.1-2.3c2.8-0.3,5.5,0.8,8.3,0.7
	c1,0,2,0,2.3-1.3c0.8-0.9,0.6-4.1-0.4-5.3c-0.4-0.5-0.9-0.8-1.6-0.8c-3.5-0.4-7-0.8-10.4-1.5c-2.7-0.5-5.4-0.5-8-1.3
	c3-1,5.8,0.2,8.7,0.6c2.8,0.3,5.5,1.3,8.3,0.4c1.4-0.4,1.7-1.2,0.4-2.2c-2.7-2.3-4.4-5.4-7.5-7.5c-2.7-1.8-4.9-4.3-7.9-5.8
	c-4.1-2-7.6-5.5-12.6-5.6c-1.4,0-2.8-0.8-4.2-1.2c-0.9-0.3-1.5-0.8-1.3-1.8c0.5,0.1,0.9,0.1,1.4,0.2c0.3,1,0.8,1,1.4,0.3
	c0.7,0.5,1.5,0.5,2.3,0.6c3.6,0.8,7.3,1.9,11.1,1.8c0.6,0.1,1.2,0.1,1.8,0.2c0.1,0.4,0.3,0.7,0.8,0.7c2.2,0.3,4.4,0.6,6.5,1
	c6.5,1.2,13.2,1,19.4,3.6c4.5,1.8,7.9,4.8,9.3,9.6c-0.1,0.8-0.1,1.5,0.7,2c0,0.3,0.1,0.6,0.1,0.9c0.1,0.2,0.2,0.3,0.2,0.5
	c0.1,0.6,0.2,1.2,0.2,1.8c0,1.3-0.2,2.6,0.8,3.7c0,0.3,0.1,0.6,0.1,0.9c0.1,0.1,0.2,0.3,0.2,0.4c0.1,0.7,0.2,1.5,0.3,2.2
	c-0.1,1.2-0.1,2.3,0.7,3.3c0,0.3,0.1,0.6,0.1,0.9c0.1,0.2,0.2,0.3,0.2,0.5c0.1,0.6,0.2,1.2,0.2,1.8c-0.1,1.8,0,3.6,1.1,5.1
	c0.1,0.9,0.2,1.7,0.3,2.6c0.2,1.8-0.2,3.7,1.2,5.3c0.1,0.4,0.1,0.8,0.2,1.3c0.1,0.8-0.5,1.9,0.6,2.4c0.1,0.5,0.1,0.9,0.2,1.4
	c-0.6,0.6-0.5,1.1,0.3,1.4c0.1,0.6,0.2,1.1,0.2,1.7c0.2,1.9-0.2,4,1.2,5.7c0.1,0.4,0.1,0.8,0.2,1.3c0.1,0.8-0.5,1.9,0.6,2.4
	c0.1,0.5,0.1,0.9,0.2,1.4c-0.6,0.6-0.5,1.1,0.3,1.4c0.1,0.7,0.2,1.4,0.3,2.1c0,0.7-0.4,1.6,0.6,2c0.1,0.5,0.1,0.9,0.2,1.4
	c-0.5,0.8-0.7,1.4,0.4,1.8c0.1,0.4,0.1,0.8,0.2,1.3c0.1,0.8-0.5,1.9,0.6,2.4c0.1,0.5,0.1,0.9,0.2,1.4c-0.5,0.8-0.7,1.5,0.5,1.8
	c0.1,0.1,0.1,0.3,0.1,0.4c0,0.7-0.2,1.5,0,2c0.7,1.4-0.4,3.4,1.3,4.5c0.1,0.1,0.1,0.3,0.1,0.4c0,0.7-0.2,1.5,0,2
	c0.7,1.4-0.4,3.4,1.3,4.5c0.1,0.1,0.1,0.3,0.1,0.4c0,0.7-0.2,1.5,0,2c0.7,1.4-0.4,3.4,1.3,4.5c0.1,0.1,0.1,0.3,0.1,0.4
	c0,0.7-0.2,1.5,0,2c0.7,1.4-0.4,3.4,1.3,4.5c0.1,0.1,0.1,0.3,0.1,0.4c0.2,1.1-0.7,2.5,0.7,3.3c0,0.3,0.1,0.6,0.1,1
	c-0.5,0.5-0.2,0.7,0.3,0.9c0.3,0.8,0.4,1.7,0.3,2.6c0.3,1.8-0.2,3.7,1.3,5.2c0,0.3,0.1,0.6,0.1,0.9c0.1,2.1-0.1,4.2,1.3,6.1
	c0,0.3,0.1,0.6,0.1,0.9c0,2-0.1,3.9,1.2,5.6c0.1,0.3,0.1,0.6,0.2,0.9c0,1.6-0.1,3.2,0.8,4.6c0,0.2,0.1,0.3,0.1,0.5
	c0.1,0.2,0.2,0.3,0.2,0.5c0.1,0.6,0.2,1.2,0.2,1.8c0,2.3,0,4.5,0,6.8c-0.1,0.4-0.1,0.8-0.2,1.2c-0.6,0.1-1,0.3-0.4,0.9
	c0,0.4,0,0.7-0.4,0.9c-0.1,0.2-0.3,0.4-0.4,0.6c0,0.1,0,0.2-0.1,0.3c-0.9,0.1-1.3,0.5-1.4,1.4c0,0,0,0,0,0c-0.9,0-1.3,0.5-1.4,1.3
	l-0.2,0.1c0,0-0.2,0-0.2,0c-0.2,0.1-0.4,0.2-0.6,0.3c-0.2,0.1-0.5,0.1-0.7,0.2c-3.5,0.4-6.9,1.7-10.5,1.4c-0.4,0-0.6,0.4-0.7,0.7
	c-0.5,0-0.9,0.1-1.4,0.1c-2.9,0.2-5.8,0.4-8.7,0.6c-0.2,0-0.3,0.4-0.5,0.7c-0.3,0-0.6,0-0.9,0c-3.1-0.1-6,0.5-9,0.9
	c-0.1,0-0.1,0.3-0.2,0.4c-0.5,0-0.9,0-1.4,0.1c-1-0.9-2.2-0.1-3,0.2c-2.1,0.7-4.4-0.5-6.2,1.2c-0.9,0.1-1.8,0.1-2.6,0.2
	C287.2,268.5,287,268.5,286.8,268.5z"/>
<path class="st3" d="M258.2,101.1c-0.2,1,0.4,1.6,1.3,1.8c1.4,0.4,2.8,1.1,4.2,1.2c5,0.2,8.4,3.6,12.6,5.6c3.1,1.5,5.3,4,7.9,5.8
	c3.1,2.1,4.9,5.2,7.5,7.5c1.2,1.1,1,1.8-0.4,2.2c-2.8,0.8-5.5-0.1-8.3-0.4c-2.9-0.3-5.7-1.6-8.7-0.6c-0.4,0-0.9-0.1-1.3-0.1
	c-1.1-1.6-2.8-0.4-4.2-0.8c-0.3,0-0.6,0-0.9-0.1c-0.1-0.4-0.2-0.8-0.7-0.8c-3.5-0.5-7-1-10.5-1.4c-0.7-0.1-1.6-0.3-2.2,0.4
	c-0.5,0-0.9-0.1-1.4-0.1c-2.7-1.5-5.7-2-8.7-1.3c-0.3,0-0.6,0-0.9,0c-1.3-1.6-3-1.3-4.6-0.8c-0.1,0-0.3,0-0.4,0
	c-1.2-1.7-2.7-0.9-4.1-0.5c-0.5,0-0.9-0.1-1.4-0.1c-1.1-1.6-2.8-0.4-4.1-0.8c-0.3,0-0.6,0-0.9,0c-0.9-1.5-2.1-1-3.2-0.5
	c-0.5,0-0.9-0.1-1.4-0.1c-1.2-1.6-2.8-0.4-4.2-0.8c-0.3,0-0.6,0-0.9-0.1c-1-1.6-2.4-0.9-3.7-0.5c-0.3,0-0.6-0.1-0.9-0.1
	c-1.5-1.7-3.4-0.4-5.1-0.8c-0.2,0-0.3,0-0.5,0c-1-1.7-2.4-0.9-3.7-0.5c-0.3,0-0.6,0-1,0c-1.3-1.6-3.1-0.5-4.6-0.8
	c-0.1,0-0.3,0-0.4,0c-0.9-1.5-2.1-1-3.3-0.4c-0.5,0-0.9-0.1-1.4-0.1c-1.3-1.6-3.1-0.5-4.6-0.8c-0.4,0-0.9,0-1.3-0.1
	c-0.7-1.5-1.8-0.9-2.8-0.4c-0.5,0-0.9-0.1-1.4-0.1c-1.4-1.2-2.9-1.5-4.7-0.8c-0.3,0-0.6,0-0.9-0.1c-0.7-1.5-1.8-0.9-2.8-0.4
	c-0.4,0-0.9-0.1-1.3-0.1c-1.3-1.7-3.1-0.4-4.7-0.8c-0.4,0-0.9,0-1.3-0.1c-0.6-1.4-1.4-1-2.4-0.4c-0.8,0-1.5-0.1-2.3-0.1
	c-2.4-1.6-5.1-1.9-7.9-1.2c-0.3,0-0.6,0-0.9-0.1c-1.7-1-3.5-1.7-5.5-0.9c-0.3,0-0.6,0-0.9,0c-0.7-1.5-1.7-0.9-2.8-0.5
	c-0.8,0-1.5-0.1-2.3-0.1c-0.2-1-0.8-1.2-1.7-1.2c-0.8,0-1.5,0-2.3-0.1c-2.1-0.3-4.1-2.7-3.7-4.7c0.2-1.1,0.9-1.8,2.2-1.4
	c1.4,0.4,2.2-0.1,2.6-1.4c0.6-2.1,2.3-3.2,4.4-2.9c1.6,0.2,3.3,0.4,3.8-2c0.2-0.8,1.4-1.3,2.1-1.2c3.2,0.6,5-2.1,7.4-3.2
	c0.5-0.2,0.8-0.7,1.4-0.5c3,1,6-0.1,9.1,0.2c4.3,0.5,8.6,1.1,12.9,1.4c0.9,0.1,2.1,0.6,2.4-0.9c5.2,0.4,10.4,1.3,15.5,2.7
	c1.3,0.4,2.7,0.1,4.1,0.4c5.8,1.1,11.7,1.8,17.5,3c6,1.3,12.1,2.3,18.1,3.4c4.2,0.8,8.3,1.7,12.6,2.1
	C253.7,100,255.9,100.6,258.2,101.1z"/>
<path class="st5" d="M319.1,317.6c-0.5,0.1-0.9,0.1-1.4,0.2c-0.6-0.6-1.1-0.5-1.4,0.4c-0.7,0.1-1.4,0.2-2.1,0.3
	c-0.5-0.1-0.9,0-1.1,0.5c-0.3,0-0.6,0.1-1,0.1c-0.8-0.4-1.4-0.6-1.8,0.5c-6.2,1.6-12.4,3.3-18.8,4.4c-0.7,0-1.5-0.4-2,0.6
	c-0.5,0.1-0.9,0.2-1.4,0.2c0-0.2,0-0.3,0-0.5c-1.3-1.3-2.9-1.9-4.6-1.8c-1.7,0.1-2.9-0.5-3.8-1.9c0-0.1-0.1-0.2,0-0.3
	c2.2-0.4,4.3-1,6.5-1.4c11.7-2.3,23.3-5.1,35-7.7c7.3-1.6,14.6-3.3,21.8-5c2-0.5,4.2-0.3,6-1.9c-3.8-0.7-7.3-2-11.1-1.7
	c0.5-1.6-0.7-2.5-1.4-3.6c1.8-0.1,3.5,0.1,5.2-0.2c5.6-1.1,11.3-2.4,16.9-3.6c0.9-0.2,2.1-0.3,1.9-1.8c0.5,0,0.9,0.1,1.4,0.1
	c0.2,1,0.9,0.8,1.6,0.7c2.3-0.2,2.7,1.9,3.8,3.1c0.5,0.6-0.4,1-1,1c-1,0.1-2.1,0.3-2.9,1c-1.4-0.5-2.5,1-3.9,0.3
	c-3.9-1.9-7.5,0.1-11.3,0.6c-0.4,0.1-0.8,0.1-0.8,0.6c0.1,0.4,0.4,0.6,0.8,0.7c2.4,0.5,4.9,1.1,7.3,1.4c3,0.4,5.7-1.3,8.6-1.5
	c0.5,0,0.5-0.7,0.5-1.1c0.4,0,0.9,0,1.3,0c0.2,1,0.9,0.8,1.6,0.7c0.4,0.1,0.8,0.1,1.1,0.4c1.1,1,2.8,2,2.6,3.3
	c-0.1,1.2-2.2,0.9-3.4,1.2c-8.2,1.9-16.5,3.9-24.7,5.9c-5.7,1.4-11.4,2.7-17.1,4c-0.7,0.2-1.5,0.2-2.3,0.2c-0.8,0-1.7-0.5-2,0.7
	c-0.4,0-0.9,0.1-1.3,0.1C319.9,316.9,319.3,316.8,319.1,317.6z"/>
<path class="st6" d="M347.7,281.2c0.4,0,0.8,0,1.2,0c0.3,0.7,0.9,0.8,1.5,0.4c3.8-2.1,7.9-2.6,12.1-2.3c3.3,0.3,6.7,0.4,9.8,2.1
	c0.9,0.5,2.4,0,3.6,0c3,0,5.9,1,8.8,1.3c1.8,0.2,2.8,1.5,3.9,2.6c1,1,0.2,1.3-0.8,1.3c-1.6-0.1-2.9,1.1-4.6,0.9
	c-2.7-0.3-5.5-0.1-8.2,0.4c-0.5,0.1-1.2,0-1.3,0.6c-0.2,1,0.8,0.6,1.2,0.9c1,0.7,2.2,1,3.3,1.4c1,0.3,1.8,0.9,1.6,2.1
	c-0.6,0-1.2,0-1.8,0c-0.7-0.7-0.8-0.1-0.9,0.5c-0.3,0-0.6,0-0.9,0c-1.1-0.2-2.2-0.3-3.2-0.5c-1.6-0.8-3.8,0.3-5.2-2
	c-0.3-0.5-2.8,0.2-4.3,0.3c-0.8-0.1-1.7-0.6-2.1,0.6c-0.5,0.1-0.9,0.2-1.4,0.2c0,0,0-0.2,0-0.2c0-0.8,0-1.7,0-2.5
	c0-0.8-0.3-1.5-1.1-1.5c-4.1-0.1-8.1-1.9-12.2-0.6c-1,0.3-2.8-0.6-2.9,0.9c0,0.9,2,1,3.1,1c2.7-0.1,3.7,1.3,3.8,3.7
	c-1.7-0.4-3,1-4.6,0.9c0.6-2.1,0.1-3.3-2.4-3.3c-1.8,0-3.6-0.6-5.4-1.1c-3.3-0.8-6.1,0.8-9.1,1.6c2.7,1,6.5,0.2,6.7,4.6
	c-1.3,0.9-2.8,0.3-4.2,0.5c0-1.8-0.8-2.6-2.6-2.8c-1.4-0.2-2.9-0.4-4.2-0.8c-4.2-1.4-7.9,0.4-11.8,1.3c1,0.7,2.1,0.8,3.2,1.1
	c3.4,0.7,3.5,0.8,3.4,4.1c-0.8,0-1.5,0-2.3,0.1c-1.7-1.4-3.2-3.1-5.6-3.1c-0.9,0-1.8-0.3-2.7-0.6c-0.5-0.1-1.2,0.1-1.2-0.7
	c0-0.5,0.6-1.1,1.1-1.1c1.3-0.1,2.2-1.2,3.7-1.1c1.2,0.1,0.9-0.6,0.5-1.3c-0.5-0.7-1.1-1-1.9-1c-1,0.1-1.6-0.4-1.7-1.4
	c0.2-0.3,0.4-0.5,0.6-0.8c0.5-0.1,1,0,1.3-0.4c1.2-0.1,2.5-0.1,3.7-0.2c0.1,0.3,0.1,0.7,0.3,0.8c3.5,1.8,7.1,1.1,10.7,0.6
	c0.4-0.1,0.7-0.3,0.7-0.8c0-0.5-0.5-0.5-0.9-0.5c-0.8-0.1-2,0.3-2.2-1c3.6-2.2,7.8-2,11.7-2.6c1.1-0.2,2.2-0.2,3.1-0.9
	c2.1-0.3,4.2-0.5,6.3-0.9C346.1,281.8,347.2,282.4,347.7,281.2z M369.5,285.5c-3.3-1.2-6.3-0.8-9.3-0.8c-0.6,0-1.3,0.2-1.2,1
	c0.1,0.6,0.7,0.8,1.2,0.8c1.2,0,2.4,0.5,3.4,0.3C365.4,286.5,367.5,287.1,369.5,285.5z"/>
<path class="st6" d="M274.9,285.8c1.2-1.2,2.9-0.7,4.3-0.9c2.3-0.3,4.5-1.4,7-0.6c1.4,0.4,2.3-1.4,4-1.4c3.6,0,7.3-0.8,10.8-1.2
	c3.4-0.4,6.8-1.7,10.2-1.9c4-0.2,7.7-1.8,11.6-2c5-0.3,9.8-1.9,14.7-2.2c2.9-0.1,5.9,0.7,8.8,1.3c1.3,0.2,1.9,1.6,2.5,2.5
	c0.6,1-0.6,0.9-1.2,1.1c-3.1,0.4-6.2,0.5-9.2,1.5c-0.7,0.1-1.5,0.3-2.2,0.4c-8.2,1.4-16.3,2.8-24.5,4.2c-0.5,0-1,0-1.4,0.4
	c-3.8,0.6-7.7,1.1-11.5,1.7c-5.9,0.9-11.7,1.9-17.6,2.9c0-0.5,0-0.9,0-1.4c0.1-1.5,0.1-2.5-2-3C277.9,286.8,276.1,287,274.9,285.8z"
	/>
<path class="st5" d="M320,320c0,0.5,0.2,1.2-0.3,1.5c-2.9,1.7-0.3,3.2,0.1,4.8c0.6,2.4,2.8,3.5,4.2,5.1c1.4,1.6,3.6,2.5,5.6,3.4
	c3,1.4,6.4,2,9.2,4.1c0.8,0.6,2.2,0.3,3.3,0.5c4.1,0.6,7.8,2.6,11.8,3.5c3.6,0.8,7.3,0.6,10.8,1.8c0.5,0.2,1.2-0.3,1.7-0.5
	c0.7-0.3,1-0.1,1.1,0.6c-2.4,1.4-5.2,1.4-7.8,2.3c-1.6,0.6-3.3,0.3-5-0.1c-2.5-0.6-4.9-1.9-7.3-2.5c-3.9-0.9-7.6-2.3-11.4-3.5
	c-8.4-2.7-16.9-5.5-25.3-8.3c-5.6-1.9-11.3-3.2-16.6-5.8c0.5-1.4,1.9-1.2,2.9-1.5C304.6,323.5,312.3,321.7,320,320z"/>
<path class="st6" d="M277.6,326.7c-0.4,0.7-1,1-1.8,1.2c-11.5,2.7-22.9,5.5-34.4,8.1c-3.9,0.9-7.7,2.3-11.8,2.4
	c0.5-1.1,0.6-2.3,0.4-3.5c0-0.4,0.1-0.9,0.1-1.3c1.2-1.6,0-2.1-1.2-2.6c-1.3-0.6-2.9-0.6-3.8-1.9c0.4-0.8,0.8-0.2,1.3,0
	c2.7,0.9,5.1,2.6,8.3,1.8c4.5-1.2,9-2,13.6-3c4.8-1,9.7-1.8,14.4-3.1c3.2-0.9,6.7-0.7,9.6-2.7c1.1-0.1,1.7,0.6,2.3,1.3
	C275.5,324.4,276.5,325.5,277.6,326.7z"/>
<path class="st7" d="M294.1,326.8c5.3,2.6,11.1,3.9,16.6,5.8c8.4,2.8,16.9,5.5,25.3,8.3c3.8,1.2,7.5,2.6,11.4,3.5
	c2.5,0.6,4.8,1.8,7.3,2.5c1.7,0.4,3.3,0.7,5,0.1c2.6-0.9,5.4-0.9,7.8-2.3c4.9-1.5,9.8-3,14.8-4.6c9.1-2.9,18.2-6.1,27.4-8.8
	c9-2.7,17.9-5.9,26.9-8.9c6.5-2.1,12.9-4.1,19.4-6.2c2.9-0.9,5.8-1.9,8.7-2.8c0.9-0.3,1.2-0.8,1.2-1.7c0.7-0.2,1.3,0.3,1.9,0.5
	c0.6,1.4-0.4,1.7-1.4,2.1c-10.2,3.3-20.3,6.5-30.5,9.8c-15,4.9-29.9,9.9-44.9,14.8c-9.3,3-18.7,5.9-28,9.2c-1.5,0.5-3.1,0.6-4.7,0.9
	c-4.1,0-7.7-1.9-11.4-3c-7.2-2.2-14.4-4.6-21.6-6.9c-10.4-3.3-20.7-6.7-31.1-10c-0.6-0.2-1.3-0.2-1.3-1
	C292.8,327.1,293.5,326.9,294.1,326.8z"/>
<path class="st5" d="M379.9,292.9c0.2-1.3-0.6-1.8-1.6-2.1c-1.1-0.4-2.3-0.7-3.3-1.4c-0.4-0.3-1.5,0.2-1.2-0.9
	c0.1-0.6,0.8-0.5,1.3-0.6c2.7-0.5,5.5-0.7,8.2-0.4c1.7,0.2,3-1.1,4.6-0.9c0,1.5,1.3,1.2,2.2,1.3c1,0.1,1.9,0.2,2.5,1.2
	c0.2,1.5-1.6,1.3-2.3,2.1c2,0.8,7.9,1.7,9.6,1.1c1.4-0.5,3.4,0.5,4.1-1.7c0.8,0,1.9-0.3,2.1,0.8c0.2,1.1-1,0.9-1.6,1.2
	c-1.3,0.6-3,0.9-3.9,1.8c-1.8,1.9-3.1,2-4.7,0c0,0-0.2,0.1-0.5,0.2c0.5,1.1,0.3,2.3,0.4,3.6c-4.9,1.2-9.5,3.6-14.9,2.1
	c-3.3-0.9-6.7-1.3-10.1-1.9c-0.6-0.1-1.3-0.1-1.5-0.8c-0.2-0.6,0.4-0.9,0.8-1.3c1-1.1,2.1-2.3,3.1-3.4c1.1,0.2,2.2,0.3,3.2,0.5
	c-0.1,1,0.3,1.4,1.3,1.4c1.2-0.1,2.2,0.3,3.3,0.6c3.2,1.1,6.3,0.2,9.3-0.6c0.4-0.1,0.7-0.3,0.7-0.8c0-0.2-0.4-0.5-0.6-0.5
	C386.8,293.6,383.4,291.9,379.9,292.9z"/>
<path class="st6" d="M201.7,325.3c-1-1.6-2.4,0.3-3.5-0.3c0.6-1.8,1.4-3.7,0.9-5.5c-0.4-1.6-2.4-1.3-3.6-2c-4.3-2.2-4.3-2.2-8.4,2.2
	c-0.4-0.1-0.9-0.1-1.3-0.2c0-0.3,0-0.5,0-0.8c0.5-0.3,0.5-0.6,0.1-0.9c0-0.3,0-0.6,0.1-0.9c0.5-0.2,1.1-0.3,0.4-1c0-0.3,0-0.6,0-0.9
	c1.2-0.8,0.9-1.3-0.2-1.9c-1.6-0.8-3.6-1-4.9-2.5c1.6-1,3.6-0.8,5.3-1.1c4.1-0.5,8.2-2.7,12.5-0.6c0.5,0.3,1-0.2,1.5-0.5
	c0.1,0.6,0.3,1.3,1,1.4c2.1,0.3,3.2,1.9,4.7,3c-0.2,1-1,0.7-1.7,0.8c-1.9,0.2-3.7,0.8-5.6,1.3c-1.2,0.3-1.5,1.1-0.5,1.7
	c2,1.1,4,2.4,6.4,1.3c1.7-0.7,3.5-0.9,5.3-1.1c1.8-0.3,3.8-0.1,5.1-1.8c2.4-0.1,3.3,1.9,4.6,3.3c-0.1,0.4-0.3,0.8-0.7,0.8
	c-2.8,0.1-5.5,1.2-8.3,1.5c-1,0.1-2.3,0.2-2.1,1.8c-3.4-1.8-5.4-0.2-7,2.8C201.9,325.3,201.7,325.3,201.7,325.3z"/>
<path class="st1" d="M200.5,308.5c-0.5,0.3-0.9,0.8-1.5,0.5c-4.3-2-8.4,0.1-12.5,0.6c-1.8,0.2-3.7,0.1-5.3,1.1
	c-0.8,0.2-1.7-0.3-2.3,0.5c-0.6,0.5-1.2,1-1.8,1.6c-0.1-0.9,0.9-2-0.5-2.7c0.7-0.6,1.7-0.7,2.6-0.8c2.7-0.3,5.4-0.9,8-1.5
	c0.6-0.1,1.3-0.3,1.9-0.4c4-0.3,8-1.1,12-1.9c2.5-0.5,5.2-0.2,7.5-1.6c0.6-0.1,1.2-0.2,1.7-0.2c5.9-0.5,11.7-1.7,17.5-2.9
	c0.6-0.1,1.2-0.2,1.9-0.4c5.4-0.6,10.9-1.1,16.2-2.9c0.8,0.1,1.6,0.3,2.3-0.3c1.3-0.2,2.6-0.2,3.8-0.5c3.8-0.8,7.7-0.9,11.4-2.1
	c0.6,0.1,1.2,0.1,1.8-0.2c4.8-0.8,9.6-1.7,14.3-2.5c0.6,0.1,1.3,0.3,1.7-0.4c5.9-1,11.7-1.9,17.6-2.9c3.8-0.6,7.7-1.1,11.5-1.7
	c0,0.3,0,0.7,0.1,1c-0.2,0.3-0.4,0.5-0.6,0.8c-0.3,0.1-0.7,0.4-1,0.3c-3.2-0.7-6.1,0.2-9.1,1c-2,0.4-4.4-0.5-5.7,1.9
	c-4.7-1.4-9.1,0.9-13.7,1.3c-0.9,0-1.6,0.6-2.3,1.1c-0.6,0.4-1.3,0.6-2,0.4c-3.9-0.7-7.6,0.6-11.4,1.4c-1.7,0-3.4-0.2-4.4,1.7
	c-0.4,0-0.9,0.1-1.3,0c-3.9-1-7.6,0.5-11.4,1.1c-0.8,0.1-1.8-0.3-2.3,0.8c-1.5-0.5-2.7-0.2-3.4,1.3c-0.8,0-1.5,0.2-2.3,0.1
	c-5.2-0.7-10,1.1-15,1.9c-1.6-0.1-2.6,0.7-3,2.3c-6.1-2.4-11.9,0.6-17.8,1.4C202.2,306.5,201.3,307.5,200.5,308.5z"/>
<path class="st6" d="M187.2,307.8c-2.7,0.5-5.3,1.2-8,1.5c-0.9,0.1-1.8,0.1-2.6,0.8c-0.6,0-1.2,0.1-1.8,0.1c-0.4-0.1-0.7,0-0.9,0.4
	c-1.2,0-2.5,0-3.7,0.5c-0.7,0-1.3-0.2-1.9,0.4c-0.5,0-1-0.1-1.5-0.1c0-1.1,0.2-2.1,0.6-3.1c0.6-1.3,0.4-2-1-2.7
	c-1.7-0.8-3.4-1.2-5.2-1.7c1.5-1.2,3.3-0.7,5-1.1c3-0.7,6.1-1,9.2-1.5c1.2-0.2,2.2-0.3,3.3,0.3c0.8,0.5,1.9,0.5,2.9,0.1
	c0,0.8,0.3,1.2,1.2,1.6C184.8,304.2,186.3,305.7,187.2,307.8z"/>
<path class="st6" d="M208.5,303.9c-2.3,1.4-5,1.1-7.5,1.6c-4,0.8-7.9,1.6-12,1.9c-0.2-1,0.1-2,0.5-2.9c0.6-1.4,0.1-1.9-1.2-2.5
	c-1.7-0.9-3.6-1-5.3-1.6c3.1-1.3,6.6-1,9.7-1.9c3.1-0.9,6.1-0.3,9.1,0c0.1,0.3,0.2,0.8,0.4,0.8C205.2,299.6,206.7,302,208.5,303.9z"
	/>
<path class="st6" d="M395.7,298.3c-0.1-1.2,0.1-2.4-0.4-3.6c0.3-0.1,0.5-0.3,0.5-0.2c1.6,2,2.9,1.9,4.7,0c0.9-1,2.6-1.2,3.9-1.8
	c0.6-0.3,1.8-0.2,1.6-1.2c-0.2-1.1-1.3-0.8-2.1-0.8c-1.7,0-3.3-0.8-5-0.5c0-0.5,0-1-0.1-1.4c0,0,0,0,0,0c0.6,0.1,1.3,0.2,1.5-0.7
	c0.3,0,0.6,0,0.9,0c2.6,1.3,5.4,1.6,8.2,2.1c3.3,0.6,6.3-0.9,9.3-2.2c0.3,0,0.6,0.1,0.9,0.1c0.2,0.9,1,1.1,1.8,1.2
	c2.4,2.4,2.5,2.7-0.6,3.4C412.4,294.6,404.1,296.9,395.7,298.3z"/>
<path class="st6" d="M227.8,300.8c-5.8,1.1-11.6,2.4-17.5,2.9c0-0.8-0.2-1.7,0.1-2.5c0.7-1.6,0-2.2-1.4-2.6c-1.5-0.5-3-1.1-4.5-1.6
	c1.1-1.2,2.6-0.7,3.9-0.8c3.8-0.5,7.5-2.1,11.4-0.8c0.8,0.3,1.3-0.4,1.9-0.6c-0.1,1,0.4,1.5,1.4,1.7
	C225.7,296.8,226.8,298.7,227.8,300.8z"/>
<path class="st6" d="M245.8,297.5c-5.2,1.8-10.7,2.3-16.2,2.9c-0.1-4.6-0.1-4.6-4.6-5.7c-0.9-0.2-1.9-0.3-2.9-0.5
	c1.7-1.5,3.9-0.7,5.8-1.3c3.8-1.2,7.8-1.1,11.7-1.1c0.1,1,0.6,1.4,1.6,1.5C243.8,293.7,245.1,295.2,245.8,297.5z"/>
<path class="st6" d="M263.4,294.6c-3.7,1.2-7.6,1.3-11.4,2.1c-1.3,0.3-2.6,0.3-3.8,0.5c0-0.4-0.1-0.8-0.1-1.1
	c0.6-2.7-1.1-3.5-3.2-3.9c-0.9-0.2-1.5-0.3-1.4-1.3c3.5-1.1,7.1-1.9,10.9-1.5c0.7,0.1,1.4-0.1,2-0.1c0.3,1.4,1.6,1.2,2.6,1.4
	C261.2,291,262.6,292.4,263.4,294.6z"/>
<path class="st6" d="M279.5,291.9c-4.8,0.8-9.6,1.7-14.3,2.5c0-0.5-0.1-0.9,0-1.4c0.4-2.1-0.5-3.1-2.6-3.4c-1.8-0.3-3.6-0.6-5.4-0.9
	c0.8-1.2,2.1-0.6,3.2-0.8c3.7-0.6,7.4-2,11.3-1c0.4,0.1,0.8-0.3,1.3-0.4c0,1.2,0.7,1.4,1.7,1.5C277.1,288.2,278.9,289.3,279.5,291.9
	z"/>
<path class="st4" d="M332,296.2c1.4-0.2,2.9,0.4,4.2-0.5c3.4-0.3,6.8-1.2,10.1-1.8c1.6,0,2.9-1.3,4.6-0.9c3.1-0.3,6.3,1,9.3-1
	c0,0,0,0.2,0,0.2c0,0.5-0.1,1,0.5,1.3c0.2,1.5-1,1.6-1.9,1.8c-5.6,1.3-11.2,2.5-16.9,3.6c-1.7,0.3-3.5,0.1-5.2,0.2
	c-1.7-0.2-3.4-0.3-5-0.5C331.5,297.7,331.6,296.9,332,296.2z"/>
<path class="st6" d="M215.8,331.7c-0.6-0.1-1.2-0.2-1.8-0.3c0.2-1.4,0.3-2.8,0.7-4.2c0.4-1.4,0-2-1.3-2.6c-1.3-0.5-2.8-0.7-3.6-2
	c1.4-0.1,2.5,0.7,3.7,1.2c1.4,0.5,2.7,1.2,4.4,0.8c3.7-0.8,7.5-1.3,11.2-2.2c1-0.2,2.6,0.3,3.1-1.3c1.9,0,2.3,1.7,3.2,2.8
	c-0.1,0.5-0.3,0.9-0.8,0.9c-3,0.3-5.8,1.3-8.8,1.8c-0.7,0.1-1.7-0.2-2.1,0.6c-0.5,1,1,1,1.1,1.8c-1.2,0-2.3-0.5-3.4-1
	c-1.3-0.7-2.1-0.3-2.6,1C217.4,329.7,216.5,330.6,215.8,331.7z"/>
<path class="st8" d="M209.6,322.6c0.9,1.3,2.4,1.5,3.6,2c1.4,0.5,1.7,1.2,1.3,2.6c-0.4,1.4-0.5,2.8-0.7,4.2
	c-2.4,0.2-4.1-1.6-6.2-2.1c-2-0.5-3.8-1.7-5.7-2.4c-1-0.4-1.2-0.8-0.3-1.5c0.1,0,0.2,0,0.2-0.1c1.5-2.9,3.6-4.5,7-2.8
	C209.1,322.5,209.4,322.6,209.6,322.6z"/>
<path class="st8" d="M215.8,331.7c0.8-1.1,1.7-2,2.7-2.8c4.1,1,8,2.3,11.5,4.7c0,0.4-0.1,0.9-0.1,1.3c-1.5,0.9-0.5,2.3-0.8,3.4
	c-2.5,0.4-4.2-1.6-6.3-2.1c-2.1-0.5-4-1.6-6-2.6C216.1,333.3,215,333,215.8,331.7z"/>
<path class="st8" d="M187,319.7c4.1-4.3,4.1-4.4,8.4-2.2c1.2,0.6,3.2,0.4,3.6,2c0.5,1.8-0.3,3.7-0.9,5.5c-3.4-1-6.6-2.6-9.9-3.9
	C187.6,320.9,187,320.6,187,319.7z"/>
<path class="st7" d="M277.6,326.7c-1.1-1.2-2.1-2.3-3.2-3.5c-0.6-0.7-1.2-1.4-2.3-1.3c-1-0.4-2-0.9-3.1-1c-1-0.2-2.3,0-3-1.2
	c0.4-2.5,2.5-2,4.1-2.2c0.3,0.1,0.6,0.3,0.9,0.4c0.2,0.5,0.3,1.1,1,0.5c0.4,0,0.9,0,1.3,0.1c0.1,0.5,0.4,0.8,1,0.8
	c1.8,0.4,3.6,0.7,5.4,1.1c0,0.1,0,0.2,0,0.3c-0.8,1.9-0.2,4-0.4,5.9C278.8,326.6,278.2,326.6,277.6,326.7z"/>
<path class="st8" d="M177,312.8c0.6-0.5,1.2-1,1.8-1.6c0.4,0.9,1.2,1.1,2,1.3c1.9,0.8,3.7,1.5,5.5,2.5c0,0.3,0,0.6,0,0.9
	c-0.4,0.2-0.5,0.6-0.4,1c0,0.3,0,0.6-0.1,0.9c-0.5,0.3-0.5,0.6-0.1,0.9c0,0.3,0,0.5,0,0.8c-2.3-0.1-4.2-1.6-6.3-2.2
	c-0.4-0.1-0.8-0.4-1.2-0.6C175.2,315.4,175.2,315.4,177,312.8z"/>
<path class="st8" d="M161.2,303.8c1.8,0.5,3.5,0.9,5.2,1.7c1.4,0.7,1.6,1.4,1,2.7c-0.4,1-0.6,2-0.6,3.1c-0.1,0-0.3,0.1-0.4,0.2
	c-0.3,0-0.6,0-0.9,0c-0.1-0.1-0.3-0.1-0.4-0.1c-0.1-0.3-0.2-0.4-0.5-0.3c-2.1-0.6-3.9-2-6-2.5c-0.9-0.2-1-0.9-0.4-1.6
	C159.1,305.9,159.8,304.5,161.2,303.8z"/>
<path class="st4" d="M364.8,300.5c0,0.5,0,1.1-0.5,1.1c-2.9,0.2-5.6,1.9-8.6,1.5c-2.5-0.3-4.9-0.9-7.3-1.4c-0.4-0.1-0.8-0.3-0.8-0.7
	c-0.1-0.5,0.4-0.6,0.8-0.6c3.7-0.5,7.4-2.5,11.3-0.6c1.4,0.7,2.6-0.8,3.9-0.3C363.8,299.8,364.3,300.1,364.8,300.5z"/>
<path class="st5" d="M418.7,287.9c-3,1.3-6,2.8-9.3,2.2c-2.8-0.5-5.6-0.8-8.2-2.1c0.9-1.6,2.6-0.9,3.9-1.2
	C409.7,285.8,414.2,286.7,418.7,287.9z"/>
<path class="st7" d="M183,300.4c1.8,0.6,3.6,0.7,5.3,1.6c1.3,0.7,1.8,1.1,1.2,2.5c-0.4,0.9-0.7,1.9-0.5,2.9
	c-0.6,0.1-1.3,0.3-1.9,0.4c-0.9-2.1-2.5-3.6-4.4-4.6c-0.9-0.4-1.1-0.8-1.2-1.6C182,301.1,182.3,300.5,183,300.4z"/>
<path class="st7" d="M204.6,296.9c1.5,0.5,3,1.1,4.5,1.6c1.4,0.4,2.1,1,1.4,2.6c-0.3,0.7-0.1,1.6-0.1,2.5c-0.6,0.1-1.2,0.2-1.7,0.2
	c-1.9-1.8-3.3-4.2-6.3-4.7c-0.2,0-0.3-0.5-0.4-0.8C202.6,297.5,203.3,296.7,204.6,296.9z"/>
<path class="st4" d="M398.9,290.2c1.7-0.3,3.3,0.5,5,0.5c-0.7,2.2-2.8,1.1-4.1,1.7c-1.6,0.6-7.6-0.3-9.6-1.1
	c0.6-0.9,2.4-0.6,2.3-2.1c0.6,0.1,1.2,0.1,1.8,0.2C395.5,291.2,397.4,289.7,398.9,290.2z"/>
<path class="st6" d="M279.4,326.5c0.2-2-0.4-4,0.4-5.9c0.9,1.4,2.1,2.1,3.8,1.9c1.7-0.1,3.3,0.4,4.6,1.8c-0.6,0.1-1.3,0-1.4,0.8
	c-0.3,0-0.6,0.1-0.9,0.1c-1.3-1.1-2,0-2.8,0.8C281.9,326.2,280.6,326.4,279.4,326.5z"/>
<path class="st7" d="M243.4,290.8c0,1,0.6,1.2,1.4,1.3c2.1,0.4,3.8,1.3,3.2,3.9c-0.1,0.4,0,0.7,0.1,1.1c-0.7,0.6-1.5,0.4-2.3,0.3
	c-0.7-2.3-2-3.8-4.5-4c-1-0.1-1.5-0.5-1.6-1.5c0-0.1,0.1-0.2,0.2-0.3c0.9-0.3,2.1,0.5,2.7-0.8C242.9,290.8,243.1,290.8,243.4,290.8z
	"/>
<path class="st7" d="M222.1,294.3c1,0.2,1.9,0.2,2.9,0.5c4.5,1.1,4.5,1.1,4.6,5.7c-0.6,0.1-1.2,0.2-1.9,0.4c-1-2-2.1-4-4.7-4.4
	c-1-0.1-1.5-0.7-1.4-1.7C221.9,294.6,222,294.4,222.1,294.3z"/>
<path class="st7" d="M279.5,291.9c-0.6-2.5-2.4-3.7-4.8-3.9c-1-0.1-1.8-0.3-1.7-1.5c0.5-0.6,1.2-0.6,2-0.6c1.2,1.2,3,1,4.4,1.3
	c2.1,0.5,2,1.5,2,3c0,0.5,0,0.9,0,1.4C280.8,292.1,280.1,291.9,279.5,291.9z"/>
<path class="st7" d="M257.2,288.7c1.8,0.3,3.6,0.6,5.4,0.9c2,0.3,2.9,1.3,2.6,3.4c-0.1,0.4,0,0.9,0,1.4c-0.6,0.4-1.2,0.3-1.8,0.2
	c-0.7-2.2-2.2-3.5-4.5-4c-1-0.2-2.2,0-2.6-1.4C256.5,288.8,256.8,288.7,257.2,288.7z"/>
<path class="st9" d="M98.8,122.3c0.8,0.2,0.8,0.8,0.8,1.4c-0.2,3.8,0.8,7.6,0.4,11.4c-0.1,1,0.7,1.9,0.1,2.8c-0.8-1.4-0.5-3-0.7-4.5
	C99,129.8,99,126.1,98.8,122.3z"/>
<path class="st10" d="M338.4,282c3-1,6.1-1.1,9.2-1.5c0,0.2,0,0.5,0.1,0.7c-0.5,1.2-1.6,0.6-2.4,0.8c-2.1,0.4-4.2,0.6-6.3,0.9
	C338.8,282.6,338.6,282.3,338.4,282z"/>
<path class="st9" d="M105.6,203.5c0.6,0.7,0.9,1.5,0.8,2.3c-0.2,4,0.8,8,0.5,12.1c-0.1-0.1-0.2-0.2-0.3-0.4
	C106,212.9,105.6,208.2,105.6,203.5z"/>
<path class="st9" d="M102.9,170.3c0.6,0.8,0.8,1.9,0.8,2.8c-0.1,3.9,0.9,7.7,0.5,11.6c-0.1-0.1-0.2-0.2-0.3-0.4
	C103.3,179.7,102.8,175,102.9,170.3z"/>
<path class="st9" d="M107,220.1c0.6,0.8,0.9,1.9,0.8,2.8c-0.1,3.9,0.9,7.7,0.5,11.6c-0.1-0.1-0.2-0.2-0.3-0.4
	C107.4,229.5,106.9,224.8,107,220.1z"/>
<path class="st9" d="M101.5,153.7c0.6,0.8,0.9,1.9,0.8,2.8c-0.1,3.9,0.9,7.7,0.5,11.6c-0.1-0.1-0.2-0.2-0.3-0.4
	C101.9,163.1,101.4,158.4,101.5,153.7z"/>
<path class="st9" d="M126.7,287.9c4.2,0,8.5,0,12.7,0c-0.2,0.4-0.6,0.7-1.1,0.7c-3.5,0-7,0-10.6,0
	C127.2,288.7,126.9,288.4,126.7,287.9z"/>
<path class="st9" d="M108.5,238.5c0.7,0.1,0.8,0.6,0.8,1.2c-0.3,3.8,0.8,7.6,0.4,11.4c-0.2-0.6-0.6-1.1-0.7-1.7
	C108.8,245.8,108.6,242.2,108.5,238.5z"/>
<path class="st9" d="M100.2,138.9c0.7,0.1,0.8,0.6,0.8,1.2c-0.3,3.8,0.8,7.6,0.4,11.4c-0.2-0.6-0.6-1.1-0.7-1.7
	C100.5,146.2,100.3,142.6,100.2,138.9z"/>
<path class="st9" d="M104.3,188.7c0.7,0.1,0.8,0.6,0.8,1.2c-0.3,3.8,0.8,7.6,0.4,11.4c-0.2-0.6-0.6-1.1-0.7-1.7
	C104.6,196,104.5,192.4,104.3,188.7z"/>
<path class="st9" d="M97.4,105.7c0.7,0.1,0.8,0.6,0.8,1.2c-0.3,3.8,0.8,7.6,0.4,11.4c-0.2-0.6-0.6-1.1-0.7-1.7
	C97.7,113,97.6,109.4,97.4,105.7z"/>
<path class="st3" d="M274.4,103.9c-3.8,0.1-7.4-0.9-11.1-1.8c1.2-0.8,2.4-0.1,3.6,0.1C269.4,102.9,272,102.5,274.4,103.9z"/>
<path class="st9" d="M321.4,264.3c0.1-0.4,0.3-0.8,0.7-0.7c3.6,0.3,7-0.9,10.5-1.4C329.2,264.3,325.2,264,321.4,264.3z"/>
<path class="st9" d="M247.1,274c0.1-0.7,0.6-0.8,1.2-0.8c2.7,0.1,5.3-0.3,7.9-0.9c0.4-0.1,0.8,0.1,1,0.4
	C254,273.8,250.5,273.7,247.1,274z"/>
<path class="st9" d="M96.1,89.6c0.4,0.1,0.7,0.4,0.7,0.8c-0.3,3.2,0.8,6.3,0.4,9.5c-0.2-0.3-0.6-0.6-0.6-0.9
	C96.4,95.9,96.2,92.8,96.1,89.6z"/>
<path class="st9" d="M173.3,283.6c0.1-0.1,0.1-0.4,0.2-0.4c3-0.3,6-1.1,9-0.9C179.6,283.6,176.5,283.4,173.3,283.6z"/>
<path class="st9" d="M184.4,282.2c0.1-0.1,0.1-0.4,0.2-0.4c3-0.3,6-1.3,9-0.9C190.7,282,187.5,282,184.4,282.2z"/>
<path class="st9" d="M216.2,278.1c0.1-0.1,0.1-0.4,0.2-0.4c3-0.3,6-1.3,9-0.9C222.5,277.9,219.3,277.9,216.2,278.1z"/>
<path class="st9" d="M140.6,287.8c3.4-1.2,7-1.2,10.6-1.4C147.8,287.6,144.2,287.8,140.6,287.8z"/>
<path class="st9" d="M236.5,275.4c0.1-0.2,0.3-0.5,0.4-0.5c3.1-0.2,6.1-1,9.2-0.9C243.1,275.3,239.8,275,236.5,275.4z"/>
<path class="st9" d="M162.7,285c0.1-0.7,0.6-0.9,1.2-0.8c2.5,0.1,4.9-0.2,7.3-0.8c0.2-0.1,0.5,0.2,0.8,0.3
	C169,285.1,165.8,284.7,162.7,285z"/>
<path class="st9" d="M258.2,272.6c0.2-0.4,0.6-0.8,1.1-0.8c2.5,0.1,4.9-0.5,7.4-0.9c0.2,0,0.5,0.2,0.8,0.4
	C264.5,272.5,261.3,272.3,258.2,272.6z"/>
<path class="st9" d="M205.2,278.7c3.1,0.4,6.1-0.6,9.2-0.5c-3,1.3-6.1,1.1-9.2,1.3C205.2,279.2,205.2,278.9,205.2,278.7z"/>
<path class="st9" d="M300.6,267c0.1-0.1,0.1-0.4,0.2-0.4c3-0.4,6-1,9-0.9C306.9,267,303.7,266.6,300.6,267z"/>
<path class="st9" d="M226.4,276.7c1.8-1.7,4.2-0.5,6.2-1.2c0.8-0.3,2-0.7,3-0.1C232.7,276.7,229.5,276.4,226.4,276.7z"/>
<path class="st9" d="M153.1,286.3c1.5-1.5,3.6-0.6,5.3-1.1c1-0.3,2.3-1.2,3.4-0.2C159,286.2,156,286.1,153.1,286.3z"/>
<path class="st9" d="M268.8,271.2c0.2-0.2,0.3-0.7,0.5-0.7c2.9-0.2,5.8-0.4,8.7-0.6C275.1,271.2,271.9,270.8,268.8,271.2z"/>
<path class="st9" d="M290,268.4c1.8-1.7,4.2-0.5,6.2-1.2c0.8-0.3,1.9-1.1,3-0.2C296.3,268.3,293.1,268.1,290,268.4z"/>
<path class="st9" d="M310.8,265.7c0.2-0.2,0.3-0.7,0.5-0.7c2.9-0.2,5.8-0.4,8.7-0.6C317,265.7,313.9,265.4,310.8,265.7z"/>
<path class="st9" d="M195,280.8c0.2-0.2,0.3-0.6,0.6-0.6c2.7-0.2,5.5-0.4,8.2-0.6C201,280.9,197.9,280.4,195,280.8z"/>
<path class="st9" d="M286.8,268.5c0.2,0,0.4,0.1,0.6,0.1c-2.7,1.2-5.6,1.1-8.4,1.2c0.3-0.5,0.7-0.9,1.3-0.8
	C282.5,269.2,284.6,268.6,286.8,268.5z"/>
<path class="st3" d="M283.5,105.8c-2.2-0.3-4.4-0.6-6.5-1c-0.4-0.1-0.7-0.3-0.8-0.7C278.6,104.6,281.4,103.9,283.5,105.8z"/>
<path class="st9" d="M338.5,254.9c0-2.3,0-4.5,0-6.8C339.5,250.4,339.8,252.7,338.5,254.9z"/>
<path class="st5" d="M398.9,290.2c-1.5-0.4-3.4,1-4.6-0.9c0.6-0.2,1.2-0.8,1.9-0.1c0.1,0.4,0.2,0.4,0.4,0.1c0.8-0.2,1.5-0.3,2.3-0.5
	C398.8,289.2,398.8,289.7,398.9,290.2z"/>
<path class="st9" d="M330.1,206.3c-1.7-1.1-0.6-3.1-1.3-4.5c-0.3-0.5,0-1.3,0-2C329.7,201.8,329.8,204.1,330.1,206.3z"/>
<path class="st9" d="M331.5,213.2c-1.7-1.1-0.6-3.1-1.3-4.5c-0.3-0.5,0-1.3,0-2C331.1,208.8,331.1,211,331.5,213.2z"/>
<path class="st9" d="M327.3,192.4c-1.7-1.1-0.6-3.1-1.3-4.5c-0.3-0.5,0-1.3,0-2C326.9,188,327,190.3,327.3,192.4z"/>
<path class="st9" d="M328.7,199.4c-1.7-1.1-0.6-3.1-1.3-4.5c-0.3-0.5,0-1.3,0-2C328.3,194.9,328.4,197.2,328.7,199.4z"/>
<path class="st9" d="M335.6,233.5c-1.4-1.8-1.2-4-1.3-6.1C335.4,229.3,335.2,231.5,335.6,233.5z"/>
<path class="st9" d="M321.7,164.8c-1.4-1.7-1-3.7-1.2-5.7C321.6,160.9,321.5,162.9,321.7,164.8z"/>
<path class="st9" d="M336.9,239.9c-1.3-1.7-1.2-3.6-1.2-5.6C336.8,236.1,336.5,238.1,336.9,239.9z"/>
<path class="st9" d="M334.2,226.6c-1.5-1.5-1-3.4-1.3-5.2C334.2,222.9,333.8,224.8,334.2,226.6z"/>
<path class="st9" d="M319,151c-1.3-1.5-1-3.5-1.2-5.3C318.9,147.3,318.7,149.2,319,151z"/>
<path class="st9" d="M317.5,143.1c-1.1-1.5-1.2-3.3-1.1-5.1C317.5,139.5,317,141.4,317.5,143.1z"/>
<path class="st9" d="M337.9,245.4c-0.9-1.4-0.9-3-0.8-4.6C337.8,242.3,338,243.8,337.9,245.4z"/>
<path class="st7" d="M229.2,338.3c0.2-1.2-0.7-2.6,0.8-3.4c0.2,1.2,0.1,2.4-0.4,3.5c0,0-0.2,0-0.2,0L229.2,338.3z"/>
<path class="st4" d="M283.1,326c0.8-0.9,1.5-1.9,2.8-0.8C285.1,326.1,284.1,326.1,283.1,326z"/>
<path class="st9" d="M314.3,127.9c-1-1.1-0.8-2.4-0.8-3.7C314.4,125.3,314.4,126.6,314.3,127.9z"/>
<path class="st6" d="M242.6,290.8c-0.6,1.4-1.8,0.5-2.7,0.8C240.5,290.3,241.6,290.8,242.6,290.8z"/>
<path class="st9" d="M315.7,134.8c-0.9-1-0.9-2.1-0.7-3.3C316,132.4,315.7,133.6,315.7,134.8z"/>
<path class="st9" d="M332.3,216.9c-1.4-0.8-0.5-2.2-0.7-3.3C332,214.7,332.5,215.7,332.3,216.9z"/>
<path class="st3" d="M183.6,88.2c-0.8-0.1-1.9,0.6-2.4-0.7C182.1,87.5,183,87.1,183.6,88.2z"/>
<path class="st9" d="M322.5,168.5c-1.1-0.6-0.5-1.6-0.6-2.4C322.6,166.7,322.8,167.6,322.5,168.5z"/>
<path class="st9" d="M325.3,182.3c-1.1-0.6-0.5-1.6-0.6-2.4C325.4,180.6,325.5,181.4,325.3,182.3z"/>
<path class="st9" d="M319.7,154.6c-1.1-0.6-0.5-1.6-0.6-2.4C319.9,152.9,320,153.7,319.7,154.6z"/>
<path class="st5" d="M421.3,289.3c-0.8-0.2-1.5-0.4-1.8-1.2C420.6,287.8,421.2,288.2,421.3,289.3z"/>
<path class="st9" d="M324.5,178.6c-1.1-0.4-0.9-1.1-0.4-1.8C324.7,177.3,324.6,178,324.5,178.6z"/>
<path class="st9" d="M325.9,185.5c-1.2-0.3-1-1-0.5-1.8C326.1,184.2,325.9,184.9,325.9,185.5z"/>
<path class="st1" d="M168.3,311.4c0.5-0.6,1.2-0.4,1.9-0.4C169.8,312.2,169.1,312,168.3,311.4z"/>
<path class="st9" d="M323.9,175.4c-1-0.4-0.6-1.3-0.6-2C324.1,173.8,324.1,174.6,323.9,175.4z"/>
<path class="st4" d="M310.3,319.6c0.4-1.1,1.1-0.9,1.8-0.5C311.7,319.9,311,319.6,310.3,319.6z"/>
<path class="st4" d="M289.5,324.5c0.4-1,1.2-0.6,2-0.6C291.1,324.9,290.3,324.7,289.5,324.5z"/>
<path class="st5" d="M361.5,291.9c0.4-1.2,1.3-0.7,2.1-0.6C363.1,292.1,362.3,292,361.5,291.9z"/>
<path class="st4" d="M321.8,316.8c0.3-1.2,1.3-0.7,2-0.7C323.4,317,322.6,316.9,321.8,316.8z"/>
<path class="st9" d="M335.7,260.2c0-0.9,0.5-1.3,1.4-1.4C336.9,259.6,336.4,260.1,335.7,260.2z"/>
<path class="st9" d="M334.3,261.6c0.1-0.9,0.5-1.3,1.4-1.3C335.5,261,335.1,261.5,334.3,261.6z"/>
<path class="st9" d="M312.9,120.9c-0.8-0.5-0.9-1.2-0.7-2C313.1,119.4,313,120.2,312.9,120.9z"/>
<path class="st9" d="M323,171.2c-0.8-0.3-0.9-0.7-0.3-1.4C323.2,170.2,323.3,170.7,323,171.2z"/>
<path class="st3" d="M261,101.5c-0.6,0.8-1.1,0.7-1.4-0.3C260.1,101.1,260.6,101.1,261,101.5z"/>
<path class="st4" d="M367.7,301.2c-0.7,0.1-1.4,0.3-1.6-0.7C366.8,300.3,367.4,300.4,367.7,301.2z"/>
<path class="st4" d="M363.5,294.2c-0.7,0.1-1.4,0.3-1.6-0.7C362.7,293.4,363.3,293.4,363.5,294.2z"/>
<path class="st4" d="M319.1,317.6c0.3-0.8,0.9-0.6,1.5-0.6C320.3,317.8,319.7,317.9,319.1,317.6z"/>
<path class="st4" d="M316.3,318.2c0.3-0.9,0.7-1,1.4-0.4C317.3,318.4,316.8,318.3,316.3,318.2z"/>
<path class="st10" d="M350.4,281.6c-0.7,0.5-1.2,0.3-1.5-0.4C349.5,281,350.1,280.9,350.4,281.6z"/>
<path class="st4" d="M286.8,325.1c0.1-0.8,0.8-0.8,1.4-0.8c0,0.2,0,0.3,0,0.5C287.8,325.3,287.3,325.3,286.8,325.1z"/>
<path class="st9" d="M320.3,157.4c-0.8-0.3-0.9-0.7-0.3-1.4C320.4,156.4,320.5,156.9,320.3,157.4z"/>
<path class="st5" d="M400.3,288c-0.2,0.9-0.8,0.8-1.5,0.7C399,287.9,399.6,287.9,400.3,288z"/>
<path class="st3" d="M179.8,87.3c-0.8-0.1-1.6,0.3-2.3-0.4C178.3,86.9,179.1,86.8,179.8,87.3z"/>
<path class="st9" d="M332.7,218.7c-0.5-0.2-0.9-0.4-0.3-0.9C332.7,218.1,332.9,218.3,332.7,218.7z"/>
<path class="st9" d="M104.2,186.9c0.4,0.3,0.5,0.6,0,0.9C103.9,187.5,103.9,187.2,104.2,186.9z"/>
<path class="st9" d="M338,257c-0.6-0.6-0.2-0.8,0.4-0.9C338.4,256.5,338.3,256.8,338,257z"/>
<path class="st4" d="M313.1,319c0.2-0.5,0.6-0.7,1.1-0.5C313.9,318.9,313.7,319.3,313.1,319z"/>
<path class="st1" d="M165.5,311.5c0.3,0,0.6,0,0.9,0c0,0.3-0.1,0.6-0.5,0.6C165.6,312.2,165.6,311.8,165.5,311.5z"/>
<path class="st9" d="M108.4,236.7c0.4,0.3,0.5,0.6,0,0.9C108,237.3,108.1,237,108.4,236.7z"/>
<path class="st1" d="M173.8,310.5c0.2-0.4,0.5-0.5,0.9-0.4C174.6,310.7,174.4,311.2,173.8,310.5z"/>
<path class="st9" d="M101.4,152.3c0,0.2,0,0.3,0,0.5c0-0.1-0.1-0.2-0.1-0.3C101.3,152.4,101.4,152.4,101.4,152.3z"/>
<path class="st9" d="M338.2,246.4c-0.1-0.2-0.2-0.3-0.2-0.5C338.1,246.1,338.2,246.2,338.2,246.4z"/>
<path class="st1" d="M164.6,311c0.3-0.1,0.4,0.1,0.5,0.3C164.9,311.3,164.8,311.2,164.6,311z"/>
<path class="st9" d="M97.2,101c0,0.2,0,0.5,0,0.7C97,101.5,97,101.2,97.2,101z"/>
<path class="st9" d="M97.3,102.5c0,0.2,0,0.3,0,0.5c0-0.1-0.1-0.2-0.1-0.3C97.1,102.6,97.2,102.6,97.3,102.5z"/>
<path class="st9" d="M333.4,262c0.2-0.1,0.4-0.2,0.6-0.3C333.8,261.7,333.6,261.9,333.4,262z"/>
<path class="st4" d="M396.5,289.2c-0.2,0.4-0.3,0.3-0.4-0.1C396.3,289.2,396.4,289.2,396.5,289.2z"/>
<path class="st9" d="M98.7,119.1c0,0.2,0,0.3,0,0.5c0-0.1-0.1-0.2-0.1-0.3C98.5,119.2,98.6,119.2,98.7,119.1z"/>
<path class="st9" d="M313.3,122.3c-0.1-0.2-0.2-0.3-0.2-0.5C313.2,122,313.3,122.2,313.3,122.3z"/>
<path class="st9" d="M314.7,129.2c-0.1-0.1-0.2-0.3-0.2-0.4C314.6,128.9,314.6,129.1,314.7,129.2z"/>
<path class="st9" d="M316.1,136.1c-0.1-0.2-0.2-0.3-0.2-0.5C315.9,135.8,316,136,316.1,136.1z"/>
<path class="st9" d="M337.1,258.6c0.1-0.2,0.3-0.4,0.4-0.6C337.4,258.1,337.3,258.4,337.1,258.6z"/>
<path class="st3" d="M126.8,149c-1.8-1.5-1.7-2.9-0.5-5c1-1.7,3.6-3,2.4-5.6c2.2-1.7,2.3-4.2,2.5-6.7c0.1-0.5,0.9-1.1,1.4-1.4
	c1-0.6,1.6-1.4,1.5-2.6c-0.1-1.1,0.5-1.9,1.2-2.6c0.8-0.8,1.3-1.7,0.5-2.9c-0.5-0.8-0.1-1.3,0.5-1.7c0.9-0.5,1.7,0,2.3,0.4
	c0.7,0.4,0.7,1.3,0.2,1.8c-1,1-1.5,2.3-2.3,3.4c-0.6,0.8-1.3,1.5-0.8,2.7c0.2,0.6-0.1,1.1-0.6,1.4c-1,0.8-1.2,1.8-1.2,3.1
	c0.1,2.2-2.2,3.1-3,4.9c-0.6,1.2-1.2,2.3,0,3.2c1.4,1.1,1.9-0.2,2.7-1.3c2.4-3.2,3.7-7,6.3-10.1c0.3-0.4,0.6-0.9,1-1.2
	c0.4-0.3,0.9-0.4,1.2,0.1c0.2,0.3,0.2,0.9-0.2,1c-1.5,0.6-1.4,2.6-2.9,3.1c-0.4,0.1-0.9,0.6-0.7,1.1c0.7,1.5-0.4,2.4-0.8,3.6
	c-0.5,1.8-0.2,3.9-2.4,5c-0.4,0.2-0.2,1.1-0.1,1.7c0.4,1.3,3,3.2,4.3,2.9c1.8-0.5,2.2-2,2-3.6c-0.4-2.6,0.3-4.7,2.8-5.8
	c0.1-0.1,0.3-0.2,0.3-0.3c0.4-2.6,2.5-4.4,3.5-6.5c0.9-2,2.6-3.4,3.3-5.5c0.4-1.1,0.7-1.7-0.1-2.8c-1.1-1.3-0.6-2.1,1.1-2.1
	c0.4,0,1,0,1.1-0.1c0.7-1.5,2.1-1.8,3.3-2.4c1.8,0.2,3.6,0.5,5.5,0.7c0.4,1.4,1.1,1.3,1.9,0.3c7.1,0.8,14.3,1.6,21.4,2.4
	c5.6,0.7,11.2,1.5,16.8,2.2c0,1.6-1.1,1.5-2.3,1.6c-4.7,0.1-9.4-0.8-14.2-0.5c-1.2,0.1-2.1,0.4-2.9,1.3c-1.5,1.6-3.2,3.2-4.8,4.6
	c-3,2.5-5.8,5.1-7.8,8.6c-0.8,1.4-0.9,3.3-2.6,4.2c-1.1,0.6-1.8,1.4-2.2,2.5c-0.3,0.9-0.8,1.1-1.5,0.6c-1.9-1.3-2.3-0.2-2.9,1.5
	c-0.5,1.3,0.7,1.9,0.7,3c-1.1,0.5-2.2-1-3.2,0c-1.5,0-3.1-0.1-4.6-0.1c-1.2-1.7-2.9-0.5-4.3-0.8c-1,0-2,0-3,0c-0.6,0-1.3,0-1.9,0
	l0,0c-1.8-0.4-3.6-1.5-5.5-0.5c-1.2,0-2.5-0.1-3.7-0.1c-1.6-1.6-3.3-0.8-5-0.4C129.3,149,128,149,126.8,149z"/>
<path class="st11" d="M131.8,197.3c0.1-0.3,0.2-0.7,0.3-1c0.4,0,0.7,0,1.1,0c3.2,0.7,6.5,0.2,9.8,0.3l0.2,0.1l0.2,0
	c4.8,0,9.5,0,14.3,0c0.9,0,1.8,0.1,2.8,0.1c18.8,0,37.5,0,56.3,0c0.7,0,1.4-0.1,2.1,0.1c0.9,0.2,1.8,0.5,2,1.6
	c0.4,1.9,1,3.8,0.9,5.9c-0.1,0.9-0.1,1.7-1.4,1.6c-0.6-0.1-1.2-0.3-1.8-0.3c-12.6,0.2-25.3,0.1-37.9,0.4
	c-15.3,0.4-30.5,0.2-45.8,0.3c-1,0-1.8-0.3-2.6-0.9C131.9,202.6,131.6,200,131.8,197.3z"/>
<path class="st11" d="M146.7,150c1,0,2,0,3,0c1.2,1.5,2.8,0.6,4.3,0.8c1.5,0,3.1,0.1,4.6,0.1c1.6,0.9,3.4,0.3,5.1,0.5
	c2.3,0.2,4.6,0.3,6.9,0.5c0.8,0.8,1.8,0.4,2.8,0.3c1.5,0,3.1,0.1,4.6,0.1c2.2,1,4.5,0.9,6.8,0.7c1,0,1.9,0.1,2.9,0.1
	c1.6,1,3.4,0.4,5,0.5c0.8,0,1.5,0,2.3,0.1c2.7,0.6,5.4,0.9,8.2,0.8c1.1,0,2.2,0.1,3.4,0.1c1.5,0.9,3,0.4,4.6,0.4
	c3.4,0.4,5.2,5.4,3.2,8.4c-5.8-0.4-11.6-0.9-17.4-1.2c-16.1-1-32.3-1.9-48.4-2.8c-6.1-0.4-12.2-0.7-18.4-1c-2.1-0.1-3.4-0.8-3.6-3.2
	c-0.1-1.8-0.3-3.7-0.4-5.5c0.2-0.2,0.4-0.4,0.6-0.6c1.2,0,2.5,0,3.7,0c1.6,1,3.4,0.3,5,0.4c1.2,0,2.5,0.1,3.7,0.1
	c1.8,0.9,3.7,0.3,5.5,0.5c0,0,0,0,0,0C145.4,150.6,146,150.5,146.7,150z"/>
<path class="st3" d="M157.7,196.5c-4.8,0-9.5,0-14.3,0c-0.1-0.1-0.3-0.2-0.4-0.4c-3.3-0.7-6.5-0.9-9.8,0.1c-0.4,0-0.7,0-1.1,0
	c-1.3,0.1-2.3-1.2-3.7-1.1c-0.5,0-0.6-0.5-0.7-1c-0.3-3.1-0.6-6.2-0.9-9.3c-0.1-0.6-0.2-2,1.1-1.2c3.4,2.1,6.9,0.2,10.3,0.4
	c2.2,0.1,4.3-0.5,6.5-0.8c0.6-0.1,1.3,0.1,1.5-0.7c0,0,0-0.2,0-0.2l0.2,0.1l0.2,0c3.6,0.1,7.1,0.2,10.7,0.4l-0.1,0.2
	c0.4,1,0.9,1,1.5,0.1c0.3-0.1,0.5-0.2,0.8-0.3c4.4,0,8.9,0.1,13.3,0.1c0.3,0.2,0.5,0.4,0.8,0.7c-1.8,0-3.7,0.2-5.5,0.1
	c-2-0.1-3.8,0-4.1,2.6c-0.1,0.5-0.8,0.9-1.2,1.4c-1.2,1.5-2.7,2.8-1.9,5.1c0.4,1.1-0.4,2-1.4,2.6
	C158.8,195.6,157.8,195.5,157.7,196.5z M136,190.4c0-1.5-0.7-2.4-1.5-2.4c-1,0-4,2-4,2.6c0,0.8,0.6,1.6,1.2,1.3
	C133.1,191.1,135.5,192.6,136,190.4z"/>
<path class="st3" d="M127.3,171.9c-1.5-1-2.6-2.3-4-3.5c-1.6-1.4-1.8-3,0.1-4.1c1.9-1.1,3.2-2.5,3.4-4.8c1.4,0.4,2.8,0.5,4.3,0.6
	c9,0.5,18,1,27.1,1.5c-0.1,1.1,0,2.2,1.5,2.3c0.3,0,0.7,0.3,0.6,0.6c-1.3,1.4,0.2,3.8-1.7,5c-0.6,0.4-0.9,0.8-0.8,1.5
	c0.2,0.8,0.9,0.7,1.5,0.7c0.6,0,1.3-0.1,1.7,0.5c-5.9-0.2-11.7-0.4-17.6-0.6c-2.7-0.9-5.4-1.2-8.2-0.4c-1.9,0.4-3.8-0.6-5.7,0.1
	c-0.2,0-0.3,0.1-0.3,0.3l-0.1,0.2C128.5,171.8,127.9,171.8,127.3,171.9z"/>
<path class="st8" d="M162.3,118.6c-1.8-0.2-3.6-0.5-5.5-0.7c-10.3-1.3-20.6-2.6-31-3.8c-1.4-0.2-2.7-0.4-3.8-1.3
	c0.1-0.6,0.1-1.2,0.2-1.9c1,0.6,1.9,1.5,3.2,1.4c0.1,0.2,0.3,0.3,0.5,0.1c0.4,0.1,0.9,0.2,1.3,0.3c0.2,0.5,0.5,0.6,0.9,0.2
	c0.9,0.1,1.8,0.2,2.8,0.2c0.3,0.5,0.7,0.6,1.1,0.4c0.5,0,1.1,0.1,1.6,0.1c0.2,0,0.3,0,0.5,0c1.5-0.1,3.1,0.3,4.6,0.4
	c3.1,0.2,6.2,1.4,9.3,0.9c0.8,0.2,1.6,0.3,2.4,0.1c0,0.4,0.2,0.6,0.6,0.6c7.5,1,15,1.9,22.5,2.8c8.3,1,16.5,2,24.8,3
	c6.6,0.8,13.2,1.7,19.8,2.5c6.9,0.9,13.8,1.7,20.7,2.6c6.1,0.8,12.1,1.6,18.2,2.3c6.7,0.8,13.3,1.7,20,2.4
	c5.9,0.6,11.6,1.8,17.5,1.9c-0.3,1.3-1.2,1.3-2.3,1.3c-2.8,0.1-5.5-1-8.3-0.7c-1.8-0.1-3.4-1.2-5.3-0.4c0,0-0.1,0-0.1,0
	c-0.4-0.2-0.8-0.5-1.2-0.5c-3.1-0.5-6.2-0.9-9.3-1.3c-2.7-0.3-5.5-0.6-8.2-0.9c-5.2-0.7-10.4-1.5-15.7-1.8c-2.9-0.9-6-0.8-9-1.3
	c-10.9-1.5-21.9-2.7-32.9-4c-5.6-0.7-11.2-1.5-16.8-2.2c-7.1-0.9-14.3-1.6-21.4-2.4C163.6,118.4,163,118.6,162.3,118.6z"/>
<path class="st8" d="M158.1,161.6c-9-0.5-18-1-27.1-1.5c-1.5-0.1-2.9-0.2-4.3-0.6c-2.1-1.4-3.6-6.7-2.5-9c0.4-0.9,1.2-0.8,2-0.9
	c0.1,1.8,0.3,3.7,0.4,5.5c0.2,2.4,1.5,3.1,3.6,3.2c6.1,0.3,12.2,0.7,18.4,1c16.1,0.9,32.3,1.9,48.4,2.8c5.8,0.3,11.6,0.8,17.4,1.2
	c-0.4,1.2-1.5,1.2-2.5,1.2c-1.4-0.1-2.7-0.3-4.1-0.3c-11.6-0.7-23.2-1.3-34.8-1.9c-1.2-0.4-2.5-0.2-3.8-0.1
	C165.5,162,161.8,161.8,158.1,161.6z"/>
<path class="st8" d="M132.3,205.2c0.8,0.5,1.6,0.9,2.6,0.9c15.3-0.1,30.5,0,45.8-0.3c12.7-0.3,25.3-0.2,37.9-0.4
	c0.6,0,1.2,0.2,1.8,0.3c-0.3,1-1.2,0.8-1.9,0.9c-3.7,0.2-7.4,0.3-11,0.4c-8.7,0.1-17.5,0.2-26.2,0.3c-3.8,0-7.7,0-11.5,0
	c-2.8-0.1-5.6-0.3-8.4,0.1c-7.8,0.2-15.6,0.3-23.5,0.5c-2.3-0.2-4.9,0.6-6.9-1.2c-0.2-1-0.7-2-0.2-3.2
	C131.1,204.2,130.7,205.7,132.3,205.2z"/>
<path class="st4" d="M125.4,112.3c-1.3,0.1-2.2-0.8-3.2-1.4c-0.5-2.3-0.9-4.6-0.4-6.9c1.7-1,3.4-0.3,5.1-0.1
	c2.9,0.4,5.7,0.8,8.5,1.2c-1.6,0.2-3.5,0-4.3,1.9c-0.7,1.7,0.3,4.1,2.3,5.2c2.3,1.3,4.6,1.2,5.6-0.2c1.1-1.4,0.6-4.2-0.9-5.7
	c-0.4-0.4-0.8-0.6-1.2-0.9c2.1-0.4,3.9,1,6,0.6c0.8,0,1.5,0.1,2.3,0.1c0.8,0.9,1.8,0.4,2.8,0.5c0.3,0,0.6,0,0.9,0c0,0.1,0,0.3,0,0.4
	c-4.1,0.1-5.4,1.4-4.6,4.4c0.5,1.8,2,2.8,3.7,3.4c-3.2,0.5-6.2-0.7-9.3-0.9c-1.5-0.1-3-0.4-4.6-0.4c-0.1-0.2-0.3-0.2-0.5,0
	c-0.5,0-1.1-0.1-1.6-0.1c-0.3-0.5-0.6-0.7-1.1-0.4c-0.9-0.1-1.8-0.2-2.8-0.2c-0.3-0.4-0.6-0.5-0.9-0.2c-0.4-0.1-0.9-0.2-1.3-0.3
	C125.7,112.3,125.6,112.3,125.4,112.3z"/>
<path class="st8" d="M172.8,182.9c-4.4,0-8.9-0.1-13.3-0.1c-0.7-0.7-1.5-0.6-2.2-0.1c-3.6-0.1-7.1-0.2-10.7-0.4
	c-0.1-0.3-0.2-0.3-0.3-0.1c0,0,0,0.2,0,0.2c-5.2-0.2-10.5-0.4-15.7-0.5c-0.2-0.5-0.6-0.5-1-0.4c-0.1,0-0.3,0-0.4-0.1
	c-0.3-0.7-0.5-1.4,0.6-1.6c0.7,0.4,1.5,0.7,2.4,0.7c5.6,0.2,11.2,0.6,16.8,0.7c16,0.2,32.1,0.7,48.1,1.2c6.7,0.2,13.5,0.4,20.2,0.5
	c0,0.2,0,0.4,0,0.6c-0.1,0-0.3,0.1-0.4,0.2c-0.5,0-1-0.1-1.3,0.4c-0.5,0-1,0-1.5,0c-2.7-0.7-5.5-0.4-8.2-0.8c-0.1,0-0.3,0.3-0.5,0.4
	c-1.6,0-3.1,0.2-4.7-0.2c-0.6-0.5-1.2-0.5-1.7,0c-1.3,0-2.5,0-3.8,0c-0.3-0.4-0.5-0.4-0.8,0c-4.3,0.2-8.7-0.1-13-0.3
	C178.4,182.2,175.6,183,172.8,182.9z"/>
<path class="st12" d="M136.9,105.4c0.4,0.3,0.9,0.6,1.2,0.9c1.5,1.4,1.9,4.2,0.9,5.7c-1,1.4-3.3,1.5-5.6,0.2c-1.9-1.1-3-3.5-2.3-5.2
	c0.9-1.9,2.7-1.7,4.3-1.9C136,105.2,136.4,105.3,136.9,105.4z"/>
<path class="st7" d="M129.6,179.9c-1.1,0.2-0.9,0.9-0.6,1.6c-1.4-0.1-2-0.8-2.2-2.1c-0.3-2.5-1.2-5,0.5-7.4c0.6-0.1,1.2-0.1,1.7-0.2
	C129,174.4,128.9,177.2,129.6,179.9z"/>
<path class="st7" d="M132.3,205.2c-1.6,0.5-1.2-1.1-1.6-1.8c-0.5,1.2,0.1,2.2,0.2,3.2c-1.7-1.1-2.4-7.6-0.8-8.8
	c0.5-0.4,1-0.7,1.7-0.6C131.6,200,131.9,202.6,132.3,205.2z"/>
<path class="st7" d="M121.8,104c-0.5,2.3-0.1,4.6,0.4,6.9c-0.1,0.6-0.1,1.2-0.2,1.9c-1.8-1.3-3.3-6.2-2.4-8
	C120.1,103.8,120.9,103.9,121.8,104z"/>
<path class="st7" d="M129.4,181.5c0.4-0.1,0.8,0,1,0.4C129.9,182.3,129.7,181.9,129.4,181.5z"/>
<path class="st9" d="M181.2,183.3c4.3,0.2,8.6,0.5,13,0.3c0.3,0,0.5,0,0.8,0c1.3,0,2.5,0,3.8,0c0.6,0,1.2,0,1.7,0
	c1.5,0.3,3.1,0.2,4.7,0.2c2.9,0.6,5.8,0.4,8.7,0.3c0.5,0,1,0,1.5,0c0.4,0,0.9,0,1.4,0c0.1-0.2,0.2-0.4,0.4-0.6c0-0.2,0-0.4,0-0.6
	c1.1-0.3,1.1-1.2,1-2c-0.1-1.2-0.4-2.4-0.5-3.6c-0.1-1.9-1.1-2.8-2.9-2.8c-2.9-0.1-5.8-0.2-8.7-0.4c-6.9-0.3-13.8-0.7-20.8-0.9
	c-8.1-0.3-16.2-0.6-24.3-1.1c-0.4-0.6-1.1-0.4-1.7-0.5c-0.6,0-1.3,0.1-1.5-0.7c-0.1-0.7,0.2-1.2,0.8-1.5c1.9-1.2,0.5-3.5,1.7-5
	c0.2-0.2-0.2-0.5-0.6-0.6c-1.5-0.1-1.6-1.2-1.5-2.3c3.7,0.2,7.4,0.4,11.1,0.6c1.2,1.3,2.5,1,3.8,0.1c11.6,0.6,23.2,1.3,34.8,1.9
	c1.4,0.1,2.7,0.3,4.1,0.3c1,0,2,0,2.5-1.2c2-3.1,0.2-8.1-3.2-8.4c-1.4-1.5-3-0.8-4.6-0.4c-1.1,0-2.2-0.1-3.4-0.1
	c-2.7-0.8-5.4-1.2-8.2-0.8c-0.8,0-1.5,0-2.3-0.1c-1.6-1.6-3.3-0.8-5-0.5c-1,0-1.9-0.1-2.9-0.1c-2.2-1-4.5-0.7-6.8-0.7
	c-1.5,0-3.1-0.1-4.6-0.1c-0.8-1.4-1.8-0.9-2.8-0.3c-2.3-0.2-4.6-0.3-6.9-0.5c-0.5-0.7-1.2-0.4-1.9-0.5c0-1-1.2-1.6-0.7-3
	c0.6-1.7,1-2.8,2.9-1.5c0.8,0.5,1.2,0.4,1.5-0.6c0.3-1.2,1.1-2,2.2-2.5c1.7-0.8,1.8-2.8,2.6-4.2c2-3.4,4.8-6,7.8-8.6
	c1.7-1.4,3.3-3,4.8-4.6c0.9-1,1.7-1.3,2.9-1.3c4.8-0.3,9.5,0.6,14.2,0.5c1.1,0,2.2,0,2.3-1.6c11,1.3,22,2.5,32.9,4
	c3,0.4,6.1,0.3,9,1.3c0.2,1.4,1.3,1.6,2.3,1.8c4.5,0.6,9,1.3,13.6,1.8c2.1,0.2,4.1,0,4.1,3c0,0.2,0.3,0.5,0.6,0.7
	c1.8,1,2.7,2.9,3.9,4.4c0.8,1,1.3,2.5,0.5,3.9c-0.8,1.3-1.9,1.8-3.5,1.5c-0.9-0.2-1.8,0-2.8,0c-1.7-1.7-3.5-3.4-5.2-5.1
	c-0.7-0.7-1.4-1.2-2.3-0.3c-0.8,0.9-0.6,1.6,0.1,2.4c0.8,0.9,2,1.5,2.5,3.1c-1.3-0.2-2.3-0.3-3.3-0.4c-1.1,0-2.2-0.1-3.3-0.1
	c-1.4-0.6-3-1-4.4-0.8c-2.6,0.3-5.3-1.3-7.8,0.4l-0.1,0.1c-2.5,0.7-4.2,3-3.9,5.4c0.8,5,1.7,10.1,2.5,15.1
	c0.8,5.2,1.6,10.4,2.4,15.6c0.7,4.7,1.4,9.4,2.2,14c0.8,5.3,1.8,10.7,2.4,16c0.7,6.4,2.5,11.2,11,10.4c3.8-0.4,7.7-0.3,11.5-0.4
	c1.1,1.2,2.8,1.4,4.1,1.5c2,0.2,3.8,0.6,5.6,1.5c2.2,1.1,3,2.5,1.8,4.7c-0.1,0.2-0.4,0.4-0.4,0.6c0.2,3.5-2.8,4.7-4.5,6.9
	c-0.9,1.2-1.2,2.9-2,4.3c-0.6,1.1-1.3,2.4-3,1.6c-0.8-0.3-1.2,0.2-1.4,0.8c-0.4,1.6-1.6,1.9-3,1.8c-1.4-0.1-2.5,0.3-3.4,1.4
	c-0.8,1-1.6,1.5-3.2,1.2c-1.3-0.3-2.5,1-3.6,1.7c-1.2,0.7-2.5,1.8-3.6,1.8c-2.2,0-4.7,1-6.2,0.5c-2.3-0.8-4.8,0.9-6.8-0.9
	c-0.1-0.1-0.4,0-0.4,0c-1.9,2.2-3.7,0.4-5.6,0.1c-1.6-0.2-3.3,0.1-5,0.4c-0.8,0.2-1.7,0.2-2.1-0.4c-1.1-1.4-2.5-1.9-4.1-2.4
	c-1.3-0.4-2.1-1.1-3.5-0.4c-0.8,0.5-1.6-0.3-2.3-0.7c-1.5-1-2.9-1.3-4.5-0.3c-0.4,0.3-1.1,0.5-1.3,0.2c-0.8-1.7-3-1.8-3.9-3.4
	c-0.2-0.3-0.2-1-0.5-0.9c-3.4,1.2-4.1-3.5-7.2-3.3c-0.8,0.1-1.9-1.1-2.5-2.1c-1.7-2.7-4.4-4.4-7.2-5.8c-2.1-1-4.3-2.1-4.4-5
	c0-0.6-0.7-1.1-1.1-1.7c-0.3-0.4-1-0.8-1-1.2c0.1-2.9-2.7-3.5-3.9-5.3c-1.5-2.1-2.7-4.4-3.7-6.7c-0.6-1.3,0.7-2.1,1.8-2.5
	c1.4-0.5,2.8-0.8,4.3-0.7c1,0.1,1.7-0.1,1.6-1.3c8.7-0.1,17.5-0.1,26.2-0.3c3.7-0.1,7.4-0.2,11-0.4c0.7,0,1.6,0.1,1.9-0.9
	c1.2,0.1,1.3-0.6,1.4-1.6c0.1-2-0.5-3.9-0.9-5.9c-0.2-1.1-1.1-1.4-2-1.6c-0.7-0.1-1.4-0.1-2.1-0.1c-18.8,0-37.5,0-56.3,0
	c-0.9,0-1.8,0-2.8-0.1c0.1-1.1,1.1-0.9,1.7-1.2c1-0.6,1.8-1.4,1.4-2.6c-0.8-2.3,0.7-3.6,1.9-5.1c0.4-0.5,1.1-0.9,1.2-1.4
	c0.4-2.6,2.1-2.7,4.1-2.6c1.8,0.1,3.7-0.1,5.5-0.1C176.1,183.3,178.7,183.8,181.2,183.3z"/>
<path class="st13" d="M314.3,172.6l-0.2,0c0,0-0.2,0-0.2,0c-2.9-0.2-5.8-0.3-8.7-0.5c-2.5-0.1-2.7,0.1-2.3,2.6
	c0.1,0.3,0.2,0.6,0.2,0.9c-0.1,1.2-0.3,2.4,0.4,3.5c-0.5,0.4-0.3,1-0.4,1.5c-0.3,4.4-1.7,8.6-3.9,12.4c-2.6-0.7-5.3-0.6-8-0.4
	c-0.9-0.1-1.9-0.2-2.7,0.4c-2.9,0.4-5.6,1.3-7.9,3.1c-5.6-4.9-8.9-11-10.1-18.3c-0.7-4.5-0.5-8.8,2-12.8c0.3-0.3,0.7-0.6,1-0.9
	c3.3-3.8,7.5-5.9,12.5-5.9c1.4,0,2.8,0.2,4.2,0.2c0.3,0,0.6,0.1,0.9,0.1c3.9,1.4,7.2,3.6,9.3,7.3c0.7,3.4,0.8,3.5,4.2,3.7
	c3.2,0.1,6.4,0.3,9.6,0.4c0,0,0,0,0,0c0.2,0.1,0.3,0.3,0.5,0.4c0,0,0.1,0.1,0.1,0.1C315,171.1,315.1,172,314.3,172.6z"/>
<path class="st12" d="M299.4,192.9c2.2-3.8,3.6-8,3.9-12.4c0-0.5-0.1-1.1,0.4-1.5c0.4,1.6,0.1,3.3,1,4.8c1.6,8.3,3.1,16.6,4.7,25
	c-0.1,2.6,1,5.1,0,7.7c0,0,0,0,0,0c-0.2,0.3-0.4,0.5-0.5,0.8c0,0,0.1,0.1,0.1,0.1c-0.2,0.2-0.5,0.4-0.7,0.5c0,0.1-0.1,0.2-0.2,0.2
	c-0.5,0-0.9,0.1-1.4,0.1c-1.1-0.4-2.1-0.8-3,0.4c-5-0.3-9.9,0.7-14.9,0.5c-0.2-0.4-0.7-0.7-0.4-1.2c1.4-2.2,2.6-4.4,3.1-7
	c1.8-0.1,3.7-0.5,4.5-2.2c1.2-2.5,3.5-4.6,3.1-7.7c-0.1-0.8,0.6-1.4,0.9-2c0.8-1.7,1.3-3.4-0.4-5l0,0
	C299.6,193.6,299.5,193.3,299.4,192.9z"/>
<path class="st8" d="M306.7,218.2c0.5,0,0.9-0.1,1.4-0.1c-0.8,1.6-2.3,1.5-3.7,1.6c-11.9,0.5-23.8,0.9-35.6,1.4
	c-0.5,0-0.9,0.1-1.4,0.2c-3.8,0.1-7.7,0.1-11.5,0.4c-8.5,0.8-10.3-3.9-11-10.4c-0.6-5.4-1.5-10.7-2.4-16c-0.7-4.7-1.5-9.4-2.2-14
	c-0.8-5.2-1.5-10.4-2.4-15.6c-0.8-5-1.7-10.1-2.5-15.1c-0.4-2.4,1.4-4.8,3.9-5.4c-1.7,1.6-2.4,3.4-1.9,5.7c0.6,2.8,0.8,5.7,1.4,8.6
	c0.8,4.1,0.9,8.4,2.1,12.4c0.1,1.1,0.1,2.2,0.2,3.3c0.9,5.1,1.8,10.2,2.6,15.3c1.2,7.8,2.3,15.5,3.7,23.3c0.7,4.3,3.5,6.4,7.8,6.5
	c9.6,0,19.1-1.1,28.7-0.9c1.6,0,3.3,0,4.9-0.1c5,0.2,9.9-0.8,14.9-0.5C304.7,218.6,305.8,219.1,306.7,218.2z"/>
<path class="st6" d="M304.7,183.8c-1-1.5-0.7-3.2-1-4.8c-0.6-1.1-0.4-2.3-0.4-3.5c2.3-0.2,4.7-0.2,6.9,0.4c0.4,0.7,0.5,1.4,0.4,2.1
	c-1.5,0.7-3.1,0.5-4.6,0.1c-1.4-0.3-1.8,0.3-1.7,1.6C304.5,181.1,305,182.4,304.7,183.8z"/>
<path class="st2" d="M161.3,207.4c2.8-0.4,5.6-0.2,8.4-0.1c-0.1,0.1-0.1,0.4-0.2,0.4C166.8,208.2,164,208.7,161.3,207.4z"/>
<path class="st14" d="M309.4,216.4c1-2.6-0.1-5.1,0-7.7c0.4,1.8,0.9,3.6,0.8,5.4C310.1,215,310.3,215.9,309.4,216.4z"/>
<path class="st2" d="M310.6,178.1c0.1-0.8,0-1.5-0.4-2.1c1.2-1,1.9,0,2.1,0.9C312.7,178.3,311.5,178.1,310.6,178.1z"/>
<path class="st14" d="M308.9,217.2c0.2-0.3,0.4-0.5,0.5-0.8C309.4,216.8,309.3,217.1,308.9,217.2z"/>
<path class="st8" d="M308.2,217.8c0.2-0.2,0.5-0.4,0.7-0.5C308.8,217.7,308.6,217.9,308.2,217.8z"/>
<path class="st10" d="M294.6,133.1c-5.9-0.1-11.7-1.3-17.5-1.9c-6.7-0.7-13.4-1.6-20-2.4c-6.1-0.8-12.1-1.6-18.2-2.3
	c-6.9-0.9-13.8-1.7-20.7-2.6c-6.6-0.8-13.2-1.7-19.8-2.5c-8.3-1-16.5-2-24.8-3c-7.5-0.9-15-1.9-22.5-2.8c-0.3,0-0.5-0.2-0.6-0.6
	c1.8-0.6,2.3-1.9,2.2-3.7c0-1.7-1.2-2.5-2-3.6c1.3,0,2.5,0,3.8,0c0.3,0,0.6,0,0.9,0.1c1.6,0.9,3.6,0.3,5.2,1.3
	c-3.8,1.6-4.2,3.7-1.3,5.9c1,0.8,4.1,0.8,4.9,0.1c1.2-1.1,1.2-3.2-0.1-4.6c-0.5-0.5-1.2-0.9-1.8-1.3c0.3-0.1,0.7-0.1,1-0.2
	c0.8,0,1.5,0.1,2.3,0.1c0.7,0.7,1.5,0.4,2.4,0.4c0.4,0,0.9,0,1.3,0.1c1.5,0.8,3,1,4.7,0.8c0.4,0,0.9,0.1,1.3,0.1
	c0.8,0.8,1.9,0.4,2.8,0.4c0.3,0,0.6,0,0.9,0.1c1.5,0.6,3,1,4.7,0.8c0.5,0,0.9,0.1,1.4,0.1c0.8,0.8,1.8,0.4,2.8,0.4
	c0.4,0,0.9,0,1.3,0.1c1.5,0.8,3,1,4.6,0.8c0.5,0,0.9,0.1,1.4,0.1c1,0.9,2.2,0.4,3.3,0.4c0.1,0,0.3,0.1,0.4,0c1.5,0.6,3,0.8,4.6,0.8
	c0.3,0,0.6,0,1,0c1.1,1,2.4,0.4,3.7,0.5c0.1,0,0.3,0,0.5,0c1.6,0.7,3.3,1.1,5.1,0.8c0.3,0,0.6,0.1,0.9,0.1c1.1,0.9,2.5,0.4,3.7,0.5
	c0.3,0,0.6,0,0.9,0.1c1.3,0.6,2.7,1,4.2,0.8c0.5,0,0.9,0.1,1.4,0.1c1,0.8,2.1,0.4,3.2,0.5c0.3,0,0.6,0,0.9,0c1.3,0.7,2.7,1,4.1,0.8
	c0.5,0,0.9,0.1,1.4,0.1c1.3,0.9,2.8,0.4,4.1,0.5c0.1,0,0.3,0.1,0.4,0c1.5,0.8,3,1,4.6,0.8c0.3,0,0.6,0,0.9,0
	c2.9,0.8,5.8,1.1,8.7,1.3c0.5,0,0.9,0.1,1.4,0.1c4.4,0.8,8.9,1.7,13.4,1.8c0.3,0,0.6,0,0.9,0.1c1.3,0.5,2.7,1,4.2,0.8
	c0.4,0,0.9,0.1,1.3,0.1c2.6,0.9,5.3,0.8,8,1.3c3.4,0.7,6.9,1,10.4,1.5c0.7,0.1,1.2,0.3,1.6,0.8C295.2,129,295.4,132.2,294.6,133.1z"
	/>
<path class="st3" d="M278.8,133.4c1.8-0.8,3.5,0.3,5.3,0.4c0.8,1.7,2.6,1.9,4.1,2.3c1.7,0.4,3.6,0.6,5.4,0.6c1.6,0,2.5,0.6,3.4,1.9
	c1,1.4,1.7,3,2.8,4.4c0.7,0.9,1.4,1.5,2.3,2c-1.6-0.1-2.4,0.9-3.2,2.1c-0.4,0.6-0.3,1.6-1.3,1.7c-3.1-0.7-6.3,0.2-9.4,0l0,0
	c-1.1-1.5-2.4-1.1-3.7-0.5c-0.4,0-0.9,0-1.3,0c-0.2-0.1-0.4-0.3-0.6-0.4c-0.1-0.4-0.3-0.8-0.4-1.3
	C281.1,142.1,281.6,137.3,278.8,133.4z"/>
<path class="st3" d="M314.4,169.9c-3.2-0.1-6.4-0.3-9.6-0.4c-3.4-0.1-3.5-0.3-4.2-3.7c0.1-4.3-0.7-8.5-2.4-12.5
	c0.6-1.2,1.2-2.4,2.3-3.3c1.1,1.2,1.9,2.5,1.9,4.2c0.1,2.4,2.1,3.9,2.9,6c0.6,1.5,1.3,3,1.8,4.6c1.3,4,1.6,4.4,5.7,4.5
	C313.5,169.4,314.1,169.3,314.4,169.9z"/>
<path class="st13" d="M300.6,150c-1.1,0.8-1.7,2.1-2.3,3.3c-1,1.4-2.1,2.8-3.1,4.2c-0.9,1.3-1.8,1.5-3,0.4c0.5-2.9,2.9-4.7,4.3-7.2
	c0.7-0.5,1-1.2,1.1-2c1-0.1,0.9-1.1,1.3-1.7c0.8-1.2,1.6-2.2,3.2-2.1c0.2,0.2,0.4,0.3,0.5,0.5c0.2,1-0.4,1.8-0.5,2.7c0,0,0,0,0,0
	c-0.1,0.2-0.3,0.3-0.4,0.5C301.1,148.9,300.8,149.5,300.6,150z"/>
<path class="st3" d="M302,148.2c0.2-0.9,0.8-1.8,0.5-2.7C303.6,146.4,303.5,147.1,302,148.2z"/>
<path class="st3" d="M314.3,172.6c0.8-0.6,0.6-1.4,0.6-2.2C315,171.1,317.2,172.6,314.3,172.6z"/>
<path class="st3" d="M314.9,170.3c-0.2-0.1-0.3-0.3-0.5-0.4C314.6,170,314.8,170.1,314.9,170.3z"/>
<path class="st3" d="M301.6,148.6c0.1-0.2,0.3-0.3,0.4-0.5C301.9,148.3,301.7,148.5,301.6,148.6z"/>
<path class="st2" d="M267.9,123.2c-4.5-0.2-9-1-13.4-1.8c0.6-0.7,1.5-0.5,2.2-0.4c3.5,0.4,7,0.9,10.5,1.4
	C267.7,122.5,267.8,122.8,267.9,123.2z"/>
<path class="st2" d="M253.1,121.3c-2.9-0.2-5.9-0.6-8.7-1.3C247.5,119.3,250.4,119.8,253.1,121.3z"/>
<path class="st2" d="M163.2,108.8c-0.3,0.1-0.7,0.1-1,0.2c-0.6,0-1.1-0.1-1.7-0.1c-1.6-1.1-3.6-0.4-5.2-1.3
	C158.1,106.9,160.8,107.3,163.2,108.8z"/>
<path class="st2" d="M154.5,107.6c-1.3,0-2.5,0-3.8,0c-0.6-0.2-1.2-0.3-1.7-0.5c0-0.1,0-0.3,0-0.4
	C150.9,105.8,152.7,106.5,154.5,107.6z"/>
<path class="st2" d="M243.5,119.9c-1.6,0.2-3.2,0-4.6-0.8C240.5,118.7,242.1,118.3,243.5,119.9z"/>
<path class="st2" d="M183.5,111.6c-1.6,0.2-3.2-0.2-4.7-0.8C180.6,110.1,182.1,110.4,183.5,111.6z"/>
<path class="st2" d="M238.4,119.1c-1.4-0.1-2.9,0.4-4.1-0.5C235.7,118.2,237.2,117.4,238.4,119.1z"/>
<path class="st2" d="M213.5,115.8c-1.8,0.3-3.4-0.1-5.1-0.8C210.1,115.4,212,114.1,213.5,115.8z"/>
<path class="st2" d="M218.1,116.3c-1.2-0.1-2.6,0.4-3.7-0.5C215.7,115.4,217.1,114.7,218.1,116.3z"/>
<path class="st2" d="M208,114.9c-1.2-0.1-2.6,0.4-3.7-0.5C205.6,114.1,207,113.3,208,114.9z"/>
<path class="st2" d="M193.7,113c-1.6,0.2-3.2,0-4.6-0.8C190.5,112.5,192.3,111.4,193.7,113z"/>
<path class="st2" d="M173.8,110.3c-1.6,0.2-3.2,0-4.7-0.8C170.7,109.8,172.5,108.5,173.8,110.3z"/>
<path class="st2" d="M232.8,118.5c-1.5,0.3-2.8-0.1-4.1-0.8C230.1,118.1,231.7,116.9,232.8,118.5z"/>
<path class="st2" d="M227.8,117.7c-1.1,0-2.3,0.4-3.2-0.5C225.7,116.7,226.9,116.2,227.8,117.7z"/>
<path class="st2" d="M223.2,117.1c-1.5,0.3-2.9-0.1-4.2-0.8C220.3,116.7,222,115.5,223.2,117.1z"/>
<path class="st2" d="M203.3,114.4c-1.6,0.1-3.1-0.2-4.6-0.8C200.2,113.9,202,112.8,203.3,114.4z"/>
<path class="st2" d="M198.3,113.6c-1.1-0.1-2.3,0.4-3.3-0.4C196.2,112.5,197.4,112.1,198.3,113.6z"/>
<path class="st2" d="M273,124.1c-1.5,0.2-2.8-0.2-4.2-0.8C270.2,123.7,271.8,122.4,273,124.1z"/>
<path class="st2" d="M187.7,112.2c-1,0-2,0.3-2.8-0.4C185.9,111.2,187,110.6,187.7,112.2z"/>
<path class="st2" d="M148,106.6c-0.9-0.1-2,0.4-2.8-0.5C146.3,105.7,147.3,105.1,148,106.6z"/>
<path class="st2" d="M178,110.8c-1,0-2,0.4-2.8-0.4C176.2,109.8,177.3,109.3,178,110.8z"/>
<path class="st2" d="M167.8,109.4c-0.8,0-1.7,0.3-2.4-0.4C166.4,108.4,167.3,108,167.8,109.4z"/>
<path class="st4" d="M279.7,320.3c-1.8-0.4-3.6-0.7-5.4-1.1c0-0.6-0.4-1-1-0.8c-0.4,0-0.9,0-1.3-0.1c0-0.2,0-0.4,0-0.5
	c0-0.7,0.1-1.3,1.1-1.4c2.3-0.4,4.6-0.9,6.8-1.3c0.6-0.1,1.2-0.1,1.4-0.9c0.6,0,1.2-0.1,1.8-0.1c1.3,0.2,2.1-1,3.4-1
	c4.7,0,9-2.1,13.6-2.4c0.2,0,0.3-0.5,0.5-0.7c0.6,0,1.2-0.1,1.8-0.1c2.8-0.6,5.6-1.1,8.4-1.7c2.3-0.5,4.5-1.1,6.8-1.6
	c1.2,0.2,2.1-0.8,3.2-0.9c3.1,0.3,5.9-1.3,8.9-1.7c1.6-0.2,3.2,0,4.6-1.1c1.2-0.2,2.4-0.3,3.6-0.5c3.7-0.3,7.2,1,11.1,1.7
	c-1.8,1.6-4,1.5-6,1.9c-7.3,1.7-14.5,3.4-21.8,5c-11.7,2.5-23.3,5.4-35,7.7C284,319.3,281.9,319.9,279.7,320.3z"/>
<path class="st6" d="M337.9,302.6c-1.2,0.2-2.4,0.3-3.6,0.5c-0.1-2.1-1.2-3-3.3-2.7c-2-0.3-3.9-1.4-6-1.4c0.5-2.2,2.1-2.2,3.7-1.5
	c0.9,0.4,1.8,0.8,2.8,1c1.7,0.2,3.4,0.3,5,0.5C337.3,300.1,338.4,301,337.9,302.6z"/>
<path class="st5" d="M264.7,296.1c3.8-0.7,7.4-2.1,11.4-1.4c0.7,0.1,1.4,0,2-0.4c0.1,1.1,0.8,1.2,1.7,1.5c1.5,0.3,3.3,0.1,4.3,1.6
	c0.9,1.4,1.9,1.1,3.2,0.7c0.9-0.3,1-0.8,0.9-1.6c-0.2-1.3-1.4-1.4-2.3-1.8c-1.8-0.8-3.8-0.5-5.5-1.5c4.6-0.4,9-2.7,13.7-1.3
	c1.2,0.5,2.4,1,3.7,1c0.9,0,2.1,0.2,2.5,0.9c1.2,2.4,2.9,1.2,4.5,0.9c0.6-0.1,1-0.2,0.6-1c-0.5-1.1-0.9-1.8-2.4-1.9
	c-1.1-0.1-3,0.2-3.2-1.9c3-0.8,5.9-1.7,9.1-1c0.3,0.1,0.7-0.2,1-0.3c0.1,1,0.7,1.5,1.7,1.4c0.8-0.1,1.4,0.2,1.9,1
	c0.5,0.7,0.7,1.4-0.5,1.3c-1.4-0.1-2.3,1-3.7,1.1c-0.5,0-1,0.5-1.1,1.1c-0.1,0.8,0.7,0.6,1.2,0.7c0.9,0.2,1.8,0.5,2.7,0.6
	c2.5,0,4,1.7,5.6,3.1c-0.1,0.8-0.8,0.8-1.4,0.9c-0.9,0.2-2.1,0.1-2.4,1.4c-0.8-0.1-1.6,0-2.4-0.4c-2.2-1.1-2.6-0.8-3.1,1.7
	c-2-0.6-4-0.6-6,0c1-3.4,0.9-3.3-2.4-4.3c-1.6-0.5-3.4-0.5-4.8-1.9c-0.5-0.6-1.8-0.4-2.6,0.2c-0.4,0.3-0.9,0.8-0.7,1.3
	c0.4,0.9,1.3,0.9,2.1,1c2.5,0.6,5.1,1.1,6.5,3.7c-0.8,0.7-1.8,0.7-2.7,0.9c-1.1,0.2-1.5,0.8-1.4,1.8c-0.9-0.3-1.8-0.6-2.7-0.9
	c-1.8-0.7-3-0.3-3.8,1.5c-1.5,0-3.1,0-4.6,0c0-3.5,0-3.5-3.4-4.3c-1.1-0.3-2.8-0.4-3.1-1.1c-1.4-3-2.8-0.6-4.1-0.2
	c-0.4,0.1-1.1,0.4-1,1c0.1,0.6,0.7,0.7,1.2,0.8c2.8,0.7,5.8,1.3,7.8,3.7c0.1,0.1,0.3,0.1,0.4,0.1c-0.9,1.4-2.5,1.1-3.8,1.2
	c-1.2,0.2-1.8,0.6-1.7,1.8c-1-0.2-2.2-0.2-3.1-0.7c-2.2-1.4-3-0.3-3.5,1.7c-1.8-0.2-3.7-0.4-5.5-0.5c0.2-1.3,1.7-3-0.9-3.6
	c0-0.7-0.4-0.9-1-0.8c-0.6,0-1.2-0.1-1.7-0.1c-0.1-0.7-1.2-0.7-1.1-1.8c2.2-0.5,4.4-0.9,6.5-1.5c1.2-0.4,3.4,0.2,3.3-1.9
	c-0.1-2-2.1-1.8-3.4-2.2c-0.3-0.1-0.6,0-0.9-0.1C265.5,297.3,264.7,297.1,264.7,296.1z"/>
<path class="st5" d="M331.5,298.5c-1-0.2-1.8-0.6-2.8-1c-1.6-0.7-3.2-0.8-3.7,1.5c-1.7,0-3.4,0-5.1,0c0-3.2-0.1-3.4-3.4-4.1
	c-1.1-0.2-2.2-0.4-3.2-1.1c3.9-0.8,7.6-2.7,11.8-1.3c1.3,0.5,2.8,0.7,4.2,0.8c1.8,0.2,2.6,1,2.6,2.8
	C331.6,296.9,331.5,297.7,331.5,298.5z"/>
<path class="st5" d="M360.1,292c-2.9,2-6.2,0.6-9.3,1c-0.1-2.5-1.1-3.8-3.8-3.7c-1.1,0-3.2-0.1-3.1-1c0-1.5,1.8-0.6,2.9-0.9
	c4.1-1.3,8.1,0.5,12.2,0.6c0.8,0,1.1,0.7,1.1,1.5C360.1,290.3,360.1,291.1,360.1,292z"/>
<path class="st5" d="M346.3,293.9c-3.4,0.7-6.7,1.5-10.1,1.8c-0.3-4.4-4-3.6-6.7-4.6c3-0.9,5.8-2.5,9.1-1.6c1.8,0.4,3.6,1,5.4,1.1
	C346.4,290.6,346.9,291.8,346.3,293.9z"/>
<path class="st4" d="M320,299c1.7,0,3.4,0,5.1,0c2.1,0,4,1.1,6,1.4c-0.1,0.8-0.7,0.9-1.3,0.9c-3.4,0.3-6.7,1.7-10.2,1.4
	c-1.8-0.5-3.7-0.9-5.5-1.4c0.3-1.3,1.5-1.2,2.4-1.4c0.6-0.1,1.2-0.1,1.4-0.9C318.5,299,319.2,299,320,299z"/>
<path class="st1" d="M338.4,282c0.2,0.3,0.4,0.6,0.5,0.9c-0.9,0.7-2,0.8-3.1,0.9c-4,0.6-8.1,0.4-11.7,2.6c-3-0.6-5.9-0.2-8.7,0.9
	c-1.2,0.1-2.5,0.1-3.7,0.2c0-0.3,0-0.7,0-1c8.2-1.4,16.3-2.8,24.5-4.2C336.9,282.2,337.7,282.1,338.4,282z"/>
<path class="st4" d="M379.9,292.9c3.5-1.1,6.9,0.7,10.3,0.6c0.2,0,0.6,0.3,0.6,0.5c0.1,0.4-0.3,0.7-0.7,0.8
	c-3.1,0.8-6.2,1.7-9.3,0.6c-1.1-0.4-2.1-0.7-3.3-0.6c-1,0.1-1.4-0.4-1.3-1.4c0.3,0,0.6,0,0.9,0c0.4,0,0.7-0.1,0.9-0.5
	C378.7,292.9,379.3,292.9,379.9,292.9z"/>
<path class="st5" d="M315.4,287.3c2.8-1.1,5.7-1.5,8.7-0.9c0.2,1.4,1.3,0.9,2.2,1c0.4,0,0.8,0,0.9,0.5c0,0.5-0.3,0.7-0.7,0.8
	c-3.6,0.5-7.2,1.2-10.7-0.6C315.5,288,315.5,287.6,315.4,287.3z"/>
<path class="st5" d="M369.5,285.5c-2,1.5-4.1,0.9-5.9,1.3c-1,0.2-2.2-0.3-3.4-0.3c-0.6,0-1.2-0.2-1.2-0.8c-0.1-0.8,0.6-1,1.2-1
	C363.2,284.7,366.2,284.4,369.5,285.5z"/>
<path class="st10" d="M311.7,286.5c0,0.3,0,0.7,0,1c-0.3,0.5-0.9,0.4-1.3,0.4c0-0.3,0-0.7-0.1-1
	C310.7,286.5,311.2,286.5,311.7,286.5z"/>
<path class="st5" d="M378.1,292.9c-0.2,0.4-0.5,0.5-0.9,0.5C377.3,292.8,377.4,292.3,378.1,292.9z"/>
<path class="st5" d="M266.1,319.7c0.6,1.2,2,1.1,3,1.2c1.1,0.2,2.1,0.6,3.1,1c-2.9,2-6.4,1.8-9.6,2.7c-4.7,1.3-9.6,2.1-14.4,3.1
	c-4.5,1-9.1,1.8-13.6,3c-3.2,0.8-5.6-0.9-8.3-1.8c-0.5-0.2-0.9-0.7-1.3,0c-0.2,0-0.3-0.1-0.5-0.1c0-0.8-1.5-0.8-1.1-1.8
	c0.4-0.8,1.3-0.5,2.1-0.6c2.9-0.5,5.8-1.6,8.8-1.8c0.6,0,0.8-0.4,0.8-0.9c1.4,0.3,2.9,0.7,4.1-0.5c4.9-0.8,9.7-2.2,14.7-2.9
	c1.3-0.2,3.3,0,4.3-1.8c1.2,0.2,2.4,0.7,3.6,0C263.3,318.4,264.6,319.7,266.1,319.7z"/>
<path class="st7" d="M224.5,329c0.2,0,0.3,0.1,0.5,0.1c1,1.3,2.5,1.3,3.8,1.9c1.2,0.5,2.3,1.1,1.2,2.6c-3.5-2.4-7.5-3.7-11.5-4.7
	c0.5-1.3,1.3-1.6,2.6-1C222.2,328.5,223.3,328.9,224.5,329z"/>
<path class="st5" d="M209.6,322.6c-0.3,0-0.5-0.1-0.8-0.1c-0.1-1.6,1.2-1.7,2.1-1.8c2.8-0.3,5.4-1.4,8.3-1.5c0.4,0,0.6-0.4,0.7-0.8
	c0.9-0.1,1.8-0.1,2.7-0.2c1.6,0.2,3.1,0.4,4.7,0.5c1.2,1.5,3.2,1.3,4.7,2.2c-0.5,1.7-2.1,1.1-3.1,1.3c-3.7,0.9-7.5,1.4-11.2,2.2
	c-1.6,0.4-3-0.3-4.4-0.8C212.1,323.3,211,322.5,209.6,322.6z"/>
<path class="st5" d="M215.3,315.1c-1.3,1.7-3.3,1.5-5.1,1.8c-1.8,0.3-3.6,0.4-5.3,1.1c-2.4,1-4.5-0.2-6.4-1.3
	c-1.1-0.6-0.7-1.4,0.5-1.7c1.8-0.5,3.7-1.1,5.6-1.3c0.7-0.1,1.4,0.2,1.7-0.8c1.1,0,2.1-0.1,3.2-0.1c1.1,0.5,2.1,0.9,3.2,1.4
	C213.3,314.9,214.4,314.7,215.3,315.1z"/>
<path class="st7" d="M215.3,315.1c-0.9-0.4-2-0.3-2.8-0.9c0.6-2.6,1.6-3.2,3.9-2.2c0.8,0.3,1.7,0.5,2.6,0.8c1,0.2,2.1,0.4,3.1,0.6
	c0.1,0.5,0.4,0.9,1,0.8l0,0c0,1.4,0.1,2.8-0.6,4.1c-0.9,0.1-1.8,0.1-2.7,0.2C218.6,317,217.7,315,215.3,315.1z"/>
<path class="st7" d="M209.3,312.8c-1.1,0-2.1,0.1-3.2,0.1c-1.5-1.2-2.6-2.7-4.7-3c-0.7-0.1-0.9-0.8-1-1.4c0.9-1.1,1.8-2,3.3-1.8
	c0.6,1.9,2.5,1.6,3.9,2.2C209.8,309.7,210.4,310.8,209.3,312.8z"/>
<path class="st7" d="M186.3,315.1c-1.7-1-3.6-1.8-5.5-2.5c-0.7-0.3-1.6-0.5-2-1.3c0.7-0.7,1.6-0.2,2.3-0.5c1.3,1.5,3.3,1.7,4.9,2.5
	C187.2,313.8,187.5,314.3,186.3,315.1z"/>
<path class="st7" d="M185.8,318.8c-0.4-0.3-0.4-0.6,0.1-0.9C186.3,318.2,186.3,318.5,185.8,318.8z"/>
<path class="st7" d="M185.9,317c-0.1-0.4,0-0.8,0.4-1C187,316.7,186.4,316.8,185.9,317z"/>
<path class="st6" d="M224.6,303.1c5-0.8,9.8-2.7,15-1.9c0.7,0.1,1.5-0.1,2.3-0.1c0.5,0.9,1.4,1,2.3,1.2c1.7,0.5,3.3,1.1,4,3
	c-0.9,0.2-1.8,0.4-2.7,0.6c-1.6,0.3-4.1,0.3-4.4,1.5c-0.2,1.2,2.4,1.4,3.7,2.1c0.6,0.3,1.3,0.5,2,0.5c4.1-0.2,8-1.5,12.1-1.6
	c0.9,0,1.3-0.8,1.2-1.7c1.2,0.8,2.3,1.7,2.8,3.1c-1.7,1.2-3.8,0.9-5.6,1.5c-1,0.1-2.4-0.5-2.3,1.4c-0.5-0.1-1.1,0-1.6-0.2
	c-1.6-0.7-2.6-0.1-3.1,1.5c-1.9-0.2-3.7-0.4-5.6-0.6c0.5-1.9-0.2-3-2-3.7c-2-0.7-4.1-1.1-6.1-2.1c-1.3-0.6-2.2,0.3-2.4,1.6
	c-1.1,0-2.1-0.2-2.8-1c0.4-2.2-0.3-3.5-2.7-3.9C227.3,304.5,225.9,303.7,224.6,303.1z"/>
<path class="st6" d="M209.3,312.8c1-2,0.5-3.1-1.6-3.9c-1.4-0.5-3.3-0.2-3.9-2.2c5.9-0.8,11.6-3.7,17.8-1.4c2.6,0.4,4.6,2,6.7,3.3
	c-0.2,0.2-0.3,0.6-0.5,0.7c-2.6,0.5-5.2,1.2-7.8,1.5c-1.7,0.2-1.6,0.8-0.9,1.9c-0.9-0.3-1.7-0.5-2.6-0.8c-2.4-0.9-3.4-0.4-3.9,2.2
	C211.5,313.7,210.4,313.3,209.3,312.8z"/>
<path class="st6" d="M264.7,296.1c0,1,0.8,1.2,1.6,1.4c0.3,0.1,0.6,0,0.9,0.1c1.4,0.4,3.4,0.2,3.4,2.2c0.1,2.1-2.1,1.6-3.3,1.9
	c-2.1,0.6-4.4,1-6.5,1.5c0,1,1.1,1,1.1,1.8c-1.3,0-2.4-0.6-3.6-1.1c-1.6-0.6-2.8-0.4-3.3,1.5c-1.3-0.1-2.6-0.3-3.7-0.9
	c0.5-0.8,0.5-1.8,0.4-2.7c3.2,0.1,6.2-1.2,9.3-1.5c1-0.1,1.1-0.7,0.5-1.4c-0.3-0.4-0.8-0.7-1.2-1.1C261.3,296,263,296.2,264.7,296.1
	z"/>
<path class="st5" d="M260.3,297.8c0.4,0.3,0.8,0.7,1.2,1.1c0.6,0.7,0.5,1.3-0.5,1.4c-3.1,0.3-6.1,1.5-9.3,1.5c-0.3,0-0.6,0-0.9-0.1
	c-0.1-0.6-0.2-1.2-0.9-0.4c-0.6-0.2-1.2-0.3-1.9-0.5c-0.2-0.6-0.3-1.2-0.5-1.8c3.8-0.7,7.5-2.1,11.4-1.1
	C259.4,298,259.9,297.9,260.3,297.8z"/>
<path class="st7" d="M228.3,308.7c-2.1-1.3-4.1-2.9-6.7-3.3c0.4-1.5,1.4-2.3,3-2.3c1.4,0.5,2.8,1.3,4.2,1.6c2.4,0.4,3,1.7,2.7,3.9
	C230.4,308.6,229.3,308.7,228.3,308.7z"/>
<path class="st6" d="M299.7,290.1c0.2,2,2,1.8,3.2,1.9c1.4,0.1,1.9,0.8,2.4,1.9c0.4,0.8,0.1,0.9-0.6,1c-1.6,0.3-3.3,1.4-4.5-0.9
	c-0.4-0.7-1.6-0.9-2.5-0.9c-1.3,0-2.5-0.5-3.7-1C295.3,289.6,297.7,290.5,299.7,290.1z"/>
<path class="st7" d="M250.8,301.7c0.3,0,0.6,0,0.9,0.1c0.1,0.9,0.1,1.8-0.4,2.7c-1.1,0-2,1.1-3.1,0.8c-0.6-1.9-2.3-2.5-4-3
	c-0.9-0.2-1.8-0.3-2.3-1.2c0.8-1.4,2-1.8,3.4-1.3c0.7,0.8,1.7,0.9,2.8,1c0.6,0.2,1.2,0.3,1.9,0.5
	C250.1,301.7,250.4,301.8,250.8,301.7z"/>
<path class="st6" d="M280.3,293.2c1.7,1,3.8,0.7,5.5,1.5c1,0.4,2.1,0.5,2.3,1.8c0.1,0.7-0.1,1.3-0.9,1.6c-1.2,0.4-2.3,0.7-3.2-0.7
	c-1-1.6-2.8-1.3-4.3-1.6c-0.9-0.2-1.6-0.4-1.7-1.5C278.7,293.8,279.4,293.3,280.3,293.2z"/>
<path class="st6" d="M248,300.8c-1-0.1-2-0.2-2.8-1c0.5-1.1,1.5-0.8,2.3-0.8C247.7,299.6,247.9,300.2,248,300.8z"/>
<path class="st7" d="M232,321c-1.5-0.9-3.5-0.7-4.7-2.2c1.2-2,2.6-2.6,5-1.4c2,1,4.2,2,6.5,2.3c0.3,0,0.6,0.1,0.8,0.1
	c-0.1,1.2-0.3,2.4-0.4,3.6c-1.2,1.2-2.7,0.8-4.1,0.5C234.3,322.7,233.9,321,232,321z"/>
<path class="st5" d="M281.3,314.3c-0.1,0.8-0.8,0.8-1.4,0.9c-2.3,0.4-4.6,1-6.8,1.3c-0.9,0.2-1,0.7-1.1,1.4c-0.3,0-0.7,0.1-1,0.1
	c-0.3-0.1-0.6-0.3-0.9-0.4c0.2-1.8-0.9-1.7-2-1.3c-1.9,0.6-3.8,0.8-5.5-0.6c0-0.3,0-0.5,0-0.8c4.1-0.1,8-1.5,12-2
	c0.7-0.1,1-0.6,1.1-1.3c0.7,0.4,1.7,0.6,2.1,1.2C278.7,314,279.9,314.3,281.3,314.3z"/>
<path class="st6" d="M262.7,315.6c1.7,1.4,3.5,1.2,5.5,0.6c1.1-0.3,2.2-0.5,2,1.3c-1.6,0.2-3.7-0.3-4.1,2.2c-1.5,0-2.7-1.3-4.3-1
	C261.9,317.6,261.8,316.4,262.7,315.6z"/>
<path class="st6" d="M271,318c0.3,0,0.7-0.1,1-0.1c0,0.2,0,0.4,0,0.5C271.3,319.1,271.2,318.5,271,318z"/>
<path class="st6" d="M273.3,318.5c0.7-0.2,1,0.1,1,0.8C273.8,319.3,273.5,319,273.3,318.5z"/>
<path class="st2" d="M135.5,149.5c-1.7-0.1-3.4,0.5-5-0.4C132.2,148.7,134,147.9,135.5,149.5z"/>
<path class="st2" d="M154,150.8c-1.4-0.2-3.1,0.7-4.3-0.8C151.1,150.4,152.8,149.2,154,150.8z"/>
<path class="st2" d="M144.8,150c-1.8-0.1-3.7,0.4-5.5-0.5C141.2,148.5,142.9,149.6,144.8,150z"/>
<path class="st2" d="M161.8,150.9c0.6,0.1,1.4-0.2,1.9,0.5c-1.7-0.1-3.5,0.4-5.1-0.5C159.7,149.9,160.8,151.4,161.8,150.9z"/>
<path class="st2" d="M162.3,118.6c0.7-0.1,1.4-0.2,1.9,0.3C163.4,119.9,162.7,120,162.3,118.6z"/>
<path class="st2" d="M146.7,150c-0.6,0.5-1.3,0.6-1.9,0C145.4,150,146,150,146.7,150z"/>
<path class="st2" d="M133.2,196.2c3.3-0.9,6.5-0.8,9.8-0.1c0,0.1,0,0.2,0,0.3C139.7,196.5,136.4,196.9,133.2,196.2z"/>
<path class="st9" d="M142.9,196.5c0-0.1,0-0.2,0-0.3c0.1,0.1,0.3,0.2,0.4,0.4c0,0-0.2,0-0.2,0L142.9,196.5z"/>
<path class="st2" d="M195,153.7c2.8-0.4,5.5,0,8.2,0.8C200.5,154.6,197.7,154.3,195,153.7z"/>
<path class="st2" d="M187.7,153.2c1.7-0.3,3.5-1.1,5,0.5C191,153.5,189.3,154.1,187.7,153.2z"/>
<path class="st2" d="M178,152.3c2.3,0,4.6-0.2,6.8,0.7C182.5,153.3,180.2,153.3,178,152.3z"/>
<path class="st2" d="M206.6,154.5c1.6-0.4,3.2-1.1,4.6,0.4C209.6,154.9,208,155.5,206.6,154.5z"/>
<path class="st3" d="M170.6,151.9c1-0.5,2-1.1,2.8,0.3C172.4,152.2,171.4,152.6,170.6,151.9z"/>
<path class="st2" d="M136,190.4c-0.5,2.2-2.9,0.7-4.3,1.5c-0.6,0.4-1.2-0.5-1.2-1.3c0-0.6,3-2.6,4-2.6
	C135.3,188,136,188.9,136,190.4z"/>
<path class="st7" d="M181.2,183.3c-2.5,0.5-5.1,0-7.6,0.2c-0.2-0.2-0.5-0.4-0.8-0.7C175.6,183,178.4,182.2,181.2,183.3z"/>
<path class="st7" d="M157.3,182.7c0.8-0.6,1.5-0.6,2.2,0.1c-0.3,0.1-0.5,0.2-0.8,0.3c-0.5-0.3-1-0.3-1.5-0.1L157.3,182.7z"/>
<path class="st2" d="M157.2,182.9c0.5-0.2,1-0.2,1.5,0.1C158.1,183.9,157.6,183.9,157.2,182.9z"/>
<path class="st7" d="M146.2,182.3c0.2-0.3,0.3-0.2,0.3,0.1c0,0-0.2,0-0.2,0L146.2,182.3z"/>
<path class="st11" d="M160.9,172.2c8.1,0.4,16.2,0.8,24.3,1.1c6.9,0.2,13.8,0.6,20.8,0.9c2.9,0.1,5.8,0.3,8.7,0.4
	c1.8,0,2.8,0.9,2.9,2.8c0.1,1.2,0.4,2.4,0.5,3.6c0.1,0.9,0.1,1.7-1,2c-6.7-0.2-13.5-0.3-20.2-0.5c-16-0.5-32-1-48.1-1.2
	c-5.6-0.1-11.2-0.5-16.8-0.7c-0.9,0-1.6-0.3-2.4-0.7c-0.7-2.7-0.6-5.4-0.6-8.1c0,0,0.1-0.2,0.1-0.2c0.1-0.1,0.2-0.2,0.3-0.3
	c1.9-0.7,3.8,0.3,5.7-0.1c2.7,1,5.5,0.4,8.2,0.4C149.2,171.8,155.1,172,160.9,172.2z"/>
<path class="st2" d="M143.3,171.6c-2.7-0.1-5.5,0.6-8.2-0.4C137.9,170.3,140.6,170.7,143.3,171.6z"/>
<path class="st2" d="M129.5,171.3c-0.1,0.1-0.2,0.2-0.3,0.3C129.2,171.4,129.3,171.3,129.5,171.3z"/>
<path class="st3" d="M263.1,145.9c0.9,0,1.9-0.2,2.8,0c1.6,0.3,2.7-0.2,3.5-1.5c0.8-1.4,0.3-2.9-0.5-3.9c-1.2-1.5-2.1-3.4-3.9-4.4
	c-0.2-0.1-0.6-0.4-0.6-0.7c0.1-3-2-2.8-4.1-3c-4.5-0.5-9.1-1.1-13.6-1.8c-1.1-0.2-2.2-0.4-2.3-1.8c5.3,0.3,10.4,1.1,15.7,1.8
	c2.7,0.4,5.5,0.6,8.2,0.9c3.1,0.4,6.2,0.8,9.3,1.3c0.4,0.1,0.8,0.3,1.2,0.5c-1,1.4-1.3,2.8-1,4.5c0.6,3.2,1.1,6.4,1.6,9.7
	c-1.1-0.1-2.3-0.4-3.4-0.3c-1.5,0.1-2.1-0.5-2.3-2c-0.2-1.9-0.7-3.9-1.2-5.8c-0.2-0.6-0.6-1.4-1.5-1.2c-0.9,0.2-0.8,1-0.7,1.7
	c0.1,1.3,0.2,2.6,0.5,3.8c0.7,2.4-0.3,3.1-2.5,3c-1.5,0-2.9,0-4.4,0C263.6,146.5,263.4,146.2,263.1,145.9z"/>
<path class="st13" d="M279.4,147.6c-0.5-3.2-1-6.5-1.6-9.7c-0.3-1.7,0-3.2,1-4.5c0,0,0.1,0,0.1,0c2.8,3.9,2.3,8.7,3.4,13.1
	c0.1,0.4,0.3,0.8,0.4,1.3c0,0.2,0,0.4,0.1,0.6c0.2,1.3,0.5,2.7,0.6,4c0.1,0.8,0.5,1.9-0.9,2.1c-1.3,0.2-1.7-0.5-1.9-1.7
	c-0.2-1.6-0.6-3.1-0.9-4.7C279.4,148,279.4,147.8,279.4,147.6z"/>
<path class="st11" d="M149,107.1c0.6,0.2,1.2,0.3,1.7,0.5c0.8,1.1,2,1.9,2,3.6c0,1.8-0.5,3.1-2.2,3.7c-0.8,0.2-1.6,0.1-2.4-0.1
	c-1.7-0.6-3.2-1.6-3.7-3.4C143.5,108.4,144.9,107.2,149,107.1z"/>
<path class="st7" d="M130.9,113c0.5-0.4,0.9-0.1,1.1,0.4C131.6,113.6,131.2,113.5,130.9,113z"/>
<path class="st7" d="M127.2,112.6c0.4-0.3,0.7-0.2,0.9,0.2C127.7,113.2,127.4,113.1,127.2,112.6z"/>
<path class="st7" d="M125.4,112.3c0.2,0,0.3,0,0.5,0.1C125.7,112.5,125.5,112.5,125.4,112.3z"/>
<path class="st7" d="M133.7,113.5c0.2-0.2,0.3-0.2,0.5,0C134,113.5,133.8,113.5,133.7,113.5z"/>
<path class="st3" d="M173,162.3c-1.3,0.8-2.5,1.2-3.8-0.1C170.5,162.1,171.7,161.9,173,162.3z"/>
<path class="st7" d="M213.9,184.1c-2.9,0.1-5.8,0.2-8.7-0.3c0.2-0.2,0.3-0.5,0.5-0.4C208.4,183.7,211.2,183.4,213.9,184.1z"/>
<path class="st7" d="M200.5,183.6c-0.6,0-1.2,0-1.7,0C199.4,183.1,199.9,183.1,200.5,183.6z"/>
<path class="st7" d="M216.7,184.1c-0.5,0-0.9,0-1.4,0c0.3-0.5,0.8-0.4,1.3-0.4C216.7,183.9,216.7,184,216.7,184.1z"/>
<path class="st7" d="M195,183.6c-0.3,0-0.5,0-0.8,0C194.4,183.2,194.7,183.2,195,183.6z"/>
<path class="st2" d="M216.7,184.1c0-0.1,0-0.3,0-0.4c0.1-0.1,0.3-0.1,0.4-0.2C217,183.7,216.9,183.9,216.7,184.1z"/>
<path class="st12" d="M279.4,148.2c0.3,1.6,0.7,3.1,0.9,4.7c0.2,1.2,0.6,1.9,1.9,1.7c1.5-0.2,1-1.3,0.9-2.1c-0.1-1.4-0.4-2.7-0.6-4
	c0.2-0.1,0.4-0.1,0.5-0.2c0.4,0,0.9,0,1.3,0c1.2,0.7,2.4,0.6,3.7,0.5c0,0,0,0,0,0c1.9,0.7,4,0.1,5.9,1c-0.4,2.4-2.1,4.1-3.5,6
	c-0.6,0.9-1.4,1.7-0.2,2.7c-1.4-0.1-2.8-0.2-4.2-0.2c-5.1,0-9.2,2.1-12.5,5.9c-0.3,0.3-0.7,0.6-1,0.9c-1.9-0.7-3.4,0.1-4.6,2.4
	c-5.9-0.7-11.7-1.1-17.6-1.1c-0.7,0-1.7,0.1-1.5,1.2c0.2,1.1,0.7,1.7,2,1.7c4.7,0.2,9.3,0.6,14,0.9c0.6,1.6-0.3,3.2-0.3,4.8
	c-0.3,8.2,2.7,15.4,7.1,22.1c1.6,2.4,3.6,4.6,3.1,7.8c-0.2,1,0.7,1.8,1.3,2.6c2.6,3.7,4.5,7.9,7.8,11.1c0.1,0.1,0,0.4,0,0.7
	c-9.6-0.1-19.1,1-28.7,0.9c-4.3,0-7.1-2.2-7.8-6.5c-1.3-7.7-2.4-15.5-3.7-23.3c-0.8-5.1-1.7-10.2-2.6-15.3c1-0.1,2-0.2,3-0.2
	c4.9,0,9.8,0.7,14.7,0.5c0.6,0,1.5,0.2,1.6-0.8c0.1-1-0.5-1.6-1.4-1.8c-0.5-0.1-1.1,0-1.6-0.1c-5.5-0.6-11-0.1-16.5-0.9
	c-1.3-4-1.3-8.3-2.1-12.4c-0.6-2.8-0.9-5.7-1.4-8.6c-0.5-2.3,0.2-4.2,1.9-5.7c0,0,0.1-0.1,0.1-0.1c2.4-0.1,4.9-0.5,7.3,0.4
	c0.1,0.3,0.1,0.7,0.3,0.9c4.9,4.9,9.7,9.8,14.6,14.7c0.5,0.5,1,0.7,1.6,0.1c0.5-0.5,0.6-1.1,0.2-1.6c-0.5-0.7-1.1-1.3-1.6-1.9
	c-3.8-4-8-7.6-11.5-11.9c0.5-0.1,0.9-0.1,1.4-0.2c1.1,0,2.2,0.1,3.3,0.1c3.1,0,5.5,1.5,7.5,3.9c1.9,2.3,4.2,4.5,6.3,6.7
	c0.7,0.7,1.3,1.2,2.3,0.3c1.1-1,0.6-1.7-0.2-2.5c-2.3-2.4-4.5-4.8-6.7-7.2c1.5,0,2.9,0,4.4,0c1.2,0.8,2.7,0.3,4,0.8
	c0.7,3,1.4,6.1,1.6,9.2c0.1,1,0.6,1.9,1.7,1.8c1.3-0.2,1-1.2,0.8-2.2c-0.5-2.8-1.3-5.6-1.1-8.6C276.7,147.5,278,148.4,279.4,148.2z"
	/>
<path class="st13" d="M263.9,146.8c2.2,2.4,4.5,4.8,6.7,7.2c0.8,0.8,1.3,1.5,0.2,2.5c-1,0.9-1.6,0.4-2.3-0.3
	c-2.1-2.2-4.3-4.3-6.3-6.7c-2-2.4-4.3-3.9-7.5-3.9c1.1,0.1,2.1,0.3,3.4,0.4c-0.4-1.5-1.7-2.2-2.5-3.1c-0.7-0.8-0.9-1.5-0.1-2.4
	c0.9-1,1.6-0.4,2.3,0.3c1.7,1.7,3.5,3.4,5.2,5.1C263.4,146.2,263.6,146.5,263.9,146.8z"/>
<path class="st8" d="M251.5,145.4c-0.5,0.1-0.9,0.1-1.4,0.2c-1.2-0.1-2.3-0.1-3.5-0.2c-2.4-0.8-4.9-0.5-7.3-0.4
	c2.5-1.7,5.2-0.1,7.8-0.4C248.6,144.4,250.1,144.8,251.5,145.4z"/>
<path class="st14" d="M283.9,219.2c0-0.2,0.1-0.6,0-0.7c-3.3-3.2-5.1-7.4-7.8-11.1c-0.6-0.8-1.4-1.6-1.3-2.6
	c0.5-3.3-1.6-5.4-3.1-7.8c-4.4-6.7-7.3-13.9-7.1-22.1c0.1-1.6,0.9-3.1,0.3-4.8c4-0.3,4-0.3,3.2-2.8c1.2-2.3,2.7-3.1,4.6-2.4
	c-2.5,4-2.8,8.3-2,12.8c1.2,7.3,4.4,13.5,10.1,18.3c0.1,1.3-1,2.8-0.2,3.8c2,2.5,3.7,5.3,5.7,7.7c1.3,1.5,3.2,2.8,5.3,3.5
	c-0.5,2.6-1.7,4.8-3.1,7c-0.3,0.5,0.1,0.8,0.4,1.2C287.2,219.2,285.5,219.2,283.9,219.2z"/>
<path class="st8" d="M291.6,211c-2.1-0.7-4-2.1-5.3-3.5c-2.1-2.4-3.8-5.2-5.7-7.7c-0.8-1,0.4-2.5,0.2-3.8c2.3-1.8,5-2.8,7.9-3.1
	c0.2,0.4,1.2,0.8,0,1.3c-0.6,0.2-1.6,0.1-1.6,1c0.1,0.9,1.1,0.9,1.8,1.3c0.8,0.5,1.7,0.7,2.6,0.6c1.9-0.2,3.8-0.4,5.7-0.4
	c1.8,0,2.7-0.7,2.6-2.6c1.7,1.5,1.1,3.3,0.4,5c-0.3,0.7-1,1.2-0.9,2c0.4,3.2-1.9,5.2-3.1,7.7C295.2,210.5,293.4,210.9,291.6,211z"/>
<path class="st12" d="M292.2,157.9c1.2,1,2.1,0.8,3-0.4c1-1.4,2.1-2.8,3.1-4.2c1.7,4,2.5,8.2,2.4,12.5c-2.1-3.7-5.4-5.9-9.3-7.3
	C291.7,158.3,292,158.1,292.2,157.9z"/>
<path class="st7" d="M299.8,194c0.1,1.9-0.8,2.5-2.6,2.6c-1.9,0-3.8,0.3-5.7,0.4c-0.9,0.1-1.8-0.1-2.6-0.6c-0.6-0.4-1.7-0.4-1.8-1.3
	c-0.1-0.9,1-0.8,1.6-1c1.2-0.5,0.2-0.8,0-1.3c0.8-0.6,1.8-0.5,2.7-0.4c0.2,1.3,1.2,0.9,2,0.9C295.5,193.4,297.7,193.3,299.8,194
	L299.8,194z"/>
<path class="st14" d="M292.2,157.9c-0.3,0.2-0.6,0.4-0.9,0.6c-0.3,0-0.6-0.1-0.9-0.1c-1.3-1-0.4-1.8,0.2-2.7c1.3-1.9,3-3.6,3.5-6
	c1.1-0.2,1.8,0.4,2.4,1.1C295.2,153.2,292.8,155,292.2,157.9z"/>
<path class="st8" d="M299.7,194c-2.1-0.7-4.2-0.6-6.4-0.6c-0.8,0-1.8,0.4-2-0.9c2.7-0.2,5.4-0.3,8,0.4
	C299.5,193.3,299.6,193.6,299.7,194z"/>
<path class="st14" d="M306.7,218.2c-0.9,0.9-2,0.4-3,0.4C304.5,217.4,305.6,217.8,306.7,218.2z"/>
<path class="st14" d="M240.9,171.8c5.5,0.7,11,0.3,16.5,0.9c0.5,0.1,1.1-0.1,1.6,0.1c0.9,0.2,1.5,0.8,1.4,1.8c-0.1,1-1,0.8-1.6,0.8
	c-4.9,0.2-9.8-0.4-14.7-0.5c-1,0-2,0.1-3,0.2C241.1,174,241,172.9,240.9,171.8z"/>
<path class="st0" d="M160.5,108.9c0.6,0,1.1,0.1,1.7,0.1c0.6,0.4,1.3,0.8,1.8,1.3c1.3,1.4,1.3,3.5,0.1,4.6c-0.8,0.8-3.9,0.7-4.9-0.1
	C156.3,112.6,156.8,110.5,160.5,108.9z"/>
<path class="st2" d="M296.5,150.7c-0.6-0.7-1.3-1.3-2.4-1.1c-1.9-0.8-4-0.3-5.9-1c3.1,0.3,6.3-0.6,9.4,0
	C297.5,149.5,297.2,150.2,296.5,150.7z"/>
<path class="st2" d="M288.2,148.7c-1.3,0.1-2.5,0.2-3.7-0.5C285.8,147.5,287.1,147.2,288.2,148.7z"/>
<path class="st2" d="M283.1,148.2c-0.2,0.1-0.4,0.1-0.5,0.2c0-0.2,0-0.4-0.1-0.6C282.7,147.9,282.9,148,283.1,148.2z"/>
<path class="st5" d="M300.7,310.1c-0.2,0.2-0.3,0.7-0.5,0.7c-4.6,0.3-9,2.4-13.6,2.4c-1.3,0-2.2,1.2-3.4,1c0-1.2,0-2.5,0-3.7
	c3.7-0.2,7.3-1.4,10.9-1.9c0.7-0.1,1-0.6,1-1.3c1.3-0.3,2.2,0.4,3,1.3C298.7,309.4,299.4,310.2,300.7,310.1z"/>
<path class="st5" d="M317.7,306.8c-2.3,0.5-4.5,1.1-6.8,1.6c-2.8,0.6-5.6,1.1-8.4,1.7c0-1.2,0-2.4,0-3.7c3.6-0.3,7.2-0.9,10.7-1.9
	c0.3,0,0.5,0,0.8,0c0.2-0.2,0.3-0.3,0.5-0.5C316.3,304.1,317.1,305.3,317.7,306.8z"/>
<path class="st5" d="M319.5,302.6c3.5,0.3,6.8-1.1,10.2-1.4c0.7-0.1,1.2-0.1,1.3-0.9c2.1-0.3,3.2,0.6,3.3,2.7
	c-1.3,1.1-3,0.9-4.6,1.1c-3,0.4-5.7,1.9-8.9,1.7C321.1,304.5,320.8,303.4,319.5,302.6z"/>
<path class="st6" d="M283.1,310.5c0,1.2,0,2.5,0,3.7c-0.6,0-1.2,0.1-1.8,0.1c-1.4,0-2.6-0.2-3.5-1.6c-0.4-0.6-1.4-0.8-2.1-1.2
	c-1.5-0.7-3.3-0.2-4.6-1.4c0.5-1.9,1.2-3.1,3.5-1.7c0.8,0.5,2,0.5,3.1,0.7c0.5,0,0.9,0,1.4,0c0.1,0.9,0.7,0.9,1.4,0.9
	C281.3,310.2,282.1,310.6,283.1,310.5z"/>
<path class="st6" d="M319.5,302.6c1.3,0.7,1.6,1.9,1.4,3.2c-1.1,0.1-2,1.1-3.2,0.9c-0.6-1.5-1.5-2.7-3.3-2.7
	c-0.2,0.2-0.3,0.3-0.5,0.5c-0.3,0-0.5,0-0.8,0c-0.1-0.6-0.1-1.2-0.9-1.3c-1.3-0.2-2.5-0.3-3.8-0.5c0.4-2.5,0.9-2.8,3.1-1.7
	c0.8,0.4,1.6,0.3,2.4,0.4C315.8,301.7,317.7,302.2,319.5,302.6z"/>
<path class="st6" d="M302.5,306.4c0,1.2,0,2.4,0,3.7c-0.6,0-1.2,0.1-1.8,0.1c-1.2,0.1-1.9-0.7-2.6-1.5c-0.8-0.9-1.7-1.5-3-1.3
	c-1.6-0.7-3.6-0.2-5.1-1.4c0.8-1.7,2-2.2,3.8-1.5c0.9,0.4,1.8,0.6,2.7,0.9c0.9,0.2,1.8,0.3,2.7,0.5c0.3,0.5,0.6,0.5,0.9,0
	C300.9,306,301.7,306.2,302.5,306.4z"/>
<path class="st4" d="M271.1,310.1c1.3,1.2,3.2,0.7,4.6,1.4c0,0.7-0.4,1.2-1.1,1.3c-4,0.6-7.9,1.9-12,2c-0.6,0-1.1,0-1.7,0
	c-0.3-0.7-0.9-0.6-1.4-0.5c-0.4,0-0.9-0.1-1.3-0.1c-0.1-0.6-0.4-0.9-1-0.8l0-0.1c0-0.6,0-1.3,0-1.9c1.8-0.6,3.9-0.3,5.6-1.5
	c0.9-0.1,1.8-0.3,2.7-0.4C267.4,309.7,269.2,309.9,271.1,310.1z"/>
<path class="st4" d="M290,305.9c1.5,1.2,3.5,0.7,5.1,1.4c0,0.7-0.3,1.2-1,1.3c-3.7,0.5-7.2,1.7-10.9,1.9c-1,0.1-1.8-0.3-2.7-0.5
	c-0.1-0.9-0.8-0.9-1.4-0.9c-0.5,0-0.9,0-1.4,0c-0.1-1.3,0.5-1.7,1.7-1.8c1.3-0.2,2.9,0.2,3.8-1.2c0.8,0,1.5-0.1,2.3-0.1
	C286.9,305.9,288.5,305.9,290,305.9z"/>
<path class="st4" d="M299.3,305.9c-0.9-0.2-1.8-0.3-2.7-0.5c-0.1-1.1,0.3-1.6,1.4-1.8c0.9-0.2,1.9-0.2,2.7-0.9c0.6,0,1.2,0,1.8,0
	c2-0.6,4-0.6,6,0c1.3,0.2,2.5,0.4,3.8,0.5c0.8,0.1,0.8,0.7,0.9,1.3c-3.5,1-7.1,1.6-10.7,1.9c-0.8-0.2-1.5-0.3-2.3-0.5
	C299.9,305.4,299.6,305.4,299.3,305.9z"/>
<path class="st6" d="M285.4,305.9c-0.8,0-1.5,0.1-2.3,0.1c-0.1,0-0.4,0-0.4-0.1c-2-2.4-5-3-7.8-3.7c-0.5-0.1-1.2-0.2-1.2-0.8
	c-0.1-0.6,0.7-0.9,1-1c1.3-0.4,2.8-2.8,4.1,0.2c0.3,0.7,2,0.8,3.1,1.1C285.4,302.4,285.4,302.4,285.4,305.9z"/>
<path class="st7" d="M265.6,309.5c-0.9,0.1-1.8,0.3-2.7,0.4c-0.5-1.5-1.7-2.3-2.8-3.1c-1.8,0.1-3.4-0.9-5-1.4
	c0.4-1.9,1.7-2.1,3.3-1.5c1.2,0.5,2.3,1.1,3.6,1.1c0.6,0,1.2,0.1,1.7,0.1c0.1,0.5,0.4,0.9,1,0.8
	C267.3,306.5,265.8,308.2,265.6,309.5z"/>
<path class="st6" d="M302.5,302.6c-0.6,0-1.2,0-1.8,0c-1.4-2.6-4-3.1-6.5-3.7c-0.8-0.2-1.7-0.1-2.1-1c-0.2-0.6,0.3-1,0.7-1.3
	c0.8-0.6,2-0.8,2.6-0.2c1.4,1.4,3.2,1.4,4.8,1.9C303.4,299.3,303.4,299.3,302.5,302.6z"/>
<path class="st6" d="M264.7,305.9c-0.6,0-0.9-0.3-1-0.8C264.3,304.9,264.6,305.2,264.7,305.9z"/>
<path class="st6" d="M239.2,323.4c0.1-1.2,0.3-2.4,0.4-3.6c3.3-0.2,6.5-1.4,9.8-1.8c2-0.3,4-0.5,5.5-2c1.6,0.2,2.3,1.6,3.2,2.7
	c-0.9,1.7-2.9,1.6-4.3,1.8C249,321.2,244.2,322.5,239.2,323.4z"/>
<path class="st7" d="M258.2,318.7c-0.9-1.1-1.6-2.4-3.2-2.7c-1.4-1-3.4-0.4-4.6-1.8c0.4-1.7,1.4-2.2,3.1-1.5c0.5,0.2,1,0.1,1.6,0.2
	c0.8,0.2,1.5,0.3,2.3,0.5c0,0,0,0.1,0,0.1c0.1,0.6,0.4,0.9,1,0.8c0.4,0,0.9,0.1,1.3,0.1c0.2,0.9,0.7,1.1,1.4,0.5c0.6,0,1.1,0,1.7,0
	c0,0.3,0,0.5,0,0.8c-0.9,0.9-0.7,2-0.9,3.1C260.6,319.4,259.4,318.9,258.2,318.7z"/>
<path class="st6" d="M238.9,319.7c-2.4-0.2-4.5-1.3-6.5-2.3c-2.4-1.2-3.8-0.6-5,1.4c-1.6-0.2-3.1-0.4-4.7-0.5
	c0.6-1.3,0.6-2.7,0.6-4.1c4,0.3,7.6-1.4,11.5-1.8c1.2-0.1,2.7,0.2,3.3-1.4c1.2-0.3,2,0.3,2.8,1.1c0.7,0.7,1.2,1.6,2.3,1.8
	c-0.2,0.2-0.3,0.6-0.5,0.7c-2.2,0.4-4.3,0.7-6.5,1c-0.8,0.1-1.9-0.2-2.1,0.9c-0.2,1.2,1.2,0.9,1.7,1.4
	C236.6,318.7,238.3,318.1,238.9,319.7z"/>
<path class="st5" d="M237.9,311c-0.6,1.6-2.1,1.3-3.3,1.4c-3.9,0.4-7.5,2.1-11.5,1.8c0,0,0,0,0,0c-0.1-0.6-0.4-0.9-1-0.8
	c-1-0.2-2.1-0.4-3.1-0.6c-0.6-1.1-0.8-1.7,0.9-1.9c2.6-0.3,5.2-0.9,7.8-1.5c0.2,0,0.3-0.5,0.5-0.7c1.1-0.1,2.1-0.1,3.2-0.2
	c0.8,0.8,1.8,1,2.8,1C235.5,310,236.7,310.5,237.9,311z"/>
<path class="st6" d="M222.2,313.3c0.6-0.1,1,0.2,1,0.8C222.6,314.2,222.3,313.9,222.2,313.3z"/>
<path class="st5" d="M238.9,319.7c-0.5-1.5-2.3-1-3.2-1.8c-0.6-0.5-2-0.1-1.7-1.4c0.2-1.1,1.3-0.8,2.1-0.9c2.2-0.3,4.3-0.7,6.5-1
	c0.2,0,0.4-0.4,0.5-0.7c0.6-0.1,1.1-0.1,1.7-0.2c1.9,0.2,3.7,0.4,5.6,0.6c1.2,1.5,3.3,0.8,4.6,1.8c-1.5,1.5-3.5,1.7-5.5,2
	c-3.3,0.4-6.4,1.6-9.8,1.8C239.4,319.8,239.1,319.7,238.9,319.7z"/>
<path class="st5" d="M255,305.4c1.7,0.5,3.2,1.5,5,1.4c0.1,0.9-0.3,1.7-1.2,1.7c-4.1,0-8,1.4-12.1,1.6c-0.7,0-1.4-0.2-2-0.5
	c-1.3-0.7-3.9-0.9-3.7-2.1c0.2-1.2,2.8-1.2,4.4-1.5c0.9-0.2,1.8-0.4,2.7-0.6c1.2,0.2,2-0.8,3.1-0.8
	C252.5,305.1,253.7,305.3,255,305.4z"/>
<path class="st7" d="M244.8,313.6c-0.6,0.1-1.1,0.1-1.7,0.2c-1.1-0.2-1.6-1.1-2.3-1.8c-0.8-0.8-1.6-1.4-2.8-1.1
	c-1.2-0.5-2.4-0.9-3.6-1.4c0.3-1.4,1.2-2.3,2.4-1.6c2,1,4,1.4,6.1,2.1C244.6,310.6,245.3,311.8,244.8,313.6z"/>
<path class="st5" d="M257.2,313.3c-0.8-0.2-1.5-0.3-2.3-0.5c-0.1-1.9,1.3-1.4,2.3-1.4C257.3,312,257.3,312.7,257.2,313.3z"/>
<path class="st6" d="M250.8,301.7c-0.4,0-0.7-0.1-0.9-0.4C250.6,300.5,250.7,301.1,250.8,301.7z"/>
<path class="st6" d="M272.3,147.7c-1.3-0.6-2.8-0.1-4-0.8c2.2,0.1,3.2-0.6,2.5-3c-0.4-1.2-0.4-2.5-0.5-3.8c-0.1-0.7-0.2-1.5,0.7-1.7
	c0.8-0.2,1.3,0.5,1.5,1.2c0.5,1.9,1,3.8,1.2,5.8c0.2,1.5,0.8,2.1,2.3,2c1.1-0.1,2.3,0.2,3.4,0.3c0,0.2,0.1,0.4,0.1,0.6
	c-1.4,0.2-2.7-0.7-4.1-0.3C274.3,147.6,273.3,147.4,272.3,147.7z"/>
<path class="st13" d="M268.1,167.3c0.8,2.5,0.8,2.5-3.2,2.8c-4.7-0.3-9.3-0.7-14-0.9c-1.3-0.1-1.8-0.7-2-1.7
	c-0.2-1.2,0.8-1.2,1.5-1.2C256.4,166.2,262.3,166.6,268.1,167.3z"/>
<path class="st14" d="M246.7,145.4c1.2,0.1,2.3,0.1,3.5,0.2c3.5,4.3,7.7,7.9,11.5,11.9c0.6,0.6,1.1,1.2,1.6,1.9
	c0.4,0.6,0.4,1.1-0.2,1.6c-0.6,0.6-1.1,0.4-1.6-0.1c-4.9-4.9-9.7-9.8-14.6-14.7C246.8,146,246.8,145.7,246.7,145.4z"/>
<path class="st14" d="M272.3,147.7c1-0.3,2-0.1,3,0.2c-0.2,2.9,0.6,5.7,1.1,8.6c0.2,0.9,0.5,2-0.8,2.2c-1.1,0.1-1.6-0.8-1.7-1.8
	C273.6,153.8,273,150.7,272.3,147.7z"/>
<path class="st4" d="M314,304.5c0.2-0.2,0.3-0.3,0.5-0.5C314.3,304.2,314.1,304.3,314,304.5z"/>
<path class="st5" d="M279,309.1c0.7,0,1.3,0,1.4,0.9C279.7,310,279,310,279,309.1z"/>
<path class="st5" d="M299.3,305.9c0.3-0.5,0.6-0.4,0.9,0C299.8,306.4,299.5,306.3,299.3,305.9z"/>
<path class="st6" d="M261,314.7c-0.7,0.6-1.2,0.4-1.4-0.5C260.1,314.2,260.7,314.1,261,314.7z"/>
<path class="st6" d="M258.2,314.1c-0.6,0.1-0.9-0.2-1-0.8C257.9,313.2,258.2,313.5,258.2,314.1z"/>
</svg>
