<?xml version="1.0" encoding="UTF-8"?>
<svg id="Capa_1" data-name="Capa 1" xmlns="http://www.w3.org/2000/svg" viewBox="0 0 174.47 80.01">
  <defs>
    <style>
      .cls-1 {
        fill: #02b9ce;
        stroke-width: 0px;
      }
    </style>
  </defs>
  <path class="cls-1" d="M160.96,43.09c1.2.02,2.4.04,3.6,0,.99-.04,1.37-.06,1.51-1.14.29-2.23-.22-5.42-2.2-6.83-1.39-.99-3.43-.99-5.07-1.12-2.54-.2-5.08.18-7.41,1.22-.54.24-1.07.51-1.65.61-.89.16-1.88-.31-2.4-1.04-.67-.95-.56-2.52.17-3.37.67-.79,1.55-1.23,2.46-1.65,4.6-2.13,11.27-2.57,15.92-.31,4.07,1.98,6.09,6.15,6.46,10.51.03.38.05.76.06,1.14.08,2.93.09,5.86.04,8.79-.05,2.92-.45,5.79,1.25,8.35.44.67.71,1.38.76,2.17.09,1.69-.37,2.44-1.85,3.03-1.27.5-2.67.17-3.56-.91-.41-.49-.75-1.05-1.06-1.62-.4-.73-.72-.83-1.3-.26-6.59,6.46-21.19,4.32-21.97-6.17-.01-.15-.02-.29-.03-.44-.13-3.67,1.35-6.98,4.53-8.93,3.66-2.24,7.69-2.11,11.74-2.03h0ZM157.22,58.73c1.82-.05,3.29-.05,4.69-.65,1.09-.46,2.14-.92,2.87-1.89.77-1.02,1.23-2.13,1.14-3.48-.08-1.28.05-2.58.15-3.87.05-.62.04-.77-.56-.75-3.67.12-7.38-.43-11.01.52-1.55.41-2.8,1.08-3.23,2.8-.31,1.21-.27,2.41-.14,3.63.17,1.58,1.09,2.52,2.54,3.03,1.26.45,2.53.8,3.54.65h0Z"/>
  <path class="cls-1" d="M127.54,63.7c-3.42,0-6.84,0-10.26,0-1.36,0-2.36-.73-3.17-1.68-.55-.63-.35-1.52-.31-2.31.05-.89.66-1.52,1.13-2.18.97-1.37,2.05-2.66,3.1-3.97,1.5-1.87,3.02-3.72,4.52-5.6,1.36-1.7,2.67-3.44,4.03-5.14,1.15-1.44,2.34-2.85,3.5-4.29.83-1.03,1.65-2.08,2.46-3.13.11-.14.14-.35.21-.53-.19-.06-.37-.16-.56-.16-2.24,0-4.47,0-6.71.01-1.57.01-3.15.15-4.71.05-1.28-.08-2.59.16-3.84-.32-.87-.34-1.57-.89-2.1-1.65-.45-.65-.35-1.63.16-2.51.8-1.35,2.1-1.45,3.43-1.46,4.25-.02,8.5-.02,12.75,0,2.42,0,4.84.03,7.26.09,2.06.04,3.57,2.15,2.67,4.28-.43,1.01-1.18,1.73-1.84,2.54-1.5,1.88-2.99,3.75-4.49,5.63-1.47,1.83-2.95,3.65-4.41,5.49-2.41,3.04-4.82,6.08-7.23,9.12-.25.32-.54.61-.77.95-.12.17-.15.39-.21.59.19.06.37.15.56.16.55.02,1.11.01,1.66.01,4.49,0,8.98,0,13.48,0,1.21,0,2.24.34,2.98,1.38.55.78.69,1.95.21,2.81-.7,1.27-1.85,1.79-3.21,1.8-3.44.03-6.88.01-10.32.01h0s0,0,0,0Z"/>
  <path class="cls-1" d="M83.31,44.38c-.04-3.5-.3-5.93-.24-9.88,0-.31-.06-.45-.38-.45-.35,0-.71-.04-1.05,0-.86.08-1.55-.29-2.3-.66-1.1-.55-1.37-2.73-.28-3.74.54-.5,1.14-.72,1.85-.73.46,0,.92-.01,1.39-.02.45,0,.65-.22.64-.69-.02-2.22-.05-4.44,0-6.66.03-1.24.54-2.33,1.54-3.13.98-.78,2.09-.86,3.18-.36,1.09.5,1.69,1.4,1.71,2.64.03,2.4.07,4.81.1,7.21.01.88.03.9.9.92,1.38.03,2.77.04,4.15.09,2.28.08,3.24,2.69,1.64,4.29-1.6,1.6-4.24.89-6.24.81-.41-.02-.56.2-.56.63.06,6.75-.07,13.5.41,20.22.05.76.14,1.6.67,2.14.89.91,2.78.81,3.97.99,2.03.31,3.08,1.98,2.48,3.94-.27.87-1.1,1.3-1.94,1.5-.74.18-1.54.26-2.3.23-2-.09-4.43-.38-6.07-1.64-3.37-2.58-2.98-7.15-3.13-11.04-.08-2.01-.12-4.57-.14-6.62h0Z"/>
  <path class="cls-1" d="M102.01,45.77c0-4.46-.07-8.92.03-13.38.04-1.87,1.08-3.46,2.92-3.83,1.46-.3,3,.91,3.4,2.33.71,2.51.49,5.05.5,7.59.03,6.23.02,12.47,0,18.71,0,.9.06,1.84-.14,2.71-.23,1-.33,2.08-1.15,2.88-1.64,1.61-4.31.97-5.02-1.2-.38-1.15-.59-2.3-.58-3.53.05-4.09.02-8.18.02-12.27h0,0Z"/>
  <path class="cls-1" d="M40.61,80.01c-14.43.02-28.09-7.83-35.78-21.01C-7.21,38.35,4.48,10.58,26.38,2.5,41.04-2.91,59.48.47,69.81,12.62c.45.53.77,1.29.86,1.98.35,2.7,0,4.52-1.92,6.44-3.59,3.6-7.23,7.16-10.85,10.72-3.98,3.92-7.91,7.91-11.92,11.79-1.24,1.2-2.64,2.3-4.28,2.81-2.13.67-4.37-.03-6.14-1.28-2.72-1.92-2.8-7.26-.53-9.51,6.09-6.07,12.2-12.13,18.3-18.19.01-.01.03-.03.04-.04.87-.81.89-.89-.2-1.4-.96-.45-1.98-.79-2.99-1.14-6.18-2.13-12.85-2.34-19.04-.1-10.31,3.74-17.44,13.57-17.68,24.5-.31,14.15,10.97,26.48,25.16,27.49,6.95.49,14.07-1.8,19.41-6.27,2.56-2.14,5.15-4.41,8.67-3.14,1.6.58,2.82,1.61,3.69,2.97.47.74.6,1.75.7,2.67.69,6.43-9.45,11.54-14.31,13.66-5.31,2.32-10.79,3.42-16.16,3.42h0Z"/>
</svg>