<?xml version="1.0" encoding="utf-8"?>
<!-- Generator: Adobe Illustrator 27.4.0, SVG Export Plug-In . SVG Version: 6.00 Build 0)  -->
<svg version="1.1" xmlns="http://www.w3.org/2000/svg" xmlns:xlink="http://www.w3.org/1999/xlink" x="0px" y="0px"
	 viewBox="0 0 1500 600" style="enable-background:new 0 0 1500 600;" xml:space="preserve">
<style type="text/css">
	.st0{fill:#666666;}
	.st1{fill:#21B8CC;}
</style>
<g id="Capa_1">
	<g>
		<path class="st0" d="M1094.55,243.72c0,53.75,0,107.51,0,161.26c0,6.3-0.01,6.31-6.3,6.31c-57.49,0-114.98-0.31-172.47,0.1
			c-47.66,0.34-86.11-18.5-117.07-53.89c-22.21-25.39-35.96-54.83-39.95-88.28c-6.72-56.31,7.49-106.17,47.91-147.29
			c24.56-24.98,54.06-40.29,89.06-44.4c5.25-0.62,10.57-0.94,15.86-0.95c58.96-0.07,117.93-0.04,176.89-0.04
			c6.05,0,6.07,0,6.07,5.92C1094.55,136.21,1094.55,189.97,1094.55,243.72z M1013.9,244.05c0-27.68,0.01-55.36,0-83.04
			c0-6-0.03-6.03-5.75-6.04c-30.95-0.01-61.9-0.06-92.84,0.01c-19.17,0.04-35.59,6.92-49.26,20.35
			c-21.1,20.73-29.24,46.11-27.68,75.26c1.22,22.64,9.05,42.35,24.53,58.94c14.24,15.26,31.53,23.56,52.78,23.4
			c30.8-0.23,61.6-0.06,92.4-0.06c5.78,0,5.81-0.01,5.81-5.78C1013.9,299.41,1013.9,271.73,1013.9,244.05z"/>
		<path class="st0" d="M155.49,281.91c0.34,1.5,0.38,2.39,0.73,3.12c11.26,23.2,27.82,40.39,53.83,46.4
			c4.96,1.15,10.22,1.37,15.34,1.38c49.98,0.1,99.96,0.06,149.95,0.06c1.73,0,3.46,0,5.46,0c0.13,1.73,0.31,3.01,0.31,4.29
			c0.02,23.13-0.06,46.25,0.09,69.38c0.02,3.6-0.93,4.84-4.67,4.83c-52.49-0.1-104.98,0.33-157.47-0.2
			c-45.77-0.46-82.29-20.71-111.67-54.91c-21.16-24.63-34.57-53.01-38.62-85.18c-8.63-68.65,13.2-125.25,69.07-167.36
			c21.42-16.15,46-24.67,72.82-26.42c7.05-0.46,14.12-0.71,21.18-0.72c47.77-0.06,95.54-0.03,143.31-0.03c1.75,0,3.5,0,5.97,0
			c0,2.04,0,3.73,0,5.43c0,22.39,0,44.78,0,67.17c0,5.8-0.01,5.82-5.74,5.82c-49.69,0.01-99.37,0-149.06,0
			c-15.13,0-29.11,3.74-41.45,12.75c-12.27,8.96-21.55,20.39-28.13,34.04c-0.48,1-0.68,2.14-1.18,3.78c75.27,0,150.1,0,225.24,0
			c0,25.56,0,50.65,0,76.38C305.75,281.91,230.83,281.91,155.49,281.91z"/>
		<path class="st0" d="M737.77,314.29c0,30.49-0.11,60.99,0.11,91.48c0.03,4.64-1.43,5.65-5.75,5.62c-23.29-0.18-46.59-0.18-69.89,0
			c-4.17,0.03-5.5-0.99-5.49-5.36c0.15-56.42-0.35-112.84,0.27-169.25c0.35-31.5-14.04-53.79-40.12-69.17
			c-37.86-22.33-92.57-15.42-121.47,22.55c-9.42,12.37-14.17,26.38-14.2,41.85c-0.09,57.74-0.04,115.49-0.04,173.23
			c0,6.05-0.01,6.07-5.98,6.07c-23.3,0.01-46.59-0.08-69.89,0.08c-4.08,0.03-5.15-1.22-5.14-5.26
			c0.13-59.22-0.31-118.44,0.23-177.65c0.34-37.15,14.23-69.33,39.6-96.48c25.81-27.62,56.98-45.8,94.45-52.34
			c68.38-11.94,136.41,9.65,179.61,72.51c16.2,23.57,23.66,50.04,23.68,78.6C737.78,258.61,737.77,286.45,737.77,314.29z"/>
		<path class="st0" d="M1339.92,411.07c-26.1,0-52.21,0.56-78.28-0.14c-32.66-0.88-61.42-12.8-86.25-33.88
			c-31.91-27.09-52.57-60.98-59.04-102.56c-10.86-69.73,14.06-136.4,78.19-177.18c19.19-12.21,40.52-18.77,63.29-19.98
			c12.49-0.66,25.03-0.73,37.55-0.76c42.47-0.09,84.93,0.03,127.4-0.13c4.32-0.02,5.45,1.22,5.41,5.44
			c-0.19,22.39-0.09,44.78-0.09,67.17c0,5.88-0.02,5.9-5.82,5.9c-47.92,0.01-95.84,0-143.76,0c-42.23,0-74.34,26.83-81.65,68.73
			c-5.64,32.33,0.24,61.82,23.41,86.41c13.85,14.7,30.72,22.84,51.3,22.79c50.28-0.1,100.56,0.02,150.84-0.13
			c4.33-0.01,5.85,0.87,5.8,5.51c-0.24,22.54-0.21,45.08-0.02,67.62c0.04,4.28-1.31,5.51-5.54,5.48
			c-27.57-0.16-55.15-0.08-82.72-0.08C1339.92,411.22,1339.92,411.14,1339.92,411.07z"/>
		<path class="st0" d="M1110.75,472.9c12.11,0,23.75-0.18,35.38,0.1c4.33,0.1,5.94-0.89,5.76-5.56
			c-0.38-10.15-0.12-20.32-0.12-30.48c0-1.58,0-3.17,0-5c6.92,0,13.32,0,20.25,0c0,13.47,0,26.79,0,40.81c13.84,0,27.17,0,40.74,0
			c0,7.09,0,13.48,0,20.28c-13.47,0-26.68,0-40.46,0c0,13.69,0,26.99,0,40.74c-6.42,0-12.29,0.15-18.13-0.17
			c-0.86-0.05-2.26-2.32-2.28-3.59c-0.19-10.45-0.11-20.91-0.11-31.37c0-1.59,0-3.19,0-5.55c-13.89,0-27.35,0-41.03,0
			C1110.75,486.05,1110.75,479.79,1110.75,472.9z"/>
		<path class="st0" d="M377.25,509.73c-2.96,0-5.56,0-8.72,0c0-13.18,0-26.18,0-39.19c-0.38-0.14-0.77-0.28-1.15-0.42
			c-5.72,8.38-11.43,16.76-17.38,25.48c-5.84-8.6-11.43-16.84-17.03-25.07c-0.34,0.08-0.68,0.16-1.01,0.24c0,12.78,0,25.56,0,38.74
			c-3.33,0-6.03,0-9.14,0c0-18.15,0-36.46,0-54.81c6.9-2.13,9.27-1.34,12.99,4.38c4.62,7.11,9.24,14.22,14.33,22.04
			c3.49-5.32,6.54-9.95,9.58-14.59c1.37-2.09,3.09-4.04,4.03-6.32c2.58-6.26,7.24-7.36,13.51-5.81
			C377.25,472.63,377.25,490.94,377.25,509.73z"/>
		<path class="st0" d="M925.82,491.85c0-12.44,0-24.88,0-37.6c3.16,0,5.87,0,8.86,0c0,18.51,0,36.82,0,55.21
			c-4.55,1.18-7.76,0.35-10.7-3.65c-8.03-10.9-16.54-21.45-24.88-32.12c-0.87-1.11-1.89-2.09-3.75-4.12c0,14.07,0,26.89,0,40.02
			c-3.3,0-6.01,0-9.04,0c0-18.39,0-36.7,0-55.25c4.94-0.98,8.74-0.53,12.13,4.19c7.56,10.51,15.8,20.53,23.77,30.73
			c0.79,1.01,1.68,1.94,2.53,2.9C925.1,492.06,925.46,491.96,925.82,491.85z"/>
		<path class="st0" d="M620.03,454.4c5.36-1.32,9.04-0.1,12.32,4.43c7.51,10.36,15.63,20.29,23.51,30.38
			c0.8,1.02,1.68,1.98,3.39,3.97c0-13.62,0-26.11,0-38.9c3.37,0,6.08,0,9.1,0c0,18.42,0,36.73,0,55.19
			c-4.43,1.1-7.68,0.41-10.63-3.6c-8.04-10.89-16.54-21.45-24.88-32.12c-0.88-1.12-1.9-2.13-3.74-4.17c0,14.03,0,26.84,0,39.99
			c-3.31,0-6.02,0-9.07,0C620.03,491.26,620.03,472.95,620.03,454.4z"/>
		<path class="st0" d="M1306.95,505.26c1.94-1.47,2.81-2.13,3.64-2.75c2.59,1.04,0.47,6.85-2.92,7.25c-2.16,0.26-4.6-1-6.75-1.96
			c-0.9-0.4-1.36-1.78-2.05-2.75c-6.65,7.01-18.73,7.61-20.59-0.48c-1.02,1.14-1.95,3.17-3.41,3.66
			c-11.29,3.78-22.65,4.62-33.01-2.42c-9.6-6.52-12.97-19.26-9.15-31.71c3.28-10.69,12.87-18.08,24.36-18.49
			c3.36-0.12,6.77,0.19,10.12,0.58c9.22,1.06,11.57,4.11,10.8,14.78c-1.7-0.99-3.17-1.58-4.29-2.57c-1.97-1.74-3.51-4.03-5.62-5.55
			c-8.41-6.03-17.8-3.62-21.79,5.91c-4,9.57-4.42,19.53-0.28,29.18c4.06,9.45,14.62,11.85,22.71,5.4c2.04-1.63,3.53-3.93,5.48-5.7
			c1.23-1.11,2.85-1.8,5.16-3.21c-0.4,3.05-0.63,4.74-1.01,7.67c4.28-6.97,10.78-8.65,16.73-11.04c5.06-2.03,2.89-5.9,2.53-8.95
			c-0.19-1.57-2.47-3.94-4-4.1c-3.34-0.34-5.71,1.62-6.43,5.29c-0.75,3.82-2.56,4.99-8.95,5.89c0.75-2.33,0.99-4.51,2.06-6.16
			c3.82-5.89,13.01-9.14,19.93-7.43c3.39,0.84,5.58,2.78,5.78,6.31c0.3,5.57,0.34,11.16,0.52,16.74
			C1306.58,500.49,1306.76,502.32,1306.95,505.26z M1298.02,492.13c-3.34,2.32-6.05,3.48-7.61,5.52c-1.27,1.67-1.51,4.41-1.46,6.65
			c0.02,0.69,3.1,2.23,3.78,1.8c2.03-1.29,4.23-3.09,5.1-5.2C1298.69,498.8,1298.02,496.08,1298.02,492.13z"/>
		<path class="st0" d="M1410.89,505.78c-4.17,6.21-7.44,6.06-13.2-0.6c-6.99,6.13-13.33,6.93-19.57,2.2
			c-0.47,0.29-1.06,0.63-1.64,0.99c-3.33,2.13-6.92,2.75-10.47,0.94c-3.83-1.95-4.18-5.79-4.2-9.55c-0.03-5.45,0.07-10.89,0.1-16.34
			c0-0.43-0.14-0.86-0.26-1.57c-1.29-0.32-2.65-0.66-4.88-1.21c4.5-4.26,8.62-8.17,13.52-12.81c0.19,3.61,0.34,6.3,0.5,9.36
			c2.33,0.11,4.61,0.21,6.86,0.31c0.59,3.25,0.59,3.25-7.19,4.19c0,6.92-0.09,13.93,0.11,20.93c0.03,0.92,1.64,2.62,2.35,2.53
			c1.59-0.18,4.04-0.92,4.43-2.04c2.45-7.01,8.8-8.66,14.52-11.18c5.28-2.33,7.02-6.62,4.24-11.77c-0.61-1.13-2.88-2.53-3.68-2.18
			c-2.21,0.97-5.46,2.55-5.76,4.32c-0.89,5.16-4.3,6.05-9.47,7.17c0.83-2.64,1.06-4.81,2.11-6.44c3.81-5.91,13-9.16,19.92-7.43
			c3.39,0.84,5.58,2.79,5.78,6.33c0.32,5.72,0.38,11.46,0.58,17.19c0.06,1.69,0.21,3.38,0.38,5.99c2.36-2.16,5.69-1.94,4.88-5.62
			c1.09,0.1,2.6-0.21,3.18,0.38c1.72,1.77,2.8,4.19,4.63,5.81c2.68,2.38,5.95,3.36,9.34,1.27c3.53-2.17,3.44-6.26-0.32-7.98
			c-2.78-1.27-5.87-1.86-8.81-2.8c-5.11-1.65-7.65-5.02-7.65-10.04c0-5.18,2.71-9.47,7.87-10.25c4.21-0.64,9.07-0.66,12.85,0.92
			c2.14,0.9,2.7,5.57,3.98,8.55c-0.62,0.43-1.24,0.87-1.86,1.3c-1.07-0.93-2.39-1.68-3.15-2.82c-1.93-2.89-3.89-6.06-7.77-5.54
			c-2.08,0.28-3.92,2.28-5.87,3.5c1.32,1.84,2.29,4.23,4.07,5.38c2,1.3,4.76,1.39,7.13,2.19c6.44,2.18,8.99,5.79,8.44,11.7
			c-0.51,5.43-4.39,8.98-10.75,9.82C1419.67,511.74,1413.35,509.64,1410.89,505.78z M1396.98,492.17c-3.29,2.3-6,3.47-7.55,5.51
			c-1.27,1.67-1.52,4.39-1.47,6.63c0.01,0.68,3,2.21,3.77,1.79c2-1.1,4.29-2.77,5.05-4.75
			C1397.65,499.1,1396.98,496.26,1396.98,492.17z"/>
		<path class="st0" d="M270.53,491.06c0,6.22,0,12.21,0,18.53c-3.07,0-5.78,0-8.82,0c0-18.35,0-36.65,0-56.22
			c11.18,0.67,22.34,0.65,33.26,2.23c7.98,1.16,12.1,7.38,12.66,15.44c0.48,6.84-3.27,12.95-9.98,16.27
			c-1.03,0.51-2.04,1.06-3.65,1.89c4.87,6.81,9.57,13.39,14.52,20.32c-6.21,1.01-11.28,1.09-14.3-5.07
			c-1.15-2.34-3.47-4.12-4.55-6.48C285.75,489.46,278.79,489.52,270.53,491.06z M280.72,482.15c2.79,0,5.6,0.23,8.35-0.05
			c5.03-0.52,8.82-4.4,9.28-9.1c0.46-4.66-2.6-8.91-7.9-10.05c-3.24-0.7-6.67-0.66-10.02-0.69c-9.9-0.08-9.9-0.03-9.9,9.95
			C270.54,482.25,270.54,482.25,280.72,482.15z"/>
		<path class="st0" d="M246.94,481.94c-0.07,16.33-12.85,28.88-29.39,28.85c-16.66-0.03-29.08-12.56-29.08-29.07
			c0-14.95,11.04-28.38,29.64-28.53C234.77,453.05,247,465.66,246.94,481.94z M197.95,481.72c-0.02,11.93,8.43,20.8,19.82,20.8
			c11.3,0,19.71-8.68,19.72-20.36c0.02-11.94-8.43-20.8-19.82-20.8C206.37,461.35,197.96,470.04,197.95,481.72z"/>
		<path class="st0" d="M604.36,481.86c-0.02,16.33-12.72,29.18-29.31,28.84c-18.43-0.38-29.26-13.55-29.19-28.9
			c0.07-14.84,10.87-28.38,29.59-28.62C592.06,452.97,604.38,465.58,604.36,481.86z M555.37,481.65
			c-0.03,11.96,8.37,20.84,19.75,20.87c11.31,0.03,19.77-8.63,19.8-20.29c0.03-11.97-8.36-20.84-19.75-20.88
			C563.86,461.32,555.4,469.99,555.37,481.65z"/>
		<path class="st0" d="M808.22,501.7c0,3.03,0,5.34,0,7.93c-13.85,0-27.46,0-41.37,0c0-18.49,0-36.8,0-55.66c5.9,0,11.61,0,17.31,0
			c6.78,0,13.57,0.15,20.34-0.06c3.41-0.1,3.36,1.86,3.4,4.22c0.04,2.49-0.23,4.18-3.51,4.12c-9.27-0.18-18.55-0.06-28.24-0.06
			c0,5.18,0,10.07,0,15.48c9.11,0,18.16,0,27.59,0c0,2.91,0,5.32,0,8.38c-7.48,0-14.95,0.25-22.4-0.09c-4.34-0.2-5.9,0.85-5.73,5.52
			c0.36,10.21,0.09,10.22,10.21,10.22C793.14,501.7,800.48,501.7,808.22,501.7z"/>
		<path class="st0" d="M390.9,509.54c5.54-12.53,10.87-24.59,16.21-36.65c2.44-5.5,5.02-10.95,7.26-16.53
			c1.24-3.1,3.71-2.63,5.86-2.29c1.72,0.28,4.19,1.13,4.78,2.44c7.81,17.09,15.35,34.31,22.94,51.51c0.16,0.36,0.12,0.82,0.17,1.22
			c-7.7,1.92-8.45,1.48-11.46-5.63c-3.97-9.39-1.27-7.65-11.46-7.81c-5.3-0.09-10.61,0.13-15.9-0.08c-2.67-0.1-4.12,0.89-4.91,3.31
			c-0.46,1.39-1.09,2.72-1.66,4.08C399.64,510.46,399.64,510.46,390.9,509.54z M409.41,487.18c7.1,0,13.42,0,20.5,0
			c-3.45-7.64-6.62-14.68-9.8-21.72c-0.39,0.06-0.79,0.12-1.18,0.17C415.82,472.66,412.71,479.7,409.41,487.18z"/>
		<path class="st0" d="M1095.31,509.35c-8.95,1.48-8.91,1.46-12.01-5.96c-3.81-9.13-1.32-7.45-11.15-7.6
			c-5.45-0.09-10.91-0.24-16.33,0.13c-1.58,0.11-3.29,1.69-4.5,2.99c-0.94,1.01-1.19,2.64-1.76,4c-3.08,7.35-3.09,7.35-11.47,6.77
			c0.26-0.96,0.38-1.9,0.75-2.73c7.28-16.53,14.68-33,21.81-49.59c1.34-3.11,3.28-3.4,6.13-3.48c2.92-0.09,4.4,0.79,5.6,3.57
			C1079.82,474.67,1087.51,491.79,1095.31,509.35z M1076.65,487.3c-3.4-7.62-6.57-14.71-10.33-23.12
			c-3.74,8.42-6.91,15.53-10.28,23.12C1063.26,487.3,1069.53,487.3,1076.65,487.3z"/>
		<path class="st0" d="M145.02,487.53c0,7.26,0,14.43,0,21.99c-3.06,0-5.77,0-8.88,0c0-18.17,0-36.47,0-55.31
			c1.25-0.08,2.66-0.24,4.06-0.24c10.9-0.02,21.81,0.12,32.7-0.09c3.44-0.07,4.26,1.2,4.23,4.34c-0.02,3-0.91,4.14-4.07,4.07
			c-8.1-0.19-16.2,0.02-24.31-0.1c-2.81-0.04-3.82,0.86-3.91,3.77c-0.39,12.7-0.48,12.7,12.18,12.7c4.27,0,8.56,0.2,12.81-0.06
			c3.54-0.21,3.71,1.74,3.72,4.38c0.01,2.59-0.45,4.09-3.63,4.02c-7.8-0.17-15.61,0-23.42,0.04
			C146.24,487.04,145.97,487.21,145.02,487.53z"/>
		<path class="st0" d="M505.81,461.69c-1.88,2.13-3.6,4.07-5.27,5.94c-15.89-8.14-24.99-7.64-31.63,1.55
			c-5.86,8.11-4.99,20.71,1.91,27.71c7.7,7.8,17.51,7.47,29.95-1.35c1.67,1.75,3.42,3.58,5.15,5.39
			c-9.49,11.72-28.99,12.98-40.73,2.89c-11.79-10.14-12.9-29.58-2.36-41.34C473.42,450.66,493.23,450.09,505.81,461.69z"/>
		<path class="st0" d="M866.29,495.67c1.72,1.62,3.5,3.29,5.22,4.91c-9.18,11.98-29.07,13.36-40.86,3.31
			c-12.07-10.28-12.99-30.47-1.93-42c11-11.46,31.44-11.62,42.32-0.07c-1.68,1.92-3.39,3.87-5.33,6.08
			c-6.26-4.52-12.78-8.5-20.48-5.77c-3.95,1.4-8.06,3.93-10.72,7.1c-6.28,7.51-5.29,20.14,1.31,27.27
			C843.33,504.6,852.32,504.41,866.29,495.67z"/>
		<path class="st0" d="M1022.47,467.67c-15.19-8.23-24.58-7.79-31.37,1.25c-6,7.98-5.33,20.57,1.47,27.74
			c7.64,8.05,17.49,7.79,30.41-1.24c1.5,1.76,3.08,3.62,4.68,5.49c-6.99,10.82-26.71,12.97-38.83,4.21
			c-12.96-9.38-15.13-29.45-4.53-42.05c10.39-12.36,30.93-13.18,43.44-1.4C1025.97,463.68,1024.19,465.71,1022.47,467.67z"/>
		<path class="st0" d="M754.07,462.31c-4.77,0-9.31,0.15-13.84-0.05c-3.32-0.14-4.34,1.21-4.31,4.4
			c0.12,12.65,0.05,25.31,0.05,37.96c0,1.58,0,3.16,0,5.01c-3.24,0-5.95,0-9.24,0c0-3.2,0-6.25,0-9.29
			c0-11.33-0.09-22.66,0.06-33.99c0.04-3.05-0.91-4.23-4.01-4.09c-4.38,0.19-8.78,0.05-13.51,0.05c0-2.86,0-5.27,0-8.02
			c14.84,0,29.64,0,44.8,0C754.07,456.69,754.07,459.1,754.07,462.31z"/>
		<path class="st0" d="M962.05,509.73c-2.96,0-5.56,0-8.49,0c0-18.48,0-36.79,0-55.43c2.74,0,5.44,0,8.49,0
			C962.05,472.64,962.05,490.94,962.05,509.73z"/>
		<path class="st0" d="M530.25,509.68c-2.79,0-5.39,0-8.38,0c0-18.32,0-36.62,0-55.32c2.56,0,5.26,0,8.38,0
			C530.25,472.52,530.25,490.82,530.25,509.68z"/>
		<path class="st0" d="M1312.91,509.2c5.41-6.52,5.68-6.53,5.31-13.74c-0.25-4.88,2.42-10.92-4.9-13.8
			c4.34-3.16,8.23-5.98,12.84-9.33c0,3.32,0,5.49,0,8.36c1.73-1.85,2.75-3.88,4.27-4.36c2.06-0.64,5.11-0.91,6.56,0.2
			c1.18,0.91,1.4,4.37,0.68,6.16c-1.08,2.7-3.82,2.36-6.01,0.92c-2.43-1.6-4.39-0.85-4.52,1.64c-0.33,6.4-0.18,12.84,0.13,19.25
			c0.04,0.81,2.11,1.61,3.32,2.26c0.98,0.53,2.09,0.82,3.15,1.21c-0.08,0.41-0.17,0.81-0.25,1.22
			C1326.77,509.2,1320.03,509.2,1312.91,509.2z"/>
		<path class="st0" d="M1360.91,509.22c-1.02,0.49-1.38,0.81-1.75,0.81c-6.16,0.03-12.33,0.02-19.93,0.02
			c1.67-1.57,2.39-2.84,3.2-2.9c3.22-0.23,3.8-2.3,3.84-4.84c0.08-5.59-0.08-11.18,0.18-16.76c0.2-4.32-3.64-4.08-6.43-5.67
			c5.05-2.41,9.56-4.55,14.57-6.95c0,9.66,0.1,18.76-0.05,27.85c-0.06,3.64-0.07,6.86,4.81,6.98
			C1359.73,507.78,1360.11,508.46,1360.91,509.22z"/>
		<path class="st0" d="M1149.81,469.77c-4.28,1.5-7.24,0.74-9.66-1.84c-3.51-3.73-6.95-7.53-10.36-11.34
			c-2.43-2.71-4.77-5.49-7.19-8.29c2.95-3.53,7.9-4.03,11.63-0.4c4.92,4.78,9.89,9.55,14.31,14.77
			C1149.85,464.24,1149.42,467.28,1149.81,469.77z"/>
		<path class="st0" d="M1175.07,494.39c2.8,1.11,6.16,1.59,8.29,3.46c4.17,3.66,7.65,8.1,11.44,12.19c2.09,2.25,4.23,4.46,6.38,6.72
			c-2.33,3.91-7.91,4.66-11.73,1.05c-4.99-4.72-9.96-9.52-14.34-14.78c-1.37-1.64-0.79-4.89-1.11-7.41
			C1174.36,495.21,1174.72,494.8,1175.07,494.39z"/>
		<path class="st0" d="M1127.63,522.35c-4.24-4.04-4.31-8.56-0.2-12.66c4.55-4.54,8.95-9.29,13.87-13.4
			c1.7-1.42,4.79-1.19,7.27-1.72c1.78,4.07,0.75,7.02-1.59,9.46c-3.15,3.28-6.56,6.29-9.87,9.41
			C1134.03,516.34,1130.95,519.23,1127.63,522.35z"/>
		<path class="st0" d="M1196.1,443.29c4.07,4.17,4.05,9.06,0.11,12.88c-4.51,4.38-8.79,9.03-13.67,12.95
			c-1.84,1.47-5.08,1.2-7.72,1.74c-1.62-4.54,0.05-7.54,2.66-10.05C1183.57,454.93,1189.8,449.2,1196.1,443.29z"/>
		<path class="st0" d="M1203.8,452.02c3.05,2.95,3.5,6.33,1.61,9.99c-3.49,6.72-10.51,9.51-21.21,7.73
			C1191.05,463.55,1197.24,457.95,1203.8,452.02z"/>
		<path class="st0" d="M1175.44,505.63c2.85,3.03,5.75,6.02,8.53,9.11c2.84,3.16,5.58,6.41,8.57,9.86c-2.06,3.38-5.84,3.54-8.61,1.9
			c-3.42-2.02-6.92-5.02-8.65-8.46c-1.63-3.25-1.02-7.63-1.39-11.51C1174.4,506.23,1174.92,505.93,1175.44,505.63z"/>
		<path class="st0" d="M1119.86,513.68c-3.21-2.89-3.3-6.45-1.7-9.95c2.82-6.2,10.64-9.27,21.57-7.99
			C1132.65,502.14,1126.37,507.8,1119.86,513.68z"/>
		<path class="st0" d="M1148.59,460.6c-6.13-6.82-11.72-13.04-17.55-19.52c2.58-3.3,6.14-3.28,9.59-1.83
			C1147.35,442.07,1150.83,450.82,1148.59,460.6z"/>
		<path class="st0" d="M1186.59,437.88c4.23,3.51,4.44,7.28,0.37,11.14c-3.91,3.71-8.07,7.16-13.35,10.59
			c0.69-4.38,0.28-9.42,2.39-12.96C1178.16,443.02,1182.8,440.87,1186.59,437.88z"/>
		<path class="st0" d="M1149.06,505.73c0.28,2.2,0.46,4.09,0.76,5.95c0.69,4.24-0.75,7.43-4.35,9.81c-2.2,1.45-4.44,2.97-6.22,4.88
			c-2.7,2.87-4.02,0.89-4.68-1.3c-1.11-3.69,0.12-6.95,3.09-9.49C1141.33,512.41,1144.99,509.24,1149.06,505.73z"/>
		<path class="st0" d="M1116.61,458.31c3.8-4.48,7.68-4.55,11.96,0c3.48,3.69,6.6,7.72,10.13,11.89c-4.56-0.19-9.36,2.64-13.28-1.21
			C1122.21,465.84,1119.64,462.04,1116.61,458.31z"/>
		<path class="st0" d="M1207.01,507.34c-2.93,4.19-7.7,4.29-11.75-0.01c-3.49-3.72-6.73-7.68-10.03-11.47
			C1196.19,493.23,1197.31,493.82,1207.01,507.34z"/>
		<path class="st0" d="M572.18,447.66c2.81-3.63,5.37-6.95,8.17-10.57c2.43,1.03,4.77,2.03,8.01,3.41
			C582.95,443.76,579.76,449.49,572.18,447.66z"/>
		<path class="st0" d="M1345.74,461.13c-0.24-3.37,1.6-5.16,4.65-5.21c2.91-0.05,5.13,1.49,5.2,4.78c0.07,3.2-1.4,5.64-4.74,5.78
			C1347.51,466.61,1345.94,464.33,1345.74,461.13z"/>
		<path class="st0" d="M785.46,447.28c1.07-1.45,2.09-2.87,3.15-4.25c4.35-5.7,4.36-5.7,10.72-1.99
			C795.67,446.85,790.22,449.38,785.46,447.28z"/>
	</g>
</g>
<g id="Capa_2">
</g>
</svg>
