<?xml version="1.0" encoding="UTF-8"?>
<svg id="Capa_2" data-name="Capa 2" xmlns="http://www.w3.org/2000/svg" viewBox="0 0 1556.99 743.67">
  <defs>
    <style>
      .cls-1 {
        fill: #fff;
        stroke-width: 0px;
      }
    </style>
  </defs>
  <g id="Capa_1-2" data-name="Capa 1-2">
    <path class="cls-1" d="m375.55,743.67c-133.39.15-259.78-72.78-330.87-195.29C-66.67,356.45,41.39,98.38,243.99,23.22c135.56-50.29,306.03-18.85,401.63,94.06,4.17,4.93,7.13,11.97,7.95,18.39,3.21,25.1-.05,41.96-17.76,59.84-33.19,33.5-66.86,66.51-100.38,99.68-36.81,36.44-73.11,73.48-110.19,109.61-11.44,11.14-24.38,21.35-39.61,26.15-19.66,6.2-40.39-.29-56.74-11.89-25.11-17.82-25.88-67.44-4.94-88.43,56.31-56.44,112.78-112.73,169.2-169.07.13-.13.26-.25.4-.37,8.07-7.49,8.24-8.31-1.87-13.03-8.92-4.16-18.33-7.32-27.65-10.55-57.1-19.78-118.85-21.78-176.03-.92-95.35,34.79-161.29,126.15-163.54,227.73-2.91,131.49,101.47,246.18,232.63,255.56,64.32,4.6,130.12-16.78,179.45-58.31,23.65-19.91,47.6-41.02,80.21-29.18,14.77,5.36,26.08,14.99,34.09,27.59,4.38,6.89,5.58,16.32,6.49,24.78,6.41,59.78-87.36,107.27-132.3,126.98-49.13,21.55-99.79,31.75-149.48,31.8v.03Z"/>
    <g>
      <path class="cls-1" d="m826.73,546.69c-57.8,0-79.55-34.34-79.55-88.14v-142.51c0-3.43-1.72-5.15-5.15-5.15h-20.6c-18.89,0-25.75-11.45-25.75-25.75s6.87-25.75,25.75-25.75h20.6c3.43,0,5.15-1.14,5.15-5.15v-56.09c0-18.89,14.31-25.75,28.62-25.75s28.62,6.87,28.62,25.75v56.09c0,4.01,1.14,5.15,5.15,5.15h26.9c18.89,0,25.18,11.45,25.18,25.75s-6.3,25.75-25.18,25.75h-26.9c-4.01,0-5.15,1.72-5.15,5.15v144.79c0,19.46,10.87,31.48,32.62,31.48,14.31,0,24.61,10.87,24.61,26.33,0,12.59-7.44,28.04-34.91,28.04h-.01Z"/>
      <path class="cls-1" d="m946.34,213.61c-20.6,0-34.91-14.88-34.91-34.91s14.31-34.91,34.91-34.91,34.91,14.31,34.91,34.91-14.88,34.91-34.91,34.91Zm28.62,307.33c0,18.89-14.31,25.75-28.62,25.75s-28.62-6.87-28.62-25.75v-239.23c0-18.89,14.31-25.75,28.62-25.75s28.62,6.87,28.62,25.75v239.23Z"/>
      <path class="cls-1" d="m1179.26,318.91s1.14-1.72,1.14-2.86c0-3.43-4.58-3.43-4.58-3.43h-103.02c-18.89,0-25.75-11.45-25.75-26.9s6.87-27.47,25.75-27.47h160.25c19.46,0,27.47,14.31,27.47,29.19,0,8.01-2.29,17.74-10.3,28.62l-127.05,168.26s-1.14,1.72-1.14,2.86c0,2.86,4.58,2.86,4.58,2.86h116.18c18.89,0,25.75,12.02,25.75,27.47s-6.87,26.9-25.75,26.9h-173.41c-19.46,0-28.04-14.31-28.04-29.19,0-8.01,2.86-16.6,7.44-22.89l130.49-173.41h0Z"/>
      <path class="cls-1" d="m1475.71,518.08c-1.14-2.29-1.72-4.01-3.43-4.01s-2.29,1.14-3.43,2.29c-17.74,20.6-45.21,30.33-78.41,30.33-69.82,0-91.57-43.5-91.57-82.99,0-72.11,60.09-89.28,117.32-89.28h45.79c3.43,0,5.15-1.14,5.15-5.15v-10.3c0-34.91-16.02-48.65-53.22-48.65-30.33,0-44.07,8.01-60.09,19.46-4.01,2.86-8.58,4.01-12.59,4.01-13.74,0-28.04-16.02-28.04-29.76,0-8.01,4.01-14.88,12.02-21.18,26.33-21.18,58.95-26.9,89.85-26.9,91.57,0,110.46,46.93,110.46,117.9v105.31c0,9.16,1.72,13.74,10.87,13.74,13.74,0,20.6,10.3,20.6,25.18,0,18.31-8.01,28.62-36.06,28.62-24.61,0-37.2-11.45-45.21-28.62h0Zm-7.44-72.68v-18.31c0-4.01-1.72-5.15-5.15-5.15h-43.5c-32.05,0-61.81,4.58-61.81,36.06,0,23.46,14.31,37.2,48.65,37.2,43.5,0,61.81-30.33,61.81-49.79h0Z"/>
    </g>
  </g>
</svg>