<?xml version="1.0" encoding="utf-8"?>
<!-- Generator: Adobe Illustrator 27.4.0, SVG Export Plug-In . SVG Version: 6.00 Build 0)  -->
<svg version="1.1" xmlns="http://www.w3.org/2000/svg" xmlns:xlink="http://www.w3.org/1999/xlink" x="0px" y="0px"
	 viewBox="0 0 1500 960" style="enable-background:new 0 0 1500 960;" xml:space="preserve">
<style type="text/css">
	.st0{fill:#666666;}
	.st1{fill:#21B8CC;}
</style>
<g id="Capa_1">
	<path class="st0" d="M947.02,845.6c24.46-59.44,47.84-116.39,71.37-173.28c4.74-11.47,10.36-22.58,14.97-34.1
		c2.11-5.29,5.24-6.56,10.51-6.5c21.72,0.25,43.45,0.34,65.16-0.02c6.45-0.11,8.68,1.54,8.66,8.34
		c-0.21,88.83-0.23,177.66-0.02,266.49c0.02,7.6-3.09,9.05-9.73,8.87c-13.18-0.37-26.42-0.74-39.55,0.12
		c-9.16,0.6-10.73-2.74-10.69-11.14c0.33-67.88,0.17-135.76,0.08-203.65c0-2.51,1.15-5.26-1.92-8.97c-4.91,10.75-9.8,20.63-14,30.8
		c-19.61,47.43-39.01,94.94-58.54,142.4c-6.03,14.67-12.84,29.05-18.02,44.01c-1.9,5.48-4.37,6.5-8.98,6.34
		c-0.39-0.01-0.78-0.01-1.16,0c-38.73,1.26-38.42,1.14-55.5-43.69c-17.86-46.9-37.67-93.01-57.48-139.13
		c-5.41-12.59-10.4-25.37-16.86-37.71c0,69.31-0.21,138.63,0.23,207.94c0.06,9.9-1.75,14.36-12.53,12.72
		c-10.19-1.55-23.51,4.37-30.1-2.51c-6.01-6.27-1.71-19.24-1.73-29.24c-0.13-79.91,0.07-159.82-0.29-239.72
		c-0.04-9.18,1.53-12.86,11.73-12.4c19.74,0.88,39.56,0.35,59.34,0.18c4.54-0.04,8,0.25,9.96,5.39
		c18.24,47.97,38.51,95.12,58.49,142.38C929.35,800.59,937.54,821.97,947.02,845.6z"/>
	<path class="st0" d="M317.41,835.23c0,18.24-0.25,36.48,0.13,54.71c0.14,6.74-1.87,9.9-8.65,12.23
		c-36.26,12.46-73.36,20.01-111.72,17.98c-53.29-2.82-109.38-33.34-132.78-87.8c-7.95-18.51-10.91-37.92-11.03-56.45
		c-0.22-33.95,9.3-65.9,32.44-93.24c17.09-20.2,38.01-33.7,61.83-42.67c33-12.43,67.39-12.97,102.29-8.81
		c16.26,1.94,31.76,6.64,47.78,9.08c6.07,0.93,7.27,2.77,4.52,8.03c-1.2,2.3-1.68,4.96-2.56,7.43
		c-7.24,20.48-12.83,22.91-32.44,12.95c-7.59-3.85-15.95-3-23.51-3.68c-27.02-2.41-54.23-2.05-77.89,14.68
		c-22.53,15.94-36.51,37.48-41.49,64.7c-4.33,23.67-4.45,47.68,1.41,70.76c9.71,38.25,40.46,66.2,82.55,70.52
		c15.31,1.57,30.01,0.3,44.72-3.05c4.25-0.97,6.54-3.63,6.4-9.11c-0.52-20.17-0.48-40.36-0.06-60.53c0.15-7.02-2.71-8.45-8.91-8.32
		c-14.74,0.32-29.49-0.07-44.23,0.19c-5.25,0.09-7.3-1.09-7.57-7.02c-1.2-26.46-1.44-26.45,25.09-26.45
		c27.55,0,55.12,0.5,82.65-0.27c9.73-0.27,11.52,3.02,11.2,11.76C316.93,800.29,317.38,817.77,317.41,835.23z"/>
	<path class="st0" d="M658.87,915.31c-21.06,0-40.81-0.23-60.54,0.1c-9.96,0.16-10.36-8.84-12.4-14.01
		c-8.31-21.02-16.78-41.95-25.7-62.73c-2.01-4.68-3.72-5.76-7.92-5.75c-33.37,0.05-66.75,0.18-100.12-0.1
		c-6.24-0.05-8.92,3.17-10.85,8.02c-8.96,22.42-17.76,44.91-26.93,67.25c-0.93,2.27-0.66,6.49-3.84,6.6
		c-13.15,0.44-26.33,0.68-39.46,0.11c-3.65-0.16-1.7-4.02-1.03-6.6c2.58-10.02,7.88-18.85,11.82-28.27
		c16.44-39.37,32.47-78.9,48.62-118.4c16.81-41.11,33.58-82.24,50.32-123.37c1.72-4.22,3.89-6.63,9.17-6.48
		c15.12,0.42,30.27,0.34,45.4,0.07c4.94-0.09,6.94,1.36,8.91,6.28c17.3,43.18,35,86.2,52.82,129.17
		c13.6,32.79,27.6,65.4,41.31,98.14C645.11,881.28,651.53,897.34,658.87,915.31z M503.28,700.96c-1.77,0.82-2.79,0.96-3.04,1.46
		c-14.29,29.26-25.32,59.9-37.9,89.88c-2.81,6.7,0.96,7.6,6.64,7.53c17.83-0.22,35.66-0.03,53.5-0.1
		c6.56-0.03,15.86,2.26,19.06-1.11c4.95-5.23-3.27-11.68-5.49-17.51C525.8,754.17,514.34,727.68,503.28,700.96z"/>
	<path class="st0" d="M1306.51,832.93c-15.91,0-31.81,0.17-47.71-0.08c-6.49-0.1-9.87,1.55-12.57,8.48
		c-8.93,22.86-19.3,45.16-28.83,67.79c-1.41,3.36-1.83,6.38-6.59,6.27c-11.24-0.26-22.5-0.11-33.75-0.11c-5.04,0-5.87-2.15-3.97-6.6
		c12.59-29.41,25.19-58.81,37.52-88.33c13.06-31.25,25.82-62.62,38.72-93.94c12.34-29.94,24.84-59.83,36.89-89.88
		c2.02-5.04,5.57-4.62,9.22-4.66c14.74-0.13,29.48,0.02,44.22-0.11c4.28-0.04,6.02,1.01,8.01,5.66
		c19.23,44.77,37.39,89.97,55.76,135.1c18.35,45.08,37.6,89.8,56.94,134.47c3.38,7.8,0.76,8.48-5.84,8.4
		c-15.9-0.21-31.84-0.64-47.7,0.13c-8.62,0.42-12.7-3.25-15.53-10.51c-8.62-22.13-17.53-44.15-26.1-66.3
		c-1.89-4.89-5.14-5.88-9.83-5.84C1339.1,833.04,1322.8,832.94,1306.51,832.93z M1305.94,696.75c-15,36.21-28.64,69.11-42.68,103
		c26.74,0,51.86-0.07,76.98,0.05c6.37,0.03,8.56-1.15,5.01-7.91c-3.99-7.6-6.56-15.93-9.84-23.91
		C1325.97,745.09,1316.48,722.22,1305.94,696.75z"/>
	<path class="st0" d="M872.33,390.72c-12.79,11.33-26.29,13.96-38.51,18.78c-17.56,6.93-35.83,11.98-54.31,15.96
		c-37.03,7.96-74.55,10.95-112.26,8.13c-23.07-1.72-45.8-6.18-67.23-16c-49.11-22.49-80.45-74.82-58.49-132.7
		c12.99-34.24,33.43-62.47,58.38-87.43c31.57-31.58,68.48-56.48,109.16-75.46c34.76-16.22,70.73-28.88,108.26-36.81
		c5.87-1.24,17.46-2.69,17.48-0.4c0.08,7.44-9.35,6.54-14.5,8.53c-38.37,14.86-73.24,35.27-105.99,60.22
		c-25.29,19.28-48.34,40.38-66.83,66.11c-24.24,33.73-40.63,70.26-26.6,112.55c8.8,26.53,29.47,43.45,54.6,54.99
		c36.37,16.7,74.67,16.83,113.75,16.12C816.7,402.82,842.25,394.02,872.33,390.72z"/>
	<path class="st0" d="M778.24,511.37c23.37-9.63,46.6-17.86,67.68-30.85c25.22-15.54,49.34-32.57,67.43-56.32
		c16.35-21.48,28.94-44.5,21.36-73.52c-6.14-23.49-24.41-33.07-44.55-39.95c-35.01-11.97-70.2-7.24-105.14,1.26
		c-2.75,0.67-5.14,0.74-8.04-0.84c3.32-6.09,9.69-6.55,15.06-8.6c33.81-12.89,68.94-20.39,104.98-18.24
		c28.01,1.68,56.21,5.97,77.94,27.42c21.78,21.5,21.1,48.28,13.24,70.44c-15.38,43.32-49.53,69.58-86.21,93.38
		c-22.49,14.58-47.89,22.75-72.76,31.71c-13.08,4.71-27.61,5.35-41.46,7.98C783.96,515.95,781.63,513.81,778.24,511.37z"/>
	<path class="st0" d="M736.84,892.58c1.3,14.22-9.11,22.3-23.62,23.15c-9.58,0.57-18.79-11.88-18.59-23.55
		c0.19-11.12,9.37-20.65,19.79-20.54C729.38,871.81,737,878.92,736.84,892.58z"/>
	<path class="st0" d="M1463,656.23c0.12,12.14-10.36,20.64-26.79,21.73c-7.5,0.5-19.46-13.18-19.66-22.5
		c-0.25-11.19,11.07-23.31,22.06-23.62C1452.23,631.46,1462.86,642.08,1463,656.23z M1430.77,640.5
		c-11.85,8.94-12.1,22.67-0.89,30.19c5.25,3.52,12.06,5.72,16.71,1.1c3.2-3.18-4.08-6.33-4.65-10.51c-0.25-1.85-1.39-3.52-3.72-3.55
		c-3.97,2,0.6,8.57-5.85,10.15C1429.75,658.81,1432.33,649.61,1430.77,640.5z M1430.37,640.24c1.6,1.46,2.06,2.21,2.68,2.39
		c8.07,2.42,27.22-4.88,14.08,16.29c-0.74,1.2,2.22,5.36,4.24,7.34c1.05,1.02,4.43-0.09,4.41-2.2c-0.07-7.73,3.81-16.28-3.16-22.85
		C1445.95,634.93,1438.57,634.17,1430.37,640.24z"/>
	<path class="st0" d="M1430.77,640.5c1.56,9.11-1.02,18.3,1.6,27.38c6.44-1.58,1.87-8.15,5.86-10.16c2.33,0.04,3.46,1.71,3.72,3.56
		c0.57,4.18,7.85,7.33,4.65,10.51c-4.65,4.62-11.46,2.42-16.71-1.1C1418.67,663.17,1418.93,649.44,1430.77,640.5z"/>
	<path class="st0" d="M1430.37,640.24c8.21-6.07,15.58-5.31,22.26,0.98c6.97,6.57,3.09,15.12,3.16,22.85
		c0.02,2.11-3.37,3.22-4.41,2.2c-2.03-1.98-4.99-6.14-4.24-7.34c13.14-21.17-6.01-13.87-14.08-16.29
		C1432.42,642.44,1431.96,641.69,1430.37,640.24z"/>
</g>
<g id="Capa_2">
</g>
</svg>
