<svg width="38" height="38" viewBox="0 0 38 38" fill="none" xmlns="http://www.w3.org/2000/svg">
<g clip-path="url(#clip0_44_5235)">
<path d="M19 28.7617C13.6158 28.7617 9.23828 24.3842 9.23828 19C9.23828 13.6158 13.6158 9.23828 19 9.23828C24.3842 9.23828 28.7617 13.6158 28.7617 19C28.7617 24.3842 24.3842 28.7617 19 28.7617ZM19 12.4884C15.4105 12.4884 12.4884 15.4105 12.4884 19C12.4884 22.5895 15.4105 25.5117 19 25.5117C22.5895 25.5117 25.5117 22.5895 25.5117 19C25.5117 15.4105 22.5895 12.4884 19 12.4884Z" fill="#21B8CC"/>
<path d="M28.083 38H9.9228C4.45232 38 0 33.5477 0 28.0772V9.91705C0 4.45232 4.45232 0 9.9228 0H28.083C33.5534 0 38.0058 4.45232 38.0058 9.9228V28.083C38.0058 33.5534 33.5534 38.0058 28.083 38.0058V38ZM9.9228 3.25008C6.24705 3.25008 3.25008 6.2413 3.25008 9.91705V28.0772C3.25008 31.753 6.2413 34.7442 9.9228 34.7442H28.083C31.7587 34.7442 34.7499 31.753 34.7499 28.0772V9.91705C34.7499 6.2413 31.7587 3.25008 28.083 3.25008H9.9228Z" fill="#21B8CC"/>
<path d="M29.0374 11.0444C30.2764 11.0444 31.2808 10.04 31.2808 8.80103C31.2808 7.56203 30.2764 6.55762 29.0374 6.55762C27.7984 6.55762 26.7939 7.56203 26.7939 8.80103C26.7939 10.04 27.7984 11.0444 29.0374 11.0444Z" fill="#21B8CC"/>
</g>
<defs>
<clipPath id="clip0_44_5235">
<rect width="38" height="38" fill="white"/>
</clipPath>
</defs>
</svg>
