<svg width="399" height="387" viewBox="0 0 399 387" fill="none" xmlns="http://www.w3.org/2000/svg">
<path d="M199.633 93.252C179.949 93.252 164.033 77.3558 164.033 57.6958C164.033 38.0359 179.993 22.1396 199.633 22.1396C219.273 22.1396 235.233 38.0802 235.233 57.6958C235.233 77.3115 219.273 93.252 199.633 93.252Z" stroke="#21CC6C" stroke-width="10" stroke-linecap="round" stroke-linejoin="round"/>
<path d="M158.27 153.294V243.491V347.769C158.27 357.244 164.343 364.905 173.609 364.905C182.875 364.905 190.411 357.244 190.411 347.769V260.849C190.411 255.756 194.534 251.639 199.633 251.639C204.731 251.639 208.854 255.756 208.854 260.849V284.848V306.766V347.813C208.854 357.289 216.391 364.949 225.656 364.949C234.922 364.949 240.996 357.289 240.996 347.813V243.535V153.339" stroke="#21CC6C" stroke-width="10" stroke-linecap="round" stroke-linejoin="round"/>
<path d="M158.093 173.486V231.757C158.093 240.524 151.132 247.609 142.532 247.609C133.931 247.609 128.301 240.524 128.301 231.757V151.523C128.301 131.509 144.527 115.303 164.565 115.303H234.656C254.695 115.303 270.921 131.509 270.921 151.523V231.757C270.921 240.524 265.291 247.609 256.69 247.609C248.089 247.609 241.129 240.524 241.129 231.757V173.486" stroke="#21CC6C" stroke-width="10" stroke-linecap="round" stroke-linejoin="round"/>
<path d="M107.73 128.587C101.08 123.096 96.8242 114.771 96.8242 105.429C96.8242 88.8681 110.302 75.4072 126.882 75.4072C137.7 75.4072 147.187 81.1192 152.463 89.6651" stroke="#288A53" stroke-width="10" stroke-linecap="round" stroke-linejoin="round"/>
<path d="M97.0898 186.194V262.354V350.381C97.0898 358.351 102.233 364.86 110.08 364.86C117.927 364.86 124.266 358.396 124.266 350.381V276.966C124.266 272.671 127.769 269.217 132.025 269.217" stroke="#288A53" stroke-width="10" stroke-linecap="round" stroke-linejoin="round"/>
<path d="M96.9124 203.241V252.435C96.9124 259.83 91.0161 265.808 83.7897 265.808C76.5634 265.808 71.7754 259.83 71.7754 252.435V184.688C71.7754 167.774 85.4744 154.091 102.41 154.091H100.459" stroke="#288A53" stroke-width="10" stroke-linecap="round" stroke-linejoin="round"/>
<path d="M291.004 128.587C297.654 123.096 301.91 114.771 301.91 105.429C301.91 88.8681 288.432 75.4072 271.852 75.4072C261.034 75.4072 251.547 81.1192 246.271 89.6651" stroke="#288A53" stroke-width="10" stroke-linecap="round" stroke-linejoin="round"/>
<path d="M301.644 186.194V262.354V350.381C301.644 358.351 296.501 364.86 288.654 364.86C280.807 364.86 274.467 358.396 274.467 350.381V276.966C274.467 272.671 270.965 269.217 266.709 269.217" stroke="#288A53" stroke-width="10" stroke-linecap="round" stroke-linejoin="round"/>
<path d="M301.777 203.241V252.435C301.777 259.83 307.673 265.808 314.899 265.808C322.126 265.808 326.914 259.83 326.914 252.435V184.688C326.914 167.774 313.215 154.091 296.279 154.091H298.23" stroke="#288A53" stroke-width="10" stroke-linecap="round" stroke-linejoin="round"/>
<path d="M346.907 168.039C352.449 163.434 355.996 156.527 355.996 148.778C355.996 134.963 344.779 123.76 330.947 123.76C326.159 123.76 321.682 125.089 317.869 127.435" stroke="#288A53" stroke-width="10" stroke-linecap="round" stroke-linejoin="round"/>
<path d="M355.775 215.994V279.446V352.816C355.775 359.458 351.475 364.86 344.958 364.86C338.441 364.86 333.121 359.458 333.121 352.816V291.667C333.121 288.08 330.239 285.202 326.648 285.202" stroke="#288A53" stroke-width="10" stroke-linecap="round" stroke-linejoin="round"/>
<path d="M355.908 230.207V271.21C355.908 277.365 360.785 282.368 366.858 282.368C372.932 282.368 376.878 277.365 376.878 271.21V214.754C376.878 200.673 365.44 189.249 351.342 189.249H352.938" stroke="#288A53" stroke-width="10" stroke-linecap="round" stroke-linejoin="round"/>
<path d="M52.0922 168.039C46.5506 163.434 43.0039 156.527 43.0039 148.778C43.0039 134.963 54.2202 123.76 68.0522 123.76C72.8402 123.76 77.3179 125.089 81.1306 127.435" stroke="#288A53" stroke-width="10" stroke-linecap="round" stroke-linejoin="round"/>
<path d="M43.2246 215.994V279.446V352.816C43.2246 359.458 47.5249 364.86 54.0419 364.86C60.5589 364.86 65.8789 359.458 65.8789 352.816V291.667C65.8789 288.08 68.7606 285.202 72.3516 285.202" stroke="#288A53" stroke-width="10" stroke-linecap="round" stroke-linejoin="round"/>
<path d="M43.0927 230.207V271.21C43.0927 277.365 38.216 282.368 32.1424 282.368C26.0687 282.368 22.123 277.365 22.123 271.21V214.754C22.123 200.673 33.561 189.249 47.659 189.249H46.063" stroke="#288A53" stroke-width="10" stroke-linecap="round" stroke-linejoin="round"/>
</svg>
