<svg width="381" height="374" viewBox="0 0 381 374" fill="none" xmlns="http://www.w3.org/2000/svg">
<path d="M323.597 224.079L199.264 181.528C192.279 178.528 185.209 185.584 188.215 192.556L230.844 316.66C233.173 322.111 240.327 323.463 244.518 319.279L262.044 301.786C263.864 299.969 266.785 299.969 268.563 301.786L314.961 348.097C318.263 351.393 323.554 351.393 326.856 348.097L355.093 319.913C358.395 316.617 358.395 311.335 355.093 308.04L308.695 261.728C306.875 259.911 306.875 256.995 308.695 255.221L326.221 237.727C330.412 233.544 329.058 226.403 323.597 224.079Z" stroke="#21CC6C" stroke-width="10" stroke-linecap="round" stroke-linejoin="round"/>
<path d="M282.913 184.444C285.284 174.556 286.511 164.203 286.511 153.597C286.511 80.4538 227.118 21.1699 153.839 21.1699C80.5597 21.1699 21.166 80.4116 21.166 153.555C21.166 226.699 80.5597 285.983 153.839 285.983C166.031 285.983 177.884 284.335 189.102 281.25" stroke="#288A53" stroke-width="10" stroke-linecap="round" stroke-linejoin="round"/>
<path d="M353.652 230.375L359.833 231.431" stroke="#21CC6C" stroke-width="10" stroke-linecap="round" stroke-linejoin="round"/>
<path d="M332.146 203.67L333.205 197.5" stroke="#21CC6C" stroke-width="10" stroke-linecap="round" stroke-linejoin="round"/>
<path d="M346.625 214.402L351.747 210.769" stroke="#21CC6C" stroke-width="10" stroke-linecap="round" stroke-linejoin="round"/>
<path d="M207.646 319.998L201.465 318.941" stroke="#21CC6C" stroke-width="10" stroke-linecap="round" stroke-linejoin="round"/>
<path d="M229.151 346.703L228.135 352.872" stroke="#21CC6C" stroke-width="10" stroke-linecap="round" stroke-linejoin="round"/>
<path d="M214.673 336.013L209.551 339.604" stroke="#21CC6C" stroke-width="10" stroke-linecap="round" stroke-linejoin="round"/>
<path d="M183.347 100.313C183.347 119.328 169.419 136.822 152.274 136.822C135.129 136.822 121.201 119.328 121.201 100.313C121.201 81.2986 135.129 65.8755 152.274 65.8755C169.419 65.8755 183.347 81.2986 183.347 100.313Z" stroke="#288A53" stroke-width="10" stroke-linecap="round" stroke-linejoin="round"/>
<path d="M178.647 234.389H98.7216C93.5146 234.389 89.2812 230.163 89.2812 224.966V212.078C89.2812 178.19 116.798 150.766 150.707 150.766H153.84C166.243 150.766 177.8 154.442 187.452 160.738" stroke="#288A53" stroke-width="10" stroke-linecap="round" stroke-linejoin="round"/>
<path d="M116.756 201.43V234.389" stroke="#288A53" stroke-width="10" stroke-linecap="round" stroke-linejoin="round"/>
</svg>
