<svg width="38" height="38" viewBox="0 0 38 38" fill="none" xmlns="http://www.w3.org/2000/svg">
<g clip-path="url(#clip0_4114_3)">
<path d="M0.62793 12.9541H8.236V37.9998H0.62793V12.9541Z" fill="#21B8CC"/>
<path d="M13.2627 20.7258C13.2627 18.0854 13.2627 14.8929 13.2051 12.5804H20.5768C20.7382 13.4088 20.842 15.2783 20.8708 16.2504C21.9774 14.1048 24.3521 11.8384 29.9313 11.8384C36.0178 11.8384 38.0005 16.2274 38.0005 24.1081V37.9943H30.3924V24.9767C30.3924 21.1572 28.8593 18.4593 26.3866 18.4593C22.1042 18.4593 20.865 21.1917 20.865 26.8578V37.9943H13.257V20.72L13.2627 20.7258Z" fill="#21B8CC"/>
<path d="M6.12686 8.5116C8.3884 7.57668 9.46235 4.98905 8.52559 2.73195C7.58882 0.474857 4.99608 -0.596978 2.73454 0.337941C0.472993 1.27286 -0.600955 3.8605 0.335807 6.11759C1.27257 8.37469 3.86531 9.44652 6.12686 8.5116Z" fill="#21B8CC"/>
</g>
<defs>
<clipPath id="clip0_4114_3">
<rect width="38" height="38" fill="white"/>
</clipPath>
</defs>
</svg>
