<svg width="462" height="441" viewBox="0 0 462 441" fill="none" xmlns="http://www.w3.org/2000/svg">
<path d="M74.4327 241.549H50.9733C37.0107 241.549 25.666 252.895 25.666 266.859V350.849C25.666 364.813 37.0107 376.159 50.9733 376.159H67.0407C68.7347 376.159 70.1207 377.545 70.1207 379.239V412.25C70.1207 414.971 73.4573 416.357 75.3567 414.406L112.727 377.032C113.292 376.467 114.113 376.108 114.883 376.108H194.604C208.567 376.108 219.911 364.762 219.911 350.798" stroke="#288A53" stroke-width="10" stroke-linecap="round" stroke-linejoin="round"/>
<path d="M396.705 168.186C418.573 168.186 436.334 185.897 436.334 207.819V287.497C436.334 309.367 418.624 327.13 396.705 327.13H376.993C374.323 327.13 372.167 329.287 372.167 331.956V383.654C372.167 387.967 366.983 390.123 363.954 387.043L305.434 328.517C304.51 327.592 303.329 327.13 302.046 327.13H229.153C207.285 327.13 189.523 309.418 189.523 287.497V207.819C189.523 185.949 207.233 168.186 229.153 168.186" stroke="#288A53" stroke-width="10" stroke-linecap="round" stroke-linejoin="round"/>
<path d="M325.762 94.9766C332.178 96.26 337.876 99.443 342.342 103.858C344.909 106.425 347.014 109.403 348.605 112.637" stroke="#21CC6C" stroke-width="10" stroke-linecap="round" stroke-linejoin="round"/>
<path d="M380.431 136.459C380.431 95.5417 344.036 63.1469 301.84 69.8209C272.939 74.4414 250.096 97.8519 246.092 126.807C242.088 155.762 256.461 181.688 279.202 194.831C279.304 194.831 279.356 194.985 279.356 195.088V240.112C279.356 257.105 293.113 270.915 310.156 270.915H315.751C332.742 270.915 346.551 257.156 346.551 240.112V195.088C346.551 195.088 346.602 194.882 346.705 194.831C366.879 183.177 380.482 161.409 380.482 136.407L380.431 136.459Z" stroke="#21CC6C" stroke-width="10" stroke-linecap="round" stroke-linejoin="round"/>
<path d="M279.355 218.857H346.551" stroke="#21CC6C" stroke-width="10" stroke-linecap="round" stroke-linejoin="round"/>
<path d="M406.816 134.559H421.806" stroke="#21CC6C" stroke-width="10" stroke-linecap="round" stroke-linejoin="round"/>
<path d="M204.051 134.559H219.091" stroke="#21CC6C" stroke-width="10" stroke-linecap="round" stroke-linejoin="round"/>
<path d="M312.928 40.7117V25.6694" stroke="#21CC6C" stroke-width="10" stroke-linecap="round" stroke-linejoin="round"/>
<path d="M379.303 68.1779L389.929 57.5508" stroke="#21CC6C" stroke-width="10" stroke-linecap="round" stroke-linejoin="round"/>
<path d="M235.979 211.567L246.553 200.94" stroke="#21CC6C" stroke-width="10" stroke-linecap="round" stroke-linejoin="round"/>
<path d="M246.553 68.1779L235.979 57.5508" stroke="#21CC6C" stroke-width="10" stroke-linecap="round" stroke-linejoin="round"/>
<path d="M389.929 211.567L379.303 200.94" stroke="#21CC6C" stroke-width="10" stroke-linecap="round" stroke-linejoin="round"/>
<path d="M300.762 242.935H325.094" stroke="#21CC6C" stroke-width="10" stroke-linecap="round" stroke-linejoin="round"/>
<path d="M324.17 218.857C319.345 166.8 335.002 146.777 337.876 139.641C338.082 139.128 337.517 138.666 337.055 138.923C333.359 141.079 323.349 145.494 313.288 138.204C313.082 138.05 312.826 138.05 312.62 138.204C302.559 145.494 292.549 141.079 288.853 138.923C288.391 138.666 287.826 139.128 288.032 139.641C290.906 146.777 306.563 166.8 301.738 218.857" stroke="#21CC6C" stroke-width="10" stroke-linecap="round" stroke-linejoin="round"/>
<path d="M144.862 231.384C144.862 246.426 133.876 260.288 120.324 260.288C106.772 260.288 95.7871 246.426 95.7871 231.384C95.7871 216.342 106.772 204.123 120.324 204.123C133.876 204.123 144.862 216.342 144.862 231.384Z" stroke="#288A53" stroke-width="10" stroke-linecap="round" stroke-linejoin="round"/>
<path d="M92.2461 311.421V337.501" stroke="#288A53" stroke-width="10" stroke-linecap="round" stroke-linejoin="round"/>
<path d="M148.404 311.421V337.501" stroke="#288A53" stroke-width="10" stroke-linecap="round" stroke-linejoin="round"/>
<path d="M132.234 87.9431L136.752 83.4253" stroke="#21CC6C" stroke-width="10" stroke-linecap="round" stroke-linejoin="round"/>
<path d="M156.617 63.6086L161.083 59.0908" stroke="#21CC6C" stroke-width="10" stroke-linecap="round" stroke-linejoin="round"/>
<path d="M161.083 87.9431L156.617 83.4253" stroke="#21CC6C" stroke-width="10" stroke-linecap="round" stroke-linejoin="round"/>
<path d="M136.752 63.6086L132.234 59.0908" stroke="#21CC6C" stroke-width="10" stroke-linecap="round" stroke-linejoin="round"/>
<path d="M59.855 133.276L58.623 132.043" stroke="#21CC6C" stroke-width="10" stroke-linecap="round" stroke-linejoin="round"/>
<path d="M77.564 150.988L76.332 149.755" stroke="#21CC6C" stroke-width="10" stroke-linecap="round" stroke-linejoin="round"/>
<path d="M59.855 149.755L58.623 150.988" stroke="#21CC6C" stroke-width="10" stroke-linecap="round" stroke-linejoin="round"/>
<path d="M77.564 132.043L76.332 133.276" stroke="#21CC6C" stroke-width="10" stroke-linecap="round" stroke-linejoin="round"/>
</svg>
