<svg width="47" height="38" viewBox="0 0 47 38" fill="none" xmlns="http://www.w3.org/2000/svg">
<g clip-path="url(#clip0_44_5233)">
<path d="M40.1606 0C44.7081 0.121309 46.9757 2.70519 47 7.76983C47 8.10343 46.9878 8.45523 46.9757 8.80702C46.7751 13.1014 43.5834 18.9363 37.4006 26.3422C31.0233 34.0939 25.6187 37.9757 21.1746 38C18.4085 38 16.1105 35.6284 14.2684 30.8852L12.3291 24.3709L10.4262 17.8688C9.01578 13.1559 7.50808 10.8026 5.90312 10.8026C5.55051 10.8026 4.32855 11.4879 2.23723 12.8587L0 10.2081L3.46527 7.32705L6.86975 4.4763C9.92161 2.03192 12.244 0.697526 13.8246 0.509497C14.0435 0.485235 14.2562 0.473105 14.4751 0.473105C17.7337 0.473105 19.7824 2.8265 20.5728 7.53935C21.0226 10.2203 21.3996 12.4099 21.6975 14.09C21.9832 15.7641 22.2264 16.9347 22.427 17.608C23.5091 22.0539 24.6703 24.2982 25.9166 24.3164C26.8893 24.3164 28.3605 22.8607 30.3545 19.9553C32.3121 16.9711 33.3578 14.7694 33.5037 13.3318C33.5402 13.0346 33.5584 12.7678 33.5584 12.513C33.5584 10.5599 32.4884 9.58947 30.3545 9.58947C29.2785 9.58947 28.1295 9.81995 26.8954 10.2749C29.0961 3.44517 33.3456 0.0242618 39.6317 0H40.1606Z" fill="#21B8CC"/>
</g>
<defs>
<clipPath id="clip0_44_5233">
<rect width="47" height="38" fill="white"/>
</clipPath>
</defs>
</svg>
