<svg width="408" height="424" viewBox="0 0 408 424" fill="none" xmlns="http://www.w3.org/2000/svg">
<path d="M384.457 277.343H327.719V334.112H384.457V277.343Z" stroke="#21CC6C" stroke-width="10" stroke-linecap="round" stroke-linejoin="round"/>
<path d="M277.248 308.14C277.248 325.336 263.31 339.281 246.124 339.281C228.937 339.281 215 325.336 215 308.14C215 290.945 228.937 277 246.124 277C263.31 277 277.248 290.945 277.248 308.14Z" stroke="#288A53" stroke-width="10" stroke-linecap="round" stroke-linejoin="round"/>
<path d="M245.883 243.8V221.846H356.064V243.8" stroke="#288A53" stroke-width="10" stroke-linecap="round" stroke-linejoin="round"/>
<path d="M300.973 221.846V189.057" stroke="#288A53" stroke-width="10" stroke-linecap="round" stroke-linejoin="round"/>
<path d="M300.973 96.8135L255.205 126.776L300.973 156.692L346.74 126.776L300.973 96.8135Z" stroke="#21CC6C" stroke-width="10" stroke-linecap="round" stroke-linejoin="round"/>
<path d="M101.611 101.76C123.176 101.76 140.692 84.2819 140.692 62.6579C140.692 41.0339 123.176 23.5557 101.611 23.5557C80.0453 23.5557 62.5293 41.081 62.5293 62.6579C62.5293 84.2348 80.0453 101.76 101.611 101.76Z" stroke="#21CC6C" stroke-width="10" stroke-linecap="round" stroke-linejoin="round"/>
<path d="M56.2206 189.999V254.07C56.2206 263.681 48.5927 271.501 39.1284 271.501C29.6641 271.501 23.543 263.681 23.543 254.07V162.298C23.543 142.228 39.7876 125.975 59.8463 125.975H134.995C141.682 125.975 148.132 123.29 152.841 118.579L160.516 110.9L201.622 69.7715C208.403 62.9875 219.326 62.8462 226.013 69.536C232.699 76.2258 231.522 86.1191 224.741 92.9031L213.158 104.492L197.573 120.086L183.777 133.89L159.292 158.388C151.428 166.255 147.002 176.902 147.002 188.02V266.979V381.647C147.002 392.059 140.316 400.492 130.146 400.492C119.975 400.492 111.688 392.059 111.688 381.647V286.059C111.688 280.452 107.168 275.93 101.564 275.93C95.9612 275.93 91.4409 280.452 91.4409 286.059V312.441V336.515V381.647C91.4409 392.059 83.2009 400.492 72.9832 400.492C62.7656 400.492 56.1265 392.059 56.1265 381.647V266.979V167.81" stroke="#21CC6C" stroke-width="10" stroke-linecap="round" stroke-linejoin="round"/>
</svg>
