<svg width="452" height="439" viewBox="0 0 452 439" fill="none" xmlns="http://www.w3.org/2000/svg">
<path d="M27.8736 388.075H424.077C425.634 388.075 426.839 389.333 426.839 390.843V399.347C426.839 407.348 420.36 413.839 412.375 413.839H39.5753C31.59 413.839 25.1113 407.348 25.1113 399.347V390.893C25.1113 389.333 26.3669 388.125 27.8736 388.125V388.075Z" stroke="#288A53" stroke-width="10" stroke-linecap="round" stroke-linejoin="round"/>
<path d="M289.131 187.043H388.32" stroke="#288A53" stroke-width="10" stroke-linecap="round" stroke-linejoin="round"/>
<path d="M63.6816 187.043H162.871" stroke="#288A53" stroke-width="10" stroke-linecap="round" stroke-linejoin="round"/>
<path d="M294.654 147.944H358.939C375.211 147.944 388.369 161.128 388.369 177.432V347.416L424.881 388.226" stroke="#288A53" stroke-width="10" stroke-linecap="round" stroke-linejoin="round"/>
<path d="M27.1191 388.226L63.6307 347.416V177.432C63.6307 161.128 76.7889 147.944 93.0609 147.944H158.651" stroke="#288A53" stroke-width="10" stroke-linecap="round" stroke-linejoin="round"/>
<path d="M63.6816 347.567H388.318" stroke="#288A53" stroke-width="10" stroke-linecap="round" stroke-linejoin="round"/>
<path d="M219.922 369.104H228.008" stroke="#288A53" stroke-width="10" stroke-linecap="round" stroke-linejoin="round"/>
<path d="M248.299 369.104H256.435" stroke="#288A53" stroke-width="10" stroke-linecap="round" stroke-linejoin="round"/>
<path d="M163.072 369.104H171.208" stroke="#288A53" stroke-width="10" stroke-linecap="round" stroke-linejoin="round"/>
<path d="M191.498 369.104H199.634" stroke="#288A53" stroke-width="10" stroke-linecap="round" stroke-linejoin="round"/>
<path d="M134.695 369.104H142.781" stroke="#288A53" stroke-width="10" stroke-linecap="round" stroke-linejoin="round"/>
<path d="M77.8945 369.104H85.9803" stroke="#288A53" stroke-width="10" stroke-linecap="round" stroke-linejoin="round"/>
<path d="M106.27 369.104H114.406" stroke="#288A53" stroke-width="10" stroke-linecap="round" stroke-linejoin="round"/>
<path d="M337.594 369.104H345.73" stroke="#288A53" stroke-width="10" stroke-linecap="round" stroke-linejoin="round"/>
<path d="M366.02 369.104H374.105" stroke="#288A53" stroke-width="10" stroke-linecap="round" stroke-linejoin="round"/>
<path d="M309.217 369.104H317.303" stroke="#288A53" stroke-width="10" stroke-linecap="round" stroke-linejoin="round"/>
<path d="M59.9668 110.455L64.7881 105.624" stroke="#21CC6C" stroke-width="10" stroke-linecap="round" stroke-linejoin="round"/>
<path d="M85.9297 84.4385L90.751 79.6077" stroke="#21CC6C" stroke-width="10" stroke-linecap="round" stroke-linejoin="round"/>
<path d="M90.751 110.455L85.9297 105.624" stroke="#21CC6C" stroke-width="10" stroke-linecap="round" stroke-linejoin="round"/>
<path d="M64.7881 84.4385L59.9668 79.6077" stroke="#21CC6C" stroke-width="10" stroke-linecap="round" stroke-linejoin="round"/>
<path d="M145.342 26.4687L143.986 25.1604" stroke="#288A53" stroke-width="10" stroke-linecap="round" stroke-linejoin="round"/>
<path d="M164.225 45.3896L162.869 44.0813" stroke="#288A53" stroke-width="10" stroke-linecap="round" stroke-linejoin="round"/>
<path d="M145.342 44.0813L143.986 45.3896" stroke="#288A53" stroke-width="10" stroke-linecap="round" stroke-linejoin="round"/>
<path d="M164.225 25.1604L162.869 26.4687" stroke="#288A53" stroke-width="10" stroke-linecap="round" stroke-linejoin="round"/>
<path d="M290.988 65.1655L295.81 60.3347" stroke="#21CC6C" stroke-width="10" stroke-linecap="round" stroke-linejoin="round"/>
<path d="M316.953 39.1497L321.774 34.3188" stroke="#21CC6C" stroke-width="10" stroke-linecap="round" stroke-linejoin="round"/>
<path d="M321.774 65.1655L316.953 60.3347" stroke="#21CC6C" stroke-width="10" stroke-linecap="round" stroke-linejoin="round"/>
<path d="M295.81 39.1497L290.988 34.3188" stroke="#21CC6C" stroke-width="10" stroke-linecap="round" stroke-linejoin="round"/>
<path d="M366.321 96.9182L364.965 95.6099" stroke="#288A53" stroke-width="10" stroke-linecap="round" stroke-linejoin="round"/>
<path d="M385.204 115.839L383.848 114.531" stroke="#288A53" stroke-width="10" stroke-linecap="round" stroke-linejoin="round"/>
<path d="M366.321 114.531L364.965 115.839" stroke="#288A53" stroke-width="10" stroke-linecap="round" stroke-linejoin="round"/>
<path d="M385.204 95.6099L383.848 96.9182" stroke="#288A53" stroke-width="10" stroke-linecap="round" stroke-linejoin="round"/>
<path d="M266.68 131.64C266.68 156.649 248.45 179.646 226 179.646C203.551 179.646 185.32 156.649 185.32 131.64C185.32 106.63 203.551 86.3508 226 86.3508C248.45 86.3508 266.68 106.63 266.68 131.64Z" stroke="#21CC6C" stroke-width="10" stroke-linecap="round" stroke-linejoin="round"/>
<path d="M296.11 307.864H155.839C149.009 307.864 143.484 302.328 143.484 295.485V278.577C143.484 234.043 179.494 197.963 223.94 197.963H228.059C272.505 197.963 308.515 234.043 308.515 278.577V295.485C308.515 302.328 302.99 307.864 296.16 307.864H296.11Z" stroke="#21CC6C" stroke-width="10" stroke-linecap="round" stroke-linejoin="round"/>
<path d="M179.443 264.537V307.864" stroke="#21CC6C" stroke-width="10" stroke-linecap="round" stroke-linejoin="round"/>
<path d="M272.557 264.537V307.864" stroke="#21CC6C" stroke-width="10" stroke-linecap="round" stroke-linejoin="round"/>
</svg>
