<svg width="419" height="416" viewBox="0 0 419 416" fill="none" xmlns="http://www.w3.org/2000/svg">
<path d="M28.0726 342.725H85.6618C98.5577 342.725 95.3453 332.902 91.9468 329.69C88.3155 326.245 81.8908 319.681 81.8908 312.512C81.8908 300.92 91.8071 292.634 104.051 292.634C116.295 292.634 126.212 300.92 126.212 312.512C126.212 319.774 120.253 325.64 116.016 329.69C112.617 332.902 109.405 342.725 122.301 342.725H180.03C182.684 342.725 184.825 340.584 184.825 337.93V280.53C184.825 266.238 195.766 269.776 199.35 273.594C203.82 278.296 210.384 284.906 218.438 284.906C231.334 284.906 237.945 273.873 237.945 260.279C237.945 246.686 231.334 235.653 218.438 235.653C210.477 235.653 203.168 242.775 199.35 246.825C195.766 250.596 184.872 254.134 184.825 239.843V180.813C184.825 178.159 182.684 176.018 180.03 176.018H124.675C110.802 176.018 114.247 165.45 117.878 161.959C122.441 157.629 128.865 151.298 128.865 143.477C128.865 131.001 118.158 122.063 104.982 122.063C91.8071 122.063 81.0993 130.954 81.0993 143.477C81.0993 151.205 88.0361 158.281 91.9002 161.959C95.5781 165.45 98.9767 176.018 85.1031 176.018H28.0726C25.4189 176.018 23.2773 178.159 23.2773 180.813V239.889C23.2773 252.645 33.0075 249.526 36.2198 246.127C39.6183 242.543 46.1361 236.165 53.2591 236.165C64.7583 236.165 72.9521 245.988 72.9521 258.138C72.9521 270.288 64.7583 280.111 53.2591 280.111C46.043 280.111 40.2236 274.199 36.2198 270.009C33.0075 266.611 23.2773 263.492 23.2773 276.247V337.977C23.2773 340.63 25.4189 342.772 28.0726 342.772V342.725Z" stroke="#21CC6C" stroke-width="10" stroke-linecap="round" stroke-linejoin="round"/>
<path d="M319.139 99.9497C297.957 99.9497 280.824 82.8181 280.824 61.6363C280.824 40.4546 298.003 23.323 319.139 23.323C340.276 23.323 357.455 40.5012 357.455 61.6363C357.455 82.7715 340.276 99.9497 319.139 99.9497Z" stroke="#288A53" stroke-width="10" stroke-linecap="round" stroke-linejoin="round"/>
<path d="M363.691 186.446V249.246C363.691 258.697 371.187 266.331 380.451 266.331C389.716 266.331 395.768 258.697 395.768 249.246V159.305C395.768 139.66 379.846 123.692 360.153 123.692H286.456C279.891 123.692 273.606 121.085 268.951 116.43L261.409 108.888L221.092 68.5731C214.434 61.916 203.726 61.7763 197.162 68.3403C190.598 74.9043 191.762 84.5874 198.419 91.2445L209.779 102.604L225.049 117.873L238.596 131.42L262.619 155.441C270.347 163.169 274.677 173.597 274.677 184.491V261.862V374.242C274.677 384.437 281.241 392.724 291.204 392.724C301.167 392.724 309.314 384.437 309.314 374.242V280.53C309.314 275.037 313.737 270.614 319.231 270.614C324.724 270.614 329.147 275.037 329.147 280.53V306.414V330.016V374.242C329.147 384.437 337.248 392.724 347.211 392.724C357.173 392.724 363.738 384.437 363.738 374.242V261.862V164.659" stroke="#288A53" stroke-width="10" stroke-linecap="round" stroke-linejoin="round"/>
<path d="M120.764 68.6197L124.861 64.5696" stroke="#21CC6C" stroke-width="10" stroke-linecap="round" stroke-linejoin="round"/>
<path d="M142.879 46.5532L146.929 42.4565" stroke="#21CC6C" stroke-width="10" stroke-linecap="round" stroke-linejoin="round"/>
<path d="M146.929 68.6195L142.879 64.5693" stroke="#21CC6C" stroke-width="10" stroke-linecap="round" stroke-linejoin="round"/>
<path d="M124.861 46.5532L120.764 42.4565" stroke="#21CC6C" stroke-width="10" stroke-linecap="round" stroke-linejoin="round"/>
<path d="M41.1544 81.8407L40.0371 80.7234" stroke="#288A53" stroke-width="10" stroke-linecap="round" stroke-linejoin="round"/>
<path d="M57.2169 97.9017L56.0996 96.7844" stroke="#288A53" stroke-width="10" stroke-linecap="round" stroke-linejoin="round"/>
<path d="M41.1544 96.7844L40.0371 97.9017" stroke="#288A53" stroke-width="10" stroke-linecap="round" stroke-linejoin="round"/>
<path d="M57.2169 80.7234L56.0996 81.8407" stroke="#288A53" stroke-width="10" stroke-linecap="round" stroke-linejoin="round"/>
<path d="M188.364 370.983L187.293 377.314" stroke="#288A53" stroke-width="10" stroke-linecap="round" stroke-linejoin="round"/>
<path d="M215.832 348.917L222.164 349.987" stroke="#288A53" stroke-width="10" stroke-linecap="round" stroke-linejoin="round"/>
<path d="M204.797 363.767L208.521 369.028" stroke="#288A53" stroke-width="10" stroke-linecap="round" stroke-linejoin="round"/>
</svg>
