<?xml version="1.0" encoding="utf-8"?>
<!-- Generator: Adobe Illustrator 27.4.0, SVG Export Plug-In . SVG Version: 6.00 Build 0)  -->
<svg version="1.1" xmlns="http://www.w3.org/2000/svg" xmlns:xlink="http://www.w3.org/1999/xlink" x="0px" y="0px"
	 viewBox="0 0 1500 600" style="enable-background:new 0 0 1500 600;" xml:space="preserve">
<style type="text/css">
	.st0{fill:#666666;}
	.st1{fill:#21B8CC;}
</style>
<g id="Capa_1">
	<g>
		<path class="st0" d="M337.53,122.96c0,100.46,0,199.81,0,300.06c-15.99,0-31.51,0-48.1,0c-0.21-4.51-0.57-8.77-0.57-13.03
			c-0.04-55.94-0.27-111.87,0.2-167.8c0.09-10.18-2.91-13.69-12.98-12.75c-8.35,0.78-16.89,0.81-25.23-0.01
			c-10.41-1.02-13.77,2.34-13.67,13.18c0.54,55.56,0.25,111.14,0.25,166.71c0,4.33,0,8.65,0,13.78c-67.2,0-133.22,0-199.82,0
			c0-100.32,0-199.9,0-300.14C137.58,122.96,236.98,122.96,337.53,122.96z"/>
		<path class="st0" d="M1320.68,423.2c0,23.5,0,44.58,0,66.41c-16.69,0-32.55,0-48.97,0c0-85.67,0-171.08,0-256.32
			c0.78-0.64,1.34-1.5,1.9-1.5c36.23-0.09,72.61-2.19,108.66,0.36c48.57,3.44,77.94,36.49,80.33,86.45
			c0.61,12.66-0.01,25.71-2.37,38.13c-7.64,40.12-35.99,63.62-79.96,66.27C1360.99,424.17,1341.57,423.2,1320.68,423.2z
			 M1321.3,271.29c0,39.08,0,75.07,0,113.02c19.38-1.16,37.92-2.03,56.42-3.46c16.44-1.27,27.26-11.13,29.12-26.61
			c2.06-17.11,1.93-34.86-0.15-51.97c-1.88-15.46-12.7-25.59-28.86-27.2C1359.39,273.22,1340.82,272.54,1321.3,271.29z"/>
		<path class="st0" d="M796.69,423.89c-6.73,0-12.52,0-18.31,0c-38.81-0.01-77.63,0.37-116.43-0.12
			c-46.53-0.58-70.62-33.35-58.2-78.28c6.26-22.64,23.01-35.09,53.67-36.88c25.18-1.47,50.5-0.7,75.75-0.9c3.94-0.03,7.87,0,11.61,0
			c2.92-18.73-4.39-31.09-20.92-34.76c-8.82-1.96-18.1-2.46-27.18-2.57c-27.03-0.32-54.08-0.11-82.02-0.11c0-12.94,0-25.15,0-38.93
			c4.24,0,8.5,0,12.76,0c31.49,0.02,62.98-0.14,94.46,0.2c8.35,0.09,16.86,0.99,25,2.81c29.84,6.64,48.09,25.41,49.35,56.39
			C798.02,334.48,796.69,378.37,796.69,423.89z M745.85,345.8c-25.4,0-50.18-0.63-74.9,0.31c-9.92,0.38-16.5,6.95-16.88,18.1
			c-0.52,15.27,5.98,21.9,23.09,22.04c19.38,0.16,38.76-0.12,58.15-0.3c3.48-0.03,6.96-0.52,10.55-0.8
			C745.85,371.4,745.85,358.8,745.85,345.8z"/>
		<path class="st0" d="M1172.29,307.71c2.01-23.35-7.81-35.42-30.65-36.54c-25.22-1.24-50.53-0.69-75.8-0.89
			c-7.65-0.06-15.29-0.01-23.79-0.01c0-12.89,0-25.1,0-38.14c2.44-0.24,5.22-0.75,8-0.75c33.34-0.03,66.68-0.4,100,0.28
			c10.82,0.22,21.93,2.11,32.31,5.23c25.27,7.59,39.74,26.24,40.7,51.61c1.7,44.52,0.47,89.15,0.47,134.55
			c-2.9,0.29-5.69,0.82-8.48,0.82c-41.76,0.05-83.52,0.11-125.29-0.06c-6.56-0.03-13.25-0.48-19.64-1.86
			c-26.09-5.64-41.75-26.11-41.97-54.15c-0.25-31.74,12.62-50.5,40.79-56.47c13.1-2.77,26.84-3.12,40.32-3.48
			C1130.07,307.31,1150.9,307.71,1172.29,307.71z M1172.78,345.25c-23.76,0-46.35-0.07-68.94,0.08c-3.21,0.02-6.5,0.85-9.61,1.76
			c-10.58,3.11-13.8,11.07-13.2,21.13c0.57,9.57,5.31,16.34,15.26,16.8c17.82,0.82,35.68,0.73,53.53,0.95
			c7.51,0.09,15.02,0.02,22.96,0.02C1172.78,371.65,1172.78,359.05,1172.78,345.25z"/>
		<path class="st0" d="M439.94,423.42c-17.51,0-32.75,0-48.82,0c0-63.78,0-127.15,0-190.64c0.43-0.32,1.01-1.11,1.58-1.1
			c39.48,0.47,79.07-0.61,118.41,2.02c34.52,2.3,52.28,20.28,53.87,54.96c2.03,44.44,0.49,89.04,0.49,134.4c-16.33,0-32.53,0-49.8,0
			c0-13.56,0.11-26.64-0.02-39.72c-0.31-29.58-0.12-59.19-1.37-88.74c-0.63-14.81-5.95-19.9-20.39-20.73
			c-17.47-1-35.04-0.24-53.95-0.24C439.94,323.3,439.94,372.82,439.94,423.42z"/>
		<path class="st0" d="M1001.47,382.68c0,14.62,0,27,0,39.17c-0.78,0.69-1.33,1.59-1.86,1.58c-32.5-0.91-65.41,0.98-97.39-3.6
			c-41.31-5.91-66.62-36.91-69.26-78.87c-0.89-14.08-0.09-28.63,2.48-42.5c6.81-36.74,32.37-61.35,70.6-64.49
			c31.19-2.56,62.76-0.52,94.98-0.52c0,11.77,0,25.02,0,39.29c-18.24,0-36.1-0.3-53.94,0.12c-9.83,0.23-19.76,0.94-29.42,2.68
			c-15.04,2.71-26.41,11.98-28.56,26.82c-2.36,16.28-3.62,33.73-0.25,49.58c4.84,22.8,25.07,29.27,45.7,30.45
			C956.38,383.64,978.35,382.68,1001.47,382.68z"/>
	</g>
</g>
<g id="Capa_2">
</g>
</svg>
