<?xml version="1.0" encoding="utf-8"?>
<!-- Generator: Adobe Illustrator 25.2.1, SVG Export Plug-In . SVG Version: 6.00 Build 0)  -->
<svg version="1.1" id="Capa_1" xmlns="http://www.w3.org/2000/svg" xmlns:xlink="http://www.w3.org/1999/xlink" x="0px" y="0px"
	 viewBox="0 0 595.28 841.89" style="enable-background:new 0 0 595.28 841.89;" xml:space="preserve">
<style type="text/css">
	.st0{fill:#FFFFFF;}
	.st1{fill:#25B8CC;}
	.st2{fill:#6D6D6D;}
</style>
<g>
	<path class="st0" d="M466.52,353.98c-0.15-12.83,2.13-32.35-13.4-38.04c-9.64-3.43-22.68-3.13-31.97,1.24
		c-3.66,1.97-9.13,4.82-8.05,9.77c0.69,2.99,2.54,5.08,5.45,6.14c2.49,0.99,4.66-0.71,6.61-2.07c5.51-3.72,12.57-4.32,18.94-2.96
		c6.95,1.42,7.93,7.73,7.66,13.85c-0.01,1.34-0.3,1.61-1.66,1.62c-3.27,0.01-6.53,0.02-9.8,0c-11.89-0.4-27.4,2.79-30.28,16.31
		c-2.57,10.64,1.75,22.85,13.1,25.83c9.87,2.8,22.27,1.59,29.32-6.57c0.53-0.47,0.9-0.43,1.24,0.21c0.47,0.89,0.9,1.8,1.46,2.64
		c1.5,2.29,3.55,3.83,6.19,4.53c3.14,0.77,6.59,0.73,9.63-0.41c3.4-1.28,3.63-5.03,3.29-8.16c-0.2-2.36-1.84-4.11-4.19-4.47
		c-1.33-0.13-3-0.03-3.36-1.67C466.23,365.94,466.66,360.81,466.52,353.98z M373.44,386.35c7.14,0,14.27,0,21.41,0
		c5.68,0.54,7.85-4.44,6.6-9.35c-0.69-3.28-3.77-4.53-6.87-4.4c-9.23,0-18.47,0-27.7,0c-0.76,0.02-2.46,0.09-1.88-1.11
		c8.9-12.04,18.07-23.92,27.06-35.9c3.09-4.55,8.07-8.64,7.67-14.62c-0.16-4.18-3.24-6.89-7.15-6.69
		c-13.71,0.01-27.42-0.04-41.12,0.02c-4.97,0.15-6.5,5.82-5.15,9.86c0.83,3,3.92,4.03,6.76,3.88c8.54,0.04,17.1-0.08,25.64,0.04
		c1.31,0.23,0.56,1.52-0.02,2.15c-10.66,14.16-21.32,28.33-31.99,42.48c-1.28,1.69-2.06,3.55-2.23,5.65c-0.51,4.14,2.6,8.28,6.96,8
		C358.76,386.34,366.1,386.35,373.44,386.35z M270.32,348.33c0,5.6,0,11.2,0,16.8c0,3.15,0.33,6.27,1.23,9.3
		c2.39,9.61,12.24,13.7,21.44,12.3c4.28-0.61,6.52-3.57,6.17-7.78c-0.28-3.32-2.71-5.64-6.04-5.72c-0.77-0.02-1.53-0.1-2.28-0.22
		c-3.97-0.48-6.22-4.08-6.01-7.91c0-12,0-24.01,0-36.01c0.03-1.28,0.26-1.51,1.59-1.53c6.32-0.14,13.29,1.57,12.75-7.4
		c-0.38-7.01-7.37-5.49-12.37-5.63c-1.95,0-1.97-0.02-1.97-1.95c0-4.51,0.02-9.02-0.01-13.53c-0.02-3.21-1.71-5.3-4.8-6.11
		c-4.53-1.23-10.01,1-9.69,6.36c0.01,4.51,0.01,9.02,0,13.53c0,1.49-0.21,1.69-1.65,1.7c-1.77,0.01-3.55-0.04-5.32,0.02
		c-3.01,0.1-5,1.56-5.71,4.14c-0.96,3.34,0.14,7.81,3.95,8.62c2.24,0.51,4.59,0.14,6.87,0.26c1.61,0.01,1.86,0.26,1.86,1.92
		C270.32,335.76,270.32,342.04,270.32,348.33z M327.75,350.35c0-9.83,0-19.66,0-29.49c0.19-2.94-0.99-5.66-3.93-6.61
		c-4.83-1.78-11.07,0.5-10.5,6.43c0.03,20.18-0.08,40.37,0.04,60.55c0.15,4.76,5.6,6.56,9.6,5.43c3.47-0.79,5.02-3.52,4.79-6.94
		C327.75,369.93,327.75,360.14,327.75,350.35z M320.55,285.46c-5-0.13-8.84,3.63-8.85,8.79c-0.1,11.64,17.65,11.89,17.66,0
		C329.36,289.04,325.78,285.46,320.55,285.46z"/>
	<path class="st1" d="M181.54,249.23c22.59,1.5,45.27,9.97,60.9,26.95c1.92,2.05,3.95,4.18,4.3,7.1c0.37,2.48,0.5,4.96,0.01,7.45
		c-0.64,3.21-2.4,5.76-4.65,8.04c-7.21,7.32-14.62,14.45-21.89,21.71c-6.62,6.61-13.23,13.22-19.86,19.81
		c-3.86,3.83-7.74,7.64-11.63,11.45c-2.11,2.07-4.44,3.84-7.1,5.17c-7.88,4.12-19.78-0.57-21.26-9.68c-1.08-5.17-0.25-11.12,3.61-15
		c13.95-13.92,27.89-27.85,41.84-41.78c0.81-0.95,3.31-2.29,1.24-3.26c-1.29-0.75-2.69-1.29-4.08-1.81
		c-7.41-2.86-15.16-4.77-23.1-5.25c-18.11-1.25-36.48,5.92-48.93,19.14c-10.66,11.12-16.94,25.64-17.45,41.08
		c-1.67,34.65,28.66,65.88,63.34,65.24c15.19-0.14,30.13-5.81,41.58-15.82c2.04-1.77,4.16-3.44,6.48-4.84
		c6.36-4.28,14.64-2.5,19.52,3.14c5.45,6.21,3.84,15.74-1.35,21.52c-7.45,8.74-17.97,14.09-28.24,18.79
		c-12.46,5.58-26.13,8.39-39.78,8.2c-42.78-0.41-83.39-33.14-91.47-75.38c-0.59-3.17-1.05-6.34-1.25-9.56
		c-0.04-0.69-0.01-1.45-0.43-2.08c0-2.9,0-5.8,0-8.7c2.08-25.76,12.53-49.41,31.66-67.14c15.89-15.16,37.12-23.25,58.82-24.5
		C175.41,249.23,178.47,249.23,181.54,249.23z"/>
	<path class="st2" d="M466.52,353.98c0.14,6.83-0.3,11.96,0.18,17.77c0.36,1.64,2.04,1.55,3.36,1.67c2.35,0.36,3.99,2.11,4.19,4.47
		c0.34,3.12,0.11,6.89-3.29,8.16c-3.05,1.15-6.49,1.18-9.63,0.41c-2.65-0.7-4.69-2.24-6.19-4.53c-0.55-0.85-0.98-1.75-1.46-2.64
		c-0.34-0.64-0.71-0.68-1.24-0.21c-7.05,8.16-19.44,9.36-29.32,6.57c-11.35-2.98-15.67-15.19-13.1-25.83
		c2.89-13.52,18.38-16.71,30.28-16.31c3.27,0.03,6.53,0.01,9.8,0c1.36,0,1.65-0.28,1.66-1.62c0.27-6.11-0.72-12.45-7.66-13.85
		c-6.37-1.36-13.43-0.76-18.94,2.96c-1.94,1.37-4.12,3.06-6.61,2.07c-2.91-1.05-4.76-3.15-5.45-6.14c-1.08-4.95,4.39-7.79,8.05-9.77
		c9.28-4.38,22.34-4.67,31.97-1.24C468.66,321.64,466.37,341.15,466.52,353.98z M442.8,355.57c-4.33,0.06-9.99-0.35-14.27,1.76
		c-4.26,1.9-5.24,7.4-3.48,11.38c3.12,7.25,17.34,6.29,22.38,1.63c4.49-3.68,4.83-7.83,4.59-13.3c-0.02-1.23-0.24-1.46-1.51-1.47
		C448.1,355.56,445.68,355.57,442.8,355.57z"/>
	<path class="st2" d="M373.44,386.35c-7.34,0-14.68-0.01-22.01,0c-4.35,0.27-7.48-3.86-6.96-8c0.17-2.1,0.95-3.96,2.23-5.65
		c10.68-14.15,21.33-28.32,31.99-42.48c0.57-0.63,1.33-1.93,0.02-2.15c-8.53-0.13-17.1,0-25.64-0.04c-2.84,0.15-5.93-0.88-6.76-3.88
		c-1.35-4.03,0.18-9.71,5.15-9.86c13.71-0.05,27.42,0,41.12-0.02c3.91-0.19,6.99,2.51,7.15,6.69c0.4,5.98-4.58,10.08-7.67,14.62
		c-8.99,11.99-18.16,23.86-27.06,35.9c-0.59,1.21,1.12,1.12,1.88,1.11c9.23,0,18.47,0,27.7,0c3.1-0.14,6.19,1.13,6.87,4.4
		c1.24,4.87-0.9,9.9-6.6,9.35C387.71,386.35,380.57,386.35,373.44,386.35z"/>
	<path class="st2" d="M270.32,348.33c0-6.28,0-12.57,0-18.85c-0.01-1.66-0.25-1.91-1.86-1.92c-2.28-0.11-4.63,0.26-6.87-0.26
		c-3.81-0.81-4.92-5.27-3.95-8.62c0.71-2.58,2.7-4.04,5.71-4.14c1.77-0.06,3.55-0.01,5.32-0.02c1.45-0.01,1.65-0.21,1.65-1.7
		c0.01-4.51,0.01-9.02,0-13.53c-0.18-3.2,1.99-5.97,5.14-6.45c4.28-1,9.59,1.19,9.35,6.2c0.03,4.51,0.01,9.02,0.01,13.53
		c0,1.92,0.02,1.95,1.97,1.95c4.99,0.15,11.99-1.38,12.37,5.63c0.56,8.95-6.44,7.28-12.75,7.4c-1.33,0.02-1.56,0.24-1.59,1.53
		c0,12,0,24.01,0,36.01c-0.2,3.83,2.04,7.44,6.01,7.91c0.75,0.12,1.51,0.2,2.28,0.22c3.33,0.08,5.76,2.4,6.04,5.72
		c0.35,4.21-1.89,7.17-6.17,7.78c-9.2,1.39-19.04-2.67-21.44-12.3c-0.9-3.03-1.23-6.15-1.23-9.3
		C270.32,359.52,270.32,353.93,270.32,348.33z"/>
	<path class="st2" d="M327.75,350.35c0,9.79,0,19.58,0,29.37c0.22,3.41-1.32,6.16-4.79,6.94c-4,1.12-9.45-0.67-9.6-5.43
		c-0.12-20.18-0.01-40.37-0.04-60.55c-0.57-5.91,5.67-8.23,10.51-6.43c2.94,0.96,4.12,3.66,3.93,6.61
		C327.75,330.69,327.75,340.52,327.75,350.35z"/>
	<path class="st2" d="M320.55,285.46c5.23,0,8.81,3.58,8.82,8.78c-0.02,11.9-17.76,11.64-17.66,0
		C311.7,289.08,315.54,285.33,320.55,285.46z"/>
</g>
</svg>
