<svg width="181" height="83" viewBox="0 0 181 83" fill="none" xmlns="http://www.w3.org/2000/svg">
<g clip-path="url(#clip0_4114_2)">
<path d="M166.987 44.6999C168.233 44.7243 169.481 44.7452 170.722 44.6965C171.748 44.6564 172.14 44.6356 172.288 43.5132C172.592 41.1972 172.055 37.8877 170.004 36.4295C168.565 35.4046 166.441 35.4046 164.743 35.2689C162.11 35.0584 159.473 35.4534 157.054 36.5304C156.496 36.7775 155.943 37.0629 155.344 37.1673C154.417 37.3291 153.39 36.8489 152.851 36.0833C152.156 35.0967 152.273 33.4662 153.027 32.5875C153.727 31.7714 154.638 31.3121 155.578 30.8771C160.355 28.6672 167.272 28.213 172.092 30.5569C176.312 32.6084 178.41 36.9411 178.797 41.4617C178.83 41.855 178.853 42.2482 178.863 42.6432C178.948 45.6813 178.961 48.7212 178.907 51.761C178.854 54.7852 178.439 57.7677 180.205 60.4282C180.666 61.1225 180.944 61.8585 180.989 62.6798C181.084 64.4355 180.601 65.2133 179.073 65.8206C177.758 66.3443 176.301 65.9981 175.377 64.8722C174.954 64.3589 174.601 63.7795 174.28 63.1948C173.863 62.4344 173.536 62.3335 172.929 62.9286C166.094 69.6347 150.95 67.4075 150.138 56.5253C150.126 56.3721 150.119 56.2208 150.112 56.0676C149.973 52.2552 151.51 48.8221 154.808 46.8054C158.604 44.4842 162.786 44.6182 166.987 44.7034V44.6999ZM163.104 60.9224C164.997 60.8719 166.513 60.8667 167.974 60.2507C169.104 59.7739 170.199 59.2954 170.955 58.2932C171.756 57.23 172.226 56.0868 172.139 54.6826C172.055 53.3514 172.191 52.0029 172.297 50.6665C172.347 50.021 172.34 49.8644 171.716 49.8853C167.906 50.0071 164.064 49.4363 160.29 50.4264C158.684 50.8493 157.386 51.5505 156.934 53.334C156.614 54.5921 156.654 55.838 156.793 57.1012C156.972 58.7403 157.926 59.713 159.432 60.249C160.742 60.7153 162.061 61.0772 163.106 60.9258L163.104 60.9224Z" fill="#21B8CC"/>
<path d="M132.314 66.08C128.767 66.08 125.219 66.0713 121.67 66.0835C120.255 66.0887 119.225 65.3214 118.377 64.3452C117.806 63.6892 118.012 62.7722 118.06 61.9509C118.116 61.0287 118.748 60.3709 119.232 59.6888C120.24 58.269 121.361 56.9274 122.451 55.5667C124.006 53.6265 125.588 51.7055 127.138 49.7584C128.546 47.9923 129.912 46.1931 131.322 44.4269C132.516 42.9305 133.753 41.4689 134.958 39.9794C135.821 38.9093 136.666 37.8235 137.506 36.7325C137.62 36.5828 137.653 36.3705 137.725 36.1878C137.532 36.1287 137.341 36.019 137.148 36.019C134.827 36.0121 132.507 36.0121 130.187 36.0312C128.558 36.0434 126.924 36.1843 125.303 36.0852C123.977 36.0051 122.616 36.2539 121.319 35.7546C120.412 35.4048 119.694 34.8341 119.141 34.0406C118.669 33.362 118.776 32.3458 119.312 31.4375C120.137 30.035 121.489 29.9289 122.871 29.9237C127.282 29.9063 131.694 29.9063 136.103 29.9202C138.615 29.9272 141.126 29.955 143.636 30.0089C145.777 30.0542 147.341 32.2397 146.408 34.446C145.965 35.4936 145.179 36.2383 144.501 37.0857C142.946 39.0311 141.397 40.9799 139.84 42.9235C138.317 44.8237 136.777 46.7116 135.262 48.6169C132.757 51.7664 130.265 54.9281 127.766 58.0828C127.503 58.4134 127.209 58.7196 126.97 59.0659C126.85 59.2382 126.818 59.4696 126.747 59.6749C126.94 59.7323 127.131 59.8333 127.328 59.8402C127.901 59.8646 128.478 59.8524 129.053 59.8524C133.713 59.8524 138.373 59.8559 143.034 59.8559C144.289 59.8559 145.355 60.2039 146.128 61.2862C146.703 62.0918 146.839 63.3046 146.349 64.199C145.626 65.5215 144.434 66.0539 143.014 66.0661C139.447 66.0992 135.881 66.0765 132.312 66.0765V66.0731L132.314 66.08Z" fill="#21B8CC"/>
<path d="M86.4243 46.0434C86.3861 42.4154 86.1097 39.8872 86.174 35.7981C86.1793 35.4727 86.1167 35.3282 85.7847 35.3317C85.4215 35.3369 85.053 35.2934 84.6932 35.3282C83.8016 35.4152 83.0803 35.0307 82.3121 34.6461C81.1754 34.0772 80.8886 31.8186 82.0253 30.7624C82.5867 30.2404 83.2124 30.0194 83.9459 30.0089C84.4256 30.002 84.9035 29.995 85.3832 29.9863C85.8542 29.9776 86.0524 29.7566 86.0489 29.2659C86.0315 26.9621 85.9968 24.6583 86.0576 22.358C86.0924 21.0721 86.6207 19.9428 87.6514 19.1145C88.6647 18.3019 89.8188 18.2254 90.952 18.7422C92.0782 19.2572 92.7057 20.1934 92.7231 21.4793C92.7561 23.9727 92.7926 26.4662 92.8256 28.9614C92.8378 29.8732 92.8604 29.8993 93.7589 29.9185C95.1946 29.9498 96.632 29.962 98.0676 30.0124C100.437 30.0977 101.432 32.8034 99.7692 34.4617C98.1076 36.1182 95.3753 35.3891 93.2949 35.3004C92.8673 35.2813 92.7126 35.5092 92.7161 35.9512C92.7735 42.9514 92.6414 49.9516 93.1385 56.9309C93.1941 57.7226 93.281 58.5856 93.8354 59.1546C94.7566 60.103 96.7171 59.9986 97.9494 60.1847C100.059 60.5032 101.142 62.238 100.522 64.2721C100.247 65.17 99.3781 65.6224 98.5091 65.8294C97.7374 66.0139 96.9153 66.1009 96.1227 66.0643C94.044 65.9669 91.5255 65.6676 89.8222 64.3643C86.327 61.6864 86.7267 56.9483 86.5721 52.9079C86.4921 50.8216 86.4487 48.1663 86.4261 46.0417L86.4243 46.0434Z" fill="#21B8CC"/>
<path d="M105.826 47.4771C105.826 42.8503 105.755 38.2236 105.86 33.6003C105.903 31.6636 106.979 30.014 108.892 29.626C110.41 29.318 112.005 30.5726 112.424 32.0464C113.165 34.653 112.93 37.2874 112.944 39.9166C112.98 46.3843 112.961 52.8538 112.951 59.3233C112.951 60.2612 113.012 61.2321 112.801 62.13C112.56 63.1636 112.455 64.2876 111.611 65.1176C109.914 66.7829 107.14 66.1286 106.404 63.8683C106.014 62.6781 105.79 61.481 105.806 60.2055C105.856 55.9633 105.825 51.7211 105.825 47.4788H105.828L105.826 47.4771Z" fill="#21B8CC"/>
<path d="M109.475 16.5079C109.8 16.5061 110.122 16.5409 110.437 16.6158C113.598 17.3727 114.691 21.1364 112.341 23.4141C109.908 25.7719 105.523 24.4616 105.038 20.9972C104.685 18.4811 107.122 16.5235 109.477 16.5079H109.475Z" fill="#21B8CC"/>
<path d="M42.1305 82.9999C27.1658 83.0173 12.9867 74.8774 5.01243 61.2042C-7.47902 39.7825 4.64396 10.9796 27.3709 2.59084C42.5772 -3.02253 61.7028 0.487132 72.4266 13.0885C72.8942 13.6384 73.2261 14.4249 73.3182 15.14C73.678 17.9415 73.313 19.8242 71.3264 21.82C67.6035 25.5594 63.825 29.2431 60.0655 32.9459C55.9359 37.0124 51.8636 41.1467 47.7044 45.1801C46.4217 46.4242 44.9687 47.5622 43.262 48.0982C41.0564 48.7907 38.7308 48.0668 36.8972 46.7705C34.0798 44.7816 33.9946 39.2431 36.3427 36.901C42.6606 30.602 48.9941 24.3187 55.3241 18.032C55.338 18.0181 55.3536 18.0041 55.3693 17.9902C56.2748 17.155 56.2939 17.0628 55.159 16.5373C54.1579 16.0727 53.1029 15.7195 52.0565 15.3593C45.65 13.1512 38.7239 12.9284 32.3087 15.2566C21.6127 19.1404 14.2155 29.3353 13.9634 40.6734C13.6367 55.3489 25.346 68.1487 40.0604 69.1962C47.2751 69.7095 54.6584 67.3239 60.1924 62.6884C62.8464 60.4664 65.5317 58.1104 69.1904 59.4311C70.8485 60.0296 72.1155 61.1032 73.0141 62.5109C73.5042 63.28 73.6398 64.331 73.7423 65.2776C74.4619 71.9507 63.9414 77.2508 58.901 79.4502C53.3896 81.855 47.7062 82.993 42.1322 82.9999H42.1305Z" fill="#21B8CC"/>
</g>
<defs>
<clipPath id="clip0_4114_2">
<rect width="181" height="83" fill="white"/>
</clipPath>
</defs>
</svg>
