<?xml version="1.0" encoding="utf-8"?>
<!-- Generator: Adobe Illustrator 25.2.1, SVG Export Plug-In . SVG Version: 6.00 Build 0)  -->
<svg version="1.1" id="Capa_1" xmlns="http://www.w3.org/2000/svg" xmlns:xlink="http://www.w3.org/1999/xlink" x="0px" y="0px"
	 viewBox="0 0 202.7 202.7" style="enable-background:new 0 0 202.7 202.7;" xml:space="preserve">
<style type="text/css">
	.st0{fill:#E04172;}
	.st1{fill:#FFFFFF;}
</style>
<g id="Capa_2_1_">
	<g id="_รรฐ_1">
		<path class="st0" d="M43.9,0h114.8c24.3,0,43.9,19.7,43.9,43.9v114.8c0,24.3-19.7,43.9-43.9,43.9H43.9C19.7,202.7,0,183,0,158.8
			V43.9C0,19.7,19.7,0,43.9,0z"/>
		<polygon class="st1" points="38.3,79.2 38.3,135.3 69.7,100.6 		"/>
		<polygon class="st1" points="101.3,122.2 78.4,106.6 45.4,143.1 157.2,143.1 124.2,106.6 		"/>
		<polygon class="st1" points="164.3,135.3 164.3,79.2 133,100.6 		"/>
		<polygon class="st1" points="38.3,59.6 38.3,66.6 101.3,109.5 164.3,66.6 164.3,59.6 		"/>
	</g>
</g>
</svg>
