<?xml version="1.0" encoding="utf-8"?>
<!-- Generator: Adobe Illustrator 25.2.1, SVG Export Plug-In . SVG Version: 6.00 Build 0)  -->
<svg version="1.1" id="Capa_1" xmlns="http://www.w3.org/2000/svg" xmlns:xlink="http://www.w3.org/1999/xlink" x="0px" y="0px"
	 viewBox="0 0 202.7 202.7" style="enable-background:new 0 0 202.7 202.7;" xml:space="preserve">
<style type="text/css">
	.st0{fill:#E04172;}
	.st1{fill:#FFFFFF;}
</style>
<g id="Capa_2_1_">
	<g id="_รรฐ_1">
		<path class="st0" d="M43.9,0h114.8c24.3,0,43.9,19.7,43.9,43.9v114.8c0,24.3-19.7,43.9-43.9,43.9H43.9C19.7,202.7,0,183,0,158.8
			V43.9C0,19.7,19.7,0,43.9,0z"/>
		<path class="st1" d="M137.7,117.9c-7.5-7.5-17.6-11.7-28.2-11.7H93.2c-22,0-39.9,17.9-39.9,39.9l0,0v8.7h96.1v-8.7
			C149.4,135.5,145.2,125.4,137.7,117.9z"/>
		<path class="st1" d="M101.3,93.7c15.2,0,27.6-12.4,27.6-27.6s-12.4-27.6-27.6-27.6S73.7,50.8,73.7,66.1c0,0,0,0,0,0
			C73.8,81.3,86.1,93.7,101.3,93.7z"/>
	</g>
</g>
</svg>
