<svg xmlns="http://www.w3.org/2000/svg" viewBox="0 0 202.67 202.67"><defs><style>.cls-1{fill:#6d6d6d;}.cls-2{fill:#fff;}</style></defs><g id="Capa_2" data-name="Capa 2"><g id="_àð_1" data-name="˜àð_1"><rect class="cls-1" width="202.67" height="202.67" rx="43.91"/><path class="cls-2" d="M152.53,135.47l-26.12-12.2a4.33,4.33,0,0,0-5.28,1.31c-1.08,1.44-2.2,2.86-3.35,4.24a13.87,13.87,0,0,1-17.83,3,82,82,0,0,1-15.86-12.79A82.21,82.21,0,0,1,71.3,103.19a13.87,13.87,0,0,1,3-17.82Q76.4,83.65,78.56,82a4.32,4.32,0,0,0,1.32-5.28L67.68,50.61a5.53,5.53,0,0,0-5.59-3.15,28.89,28.89,0,0,0-12.76,5.12c-22.18,17.2-8.58,55,18.84,82.4s65.19,41,82.4,18.84a29,29,0,0,0,5.11-12.77A5.49,5.49,0,0,0,152.53,135.47Z"/><path class="cls-2" d="M126,104.33h7.72a36.05,36.05,0,0,0-36-36V76A28.32,28.32,0,0,1,126,104.33Z"/><path class="cls-2" d="M154.3,104.33H162A64.38,64.38,0,0,0,97.72,40v7.72A56.64,56.64,0,0,1,154.3,104.33Z"/></g></g></svg>