<?xml version="1.0" encoding="utf-8"?>
<!-- Generator: Adobe Illustrator 27.4.0, SVG Export Plug-In . SVG Version: 6.00 Build 0)  -->
<svg version="1.1" xmlns="http://www.w3.org/2000/svg" xmlns:xlink="http://www.w3.org/1999/xlink" x="0px" y="0px"
	 viewBox="0 0 1500 600" style="enable-background:new 0 0 1500 600;" xml:space="preserve">
<style type="text/css">
	.st0{fill:#666666;}
	.st1{fill:#21B8CC;}
</style>
<g id="Capa_1">
	<path class="st0" d="M1224.87,331.49c12.19,22.6,31.43,33.68,55.36,38.6c0-13.39,0-26.38,0-39.71c-18.58,0-37.14,0-55.91,0
		c0-5.36,0-10.39,0-15.63c26.24,8.64,52.15,8.18,77.35-3.02c25.28-11.24,42.83-30.22,53.38-55.71c18.41,0,36.83,0,55.45,0
		c0.05,1.03,0.13,1.89,0.13,2.76c0.01,22.53,0.01,45.07,0,67.6c0,3.98-0.02,3.99-3.88,3.99c-16.12,0-32.24,0.05-48.35-0.05
		c-2.48-0.02-3.4,0.51-3.41,3.21c-0.01,18.86-0.21,37.72-0.32,56.57c-0.04,7.4,0.05,7.62-7.05,9.57
		c-28.09,7.71-55.71,7.22-81.87-6.75c-23.55-12.58-36.61-32.9-40.89-59.04C1224.79,333.35,1224.87,332.81,1224.87,331.49z"/>
	<path class="st0" d="M1224.13,255.73c18.87,0,37.37,0,56.32,0c0-1.39,0-2.52,0-3.64c0-16.36,0.04-32.73-0.05-49.09
		c-0.01-2.4,0.58-3.19,3.11-3.18c22.83,0.1,45.67,0.1,68.5,0c2.59-0.01,3.11,0.88,3.1,3.22c-0.08,15.02-0.04,30.04-0.04,45.07
		c0,1.03,0,2.07,0,3.1c0.22,0.05,0.44,0.1,0.67,0.16c0.39-0.83,0.82-1.64,1.18-2.48c9.87-22.91,25.3-40.83,47.91-51.89
		c21.88-10.71,44.49-11.71,67.54-3.85c1.87,0.64,2.66,1.53,2.64,3.63c-0.11,10.54-0.05,21.08-0.05,32.08
		c-1.07-0.39-1.86-0.64-2.63-0.96c-13.68-5.64-27.91-8.41-42.7-7.75c-24.9,1.12-46.55,10.4-65.35,26.56
		c-1.02,0.87-1.96,1.85-3.01,2.67c-12.06,9.4-23.46,19.71-37.31,26.64c-13.11,6.56-26.96,10.44-41.48,12.2
		c-19.32,2.35-37.99-0.25-56.13-7.06c-0.88-0.33-2.09-1.43-2.1-2.19C1224.06,271.38,1224.13,263.78,1224.13,255.73z"/>
	<path class="st0" d="M1099.36,326.55c8.05,0,15.99,0,24.1,0c0.49,1.87,0.68,3.19-1.9,3.55c-5.34,0.74-6.94,2.75-7.02,8.28
		c-0.19,12.33-0.26,24.67-0.58,37c-0.37,14.31-7.95,24.69-20.69,27.53c-5.33,1.19-11.01,1.27-16.51,1.07
		c-4.13-0.15-8.37-1.11-12.3-2.46c-11.77-4.04-18.04-12.67-18.67-24.93c-0.5-9.63-0.12-19.31-0.22-28.97
		c-0.02-1.86-0.23-3.76-0.66-5.57c-1.49-6.15-4.89-9.32-11.23-9.67c-6.4-0.35-12.84-0.08-19.55-0.08c-0.05,0.94-0.15,1.97-0.16,3.01
		c-0.01,18.15-0.01,36.31-0.01,54.46c0,7.31,1.49,8.95,8.73,9.69c0.25,0.03,0.49,0.14,0.87,0.25c0,0.87,0,1.74,0,2.84
		c-11.4,0-22.79,0-34.38,0c0-0.99,0-1.92,0-2.82c8.94-1.61,9.67-2.49,9.67-11.58c0-17.71-0.05-35.41,0.06-53.12
		c0.01-2.5-0.72-3.26-3.17-3.12c-4.46,0.26-8.96-0.01-13.41,0.41c-8.5,0.79-12.45,5.15-12.8,13.58c-0.01,0.35-0.08,0.71-0.14,1.29
		c-1.37,0-2.73,0-4.24,0c-0.32-4.63-1.52-8.98-5.17-12c-6.73-5.57-14.53-7.27-22.87-4.77c-2.45,0.73-4.79,2.82-6.46,4.87
		c-2.82,3.47-2.49,8.18,0.79,11.21c2.66,2.45,5.77,4.52,8.95,6.27c5.56,3.05,11.43,5.55,16.98,8.62c3.18,1.76,6.22,3.92,8.94,6.34
		c10.36,9.21,7.24,24.76-3.05,31.39c-7.7,4.95-16.31,5.72-25.07,4.99c-6.23-0.52-12.38-1.79-18.59-2.6
		c-2.38-0.31-2.99-1.47-2.91-3.74c0.17-5.07,0.05-10.15,0.05-15.16c3.94-0.87,3.94-0.87,5.24,2.59
		c4.38,11.69,18.59,17.95,30.13,13.27c6.18-2.51,9.86-8.15,8.05-13.33c-0.86-2.45-2.71-5-4.83-6.46c-4.02-2.76-8.55-4.8-12.89-7.09
		c-5.06-2.66-10.33-4.98-15.18-7.97c-6.3-3.9-10.3-9.52-9.66-17.33c0.71-8.49,5.3-14.46,12.95-18.03c6.5-3.03,13.52-3.71,20.5-3.09
		c29.5,2.65,59.05,0.84,88.57,1.32c9.22,0.15,18.45-0.02,27.67-0.03c0.52,0,1.03,0.1,1.52,0.15c1,2.47-0.02,3.26-2.3,3.55
		c-4.47,0.57-6.48,2.31-6.52,6.71c-0.15,13.94-0.65,27.94,0.28,41.82c1.01,14.93,12.66,23.25,27.55,21.08
		c13.36-1.95,20.81-10.15,21.24-24.71c0.37-12.58-0.09-25.2-0.38-37.79c-0.11-4.94-1.85-6.59-6.87-7.19
		C1099.66,329.82,1098.29,329.32,1099.36,326.55z"/>
	<path class="st0" d="M162.49,163.08c1.65-1.28,3.32-2.58,4.76-3.71c2.36,2.53,4.54,4.88,6.1,6.56c2.61,0.87,4.5,1.58,6.45,2.12
		c0.75,0.2,1.68,0.2,2.4-0.06c0.99-0.35,1.86-1.03,2.92-1.64c0.44,0.55,0.85,0.99,1.17,1.48c1.84,2.86,2.2,2.96,5.29,1.37
		c3.94-2.03,8.66,0.06,9.31,4.42c0.44,2.96,1.82,3.82,4.53,3.26c1.46-0.3,2.04,0.43,2.39,1.8c0.35,1.38,1.03,2.68,1.57,4.01
		c1.47-0.64,2.93-1.28,4.8-2.09c0.23,0.31,0.77,1.08,1.35,1.81c1.71,2.15,3.5,4.24,5.14,6.44c0.67,0.9,1.26,1.99,1.5,3.08
		c1.63,7.16,0.28,13.86-3.52,20.05c-0.67,1.09-1.83,1.9-2.83,2.76c-1.25,1.08-2.57,2.08-4.02,3.24c3.79,1.4,5.64,0.84,8.1-1.43
		c0.82-0.76,2.53-1.16,3.59-0.87c0.9,0.25,1.89,1.67,2.07,2.71c0.49,2.91-1.21,4.88-3.71,6.21c7.75,7.11,7.96,10.91,0.86,15.93
		c17.79,27.24,22.9,56.68,14.05,88.09c-6.45,22.9-19.77,41.29-38.98,55.34c-38.17,27.91-90.49,26.32-127.59-4.2
		c-20.77-17.08-33.07-39.22-36.8-65.87c-3.71-26.54,2.42-50.92,17.13-73.18c-7.06-5.88-6.91-8.72,0.24-15.52
		c-1.14-2.14-2.51-4.02-3.06-6.11c-0.25-0.93,0.92-2.87,1.91-3.31c0.98-0.43,3.24,0.03,3.72,0.83c2.15,3.58,5.16,1.5,8,1.81
		c-7.06-6.43-8.1-13.34-2.04-21.5c-2.71,0-4.9-0.07-7.08,0.02c-1.76,0.07-2.67-0.44-2.6-2.4c0.11-2.86,0.1-5.73,0.01-8.58
		c-0.06-1.79,0.74-2.33,2.42-2.3c3.31,0.07,6.64,0.15,9.94-0.07c0.98-0.07,2.03-0.98,2.8-1.75c1.74-1.75,3.38-3.61,4.95-5.52
		c0.74-0.89,1.56-1.95,1.74-3.03c0.82-4.92,5.79-7.33,10.2-4.98c1.19,0.63,2.78,0.62,4.2,0.67c2.3,0.07,4.6,0.04,6.89-0.14
		c0.99-0.08,2.26-0.33,2.87-1c2.71-2.96,5.23-6.1,7.97-9.36c2.46,1.96,4.79,3.83,6.57,5.25c2.13-2.26,4.24-4.1,5.81-6.33
		c0.88-1.24,0.85-3.12,1.28-4.95c2.3,0.06,2.7-1.64,3.11-3.7c1.1-5.58,4.6-8.54,10.47-8.94c1.67-0.11,2.14-0.73,2.12-2.28
		c-0.02-1.51-0.18-2.58-2.11-2.66c-0.97-0.04-2.67-0.67-2.72-1.16c-0.19-1.99,0.05-4.03,0.36-6.02c0.04-0.23,1.47-0.36,2.25-0.35
		c1.59,0.03,2.4-0.64,2.18-2.24c-0.34-2.52,0.96-3.15,3.16-2.89c0.62,0.07,1.26,0.06,1.88,0c1.94-0.19,3.16,0.33,2.88,2.61
		c-0.22,1.83,0.66,2.72,2.5,2.49c2.38-0.29,2.98,0.91,2.73,2.99c-0.08,0.71-0.08,1.44,0,2.14c0.22,1.85-0.53,2.67-2.41,2.49
		c-1.77-0.17-2.87,0.3-2.87,2.45c0,1.95,0.87,2.31,2.59,2.46c5.05,0.46,8.7,3.94,9.71,8.96c0.3,1.5,0.06,3.34,2.41,3.54
		c0.26,0.02,0.69,1.06,0.62,1.56c-0.35,2.3,0.81,3.46,2.62,4.68C160.15,159.57,161.08,161.35,162.49,163.08z M136.78,401.64
		c5.16-0.48,10.36-0.7,15.47-1.5c62.34-9.72,101.04-73.04,80.98-132.7c-3.61-10.73-7.89-21.29-16.58-29.26
		c-0.56-0.51-0.76-1.39-1.16-2.08c-0.57-1-1.02-2.11-1.78-2.94c-22.29-24.84-50.05-36.82-83.51-35.1
		c-18.79,0.96-35.96,7.02-51.31,17.79c-8.54,5.99-16.95,12.3-21.99,21.89c-0.35,0.67-1.13,1.11-1.7,1.67
		c-0.82,0.8-1.78,1.52-2.41,2.45c-14.93,21.95-20.72,46.1-16.98,72.37C43.06,365.27,87.87,401.95,136.78,401.64z M209.91,185.5
		c0.65,1.28,1.09,2.17,1.48,2.92c-2.23,0.56-4.14,1.04-6.65,1.66c0.81-1.32,1.25-2.05,1.87-3.06c-2.65,1.01-3.91,2.51-4.01,4.97
		c-0.11,2.58-0.49,5.16-0.5,7.74c-0.01,2.07-0.88,3.32-3.39,4.37c0.09-1.38-0.24-2.7,0.28-3.28c2.08-2.35,2.55-5.13,2.4-8.01
		c-0.16-3.03,0.75-5.14,3.63-6.44c2.59-1.17,0.67-3.3,0.76-4.99c0.08-1.42-0.84-1.84-2.24-1.99c-3.28-0.34-4.3-1.47-4.71-4.63
		c-0.46-3.51-3.91-5.1-6.73-2.9c-2.16,1.69-4.01,1.11-5.83-0.25c-0.67-0.5-1.01-1.45-1.42-2.08c-1.9,0.97-3.16,1.6-4.31,2.19
		c-1.37-0.99-2.59-2.54-3.83-2.56c-1.26-0.02-2.54,1.49-3.87,2.36c-1.1-1-2.2-2.01-3.28-3c0.57-0.71,1.03-1.29,1.52-1.89
		c-5.39-3.23-5.39-3.23-7.85,0.43c0.39,0.21,0.78,0.42,1.17,0.62c4.17,2.16,4.54,5.24,1.09,8.22c-1.75,1.51-3.43,3.12-5.03,4.8
		c-0.82,0.86-1.4,1.94-2.21,3.11c0.52,0.26,1.48,0.42,1.81,0.97c0.62,1,1.53,2.58,1.15,3.3c-1.62,3.04-0.03,5.48,1.07,7.99
		c0.3,0.67,1.27,1.05,1.94,1.56c-2.94-7.74-2.58-6.32,1.92-11.28c0.53,0.9,0.85,2.07,1.61,2.61c2.71,1.94,5.31,3.86,7.5,6.5
		c2.15,2.61,6.4,3.46,5.87,9.01c3.34-3.69,6.26-2.26,9.18-1.53c1.03,0.25,2.13,0.26,3.2,0.27c2.64,0.01,5.32-0.11,5.51,3.45
		c1.13,0,1.95,0,3.01,0c-0.47,1.43-0.73,2.67-1.29,3.76c-0.49,0.96-1.16,2.19-2.04,2.52c-1.63,0.61-1.72,0.37-2.06,1.76
		c1.53,0.27,3.05,0.54,4.01,0.71c0.5-1.74,0.94-3.27,1.49-5.15c0.94,0.67,1.4,0.92,1.77,1.27c0.68,0.65,1.31,1.35,1.96,2.03
		c0.45-0.9,0.96-1.78,1.34-2.71c0.2-0.48,0.31-1.06,0.26-1.57c-0.23-2.15,1.18-2.67,3.16-3.17c-0.31,1.76-0.58,3.28-0.88,4.97
		c2.62-2.64,2.75-4.64,0.6-8.53c-0.83-1.49-1.1-2.93,0.44-4.05c1.55-1.13,3.03-0.49,3.97,0.85c0.95,1.36,1.69,2.92,2.2,4.5
		c0.45,1.38,0.44,2.91,0.7,4.83c2.97-5.39,3.43-10.67,2.18-16.13c-0.2-0.88-1.16-1.6-1.76-2.39c-0.76,0.63-1.6,1.18-2.25,1.91
		c-0.87,0.97-1.54,2.13-2.43,3.08c-0.22,0.24-1.13,0.17-1.42-0.09c-0.25-0.23-0.27-1.02-0.07-1.41c1.03-2.03,2.21-3.98,3.22-6.01
		c0.25-0.5,0.25-1.36-0.02-1.83C213.53,183.12,211.77,185.4,209.91,185.5z M136.59,178.16c-2.85-1.61-5.78-3.26-8.62-4.87
		c-0.87-2.19,3.93-4.25-0.17-6.79c-1.13,2.04-2.19,3.95-3.32,6c-1.02-0.41-1.9-0.76-2.89-1.16c0.52-1.31,1.03-2.35,1.34-3.44
		c0.34-1.19,0.66-2.43,0.68-3.66c0.04-2.63-1.91-5.08-4.21-5.56c-2.11-0.44-4.34,0.93-5.53,3.37c-1.39,2.85-0.9,6.37,1.33,8.72
		c0.59,0.62,1.48,0.95,2.11,1.34c-2.03,3.34-3.51,5.49-7.48,4.69c-3.62-0.73-7.02,1.06-9.7,3.65c-0.52,0.5-0.4,1.65-0.58,2.5
		c0.79-0.12,1.66-0.09,2.37-0.4c2.02-0.88,3.89-2.3,5.99-2.8c4.46-1.07,8.57,2,9.37,6.59c0.83,4.81-1.79,8.6-6.64,9.18
		c-2.83,0.34-5.72,0.16-8.56,0.41c-0.75,0.07-1.44,0.85-2.16,1.3c0.73,0.49,1.44,1.38,2.18,1.41c9.02,0.36,17.9-0.4,26.27-4.1
		c1.77-0.78,3.02-0.61,4.66,0.39c1.38,0.84,3.94,1.84,4.73,1.21c3.66-2.95,6.94-1.68,10.57-0.2c2.29,0.93,4.83,1.3,7.29,1.76
		c1.87,0.35,3.79,0.43,6.14,0.68c-1.74-4.2-6.31-6.1-5.96-10.93c0.32-4.44,2.84-7.35,6.24-10.28c-3.37,0.27-4.16-2.18-5.28-3.92
		c-0.28-0.43,0.93-1.97,1.64-2.84c1.58-1.95,2.13-4.11,1.61-6.52c-0.72-3.35-3.53-5.7-6.14-5.2c-2.97,0.56-4.85,3.81-4.07,7.34
		c0.39,1.79,1.12,3.5,1.76,5.42c-1.05,0.37-1.94,0.69-2.87,1.02c-1.14-2.04-2.17-3.87-3.31-5.9c-0.75,0.67-1.64,1.17-1.58,1.45
		c0.41,1.82,1.04,3.59,1.55,5.24C142.32,174.94,139.47,176.54,136.59,178.16z M99.13,195.99c-1.62-7.35-3.07-14.33-4.71-21.26
		c-0.8-3.4-2.4-4.3-5.87-3.84c-0.97,0.13-1.95,0.3-2.89,0.57c-1.91,0.56-3.49,0.47-5.22-0.88c-2.4-1.88-6.26-0.35-6.36,2.56
		c-0.09,2.74-1.42,4.19-3.43,5.59c-1.22,0.85-2.46,1.94-3.14,3.22c-0.52,0.98-0.72,2.81-0.15,3.6c4.27,5.84,8.74,11.54,13.25,17.21
		c0.33,0.42,1.77,0.59,2.15,0.25C87.27,199.07,92.52,196.81,99.13,195.99z M58.45,224.01c-2.39,1.12-4.52,2.01-6.56,3.1
		c-2.2,1.17-3.97,2.79-4.41,5.41c-0.41,2.42,1.22,5.07,3.46,5.69c1.99,0.55,4.35-0.62,4.89-2.69c0.23-0.87-0.26-1.92-0.42-2.89
		c-0.74,0.52-1.49,1.05-2.23,1.57c-0.51,0.36-1.21,1.11-1.5,0.98c-0.52-0.24-1.19-1.08-1.1-1.54c0.2-1.06,0.56-2.35,1.33-2.99
		c1.19-1.01,2.72-1.72,4.2-2.3c10.58-4.17,18.67-11.45,25.47-20.33c0.51-0.66,0.85-2.25,0.46-2.66c-1.28-1.37-1.92,0.19-2.64,0.99
		c-1.97,2.19-3.81,4.52-5.92,6.57c-3.21,3.12-7.47,2.91-10.8-0.31c-3.13-3.03-3.57-8.26-0.42-11.06c1.91-1.69,4.63-2.46,6.93-3.73
		c0.67-0.37,1.17-1.05,1.75-1.6c-0.69-0.41-1.38-1.16-2.08-1.17c-4.62-0.03-10.13,4.45-11.27,8.98c-1.23,4.92,0.98,9.9,5.61,12.5
		c1.06,0.6,2.22,1.02,3.33,1.53c0.04,0.22,0.08,0.44,0.11,0.66c-2.15,0.64-4.28,1.71-6.46,1.83c-3.01,0.17-6.61,1.31-8.4-2.73
		c-0.11-0.25-1.11-0.42-1.41-0.21c-0.44,0.3-0.99,1.19-0.84,1.45c0.72,1.24,1.43,2.83,2.58,3.4
		C53.87,223.32,56.01,223.46,58.45,224.01z M206.5,218.23c1.58-0.77,2.83-1.26,3.95-1.95c5.59-3.4,7.39-10.91,3.69-15.57
		c-0.51-0.64-1.57-0.83-2.38-1.23c-0.05,0.85-0.43,1.87-0.1,2.53c3.31,6.54,0.52,11.81-6.91,12.92c-0.6,0.09-1.23,0.5-1.7,0.93
		c-0.75,0.68-1.38,1.49-2.38,2.6c3.42,2.29,6.73,4.72,10.26,6.8c2.76,1.63,5.91,2.61,8.65,4.27c1.37,0.83,2.3,2.49,3.2,3.91
		c0.16,0.25-0.65,1.35-1.22,1.73c-0.23,0.15-1.07-0.54-1.59-0.91c-0.73-0.52-1.42-1.08-2.13-1.63c-0.14,1.05-0.64,2.22-0.33,3.12
		c0.74,2.22,3.17,3.13,5.27,2.27c2.36-0.98,3.96-4.19,2.58-6.48c-1.17-1.95-3.13-3.54-5.03-4.89c-1.62-1.15-3.65-1.72-5.9-2.73
		c2.29-0.37,4.27-0.3,5.86-1.05c1.35-0.64,2.35-2.16,3.28-3.45c0.21-0.29-0.55-1.27-0.86-1.93c-0.57,0.32-1.18,0.59-1.7,0.97
		c-0.81,0.6-1.46,1.69-2.33,1.87C214.52,221.2,210.52,220.74,206.5,218.23z M135.14,142.52c-1.31-0.13-2.27-0.25-3.23-0.31
		c-4.74-0.25-8.2,2.23-9.19,6.83c-0.2,0.9,0.11,2.58,0.68,2.86c1.47,0.71,2.25-0.21,2.7-1.84c0.97-3.49,3.59-5.09,6.9-4.26
		c1.32,0.33,2.47,1.31,3.15,1.69c2.33-0.67,4.3-1.69,6.28-1.69c2.9-0.01,4.14,2.27,5.01,4.83c0.22,0.66,1.54,0.95,2.36,1.4
		c0.33-0.76,1.03-1.58,0.93-2.28c-0.72-4.89-4.44-7.79-9.45-7.55c-0.78,0.04-1.55,0.01-2.39,0.01c0-3.09,0-6.08,0-8.79
		c1.45-1.49,4.52,0.87,4.63-2.17c0.12-3.38-3.3-0.79-4.66-2.46c-1.12-1,1.31-4.04-1.73-4.22c-3.61-0.22-0.94,3.4-2.7,4.72
		c-0.35,0.04-0.96,0.1-1.57,0.16c-1.16,0.12-2.69-0.41-2.77,1.6c-0.09,2.22,1.6,1.52,2.79,1.84c0.82,0.22,2.09,0.92,2.14,1.5
		C135.27,137.03,135.14,139.7,135.14,142.52z M115.58,187.82c0.03-2.33-4.14-6.81-6.47-6.6c-1.2,0.11-3.04,0.82-3.35,1.69
		c-1.05,3.02-3.21,2.94-5.67,2.92c-0.73-0.01-1.48,0.8-2.21,1.24c0.63,0.89,1.15,1.89,1.93,2.62c0.35,0.33,1.21,0.19,1.82,0.14
		c1.77-0.16,2.84,0.28,3.71,2.14c0.54,1.16,2.36,2.18,3.74,2.4C111.33,194.73,115.55,190.18,115.58,187.82z M67.38,200.8
		c-3.5-0.01-4.39,1.68-4.29,7.37c0.05,2.59,1.93,4.51,4.35,4.38c1.24-0.06,2.47-0.19,3.71-0.33c2.7-0.3,4.73-3.45,3.3-5.74
		c-1.23-1.97-0.59-3.03,0.68-4.31c0.44-0.44,1.12-1.01,1.08-1.46c-0.09-1.02-0.41-2.12-0.99-2.95c-0.16-0.23-1.78,0.13-2.31,0.64
		C71.23,200.07,70.15,202.96,67.38,200.8z M136.33,156.56c5,0,10,0.04,15-0.03c1.1-0.01,2.92,0.57,2.7-1.43
		c-0.06-0.56-1.83-1.33-2.82-1.34c-9.82-0.1-19.64-0.09-29.46-0.02c-1.14,0.01-3.09-0.74-3.02,1.47c0.07,2.21,2.03,1.27,3.14,1.3
		C126.69,156.63,131.51,156.57,136.33,156.56z M148.84,158.73c-2.24-0.73-3.51-0.2-4.69,1.65c-1.17,1.84-2.76,3.5-4.43,4.94
		c-2.01,1.73-4.37,1.69-6.33-0.12c-1.62-1.5-3.17-3.17-4.37-5.01c-1.14-1.74-2.38-2.19-4.59-1.36c2.48,4.75,5.41,8.88,10.54,10.84
		c1.06,0.41,2.59,0.35,3.65-0.1C143.57,167.51,146.54,163.52,148.84,158.73z M55.45,189.73c1.03,0.1,1.86,0.19,2.69,0.27
		c-0.08,0.64-0.2,1.28-0.22,1.92c-0.02,0.79-0.09,2.2,0.13,2.25c0.99,0.25,2.11,0.25,3.1,0c0.22-0.06,0.41-1.63,0.09-2.22
		c-0.94-1.75-0.31-2.27,1.39-2.28c1.8,0,3.6,0,5.57,0c-0.37-2.76-1.55-3.83-3.64-3.85c-3.3-0.03-6.6-0.04-9.9-0.01
		c-2.55,0.02-3.27,1.21-2.34,3.56c0.28,0.72,0.31,1.56,0.36,2.36c0.05,0.85,0,1.7-0.01,2.55c1.13-0.04,2.26-0.08,3.39-0.12
		c-0.12-0.86-0.24-1.73-0.36-2.59C55.63,191.09,55.57,190.59,55.45,189.73z M96.65,176.14c1.19-1.38,2.34-2.71,3.48-4.05
		c1.16-1.36,2-1.3,2.53,0.52c0.61,2.1,1.63,2.11,2.9,0.5c0.42-0.54,0.79-1.13,1.38-1.96c-1.51-0.72-2.79-1.32-4.15-1.97
		c3.28-4.96,3.06,1.86,5.44,0.75c0.46-0.57,1.23-1.52,1.9-2.34c-2.15-1.9-4.11-3.63-6.32-5.59c-2.83,3.38-5.71,6.65-8.39,10.08
		C94.28,173.52,94.97,174.91,96.65,176.14z M136.56,176.49c1.98-1.07,3.97-2.06,5.85-3.21c0.5-0.31,0.69-1.13,1.03-1.71
		c-0.66-0.13-1.48-0.59-1.94-0.35c-3.28,1.69-6.45,1.62-9.75,0.01c-0.54-0.26-1.54,0.41-2.33,0.64c0.09,0.25,0.18,0.51,0.27,0.76
		C132,173.93,134.31,175.23,136.56,176.49z M161.72,168.39c-1.1,1.32-2.08,2.26-2.74,3.38c-0.34,0.59-0.44,1.8-0.07,2.21
		c0.67,0.74,2,1.72,2.66,1.49c1.57-0.56,3.01-1.65,4.22-2.82c0.21-0.21-0.81-1.97-1.54-2.77
		C163.63,169.2,162.62,168.89,161.72,168.39z M111.66,168.66c-1.94,2.31-3.7,4.41-5.78,6.89c2.02-0.09,3.43-0.47,4.64-0.14
		c2.54,0.71,3.6-0.58,4.46-2.57C113.96,171.56,112.97,170.31,111.66,168.66z M104.01,200.52c-0.06-0.25-0.12-0.51-0.18-0.76
		c-2.04,0-4.08,0.01-6.11,0c-3.59-0.03-4.12,0.64-3.25,4.41C97.67,202.95,100.84,201.74,104.01,200.52z M197.5,210.8
		c-1.56-1.95-2.95-3.92-4.6-5.64c-0.54-0.56-1.75-0.48-2.66-0.69c0.13,0.77,0.04,1.67,0.42,2.27c0.8,1.27,1.89,2.35,2.77,3.58
		C194.51,211.82,195.69,212.26,197.5,210.8z M169.55,199.77c-0.06,0.26-0.12,0.53-0.17,0.79c3.21,1.23,6.42,2.46,9.8,3.75
		c-0.42-4.58-0.42-4.57-4.58-4.54C172.92,199.78,171.24,199.77,169.55,199.77z M170.92,195.64c0-0.05-0.01-0.1-0.01-0.15
		c-1.15,0.12-2.34,0.09-3.42,0.42c-0.56,0.17-0.93,0.97-1.39,1.49c0.54,0.43,1.05,1.2,1.61,1.22c1.76,0.08,3.55-0.02,5.3-0.25
		c0.63-0.08,1.19-0.7,1.79-1.07c-0.58-0.56-1.08-1.29-1.78-1.61C172.43,195.42,171.63,195.64,170.92,195.64z M181.94,205.62
		c3.32,1.81,6.33,3.46,9.33,5.1c-0.65-1.71-1.61-2.97-2.57-4.22C186.04,203.07,186.04,203.07,181.94,205.62z M90.87,205.83
		c0.04-0.28,0.08-0.56,0.12-0.85c-1.45-0.33-3.54-1.43-4.22-0.86c-2.07,1.76-3.6,4.16-5.34,6.31c0.14,0.13,0.29,0.26,0.43,0.4
		C84.87,209.17,87.87,207.5,90.87,205.83z M165.19,189.63c-0.34,0.07-0.68,0.14-1.02,0.21c0.36,1.46,0.39,3.12,1.17,4.31
		c0.68,1.04,4.93,0.33,5.78-0.63C169.14,192.21,167.17,190.92,165.19,189.63z M70.12,193.31c-1.03-1.83-4.09-2.91-5.7-1.78
		c-0.71,0.5-0.76,1.94-1.29,3.48C65.98,194.31,68.03,193.82,70.12,193.31z M100.96,174.36c-3.73,3.39-3.97,3.91-2.83,5.79
		c1.64-1.21,3.27-2.41,5.15-3.8C102.46,175.65,101.76,175.05,100.96,174.36z M91.99,204.03c0.24-1.9,0.4-3.14,0.64-4.99
		c-1.71,0.85-2.88,1.44-4.49,2.24C89.51,202.25,90.42,202.9,91.99,204.03z M104.44,194.87c-0.67-2.78-1.79-3.39-3.4-2.82
		c-0.34,0.12-0.41,0.98-0.61,1.49C101.6,193.93,102.77,194.32,104.44,194.87z M76.82,202.68c-0.27,1.33-0.54,2.67-0.82,4
		c0.31,0.06,0.62,0.13,0.93,0.19C77.8,205.64,80.24,204.78,76.82,202.68z M157.26,186.29c0.07,1.37,0.15,2.74,0.22,4.11
		c0.24-0.01,0.48-0.02,0.72-0.03C157.95,188.98,161.09,187.57,157.26,186.29z"/>
	<path class="st0" d="M817.82,367.78c0,0.96,0,2.01,0,3.05c0,6.53-0.04,13.06,0.01,19.58c0.05,6.5,1.89,8.44,8.32,9.03
		c0.35,0.03,0.7,0.09,1.22,0.16c0,0.96,0,1.89,0,3c-0.82,0.07-1.6,0.19-2.38,0.19c-9.85,0.01-19.7-0.05-29.55,0.05
		c-2.46,0.03-3-0.9-2.41-2.98c0.21-0.14,0.34-0.3,0.49-0.32c7.78-0.84,9.18-2.38,9.18-10.14c0-16.54-0.06-33.08,0.03-49.63
		c0.03-5.74-0.98-9.45-8.34-9.86c-0.43-0.02-0.85-0.22-1.4-0.38c0-0.9,0-1.77,0-2.78c0.43-0.11,0.84-0.29,1.25-0.29
		c13.16,0.01,26.32-0.11,39.48,0.14c3.79,0.07,7.67,0.85,11.3,1.98c7.76,2.4,12.3,7.76,12.88,16.02c0.57,8.1-3.23,13.88-10.05,17.86
		c-1.83,1.07-3.84,1.82-6.03,2.84c1.94,3.06,3.71,6.04,5.66,8.89c3.78,5.53,7.26,11.33,11.64,16.34c2.71,3.1,6.64,5.41,10.42,7.26
		c4.43,2.17,9.37-0.97,10.16-5.88c0.18-1.14,0.17-2.32,0.17-3.48c0.01-16.1,0.01-32.19,0.01-48.29c0-7.81-0.86-8.85-8.45-10.28
		c-0.35-0.07-0.68-0.19-1.12-0.31c-0.08-0.52-0.2-1.03-0.21-1.55c-0.01-0.42,0.11-0.85,0.19-1.41c11.45,0,22.79,0,34.25,0
		c0.78,2.13,0.35,3.19-2.16,3.5c-5.69,0.71-7.29,2.66-7.3,8.53c-0.03,16.81-0.01,33.62-0.01,50.43c0,8.2,1.2,9.55,9.35,10.55
		c0.83,2.88,0.67,3.18-2.1,3.18c-12.98,0.02-25.97-0.03-38.95,0.02c-11.48,0.04-19.91-4.88-25.22-15.09
		c-2.6-4.99-5.16-10.01-7.98-14.88C827.25,367.82,824.07,366.6,817.82,367.78z M817.82,346.57c0,4.82,0.01,9.65-0.01,14.47
		c0,1.23-0.01,2.43,1.69,2.43c4-0.01,8.06,0.37,11.99-0.2c5.12-0.74,8.85-3.7,10.31-8.94c3.87-13.96-7.58-26.62-21.93-24.33
		c-1.56,0.25-2.1,0.8-2.07,2.37C817.87,337.11,817.82,341.84,817.82,346.57z"/>
	<path class="st0" d="M302.4,321.25c0,1.36,0,2.4,0,3.45c0,15.82-0.06,31.65,0.05,47.47c0.02,3.28,0.41,6.62,1.15,9.8
		c1.28,5.48,4.93,9,10.51,9.76c3.66,0.5,7.53,0.57,11.17-0.01c6.84-1.1,10.66-5.82,11.62-13.55c0.36-2.92,0.55-5.88,0.56-8.82
		c0.05-15.02,0.08-30.04-0.03-45.06c-0.02-2.44,0.65-3.23,3.14-3.15c5.79,0.18,11.58,0.06,17.54,0.06c0.07,1.21,0.16,2.08,0.16,2.95
		c0.01,16.09,0.06,32.18-0.02,48.28c-0.03,6.59-1.07,13.02-4.32,18.88c-5.21,9.4-13.82,13.7-23.95,15.37
		c-8.55,1.41-17.14,1.28-25.56-1.04c-14.03-3.86-22.47-14.56-22.72-29.59c-0.29-17.52-0.11-35.04-0.06-52.57
		c0-0.75,0.74-2.14,1.16-2.15C289.23,321.21,295.65,321.25,302.4,321.25z"/>
	<path class="st0" d="M451.05,350.49c-1.05,0.06-2.01,0.16-2.97,0.17c-3.04,0.02-6.11-0.23-9.13,0.06
		c-5.39,0.52-9.13,0.02-11.12-6.53c-2.14-7.03-11.06-10.23-19.98-9.01c-10.31,1.41-16.69,7.29-19.46,17.09
		c-2.34,8.29-2.26,16.65,0.57,24.82c4.99,14.4,23.98,20.04,36.26,10.85c3.28-2.46,5.35-5.78,6.27-9.72c0.43-1.83,1.24-2.47,3.1-2.44
		c5.8,0.1,11.59,0.04,17.69,0.04c-0.76,7.13-3.02,13.19-7.34,18.43c-4.84,5.88-11.16,9.5-18.44,11.34
		c-11.9,3.01-23.81,2.84-35.43-1.26c-15.55-5.49-23.57-17.03-25.58-33.03c-1.08-8.63-0.59-17.19,2.9-25.28
		c6.37-14.74,18.03-22.79,33.58-25.28c10.13-1.62,20.2-0.93,29.79,3.13c11.16,4.72,17.48,13.24,19.35,25.12
		C451.18,349.39,451.08,349.83,451.05,350.49z"/>
	<path class="st0" d="M724.79,399.68c0,1.02,0,1.88,0,2.93c-11.46,0-22.78,0-34.42,0c-0.04-0.93-0.08-1.86-0.13-2.91
		c1.49-0.23,2.81-0.36,4.09-0.65c3.7-0.81,5.21-2.44,5.67-6.15c0.15-1.24,0.16-2.5,0.16-3.75c0.01-16.36,0.01-32.72,0-49.09
		c0-0.98-0.01-1.97-0.1-2.95c-0.41-4.45-2.2-6.31-6.67-6.97c-0.97-0.14-1.93-0.32-3-0.49c0-1.07,0-2,0-3.07c11.52,0,22.85,0,34.36,0
		c0,1.04,0,1.97,0,3.08c-1.15,0.19-2.28,0.36-3.41,0.55c-3.8,0.64-5.91,2.63-6.01,6.41c-0.2,7.15-0.15,14.3-0.06,21.45
		c0.01,0.62,1.03,1.76,1.59,1.76c13.87,0.06,27.75,0.01,41.62-0.04c0.15,0,0.31-0.15,0.81-0.41c0-3.19,0-6.56,0-9.93
		c0-3.58,0.01-7.15,0-10.73c-0.02-5.9-1.67-7.81-7.49-8.71c-0.62-0.09-1.23-0.23-2.05-0.38c0-0.94,0-1.87,0-3
		c11.3,0,22.63,0,34.09,0c0.74,2.11,0.32,3.16-2.2,3.47c-5.45,0.68-7.24,2.82-7.25,8.36c-0.03,17.26-0.02,34.51-0.01,51.77
		c0,6.59,1.8,8.54,8.45,9.2c0.34,0.03,0.67,0.12,1.14,0.21c0,0.94,0,1.8,0,2.9c-11.34,0-22.65,0-34.28,0
		c-0.05-0.89-0.09-1.8-0.15-2.85c1.48-0.24,2.8-0.38,4.08-0.66c3.51-0.78,5.43-2.5,5.5-5.97c0.19-9.36,0.07-18.73,0.07-28.29
		c-14.63,0-29.09,0-43.85,0c-0.06,0.94-0.16,1.88-0.16,2.82c-0.01,7.06-0.01,14.13-0.01,21.19
		C715.18,397.21,716.27,398.47,724.79,399.68z"/>
	<path class="st0" d="M1183.98,301.86c-1.01,0-2.07,0-3.12,0c-298.59,0-597.19,0-895.78,0c-0.45,0-0.97,0.15-1.33-0.03
		c-0.79-0.4-1.49-0.97-2.23-1.47c0.76-0.49,1.47-1.15,2.31-1.43c0.73-0.24,1.6-0.06,2.4-0.06c297.79,0,595.58,0,893.36,0
		c0.9,0,1.79,0.04,2.69,0C1184.38,298.79,1184.68,299.84,1183.98,301.86z"/>
	<path class="st0" d="M681.4,347.86c-1.62,0-2.85,0-4.02,0c-0.16-0.25-0.31-0.38-0.34-0.54c-2.9-12.81-11.76-19.09-23.93-21.59
		c-7.46-1.54-14.97-1.7-22.24,0.98c-12.56,4.63-19.92,13.79-21.78,26.89c-1.79,12.59,0.82,24.42,8.52,34.78
		c10.2,13.72,27.33,17.68,43.23,10.21c6.93-3.26,12.71-7.96,17.56-13.84c0.84-1.01,1.64-2.05,2.98-3.72c0,4.92,0.09,9.07-0.08,13.21
		c-0.03,0.73-0.99,1.61-1.74,2.09c-14.01,8.97-29.36,12.37-45.86,10.91c-9.5-0.84-18.47-3.2-26.53-8.54
		c-22.15-14.68-28.41-55.55,5.93-72.33c11.74-5.74,24.34-7.05,37.19-6.16c9.75,0.68,19.32,2.57,28.66,5.54
		c1.81,0.57,2.55,1.34,2.5,3.33C681.31,335.24,681.4,341.4,681.4,347.86z"/>
	<path class="st0" d="M1181.49,346.6c-3.98,0.75-3.97,0.75-4.87-2.69c-2.78-10.7-11.84-15.02-22.22-14.45
		c-2.76,0.15-5.69,1.04-8.14,2.35c-6.94,3.72-7.8,11.43-1.57,16.19c4.14,3.17,9.05,5.34,13.63,7.93
		c5.97,3.39,12.12,6.52,17.88,10.24c3.97,2.57,6.64,6.49,7.69,11.26c2.12,9.67-2.66,19.5-12.22,23.4
		c-4.7,1.92-10.03,3.36-15.04,3.24c-8.71-0.21-17.39-1.76-26.06-2.88c-0.76-0.1-1.99-1.16-2-1.8c-0.16-5.61-0.09-11.23-0.09-16.91
		c2.61-0.63,4.14-0.55,5.18,2.42c4,11.4,17.13,17.83,28.59,13.99c2.75-0.92,5.52-2.73,7.48-4.86c3.92-4.25,3.71-9.85-0.66-13.6
		c-3.33-2.87-7.35-5.02-11.26-7.13c-4.09-2.2-8.48-3.83-12.6-5.97c-2.92-1.52-5.8-3.23-8.39-5.26c-9.97-7.81-10.12-21.71-0.48-30.03
		c5.8-5,12.82-6.92,20.17-6.79c7.47,0.13,14.93,1.23,22.39,1.93c1.92,0.18,2.68,1.16,2.63,3.21
		C1181.4,335.81,1181.49,341.25,1181.49,346.6z"/>
	<path class="st0" d="M371.3,189.02c12.44,0.56,24.55,0.02,36.29,1.88c16.15,2.56,23.65,18.02,17.34,33.19
		c-3.28,7.88-9.94,11.37-17.75,13.25c-1.04,0.25-2.09,0.46-3.6,0.78c9.42,13.7,18.68,27.18,28.01,40.75
		c-5.2,1.58-7.4,0.87-10.05-2.98c-8.11-11.79-16.23-23.56-24.29-35.38c-0.96-1.41-1.95-2.06-3.7-2.01c-4.11,0.12-8.24,0.15-12.35,0
		c-2.21-0.08-2.92,0.61-2.9,2.86c0.1,11.71,0.07,23.42,0.01,35.13c0,0.95-0.44,2.66-0.83,2.71c-1.91,0.22-3.88,0.08-5.78-0.2
		c-0.25-0.04-0.38-1.61-0.38-2.47c-0.02-16.45-0.02-32.9-0.02-49.34c0-11.35,0-22.71,0-34.06
		C371.3,192.06,371.3,191.01,371.3,189.02z M378.36,214c0,5.45,0.03,10.9-0.02,16.34c-0.01,1.45,0.24,2.36,2.02,2.33
		c6.88-0.1,13.79,0.17,20.65-0.22c6.11-0.35,11.89-2.1,15.61-7.54c7.83-11.45,1.55-26.94-12.09-28.76
		c-7.74-1.04-15.69-0.47-23.55-0.76c-2.22-0.08-2.71,0.79-2.67,2.8C378.43,203.46,378.36,208.73,378.36,214z"/>
	<path class="st0" d="M1087.66,226.47c0-14.63,0-29.26,0-44.12c2.27,0,4.35,0,6.71,0c0.05,0.97,0.15,1.92,0.15,2.87
		c0.01,30.3,0.01,60.6-0.03,90.9c0,1.06-0.34,2.94-0.77,3.02c-1.8,0.32-3.71,0.18-5.55-0.03c-0.25-0.03-0.49-1.4-0.5-2.15
		c-0.05-3.64-0.02-7.28-0.02-11.27c-2.17,2.6-3.88,5.1-6.03,7.13c-8.25,7.79-18.05,9.54-28.64,6.24
		c-10.64-3.32-16.71-11.17-18.91-21.77c-2.51-12.06-1.52-23.74,6.47-33.86c7.99-10.13,22.88-13.73,34.48-8.53
		C1080.46,217.33,1084.22,221.53,1087.66,226.47z M1087.97,246.45c-0.3-2.84-0.41-5.71-0.93-8.5c-2.23-11.98-9.86-18.76-21.79-19.54
		c-10.81-0.71-20.17,5.77-23.52,16.58c-2.46,7.97-2.47,16.06,0.13,24.01c2.74,8.39,8.35,13.93,17.25,15.39
		c9.52,1.56,17.56-1.33,23.42-9.16C1086.65,259.71,1087.9,253.25,1087.97,246.45z"/>
	<path class="st0" d="M669.64,226.41c0-14.61,0-29.22,0-44.06c2.34,0,4.42,0,6.73,0c0.05,0.89,0.15,1.75,0.15,2.61
		c0.01,30.48-0.04,60.97,0.08,91.45c0.01,2.88-1.19,3.12-3.49,3.12c-2.31,0-3.73-0.25-3.51-3.14c0.25-3.37,0.06-6.78,0.06-10.63
		c-0.57,0.54-0.89,0.74-1.09,1.04c-7.13,10.76-17.75,15.52-29.65,13.26c-11.97-2.26-20.5-10.75-22.94-23.33
		c-1.77-9.11-1.45-18.17,2.52-26.78c6.24-13.54,21.08-20.33,35.35-16.24C660.81,215.71,665.57,220.33,669.64,226.41z M621.39,246.64
		c0.18,0.07,0.37,0.14,0.55,0.2c0.29,2.75,0.41,5.53,0.91,8.24c2.15,11.73,9.99,18.89,21.45,19.74
		c10.63,0.79,20.32-5.92,23.83-16.71c2.51-7.7,2.38-15.53,0.19-23.25c-2.89-10.19-10.1-15.7-20.99-16.46
		c-9.75-0.68-18.72,4.53-22.41,13.82C623.12,236.78,622.53,241.82,621.39,246.64z"/>
	<path class="st0" d="M562.55,226.89c0-15.08,0-29.76,0-44.27c0.49-0.25,0.64-0.39,0.8-0.4c5.93-0.43,5.93-0.42,5.93,5.54
		c0,29.25,0,58.5,0,87.74c0,3.63-2.51,5.32-5.8,3.76c-0.54-0.26-0.89-1.43-0.91-2.19c-0.09-3.66-0.04-7.32-0.04-10.99
		c-0.26-0.22-0.52-0.43-0.78-0.65c-0.16,0.48-0.22,1.02-0.49,1.42c-7.35,11.13-18.3,15.68-31.02,12.92
		c-11.41-2.48-19.91-11.91-21.81-24.46c-1.54-10.15-0.79-20,4.79-29c9.17-14.78,30.41-18.47,42.73-7.31
		C558.34,221.17,560.14,223.98,562.55,226.89z M562.79,246.37c-0.26-2.57-0.4-5.17-0.81-7.72c-1.95-12.16-9.94-19.47-22.04-20.25
		c-11.09-0.72-20.41,6.05-23.68,17.44c-2.2,7.66-2.08,15.4,0.29,22.99c3.01,9.65,10.44,15.3,20.62,16.01
		c8.99,0.62,17.99-4.61,22.15-12.88C561.79,257.06,562.64,251.82,562.79,246.37z"/>
	<path class="st0" d="M791.55,254.06c0.4-0.22,0.47-0.29,0.56-0.3c5.82-0.8,5.88-0.77,7.45,4.68c2.26,7.89,7.34,12.95,15.32,14.96
		c7.27,1.83,14.54,2.02,21.6-0.91c10.24-4.25,14.68-15.11,10.49-25.35c-1.36-3.32-3.68-5.98-7-7.02
		c-6.11-1.91-12.41-3.22-18.61-4.87c-4.57-1.21-9.25-2.18-13.62-3.93c-7.13-2.86-11.68-8.07-12.49-16.03
		c-0.9-8.88,1.75-16.25,9.2-21.53c9.98-7.07,27.63-7.22,37.73-0.37c6.09,4.13,9.09,10.07,10.3,17.73c-2.04,0-3.79,0.13-5.49-0.08
		c-0.52-0.06-1.22-0.95-1.37-1.58c-2.44-9.94-9.63-14.91-20.19-14.98c-4.31-0.03-8.83,0.42-12.91,1.71
		c-9.18,2.89-13.43,13.18-9.64,22.07c1.54,3.61,4.32,6.13,7.89,7.21c5.79,1.76,11.79,2.82,17.64,4.4
		c5.41,1.46,10.91,2.83,16.07,4.97c5.41,2.25,8.63,6.79,9.96,12.55c3.89,16.86-6.74,31.19-24.46,32.87
		c-7.29,0.69-14.51,0.26-21.37-2.61C798.16,273.28,793.16,264.96,791.55,254.06z"/>
	<path class="st0" d="M496.94,261.01c-1.21,8.79-8.05,16.08-17.56,18.29c-12.86,2.98-24.74,1.28-33.67-9.49
		c-6.9-8.32-8.03-18.31-6.92-28.66c0.96-8.97,4.46-16.73,11.7-22.45c17.55-13.88,43-4.05,46.51,17.96c0.39,2.46,0.38,4.99,0.67,7.47
		c0.27,2.32-0.52,3.07-2.95,3.05c-15.22-0.11-30.45-0.06-45.67-0.05c-3.79,0-3.95,0.05-3.31,3.73c0.61,3.5,1.16,7.1,2.45,10.38
		c3.63,9.26,12.27,14.29,22.74,13.61c4.41-0.29,8.94-0.75,12.42-3.65c2.4-1.99,4.59-4.58,5.96-7.34c1.11-2.25,2.16-3.17,4.53-2.85
		C494.8,261.12,495.78,261.01,496.94,261.01z M490.64,241.55c-0.63-8.7-2.62-16.53-10.77-20.59c-8.34-4.16-16.89-3.79-24.6,1.83
		c-6.21,4.54-8.68,11.14-9.43,18.76C460.98,241.55,475.62,241.55,490.64,241.55z"/>
	<path class="st0" d="M750.32,261.14c-1.35,6.39-4.5,11.18-9.62,14.62c-19.21,12.9-45.72,0.85-48.56-22.02
		c-1.05-8.5-0.6-16.83,3.27-24.63c4.93-9.92,12.98-15.6,24.09-16.37c11.03-0.76,20.35,2.63,26.52,12.36
		c3.87,6.1,4.83,12.98,4.9,20.05c0.02,2.33-1.58,1.94-2.96,1.94c-15.23,0.01-30.45,0.01-45.68,0.01c-1.06,0-2.12,0-3.1,0
		c-2.76,11.84,6.8,25.54,18.7,27.29c4.96,0.73,9.83,0.53,14.58-1.08c4.64-1.57,8.34-4.47,9.95-9.11c0.98-2.8,2.41-3.6,5.04-3.23
		C748.25,261.11,749.06,261.08,750.32,261.14z M743.83,241.55c-0.57-8.5-2.45-16.14-10.27-20.32c-8.27-4.42-16.79-4.15-24.63,1.24
		c-6.54,4.5-9.07,11.27-9.93,19.07C714.12,241.55,728.76,241.55,743.83,241.55z"/>
	<path class="st0" d="M870.04,232.33c0.95-7.96,4.69-13.7,11.78-16.92c7.63-3.48,15.62-3.8,23.58-1.3
		c8.26,2.59,12.97,9.87,13.02,19.82c0.07,13.05,0.02,26.1,0.02,39.15c0,1.43-0.06,2.86,0.01,4.29c0.07,1.46-0.5,2.03-2,2.12
		c-4.52,0.28-4.6,0.25-4.6-4.35c0-1.47,0-2.95,0-4.88c-0.71,0.57-1,0.75-1.22,0.98c-8.21,8.97-20.75,11.92-32.11,7.46
		c-6.78-2.66-10.67-7.57-11.27-14.92c-0.64-7.89,2.15-13.99,9.32-17.79c6.19-3.28,12.94-3.98,19.77-4.2c4.38-0.14,8.77-0.08,13.16,0
		c1.7,0.03,2.51-0.48,2.35-2.28c-0.29-3.38-0.22-6.81-0.8-10.13c-1.06-6.05-4.86-9.83-10.94-10.53c-3.84-0.44-7.89-0.3-11.69,0.42
		c-5.47,1.03-9.44,4.46-10.88,9.95c-0.73,2.78-2.02,3.65-4.64,3.23C872.05,232.34,871.17,232.38,870.04,232.33z M911.7,247.39
		c-0.48-0.15-0.72-0.3-0.97-0.3c-4.83-0.02-9.69-0.37-14.47,0.07c-4.93,0.45-9.97,1.15-14.64,2.71c-5.55,1.86-8.28,7.27-7.69,13.06
		c0.64,6.31,4.02,10.17,10.18,11.48c5.18,1.1,10.34,0.87,15.31-0.98c6.62-2.46,11.55-6.62,12.22-14.13
		C911.98,255.41,911.7,251.47,911.7,247.39z"/>
	<path class="st0" d="M1011.11,268.65c-4.4,6.17-10,10.29-17.24,11.21c-4.69,0.59-9.72,0.48-14.32-0.55
		c-8.42-1.88-13.66-8.99-14.37-18.6c-0.4-5.43-0.25-10.9-0.28-16.35c-0.04-8.85-0.01-17.71-0.01-26.56c0-4.14,0-4.14,4.04-4.08
		c0.71,0.01,1.42,0.07,2.63,0.14c0,1.07,0,2.1,0,3.12c0,12.25-0.02,24.51,0.02,36.76c0.01,2.05,0.1,4.12,0.4,6.14
		c1.51,10.37,8.3,15.69,18.75,14.77c12.88-1.13,20.33-9.17,20.37-22.05c0.04-11.89-0.01-23.79,0.05-35.68
		c0.01-1.03,0.41-2.84,0.9-2.94c1.71-0.33,3.54-0.19,5.29,0.08c0.29,0.04,0.5,1.58,0.5,2.42c0.04,9.03,0.02,18.07,0.02,27.1
		c0,11-0.1,22,0.07,33c0.04,2.81-1.26,2.97-3.4,2.95c-2.11-0.02-3.69-0.11-3.45-2.94C1011.28,273.95,1011.11,271.29,1011.11,268.65z
		"/>
	<path class="st0" d="M938.26,182.21c2.44,0,4.4,0,6.68,0c0.07,0.92,0.19,1.76,0.19,2.61c0.01,30.57,0.02,61.15-0.03,91.72
		c0,0.93-0.48,2.62-0.9,2.67c-1.82,0.23-3.71,0.08-5.53-0.22c-0.26-0.04-0.39-1.61-0.39-2.47c-0.02-12.43-0.02-24.85-0.02-37.28
		c0-17.88,0-35.76,0-53.64C938.26,184.57,938.26,183.52,938.26,182.21z"/>
	<path class="st0" d="M520.76,376.37c-7.83-0.04-13.64-5.53-13.58-12.81c0.06-7.02,6.03-12.45,13.7-12.45
		c7.75,0,13.82,5.61,13.76,12.7C534.59,370.97,528.57,376.42,520.76,376.37z"/>
	<path class="st0" d="M213.78,299.77c0,42.51-34.47,76.93-77.04,76.93c-42.79,0-77.06-34.63-77.03-77.85
		c0.02-41.67,34.95-76.27,77.02-76.28C179.37,222.57,213.78,257.04,213.78,299.77z M98.93,298.25c11.1,0,22.2-0.06,33.29,0.05
		c2.47,0.02,3.43-0.54,3.42-3.24c-0.1-22.34-0.1-44.69,0-67.04c0.01-2.62-0.93-3.15-3.31-2.96c-10.56,0.87-20.7,3.3-29.99,8.44
		c-24.3,13.43-37.73,34-40.15,61.68c-0.2,2.31,0.47,3.13,2.91,3.1C76.38,298.18,87.66,298.25,98.93,298.25z M135.59,331.79
		c0-1.41,0-2.28,0-3.16c0-8.23-0.12-16.46,0.07-24.68c0.06-2.79-0.87-3.41-3.51-3.39c-20.86,0.1-41.73,0.06-62.59,0.06
		c-7.85,0-7.85,0-6.9,7.93c4.31,35.74,33.54,63.31,69.62,65.67c3.18,0.21,3.3,0.11,3.31-3.16c0.01-11.8,0.01-23.61,0-35.41
		c0-0.81-0.11-1.63-0.18-2.44c-1.29,2.83-3.54,3.73-6.18,3.88c-4.06,0.23-5.99,3.02-4.87,6.82c0.39,1.3,0.65,3.12,0.03,4.14
		c-1.43,2.36-1.65,4.6-1.19,7.23c0.18,1.06-0.71,2.32-1.17,3.46c-0.25,0.64-0.97,1.32-0.85,1.85c0.73,3.26-1.83,5.11-3.23,7.33
		c-0.99,1.57-3.14,1.55-4.46,0.06c-3.25-3.68-3.72-8.59-5.35-12.98c-0.21-0.57,0.33-1.38,0.32-2.07c-0.01-0.89,0.08-1.98-0.38-2.62
		c-1.7-2.37-1.89-4.72-0.64-7.31c0.27-0.57,0.49-1.51,0.21-1.93c-1.35-2.04-2.13-4.61-5.71-4.08c-2.75,0.41-4.87-1.52-5.26-3.6
		c-0.51-2.7,1.69-3.42,3.37-4.13c2.14-0.9,2.32-2.38,1.75-4.1c-0.71-2.13-1.73-4.16-2.76-6.6c-1.12,0.88-2.78,1.53-3.17,2.63
		c-1.12,3.18-2.85,5.47-5.73,5.9c0.73,6.28,1.58,12.19,2.04,18.13c0.21,2.68-2.63,4.77-5.54,4.63c-2.94-0.14-5.09-2.09-4.98-4.86
		c0.13-3.3,0.38-6.61,0.91-9.87c0.36-2.22-0.22-3.14-2.43-3.75c-7.13-1.98-10.25-6.26-10.58-13.64c-0.04-0.99-0.94-2.1-1.73-2.86
		c-0.92-0.89-2.15-1.47-3.24-2.19c0.13-0.22,0.27-0.44,0.4-0.67c1.54,0.76,3.08,1.52,4.86,2.4c0.74-1.64,1.98-3.13,1.86-4.5
		c-0.11-1.2-1.75-2.26-2.71-3.38c0.06-0.27,0.13-0.54,0.19-0.81c2.56,2.58,5,3.84,6.96-0.06c-0.74-1.13-1.48-2.28-2.22-3.42
		c0.84-0.09,1.25,0.12,1.47,0.46c1.32,2.1,2.92,2.58,5.41,1.81c3.9-1.21,7.86-0.61,11.46,1.27c1.76,0.92,2.86,0.9,4.01-0.78
		c0.8-1.17,1.92-2.12,2.9-3.16c0.23,0.19,0.45,0.38,0.68,0.57c-1.03,1.26-2.13,2.47-3.06,3.8c-0.4,0.57-0.86,1.71-0.61,2.01
		c1.14,1.35,0.19,2.07-0.55,2.96c-0.58,0.7-1.1,1.45-1.64,2.18c0.16,0.16,0.33,0.31,0.49,0.47c3.21-2.6,6.41-5.19,9.62-7.79
		c0.15,0.19,0.3,0.37,0.44,0.56c-2.84,4.47-9.98,5.65-9.95,13.19c5.01-2.81,9.56-5.36,14.12-7.91c0.15,0.26,0.3,0.51,0.45,0.77
		c-1.99,1.27-3.99,2.54-5.98,3.82c0.15,0.33,0.31,0.66,0.46,0.99c1.62-0.62,3.45-0.94,4.83-1.91c4.51-3.17,10.43-3.49,14.8-0.2
		c1.79,1.35,3.57,1.75,5.7,1.71c4.39-0.08,5.37,1.56,3.44,5.64c-0.38,0.79-1.33,1.43-1.43,2.22c-0.17,1.33-0.32,3.02,0.34,4.02
		C132.08,330.07,133.73,330.61,135.59,331.79z M211.36,300.61c-1.22,0-2.27,0-3.32,0c-22.11,0-44.21,0-66.32,0
		c-3.69,0-3.7,0.01-3.7,3.61c0,21.36-0.04,42.72,0.02,64.09c0.02,6.26-1.43,6.35,6.15,5.59c30.29-3.04,55.87-24.24,64.35-53.44
		C210.39,314.09,211.5,307.63,211.36,300.61z M211.33,298.1c0-1.2,0.04-2.16-0.01-3.12c-0.44-9.04-2.49-17.73-6.42-25.85
		c-12.95-26.68-34.31-41.33-63.9-44.07c-2.47-0.23-3.04,0.65-3.03,2.96c0.07,22.17,0.04,44.35,0.04,66.52c0,3.7,0.01,3.71,3.65,3.71
		c22.11,0,44.23,0,66.34,0C209.05,298.24,210.09,298.15,211.33,298.1z M111.73,321.93c-1.08-1.07-1.9-2.55-3.03-2.86
		c-1.75-0.47-3.73-0.19-5.6-0.09c-0.46,0.02-0.89,0.59-1.34,0.91c0.45,0.43,0.85,1.13,1.37,1.24c0.98,0.2,2.03,0.06,3.06,0.06
		c0.01,0.18,0.03,0.36,0.04,0.54c-1.11,0.18-2.22,0.37-3.33,0.55c-0.06,0.3-0.13,0.59-0.19,0.89c1.73,0.69,3.46,1.39,5.81,2.32
		c-1.11,0.38-1.63,0.7-2.14,0.69c-1.06-0.01-2.25-0.42-2.34,1.29c-0.09,1.77,1.13,1.73,2.34,1.73c4.74,0,9.48,0.01,14.23,0.01
		c1.88,0,3.77,0.13,5.63-0.07c0.73-0.08,1.37-0.92,2.06-1.41c-0.63-0.5-1.21-1.07-1.89-1.48c-0.49-0.3-1.11-0.38-2.32-0.76
		c2.56-0.97,4.38-1.65,6.2-2.34c-0.08-0.3-0.15-0.6-0.23-0.91c-1.22-0.18-2.43-0.35-3.65-0.53c1.16-0.54,2.29-0.44,3.39-0.59
		c0.47-0.06,0.87-0.66,1.3-1.01c-0.38-0.39-0.75-1.1-1.15-1.11c-2.14-0.08-4.33-0.23-6.4,0.19c-0.78,0.16-1.25,1.8-1.96,2.91
		c-1.68-1.95-0.02-3.44,0.6-4.93c-4.09-2.91-8.7-2.87-11.91,0.1C111.6,318.56,112.87,319.92,111.73,321.93z M94.02,309.74
		c-2.14-2.29-5.15-3.09-8.32-3.48c-6.33-0.78-12.45,3.52-13.66,9.54c-1.26,6.26,2.33,11.63,8.91,13.54
		c1.58,0.46,3.01,1.43,4.58,1.96c0.72,0.24,1.61-0.01,2.43-0.04c-0.15-0.74-0.05-1.8-0.5-2.16c-1.01-0.8-2.25-1.39-3.49-1.82
		c-4.63-1.62-6.87-4.75-6.66-9.5c0.19-4.32,2.92-7.74,7.58-8.41C87.86,308.95,90.97,309.58,94.02,309.74z M112.93,348.63
		c-1.82-3.02-1.55-3.82,1.81-5.33c0.57-0.26,1.15-0.5,1.73-0.72c3.17-1.19,5.95-2.81,7.42-6.11c0.69-1.54,1.95-2.02,3.72-1.93
		c1.59,0.08,3.22-0.44,5.42-0.79c-0.88-1.09-1.1-1.48-1.43-1.73c-3.03-2.32-6.85-1.73-9.14,2.1c-2.13,3.56-5.05,5.57-8.78,6.89
		c-1.22,0.43-2.4,1.23-3.35,2.12c-1.51,1.42-1.89,3.22-0.73,5.09C110.51,349.69,111.6,350.25,112.93,348.63z M89.8,343.4
		c-0.23-2.48-0.31-4.98-0.79-7.41c-0.16-0.79-1.27-1.69-2.13-1.96c-1.34-0.42-2.07,0.38-2.17,1.87c-0.17,2.39-0.5,4.77-0.79,7.15
		c-0.35,2.91,0.51,4.32,2.75,4.44C88.99,347.61,89.93,346.38,89.8,343.4z M118.45,343.62c2.27,2.71,1,4-1.19,5.09
		c-1.67,0.83-3.32,1.75-4.86,2.81c-1.72,1.19-2.32,2.94-1.56,4.93c0.21,0.54,0.96,0.87,1.46,1.3c0.41-0.6,1.28-1.33,1.15-1.77
		c-0.6-2.07,0.84-2.72,2.14-3.48c1.31-0.76,2.84-1.23,3.97-2.19c1.16-0.99,2.32-2.29,2.77-3.68c0.29-0.9-0.53-2.32-1.2-3.27
		C120.93,343.04,119.64,343.47,118.45,343.62z M116.32,361.79c-0.22-0.28-0.45-0.56-0.67-0.84c0.94-0.72,1.85-1.51,2.84-2.15
		c1.81-1.18,2.86-2.69,2.27-4.91c-0.11-0.42-0.64-0.96-1.03-1.01c-0.42-0.06-1.32,0.4-1.31,0.62c0.08,3.02-2.91,3.52-4.21,5.34
		c-0.8,1.13-1.33,2.9-1.08,4.22c0.24,1.26,1.64,2.3,2.71,3.65c1.1-1.73,2.13-3.37,3.49-5.51
		C117.8,361.5,117.06,361.64,116.32,361.79z M98.39,333.78c2.19,0.36,3.77,0.93,5.28,0.79c2.01-0.19,3.22,0.5,4.11,2.16
		c0.37,0.7,0.78,1.4,1.23,2.06c1.09,1.59,2.27,1.72,3.54,0.24c-1.46-2.03-2.69-4.11-4.27-5.88
		C105.34,329.89,101.94,329.9,98.39,333.78z M113.75,338.3c4.16-0.65,4.94-2.43,3.29-7.53c-1.15,0.6-2.94,0.97-3.14,1.75
		C113.43,334.32,113.75,336.32,113.75,338.3z M92.8,316.1c-3.55-0.01-5,1.3-5.04,4.33C90.96,320.73,92.39,319.54,92.8,316.1z
		 M85.93,320.43c-0.18-3.14-1.85-4.54-5.08-4.24C81.16,319.5,82.72,320.8,85.93,320.43z M93.48,321.19
		c-3.67-0.5-4.93,0.25-5.92,3.39C90.66,325.51,92.48,324.51,93.48,321.19z M85.98,324.66c-0.81-3.27-2.59-4.27-5.77-3.25
		C81.24,324.56,82.74,325.4,85.98,324.66z M81.77,311.09c-0.05,3.5,1.31,4.92,4.32,4.6C85.87,313.07,84.68,311.45,81.77,311.09z
		 M87.73,316.08c3.44-0.67,4.53-2.14,3.75-4.88C88.49,311.96,87.72,312.92,87.73,316.08z"/>
	<path class="st0" d="M140.59,383.36c0.47-0.07,1.49-0.23,2.3-0.35c0.18,1.83,0.35,3.53,0.57,5.73c2.26-0.46,4.54-0.39,5.99-1.45
		c0.7-0.51-0.16-3.15-0.32-4.9c0.56-0.06,1.53-0.17,2.3-0.25c0.47,4.1,0.94,8.17,1.42,12.3c-0.48,0-1.26,0-2.19,0
		c-0.23-1.69-0.46-3.41-0.76-5.65c-2.12,0.39-4.54,0.18-5.83,1.29c-0.82,0.7,0.04,3.35,0.16,5.32c-0.63,0.05-1.57,0.13-2.21,0.19
		C141.53,391.43,141.06,387.47,140.59,383.36z"/>
	<path class="st0" d="M197.65,242.77c3.4-2.87,6.42-5.43,9.68-8.19c1.24,1.71,3,3.71,4.28,5.98c1.64,2.91,0.99,5.54-1.38,7.41
		c-2.48,1.96-5.45,2.12-7.87,0.03C200.63,246.51,199.27,244.6,197.65,242.77z M207.83,237.22c-2.21,1.82-4.53,3.61-6.68,5.59
		c-0.47,0.43-0.66,1.69-0.38,2.3c1.35,2.97,4.53,3.69,7.16,1.77C211.48,244.29,211.55,240.47,207.83,237.22z"/>
	<path class="st0" d="M172.94,224.44c2.08-3.7,4.03-7.16,6.14-10.9c1.81,1.15,4.1,2.33,6.07,3.91c2.53,2.02,2.92,4.78,1.45,7.4
		c-1.5,2.68-4.28,3.84-7.28,3c-0.6-0.17-1.21-0.35-1.75-0.65C176.03,226.33,174.53,225.39,172.94,224.44z M185.93,221.42
		c-1.2-1.8-1.97-3.29-3.04-4.5c-1.27-1.43-2.52-1.43-3.49,0.54c-0.94,1.92-2.25,3.68-3.04,5.66c-0.3,0.75,0.18,2.55,0.71,2.75
		c1.56,0.56,3.75,1.28,4.9,0.6C183.6,225.48,184.52,223.32,185.93,221.42z"/>
	<path class="st0" d="M233.64,311.25c-0.33-0.58-0.67-1.16-1.08-1.89c-0.24,0.3-0.43,0.46-0.52,0.66c-1.74,3.85-4.74,5.16-8.48,3.68
		c-3.31-1.31-4.83-4.91-3.68-8.74c0.98-3.27,4.37-5.07,7.96-4.08c0.91,0.25,2.1,0.7,2.5,1.42c1.54,2.78,2.8,5.71,4.17,8.58
		C234.22,311,233.93,311.13,233.64,311.25z M226.07,302.9c-3.27,0.04-5.92,2.35-5.79,5.04c0.12,2.26,2.68,4.01,5.8,3.96
		c3.2-0.05,5.64-2.2,5.57-4.91C231.59,304.52,229.33,302.86,226.07,302.9z"/>
	<path class="st0" d="M83.17,379.58c2.24-3.76,4.31-7.24,6.49-10.91c1.85,1.25,3.95,2.45,5.78,3.96c2.52,2.08,2.96,4.81,1.52,7.41
		c-1.47,2.66-4.35,4.02-7.28,2.95C87.39,382.16,85.31,380.73,83.17,379.58z M96.31,376.72c-1.15-1.83-1.89-3.32-2.93-4.55
		c-1.19-1.39-2.46-1.62-3.45,0.42c-0.74,1.51-1.88,2.83-2.53,4.37c-0.48,1.14-1.05,3.06-0.51,3.64c1.37,1.48,3.55,2.63,5.47,1.12
		C93.9,380.49,94.9,378.55,96.31,376.72z"/>
	<path class="st0" d="M60.43,352.71c-3.7,0.01-6.94-3.4-6.99-7.35c-0.04-3.26,2.93-5.98,6.57-6.01c3.71-0.04,6.91,3.18,6.98,7.03
		C67.06,349.82,64.07,352.7,60.43,352.71z M58.97,351.19c2.94-0.02,6.51-3.34,6.54-6.09c0.02-2.28-1.85-4.26-3.98-4.21
		c-3.09,0.07-6.47,3.24-6.48,6.08C55.04,349.35,56.77,351.2,58.97,351.19z"/>
	<path class="st0" d="M86.6,217.94c3.85,1.14,7.71,2.28,12.39,3.67c-1.82-3.05-3.2-5.37-4.66-7.81c0.34-0.2,0.93-0.55,1.43-0.84
		c1.92,3.71,3.78,7.31,5.95,11.5c-4.48-1.27-8.36-2.36-12.24-3.46c-0.15,0.2-0.3,0.4-0.45,0.6c1.41,2.24,2.82,4.48,4.3,6.84
		c-0.1,0.06-0.7,0.4-1.48,0.85c-1.92-3.66-3.78-7.22-5.65-10.78C86.32,218.31,86.46,218.13,86.6,217.94z"/>
	<path class="st0" d="M142.97,211.31c0,2.16,0,3.7,0,5.4c-0.92-0.12-1.93-0.25-2.59-0.34c0.39-4.05,0.76-7.97,1.16-12.11
		c2.21,0.04,5.05-0.53,6.77,1.81c1.41,1.92-0.11,3.67-1.86,5.45c1.47,1.97,2.96,3.96,4.36,5.84
		C146.64,218.09,146.64,212.78,142.97,211.31z M142.59,208.08c0.73,1.15,1.25,1.98,1.77,2.8c0.79-0.87,2.18-1.72,2.21-2.63
		c0.04-0.97-1.19-1.99-1.86-2.99C144.08,206.11,143.45,206.95,142.59,208.08z"/>
	<path class="st0" d="M52.87,325.04c-2.46,0.97-4.92,1.94-7.55,2.98c-0.17-0.37-0.41-0.89-0.66-1.45c3.92-1.3,7.7-2.55,12.26-4.06
		c-1.94,4.27-3.6,7.91-5.26,11.55c0.14,0.17,0.28,0.34,0.42,0.51c2.47-1.02,4.94-2.03,7.55-3.11c0.63,0.87,0.67,1.61-1.18,2.13
		c-3.33,0.94-6.57,2.18-10.67,3.56c2.06-4.33,3.79-7.96,5.52-11.6C53.15,325.39,53.01,325.22,52.87,325.04z"/>
	<path class="st0" d="M71.37,229.62c0.43-0.36,1.31-1.08,1.81-1.49c2.11,2.4,3.98,4.88,6.25,6.89c0.71,0.63,2.93,0.52,3.71-0.14
		c0.77-0.65,1.21-2.77,0.71-3.62c-1.51-2.58-3.53-4.85-5.56-7.49c0.29-0.28,0.72-0.7,1.3-1.25c0.25,0.45,0.34,0.66,0.47,0.84
		c1.45,1.92,3,3.76,4.33,5.76c1.95,2.92,1.23,5.77-1.71,7.52c-2.35,1.4-4.44,0.91-6.59-1.55C74.56,233.33,73.04,231.56,71.37,229.62
		z"/>
	<path class="st0" d="M219.02,284.82c-0.27-0.92-0.52-1.74-0.77-2.6c1.7-0.84,3.45-1.28,2.83-3.99c-0.63-2.76-2.42-2.33-4.28-2.3
		c-0.22-0.73-0.43-1.4-0.58-1.89c4.43,0.75,8.89,1.51,14.05,2.38C226.22,279.45,222.7,282.07,219.02,284.82z M221.51,276.38
		c0.36,1.28,0.57,2.07,0.89,3.23c1.35-0.92,2.36-1.6,3.37-2.29c-0.07-0.22-0.14-0.44-0.21-0.66
		C224.4,276.58,223.23,276.5,221.51,276.38z"/>
	<path class="st0" d="M194.24,239.18c-0.68-0.56-1.35-1.11-2-1.65c1.56-3.39,1.51-4.22-1.17-5.45c-0.93-0.43-2.41,0.36-3.64,0.59
		c0.02,0.29,0.03,0.58,0.05,0.88c-0.53-0.44-1.05-0.88-1.74-1.47c4.1-2.13,8.04-4.18,12.64-6.56
		C196.87,230.47,195.58,234.75,194.24,239.18z M195.25,229.16c-0.2-0.15-0.39-0.29-0.59-0.44c-1.03,0.61-2.05,1.23-3.42,2.05
		c0.97,0.78,1.67,1.34,2.63,2.11C194.43,231.39,194.84,230.28,195.25,229.16z"/>
	<path class="st0" d="M209.99,361.29c-4.22-1.32-8.44-2.64-12.87-4.02c0.49-0.6,1.06-1.29,1.72-2.09c2.01,1.51,3.66,1.7,5.23-0.56
		c1.42-2.04,0.05-3.03-1.18-4.29c0.4-0.46,0.8-0.91,1.31-1.49c2.1,4.06,4.13,7.97,6.15,11.88
		C210.23,360.92,210.11,361.11,209.99,361.29z M203.28,356.99c1.55,0.5,2.7,0.87,4.57,1.47c-0.96-1.73-1.53-2.76-2.28-4.13
		C204.75,355.29,204.16,355.97,203.28,356.99z"/>
	<path class="st0" d="M65.1,256.76c-2.36-3.71-4.73-7.41-7.09-11.12c0.11-0.21,0.22-0.41,0.34-0.62c4.19,0.89,8.38,1.77,12.91,2.74
		c-0.49,0.88-0.89,1.6-1.36,2.43c-1.92-1.32-3.53-1.67-4.96,0.63c-0.81,1.3-0.75,2.15,0.05,3.36c0.46,0.7,0.39,1.74,0.56,2.62
		C65.4,256.79,65.25,256.78,65.1,256.76z M65.37,248.7c-1.7-0.46-2.9-0.79-4.9-1.33c1.19,1.7,1.9,2.72,2.81,4.03
		C64.01,250.46,64.52,249.81,65.37,248.7z"/>
	<path class="st0" d="M133.73,385.65c-2.43-2.46-5.2-2.97-7.27-1.34c-2.11,1.66-2.64,5.76-1.06,8.1c1.51,2.24,4.56,2.76,7.36,1.26
		c-0.27,2-1.12,2.37-4.23,1.85c-4.48-0.74-7.08-3.88-6.39-7.7c0.73-4.02,4.37-5.9,9.48-4.9
		C134.09,383.4,134.18,383.52,133.73,385.65z"/>
	<path class="st0" d="M57.7,266.71c2.15,1.1,2.27,2.12,0.66,5.43c-1.93,3.96-5.44,5.38-9.02,3.66c-3.35-1.61-4.37-5.52-2.43-9.76
		c0.63-1.38,1.03-3.61,3.13-2.09c-0.98,1.29-2.17,2.43-2.79,3.82c-0.41,0.92-0.32,2.33,0.08,3.3c0.99,2.43,5.08,3.8,7.65,2.78
		C57.58,272.82,58.67,269.96,57.7,266.71z"/>
	<path class="st0" d="M187.47,381c-2.32-3.44-4.55-6.74-6.79-10.05c4.17-3.36,4.74-3.59,5.87-2.42c-1.05,0.5-2.12,1-3.47,1.64
		c0.9,1.42,1.64,2.58,2.42,3.82c1.3-0.59,2.37-1.08,3.45-1.56c0.1,0.22,0.19,0.44,0.29,0.66c-0.93,0.56-1.87,1.12-3.25,1.94
		c1.16,1.37,1.96,2.95,3.22,3.51c0.63,0.28,2.1-1.3,3.1-1.98C192.81,378.17,192.81,378.17,187.47,381z"/>
	<path class="st0" d="M68.3,356.56c-1.25,0.95-2.61,1.68-3.5,2.8c-0.41,0.52,0.11,1.78,0.21,2.7c0.28,0.07,0.56,0.15,0.84,0.22
		c2.8-2.51,5.59-5.02,8.48-7.61c0.36,0.42,0.93,1.08,1.49,1.74c-3.13,2.74-6.17,5.41-9.41,8.26c-1.23-2.33-4.9-3.73-2.95-7.19
		C64.58,355.45,66.7,355.66,68.3,356.56z"/>
	<path class="st0" d="M134.57,210.34c-1.19,0.13-2.37,0.27-3.53,0.4c-0.61,4.94-0.27,5.3,4.22,4.58c0.05,0.24,0.09,0.47,0.14,0.71
		c-2.29,0.31-4.58,0.61-6.63,0.89c-0.2-4.15-0.39-8.21-0.6-12.39c1.76,0,3.9,0,6.04,0c0.01,0.2,0.01,0.39,0.02,0.59
		c-1.13,0-2.26,0-3.34,0C129.84,209.32,130.09,209.62,134.57,210.34z"/>
	<path class="st0" d="M105.12,383.83c-0.33,2.02-0.96,3.61-0.65,4.98c0.13,0.59,2.21,0.74,3.31,1.06c-0.93,1.44-1,1.43-6.6-1.16
		c1.46-3.79,2.9-7.57,4.36-11.36c4.81,1.24,5.43,1.59,5.38,3.22c-1.07-0.56-2.12-1.1-3.46-1.8c-0.61,1.53-1.11,2.81-1.66,4.19
		c1.29,0.68,2.36,1.25,3.43,1.82c-0.14,0.23-0.29,0.46-0.43,0.69C107.81,385.03,106.81,384.58,105.12,383.83z"/>
	<path class="st0" d="M207.41,346.85c-1.27-1.39-0.68-3.38,1.72-5.85c2.64-2.71,6.4-2.94,9.12-0.57c2.78,2.43,2.69,6.51-0.3,10.34
		c-0.73,0.94-1.44,2.56-2.98,0.75c3.15-1.84,4.64-4.1,4.12-6.2c-0.57-2.29-3.81-4.53-6.4-4.44
		C209.95,340.98,208.37,342.77,207.41,346.85z"/>
	<path class="st0" d="M120.5,205.31c0.42-0.06,1.09-0.17,1.64-0.25c-1.01,4.46-2,8.83-3.15,13.91c-3.01-4.21-5.58-7.8-8.24-11.51
		c0.62-0.16,1.48-0.38,2.46-0.62c1.71,2.61,3.39,5.17,5.07,7.73c0.23-0.05,0.47-0.1,0.7-0.15
		C119.46,211.5,119.95,208.58,120.5,205.31z"/>
	<path class="st0" d="M216.88,270.4c-2.07,0.29-3.41-1.25-4-4.61c-0.69-3.92,1.13-7.05,4.6-7.87c3.76-0.89,7.04,1.45,8.37,6.02
		c0.43,1.48,0.87,3-1.53,3.26c1.07-2.97,0.25-5.86-1.95-7c-2.17-1.13-6.03,0.09-7.58,2.41C213.15,265.04,213.89,267.79,216.88,270.4
		z"/>
	<path class="st0" d="M231.19,297.25c0.12-0.99,0.41-1.86,0.25-2.66c-0.12-0.63-0.82-1.66-1.21-1.64c-3.42,0.2-6.84,0.6-10.31,0.95
		c0-0.33,0-1.21,0-2.29c3.57-0.34,7.17-0.68,11.08-1.05c-0.12-1.53-0.22-2.86-0.33-4.29C232.46,287.62,232.9,296.01,231.19,297.25z"
		/>
	<path class="st0" d="M42.91,289.14c-0.22,1.18-0.45,2.41-0.75,4.06c1.84,0,3.46,0.43,4.55-0.15c0.77-0.41,0.8-2.18,1.29-3.74
		c0.92,4.32,0.92,4.32,5.51,4.62c0,0.86,0,1.72,0,2.31c-3.97-0.36-7.9-0.72-11.84-1.08C40.9,290.87,41.3,289.2,42.91,289.14z"/>
	<path class="st0" d="M42.91,310.02c0,1.28-0.03,1.97,0.01,2.66c0.08,1.45,0.7,2.03,2.27,1.7c3.04-0.64,6.11-1.11,9.32-1.67
		c0.05,0.61,0.1,1.29,0.17,2.14c-3.6,0.66-7.08,1.3-10.93,2.01c0.29,1.5,0.56,2.84,0.81,4.12
		C42.96,320.62,41.18,312.07,42.91,310.02z"/>
	<path class="st0" d="M154.03,216.06c0.37,0.46,0.65,1.19,1.12,1.34c0.92,0.29,2.22,0.68,2.84,0.25c0.55-0.38,0.74-1.92,0.45-2.72
		c-0.44-1.21-1.84-2.15-2.07-3.36c-0.26-1.38-0.19-3.67,0.63-4.2c1.15-0.75,3.12-0.32,4.72-0.18c0.26,0.02,0.42,1.21,0.2,2
		c-0.25-0.34-0.45-0.88-0.77-0.97c-0.92-0.27-1.89-0.36-2.85-0.52c-0.02,0.96-0.32,2.03,0.01,2.84c0.46,1.12,1.51,1.98,2.09,3.07
		c0.88,1.65,0.8,3.36-0.76,4.58c-1.78,1.39-3.73,1.05-5.48-0.07c-0.43-0.28-0.39-1.27-0.57-1.94
		C153.73,216.15,153.88,216.1,154.03,216.06z"/>
	<path class="st0" d="M180.22,383.82c-0.54,3.4-4.05,2.64-5.77,4.25c-1.78-3.84-3.45-7.43-5.25-11.3c0.51-0.24,1.42-0.66,2.05-0.94
		c1.37,2.99,2.59,5.92,4.04,8.73C176.29,386.49,178.03,386.09,180.22,383.82z"/>
	<path class="st0" d="M216.42,324.98c0.55-2.42,1.11-4.84,1.56-6.84c4.1,1.09,8.02,2.13,12.05,3.21c-0.15,0.55-0.41,1.56-0.58,2.2
		c-3.28-0.86-6.45-1.79-9.68-2.44c-0.54-0.11-1.53,0.91-1.95,1.62c-0.39,0.66-0.3,1.6-0.42,2.42
		C217.07,325.1,216.75,325.04,216.42,324.98z"/>
	<path class="st0" d="M41.36,305.7c-0.04-0.64-0.09-1.59-0.12-2.17c4.12-0.26,8.11-0.5,12.21-0.76c0,0.38,0,1.36,0,2.22
		C49.45,305.23,45.46,305.46,41.36,305.7z"/>
	<path class="st0" d="M42.54,282.97c0.16-0.73,0.35-1.57,0.47-2.12c4.07,0.76,8.01,1.49,12.11,2.25c-0.13,0.7-0.32,1.71-0.43,2.28
		C50.7,284.59,46.76,283.81,42.54,282.97z"/>
	<path class="st0" d="M171.14,210.36c-1.48,4.01-2.88,7.81-4.31,11.69c-0.49-0.2-1.37-0.57-2.12-0.88c1.47-3.88,2.9-7.65,4.38-11.54
		C169.84,209.9,170.66,210.19,171.14,210.36z"/>
	<path class="st0" d="M225.92,334.45c-0.23,0.58-0.55,1.38-0.8,2c-3.84-1.54-7.53-3.02-11.42-4.57c0.17-0.46,0.45-1.25,0.76-2.09
		C218.3,331.35,222.04,332.87,225.92,334.45z"/>
	<path class="st0" d="M104.86,209.61c1.44,3.86,2.84,7.58,4.28,11.43c-0.78,0.34-1.58,0.7-2.13,0.94
		c-1.38-3.86-2.75-7.67-4.17-11.65C103.17,210.21,103.97,209.93,104.86,209.61z"/>
	<path class="st0" d="M61.98,263.16c-3.77-1.99-7.28-3.84-10.92-5.75c0.36-0.8,0.68-1.51,0.9-1.98c3.63,1.86,7.16,3.67,10.96,5.61
		C62.68,261.58,62.28,262.48,61.98,263.16z"/>
	<path class="st0" d="M164.99,391.45c-0.71,0.2-1.56,0.43-2.26,0.62c-1.14-3.94-2.25-7.81-3.41-11.82c0.45-0.14,1.1-0.34,1.97-0.61
		C162.52,383.59,163.73,387.42,164.99,391.45z"/>
	<path class="st0" d="M182.7,178.55c-0.17-4.51,0.36-4.82,3.55-3.24c2.17,1.08,4.28,1.57,6.5-0.19c1.54-1.22,3.01-0.59,3,1.24
		c-0.02,3.1,1.93,4.41,4.34,5.41c2.94,1.22,3.1,2.07,0.51,4.03c-1.91,1.44-2.49,3.37-2.53,5.62c-0.02,1.42-0.01,2.88-0.34,4.24
		c-0.62,2.53-3.07,4.28-5.63,4c-5.62-0.63-10.59-2.76-14.61-6.82c-2.29-2.32-2.28-5.56,0.01-7.91c0.93-0.95,2.17-1.64,2.97-2.68
		C181.51,180.89,182.25,179.31,182.7,178.55z M193.91,176.32c-3.26,2.6-6.39,1.1-9.48,0.21c-0.68,4.77-0.68,4.77-5.11,8.84
		c-2.66,2.44-2.73,4.54-0.3,6.77c3.57,3.28,7.76,5.21,12.55,5.87c2.7,0.37,4.97-1.26,4.87-3.99c-0.15-3.97,0.32-7.58,3.99-10.31
		C196.82,182.27,194.38,180.35,193.91,176.32z"/>
	<path class="st0" d="M175.79,177.49c1.25,2.16,0.9,3.69-0.79,5.5c-1.62,1.73-2.53,4.12-3.8,6.29c-2.2-0.62-3.07-2.28-2.84-5.95
		C168.46,181.67,173.23,177.84,175.79,177.49z M170.54,186.28c1.5-2.17,2.99-4.32,4.48-6.48
		C170.9,181.15,169.63,183.28,170.54,186.28z"/>
	<path class="st0" d="M178.52,178.94c-0.28-2.36-0.41-4.87-3.86-3.84c0-0.47-0.07-0.71,0.01-0.81c0.8-0.94,1.63-1.86,2.45-2.78
		c0.76,1.2,1.78,2.32,2.22,3.63c0.37,1.12,0.08,2.46,0.08,3.7C179.12,178.88,178.82,178.91,178.52,178.94z"/>
	<path class="st0" d="M146.47,176.89c0,1.81,0,3.63,0,6.09c-1.31-0.68-2.15-1.2-3.05-1.55c-0.7-0.28-1.48-0.35-2.23-0.51
		c0.03,0.89-0.3,2.15,0.15,2.58c1.06,0.99,2.49,1.58,3.85,2.38c0,0.03,0.07,0.27-0.01,0.36c-1.14,1.19-1.35,4.08-3.9,2.79
		c-2.98-1.5-4.08-6.7-1.83-8.8c1.8-1.68,4.21-2.71,6.35-4.03C146.03,176.43,146.25,176.66,146.47,176.89z"/>
	<path class="st0" d="M126.9,175.97c2.57,1.51,4.92,2.45,6.68,4.03c2.52,2.26,1.19,7.96-1.95,9.2c-0.47,0.19-1.37-0.14-1.8-0.54
		c-0.76-0.7-1.32-1.63-2.15-2.71c1.39-0.68,2.77-1.02,3.63-1.88c0.64-0.64,1.11-2.25,0.74-2.91c-0.8-1.4-1.6-0.29-2.47,0.44
		c-0.65,0.54-1.76,0.67-2.66,0.66c-0.2,0-0.55-1.36-0.54-2.1C126.39,179.04,126.64,177.92,126.9,175.97z"/>
	<path class="st0" d="M123.78,175.52c-0.12,1.81-0.45,3.51-0.28,5.15c0.27,2.61-0.66,3.85-3.26,3.74c-1.29-1.92-2.56-3.81-3.85-5.73
		C119.55,173.49,119.55,173.49,123.78,175.52z M121.9,183.06c0.2-2.22,0.44-4.03,0.47-5.84c0.01-0.44-0.59-1.11-1.05-1.27
		c-0.44-0.16-1.2,0.05-1.59,0.37C117.59,178.1,118.2,180.31,121.9,183.06z"/>
	<path class="st0" d="M152.94,184.38c-2.33-0.01-3.84-0.62-3.16-3.44c0.22-0.9-0.1-1.93-0.22-2.9c-0.17-1.44-0.4-2.7,1.51-3.4
		c1.74-0.64,2.82-0.43,3.77,1.17c0.58,0.98,1.4,1.82,2.09,2.7C155.61,180.46,154.33,182.34,152.94,184.38z M155.05,178.57
		c-0.23-0.39-0.37-0.87-0.69-1.12c-0.76-0.59-1.6-1.07-2.42-1.6c-0.35,0.89-0.85,1.75-1,2.67c-0.16,0.94-0.04,1.95,0.09,2.91
		c0.06,0.45,0.42,0.86,0.65,1.29c0.41-0.25,0.96-0.41,1.22-0.77C153.67,180.88,154.32,179.73,155.05,178.57z"/>
	<path class="st0" d="M144.87,191.73c1.09-1.46,1.75-2.3,2.36-3.17c0.74-1.05,1.13-2.36,3.04-1.71c1.63,0.56,2.89,0.89,2.9,3.06
		c0,1.35,0.75,2.7,1.4,4.82C151.16,193.67,148.22,192.76,144.87,191.73z M147.29,190.27c0.12,0.34,0.24,0.67,0.35,1.01
		c1.36,0.39,2.73,0.78,4.09,1.17c0.23-0.23,0.46-0.47,0.69-0.7c-0.67-1.14-1.34-2.27-2.01-3.41
		C149.37,188.99,148.33,189.63,147.29,190.27z"/>
	<path class="st0" d="M118.61,194.82c0.68-2.21,1.39-3.63,1.5-5.09c0.17-2.12,1.52-2.46,3.14-2.96c1.87-0.58,2.04,0.95,2.76,1.82
		c0.67,0.83,1.26,1.72,2.25,3.08C125.07,192.71,122.12,193.68,118.61,194.82z M120.72,191.69c0.29,0.28,0.57,0.56,0.86,0.84
		c1.36-0.45,2.72-0.9,4.08-1.35c0.1-0.27,0.2-0.54,0.3-0.81c-1.04-0.68-2.07-1.35-3.11-2.03
		C122.14,189.45,121.43,190.57,120.72,191.69z"/>
	<path class="st0" d="M154.06,169.99c-0.56-2.09-1.28-3.82-1.39-5.59c-0.06-0.88,0.99-1.83,1.53-2.75c0.9,0.69,2.17,1.19,2.63,2.1
		C157.98,165.99,157.17,167.84,154.06,169.99z M155.41,163.18c-0.52,0.03-1.03,0.07-1.55,0.1c0.22,1.36,0.43,2.72,0.65,4.08
		c0.41-0.05,0.81-0.09,1.22-0.14C155.62,165.87,155.52,164.53,155.41,163.18z"/>
	<path class="st0" d="M119.16,169.92c-2.91-1.83-3.84-3.87-2.84-6.14c0.39-0.89,1.55-1.46,2.36-2.17c0.69,0.91,1.97,1.85,1.93,2.73
		C120.54,166.11,119.74,167.86,119.16,169.92z M119.31,163.3c-0.51-0.05-1.03-0.1-1.54-0.14c-0.09,1.34-0.18,2.68-0.28,4.02
		c0.43,0.04,0.87,0.08,1.3,0.11C118.96,165.96,119.14,164.63,119.31,163.3z"/>
	<path class="st0" d="M136.56,188.18c1.11,1.3,2.02,2.37,2.92,3.43c-2.57,2.5-2.91,2.51-5.73,0.11
		C134.6,190.65,135.46,189.57,136.56,188.18z"/>
	<path class="st0" d="M72.32,185.7c-1.75-1.19-1.6-2.2-0.4-3.23c0.68-0.58,1.37-1.15,2.11-1.65c2.42-1.67,4.02-3.78,3.67-8.07
		c3.57,4.47,7.22,2.64,10.83,1.99c1.69-0.3,1.8-0.1,2.39,2.27c-2.9,0.34-5.38,2.44-8.66,1.2c-0.8-0.3-2.84,0.58-3.1,1.33
		C77.96,182.95,74.56,183.54,72.32,185.7z"/>
	<path class="st0" d="M77.12,192.59c-1.08-1.37-1.56-1.98-2.21-2.8c5.01-4.24,10.65-6.75,17.15-8.08c0.29,0.87,0.55,1.66,1.09,3.31
		c-2.7,0.08-4.99-0.03-7.22,0.29c-1.34,0.19-2.82,0.79-3.81,1.68C80.37,188.57,78.94,190.5,77.12,192.59z"/>
	<path class="st0" d="M93.51,188.72c0.46,1.71,0.66,2.45,1.02,3.78c-1.79,0-3.35,0.28-4.75-0.06c-2.18-0.53-3.56-0.01-4.66,1.95
		c-0.78,1.39-1.89,2.59-3.11,4.22c-0.98-1.16-1.57-1.86-2.72-3.23C84.18,193.09,88.62,191.01,93.51,188.72z"/>
	<path class="st0" d="M109.37,184.45c0.89,0.94,1.92,1.79,2.57,2.88c0.19,0.32-0.6,1.39-1.12,1.94c-0.6,0.65-1.4,1.11-2.11,1.66
		c-0.23-0.99-0.62-1.97-0.65-2.96c-0.03-1.15,0.27-2.3,0.43-3.45C108.78,184.5,109.08,184.48,109.37,184.45z"/>
	<path class="st0" d="M71.16,208.53c-4.59,0.9-4.59,0.9-4.84-3.93C68.67,204.2,71.02,206.11,71.16,208.53z"/>
	<path class="st0" d="M87.55,290.07c-0.12-1.97-0.55-3.29-0.19-4.33c0.77-2.18-0.32-3.12-1.94-4c-1.88-1.02-3.89-1.89-5.57-3.18
		c-7.03-5.38-7.34-16.05-0.53-20.79c1.67-1.16,3.9-1.9,5.94-2.06c3.99-0.32,8.01-0.09,12.6-0.09c0-2.24,0.12-4.86-0.04-7.46
		c-0.13-2.1,0.59-2.91,2.71-2.78c2.23,0.14,4.48-0.06,6.71,0.05c2.05,0.1,2.94-0.63,2.85-2.77c-0.12-2.95,0.03-5.9-0.04-8.85
		c-0.04-1.71,0.61-2.44,2.35-2.37c2.24,0.08,4.48,0.08,6.71,0c1.76-0.07,2.38,0.69,2.33,2.39c-0.08,2.77,0.13,5.55-0.06,8.31
		c-0.18,2.65,0.9,3.49,3.42,3.3c2.14-0.16,4.3,0.06,6.44-0.06c1.91-0.1,2.52,0.69,2.42,2.52c-0.12,2.14-0.13,4.3,0,6.43
		c0.12,1.93-0.69,2.52-2.5,2.44c-2.23-0.1-4.48,0.1-6.71-0.05c-2.39-0.17-3.09,0.8-3.07,3.11c0.09,10.82,0.04,21.64,0.04,32.45
		c0,3.63-0.01,3.63-3.73,3.65c-7.64,0.02-7.64,0.02-7.64-7.53c0-9.48-0.06-18.96,0.04-28.43c0.03-2.41-0.68-3.44-3.2-3.25
		c-2.28,0.17-4.58,0.04-7.08,0.04c1.27,3.79,5.08,1.62,6.95,3.87c-1.6,0.68-4.15-1.56-5.17,1.75c1.26,0.11,2.36,0.32,3.44,0.27
		c1.66-0.08,2.09,0.65,2.2,2.21c0.32,4.56-0.9,8.55-4.97,10.81c-3.14,1.74-2.69,5.07-2.25,6.77c0.74,2.86,0.14,4.35-2.23,5.86
		c1.33,1.15,2.7,1.97,3.53,3.16c0.69,0.99,0.91,2.42,0.94,3.67c0.01,0.24-1.78,0.75-2.75,0.77c-3.94,0.09-7.88,0.08-11.82,0
		c-0.9-0.02-2.52-0.4-2.55-0.71c-0.09-1.15,0.14-2.44,0.66-3.48C86.22,290.89,87.22,290.37,87.55,290.07z M112.22,274.14
		c0,5.81-0.02,11.62,0.03,17.43c0.01,0.84,0.28,2.34,0.59,2.39c1.83,0.26,3.76,0.43,5.54,0.06c0.51-0.11,0.88-2.09,0.88-3.22
		c0.07-10.81,0.04-21.63,0.04-32.44c0-3.68,0.01-3.69,3.56-3.69c1.97,0,3.94-0.09,5.91,0.02c1.8,0.1,2.72-0.48,2.53-2.41
		c-0.08-0.8-0.07-1.61,0-2.41c0.14-1.73-0.61-2.41-2.34-2.35c-2.41,0.08-4.84-0.08-7.25,0.04c-1.92,0.1-2.51-0.68-2.43-2.5
		c0.11-2.59,0.03-5.18,0.03-7.77c-0.01-3.71-0.02-3.55-3.64-3.76c-2.68-0.15-3.88,0.67-3.46,3.43c0.12,0.79,0.04,1.61,0.01,2.41
		c-0.09,2.57,0.77,6.23-0.56,7.43c-1.54,1.38-5.03,0.67-7.68,0.72c-4.08,0.08-4.08,0.02-4.02,4.18c0,0.27,0.02,0.54,0.01,0.8
		c-0.11,1.6,0.6,2.24,2.22,2.19c2.59-0.08,5.19,0.07,7.78-0.05c1.8-0.08,2.3,0.65,2.28,2.35
		C112.17,262.7,112.21,268.42,112.22,274.14z M93.65,265.09c-2.95,0-5.89,0.07-8.84-0.03c-1.83-0.06-2.29,0.77-2.22,2.42
		c0.13,3.08,6.84,10.05,9.95,10.21c0.18,0.01,0.36-0.02,0.53-0.05c4.49-0.91,8.05-3.34,10.73-6.96c0.68-0.92,0.77-2.32,0.96-3.53
		c0.22-1.45-0.52-2.1-2.01-2.08C99.72,265.12,96.68,265.09,93.65,265.09z M89.09,278.73c-2.81-2.18-5.23-3.74-7.27-5.71
		c-2.58-2.48-2.9-6.2-1.22-9.15c1.48-2.59,3.97-3.62,7.67-2.89c1.73,0.34,3.36,1.44,5.08,1.56c1.83,0.13,3.71-0.46,5.55-0.85
		c0.17-0.04,0.34-1.29,0.2-1.36c-1.62-0.81-3.23-1.81-4.97-2.14c-2.16-0.41-4.44-0.18-6.67-0.35c-5.2-0.39-9.35,2.56-10.39,7.67
		c-1.47,7.18,3.85,12.03,9.43,13.94C87.11,279.67,88.01,279.05,89.09,278.73z M86.8,294.05c4.86,0,8.92,0,12.98,0
		c0.13-0.25,0.26-0.5,0.4-0.75c-1.89-1.45-3.65-3.82-5.71-4.13C91.48,288.73,89.31,291.32,86.8,294.05z M90.05,283.09
		c2.74-0.81,5.14-1.46,7.49-2.26c0.42-0.14,0.62-0.92,0.93-1.41c-0.55-0.31-1.18-0.97-1.64-0.87c-2.42,0.54-4.82,1.21-7.18,1.98
		c-0.42,0.13-0.95,1.03-0.84,1.39C88.98,282.43,89.69,282.77,90.05,283.09z M90.3,288.18c2.65-0.74,5.06-1.34,7.41-2.14
		c0.45-0.15,0.64-1.06,0.96-1.62c-0.51-0.28-1.09-0.88-1.51-0.78c-2.42,0.56-4.82,1.22-7.17,2.01c-0.45,0.15-0.87,1.04-0.89,1.6
		C89.08,287.56,89.92,287.91,90.3,288.18z"/>
	<path class="st0" d="M173.85,353.64c-0.17,1.43-0.34,2.53-0.42,3.64c-0.13,1.85-1.02,3.16-2.89,3.28
		c-2.07,0.13-3.03-1.25-3.25-3.18c-0.11-0.98-0.15-1.96-0.16-2.94c-0.01-1.42-0.84-1.73-2.02-2.48c-5.38-3.42-11.75-3.14-18.29-5.29
		c1.66-3.27,3.19-6.27,4.84-9.5c-0.7,0.12-1.34,0.23-1.97,0.34c-4.15,0.7-8.08-1.69-9.06-5.72c-0.41-1.67-0.53-2.97,1.29-4.72
		c2.28-2.18,3.14-5.84,4.58-8.8c-0.48-0.43-0.66-0.64-0.87-0.78c-2.99-1.91-3.8-4.55-2.1-6.9c1.67-2.32,4.49-2.37,7.22-0.11
		c1.95,1.61,12.74,0.24,13.94-1.84c0.33-0.57,0.22-1.39,0.33-2.08c0.44-2.77,2.65-4.67,5.39-4.66c2.7,0.01,5.13,1.99,5.22,4.74
		c0.07,2.05,1.02,2.98,2.76,3.3c3.07,0.56,6.15,1.05,9.25,1.38c0.75,0.08,1.72-0.39,2.36-0.9c2.72-2.16,5.59-2.13,7.24,0.21
		c1.67,2.35,0.95,4.83-1.93,6.74c-0.29,0.19-0.55,0.42-1.11,0.87c2.17,3.06,1.96,7.36,5.65,9.6c0.37,0.23,0.47,1.09,0.5,1.67
		c0.29,5.3-3.84,8.51-10.44,7.94c-2.08,5.13-4.27,10.29-6.24,15.53c-0.92,2.44-2.01,3.54-4.67,2.25
		C177.49,354.51,175.79,354.22,173.85,353.64z M169.78,358.33c0.38-0.02,0.76-0.03,1.15-0.05c0.17-0.91,0.43-1.82,0.49-2.74
		c0.92-12.57,1.84-25.13,2.67-37.71c0.11-1.63,0.71-2.19,2.27-2.16c3.13,0.06,6.27,0.02,9.4,0.01c2.42,0,4.86,0.18,7.24-0.12
		c1.01-0.13,2.12-1.1,2.74-2c0.24-0.36-0.7-2.2-1.17-2.23c-1.03-0.06-2.12,0.56-3.14,1c-0.61,0.26-1.11,1.03-1.69,1.06
		c-5.15,0.23-10.19-0.23-14.91-2.57c-1.16-0.58-1.62-1.2-1.4-2.71c0.16-1.08-0.54-2.71-1.4-3.37c-0.74-0.57-2.6-0.55-3.36,0.01
		c-0.87,0.65-1.65,2.32-1.44,3.33c0.36,1.72-0.33,2.49-1.61,2.79c-4.15,0.96-8.32,1.83-12.51,2.55c-1.64,0.28-3.37,0.31-4.36-1.7
		c-0.24-0.49-1.68-0.79-2.33-0.55c-0.65,0.24-1.44,1.31-1.39,1.95c0.06,0.79,0.79,1.75,1.5,2.19c0.69,0.42,1.72,0.35,2.61,0.35
		c4.84,0.03,9.67,0.08,14.51-0.01c1.94-0.04,2.84,0.42,2.98,2.62c0.76,12.13,1.68,24.25,2.57,36.37
		C169.29,355.89,169.58,357.11,169.78,358.33z M149.76,344.96c2.82,0.36,4.78,0.73,6.77,0.84c1.68,0.09,3.46-0.49,5.03-0.09
		c1.5,0.38,2.77,1.64,4.45,2.7c0.2-0.67,0.57-1.29,0.53-1.89c-0.3-4.62-0.63-9.24-1.08-13.85c-0.05-0.53-0.85-1.2-1.45-1.43
		c-1.07-0.41-2.24-0.66-3.38-0.74c-0.67-0.05-1.7,0.13-2,0.58C155.79,335.38,153.07,339.75,149.76,344.96z M175.27,332.2
		c-0.43,5.2-0.87,10.04-1.23,14.89c-0.2,2.75,2.4,5.51,5.12,5.45c0.51-0.01,1.29-0.39,1.48-0.8c2.21-4.84,4.33-9.72,6.38-14.37
		C182.98,335.59,179.3,333.97,175.27,332.2z M185.56,334.49c-0.43-1.93-0.83-3.21-0.97-4.52c-0.07-0.71,0.07-1.88,0.52-2.14
		c3.78-2.17,3.5-6.47,6.05-10.05c-3.49,0-6.22,0-8.95,0c-6,0-5.96,0-6.51,6.02c-0.32,3.54-0.99,7.14,3.98,8.12
		c0.82,0.16,1.47,1.01,2.28,1.37C182.98,333.75,184.08,334.01,185.56,334.49z M150.49,317.94c-0.25,0.21-0.51,0.42-0.76,0.64
		c2.2,3.79,4.39,7.57,6.72,11.58c1.01-1.16,1.69-1.94,2.32-2.66c1.39,0.54,2.62,1.08,3.89,1.48c1.65,0.51,2.6,0.04,2.43-1.91
		c-0.26-3-0.44-6-0.66-9.12C159.55,317.94,155.02,317.94,150.49,317.94z M142.64,329.82c0.44,3.71,2.77,5.85,5.81,5.69
		c3.03-0.16,5.21-2.49,5.15-5.69C150.01,329.82,146.41,329.82,142.64,329.82z M187.13,329.86c-0.04,3.27,2.2,5.59,5.25,5.65
		c3.12,0.07,5.46-2.25,5.55-5.65C194.33,329.86,190.73,329.86,187.13,329.86z M148.19,318.51c-1.49,3.35-2.64,5.93-3.95,8.88
		c2.82,0,5.13,0,7.94,0C150.86,324.45,149.69,321.86,148.19,318.51z M192.48,318.47c-1.5,3.37-2.67,6.02-3.91,8.81
		c2.85,0,5.14,0,7.86,0C195.11,324.32,193.97,321.78,192.48,318.47z"/>
	<path class="st0" d="M151.81,277.23c-6.54,0.39-10.59-2.52-10.98-7.47c-0.47-5.9,3.09-10.09,9.19-10.62
		c2.31-0.2,4.67,0.12,6.97-0.16c0.99-0.12,2.37-0.97,2.71-1.83c1.46-3.65,3.29-7.08,2.77-11.45c-0.59-4.99,4.08-8.71,9.31-8.28
		c4.83,0.39,8.31,4.85,7.5,9.87c-0.68,4.25,2.03,7.42,3.31,11.03c0.15,0.44,1.37,0.67,2.1,0.7c2.5,0.12,5.03-0.11,7.51,0.18
		c5.91,0.7,9.22,4.94,8.67,10.8c-0.45,4.76-4.62,7.66-10.83,7.2c0.31,1.01,0.51,1.9,0.84,2.74c1.66,4.24,3.32,8.49,5.03,12.71
		c0.68,1.67,0.89,2.98-1.13,3.97c-1.93,0.94-2.91,0.06-3.61-1.47c-0.74-1.61-1.86-2.06-3.61-2.05c-11.01,0.08-22.02,0.08-33.03,0
		c-1.91-0.01-3.25,0.38-4.06,2.23c-0.65,1.51-1.71,2.16-3.44,1.33c-1.79-0.86-1.97-2.06-1.3-3.72c1.69-4.23,3.34-8.48,4.99-12.72
		C151.07,279.34,151.37,278.43,151.81,277.23z M166.1,282.76c0,0,0.01,0,0.01,0c0-1.88-0.15-3.77,0.06-5.62
		c0.12-1.04,0.82-2.02,1.27-3.03c0.4,1.05,1.11,2.09,1.15,3.15c0.14,3.84,0.11,7.69,0.04,11.53c-0.03,1.74,0.63,2.36,2.37,2.35
		c1.69-0.01,2.15-0.73,2.12-2.28c-0.06-4.11-0.08-8.22,0.04-12.33c0.02-0.81,0.69-1.6,1.06-2.4c0.47,0.8,1.32,1.58,1.35,2.39
		c0.14,4.2,0.1,8.4,0.06,12.6c-0.01,1.54,0.71,2.02,2.14,2c1.32-0.02,2.28-0.23,2.26-1.87c-0.04-4.2,0.12-8.41-0.06-12.6
		c-0.15-3.33-2.36-5.12-5.75-5.12c-2.24,0-4.48,0-6.71,0c-3.38,0.01-5.6,1.79-5.77,5.14c-0.21,4.19-0.03,8.4-0.07,12.6
		c-0.02,1.65,0.96,1.84,2.27,1.86c1.36,0.01,2.24-0.29,2.18-1.92C166.05,287.05,166.1,284.9,166.1,282.76z M193.2,294.39
		c0.26-0.13,0.52-0.26,0.77-0.4c-5.52-14.02-11.03-28.04-16.49-41.91c-2.49,1.08-4.51,1.96-6.83,2.96
		C178.17,268.16,185.69,281.28,193.2,294.39z M147.73,293.98c0.21,0.12,0.42,0.24,0.63,0.36c0.47-0.72,0.97-1.42,1.4-2.17
		c6.13-10.68,12.2-21.4,18.43-32.03c1.17-1.99,1.28-3.65-0.2-5.31c-0.97-1.08-2.14-1.99-3.58-3.3
		C158.71,266.02,153.22,280,147.73,293.98z M176.95,245.78c-0.04-3.41-2.81-6.17-6.16-6.14c-3.34,0.04-6.08,2.88-6.05,6.26
		c0.03,3.4,2.77,6.09,6.17,6.07C174.3,251.94,176.99,249.19,176.95,245.78z M157.98,261.57c-3.17,0-5.96-0.28-8.67,0.06
		c-4.28,0.54-6.66,4.07-6.01,8.32c0.58,3.77,4.95,6.21,8.11,4.47c1.99-1.1,2.79-2.98,2.04-4.99c-0.41-1.1-1.79-1.98-2.94-2.58
		c-0.42-0.22-1.73,0.53-2.05,1.15c-0.22,0.41,0.54,1.39,0.96,2.05c0.33,0.53,0.8,0.97,1.21,1.45c-0.71,0.23-1.67,0.87-2.07,0.62
		c-1.04-0.66-2.45-1.63-2.59-2.63c-0.17-1.29,0.35-3.34,1.3-3.96c1.3-0.85,3.33-1.04,4.95-0.82c1.23,0.16,2.31,1.41,3.69,2.32
		C156.59,265.26,157.23,263.56,157.98,261.57z M185.93,267.35c2.31-2.6,4.63-3.9,7.65-2.53c1.85,0.84,2.81,2.5,2.27,4.36
		c-0.34,1.16-1.59,2.16-2.64,2.94c-0.35,0.26-1.36-0.35-2.07-0.57c0.38-0.49,0.8-0.96,1.12-1.49c0.41-0.68,1.19-1.62,0.98-2.05
		c-0.29-0.61-1.46-1.31-2.04-1.16c-1,0.25-2.48,1.03-2.61,1.78c-0.26,1.52-0.3,3.67,0.58,4.63c0.99,1.06,3.15,1.59,4.72,1.44
		c2.63-0.26,4.48-2.82,4.67-5.48c0.23-3.23-1.44-6.38-4.55-7.08c-3.2-0.72-6.57-0.63-10.43-0.93
		C184.51,263.65,185.14,265.29,185.93,267.35z M165.8,268.81c3.63,0,6.66,0,10.14,0c-1.36-2.41-2.43-4.45-3.62-6.4
		c-0.77-1.26-1.92-1.45-2.76-0.14C168.26,264.26,167.18,266.38,165.8,268.81z M183.3,281.49c-0.24,0.04-0.49,0.07-0.73,0.11
		c0,2.27-0.08,4.54,0.04,6.81c0.04,0.86,0.31,2.2,0.86,2.44c0.85,0.37,2.51,0.37,2.95-0.18c0.55-0.69,0.58-2.24,0.2-3.14
		C185.7,285.43,184.42,283.49,183.3,281.49z M159.12,281.69c-0.24-0.06-0.47-0.13-0.71-0.19c-1.21,2.25-2.57,4.44-3.56,6.79
		c-0.43,1.01-0.65,2.67,1.35,2.77c1.38,0.07,3.01,0.45,2.94-1.9C159.06,286.67,159.12,284.18,159.12,281.69z"/>
	<path class="st0" d="M190.16,191.48c-1.81-0.76-3.52-1.49-5.26-2.22c1.14-1.06,2.24-2.84,0.48-4.7c1.86-0.22,3.71-0.44,5.64-0.67
		c-0.29,1.78,0.75,3.36,3.27,4.18C191.7,188.36,190.03,189.42,190.16,191.48z"/>
	<path class="st0" d="M173.87,245.68c-1.41,1.08-2.19,2.15-2.9,2.1c-0.75-0.05-1.42-1.16-2.13-1.81c0.64-0.69,1.2-1.81,1.94-1.94
		C171.47,243.91,172.36,244.82,173.87,245.68z"/>
</g>
<g id="Capa_2">
</g>
</svg>
