<svg width="779" height="101" viewBox="0 0 779 101" fill="none" xmlns="http://www.w3.org/2000/svg">
<g clip-path="url(#clip0_8_17458)">
<path d="M517.771 80.88V73.82H532.251L530.601 72.17C525.891 67.46 522.501 62.69 520.421 57.87C518.341 53.05 517.301 48.31 517.301 43.68C517.301 35.12 519.751 27.47 524.661 20.72C529.571 13.97 536.021 9.30004 544.031 6.71004V14.01C538.071 16.36 533.301 20.25 529.731 25.67C526.161 31.09 524.371 37.09 524.371 43.68C524.371 47.76 525.061 51.63 526.431 55.28C527.801 58.93 530.141 62.25 533.431 65.23L536.961 68.41V54.64H544.021V80.89H517.771V80.88ZM600.061 41.56H593.001C592.841 37.56 592.061 33.85 590.651 30.43C589.241 27.01 587.041 23.94 584.061 21.19L580.531 18.01V31.78H573.471V5.54004H599.721V12.6H585.121L586.891 14.25C591.441 18.57 594.741 23.08 596.781 27.79C598.821 32.5 599.921 37.09 600.081 41.56H600.061ZM584.171 95.01L583.581 89.36C582.011 88.89 580.401 88.2 578.751 87.3C577.101 86.4 575.771 85.4 574.751 84.3L569.811 86.65L565.691 80.29L570.161 76.76C569.771 74.95 569.571 73.33 569.571 71.87C569.571 70.41 569.771 68.79 570.161 66.98L565.691 63.45L569.811 56.97L574.751 59.32C575.771 58.38 577.101 57.44 578.751 56.49C580.401 55.54 582.011 54.84 583.581 54.37L584.171 48.6H591.231L591.941 54.37C593.511 54.84 595.121 55.55 596.771 56.49C598.421 57.43 599.751 58.37 600.771 59.32L605.711 56.97L609.831 63.45L605.361 66.98C605.751 68.79 605.951 70.41 605.951 71.87C605.951 73.33 605.751 74.95 605.361 76.76L609.831 80.29L605.711 86.65L600.771 84.3C599.751 85.4 598.421 86.4 596.771 87.3C595.121 88.2 593.511 88.89 591.941 89.36L591.231 95.01H584.171ZM587.701 83.83C591.151 83.83 594.021 82.69 596.291 80.42C598.561 78.15 599.701 75.28 599.701 71.83C599.701 68.38 598.561 65.51 596.291 63.24C594.011 60.96 591.151 59.83 587.701 59.83C584.251 59.83 581.381 60.97 579.111 63.24C576.831 65.52 575.701 68.38 575.701 71.83C575.701 75.28 576.841 78.15 579.111 80.42C581.381 82.69 584.251 83.83 587.701 83.83Z" fill="white"/>
<path d="M742.63 65.06C743.8 65.06 744.81 64.63 745.67 63.77C746.53 62.91 746.961 61.9 746.961 60.73C746.961 59.56 746.53 58.55 745.67 57.69C744.81 56.83 743.8 56.4 742.63 56.4C741.46 56.4 740.451 56.83 739.591 57.69C738.731 58.55 738.3 59.56 738.3 60.73C738.3 61.9 738.731 62.91 739.591 63.77C740.451 64.63 741.46 65.06 742.63 65.06ZM739.99 51.75H744.951C745.09 49.71 745.39 48.19 745.85 47.21C746.31 46.23 747.451 44.85 749.281 43.09C751.181 41.26 752.5 39.66 753.24 38.3C753.98 36.93 754.35 35.33 754.35 33.48C754.35 30.25 753.241 27.61 751.021 25.57C748.801 23.52 745.9 22.5 742.31 22.5C739.63 22.5 737.24 23.22 735.13 24.67C733.02 26.11 731.47 28.14 730.48 30.74L735.23 32.75C736 30.99 736.97 29.65 738.13 28.74C739.29 27.82 740.68 27.37 742.3 27.37C744.4 27.37 746.1 27.97 747.41 29.17C748.72 30.37 749.38 31.88 749.38 33.71C749.38 35.12 749.06 36.35 748.43 37.41C747.8 38.47 746.67 39.59 745.05 40.79C742.8 42.83 741.391 44.47 740.831 45.7C740.271 46.93 739.99 48.96 739.99 51.77V51.75ZM712.74 79.85C711.05 79.85 709.57 79.22 708.3 77.95C707.03 76.68 706.401 75.2 706.401 73.51V14.36C706.401 12.67 707.03 11.19 708.3 9.92002C709.57 8.65002 711.05 8.02002 712.74 8.02002H771.88C773.57 8.02002 775.05 8.65002 776.32 9.92002C777.59 11.19 778.22 12.67 778.22 14.36V73.5C778.22 75.19 777.59 76.67 776.32 77.94C775.05 79.21 773.57 79.84 771.88 79.84H712.74V79.85ZM712.74 73.51H771.88V14.36H712.74V73.5V73.51ZM700.07 92.52C698.38 92.52 696.9 91.89 695.63 90.62C694.36 89.35 693.73 87.87 693.73 86.18V20.7H700.07V86.18H765.55V92.52H700.07Z" fill="white"/>
<path d="M72.58 88.9299L44.34 60.6899C42.19 62.5499 39.69 63.9999 36.83 65.0399C33.97 66.0799 30.93 66.5999 27.7 66.5999C19.96 66.5999 13.4 63.9199 8.04 58.5499C2.68 53.1699 0 46.6899 0 39.1099C0 31.5299 2.68 25.0399 8.05 19.6799C13.42 14.3099 19.91 11.6299 27.54 11.6299C35.17 11.6299 41.64 14.3099 46.97 19.6799C52.3 25.0499 54.97 31.5299 54.97 39.1299C54.97 42.1999 54.47 45.1599 53.47 48.0299C52.47 50.8899 50.96 53.5799 48.96 56.0799L77.31 84.2099L72.59 88.9299H72.58ZM27.59 60.1499C33.41 60.1499 38.35 58.0899 42.42 53.9799C46.49 49.8599 48.53 44.9099 48.53 39.1099C48.53 33.3099 46.49 28.3499 42.42 24.2399C38.35 20.1199 33.41 18.0699 27.59 18.0699C21.77 18.0699 16.72 20.1299 12.61 24.2399C8.5 28.3599 6.44 33.3099 6.44 39.1099C6.44 44.9099 8.5 49.8699 12.61 53.9799C16.72 58.0999 21.72 60.1499 27.59 60.1499Z" fill="white"/>
<path d="M223.18 88.2001C222.34 88.2001 221.6 87.8801 220.97 87.2501C220.34 86.6201 220.02 85.8801 220.02 85.0401C220.02 84.1301 220.34 83.3701 220.97 82.7701C221.6 82.1701 222.34 81.8701 223.18 81.8701C227.32 81.8701 230.82 81.0301 233.66 79.3401C236.5 77.6501 237.93 75.6901 237.93 73.4401C237.93 71.8201 236.89 70.2401 234.82 68.7001C232.75 67.1501 229.96 65.9601 226.44 65.1201L231.39 60.1701C235.82 61.5001 239.06 63.3501 241.14 65.7001C243.21 68.0501 244.25 70.6301 244.25 73.4401C244.25 78.1501 242.11 81.7801 237.82 84.3501C233.53 86.9201 228.65 88.2001 223.17 88.2001H223.18ZM189.46 57.2301C184.96 56.2501 181.73 54.7001 179.77 52.5901C177.81 50.4801 176.82 48.3101 176.82 46.0601C176.82 43.6001 177.73 41.3901 179.56 39.4201C181.39 37.4501 185.6 35.2801 192.2 32.8901C196.84 31.2001 199.82 29.8301 201.16 28.7801C202.49 27.7301 203.16 26.5001 203.16 25.0901C203.16 23.3301 202.39 21.8201 200.84 20.5601C199.29 19.3001 196.91 18.6601 193.68 18.6601C191.78 18.6601 190.17 18.9101 188.83 19.4001C187.49 19.8901 186.3 20.6601 185.25 21.7201C184.69 22.2801 183.97 22.6201 183.09 22.7201C182.21 22.8201 181.42 22.6001 180.72 22.0401C179.95 21.4801 179.54 20.7801 179.51 19.9301C179.48 19.0801 179.74 18.3501 180.3 17.7201C181.49 16.1701 183.29 14.8901 185.67 13.8701C188.05 12.8501 190.73 12.3401 193.68 12.3401C198.46 12.3401 202.28 13.4801 205.16 15.7601C208.04 18.0401 209.48 21.1501 209.48 25.0801C209.48 27.9601 208.48 30.4001 206.48 32.4001C204.48 34.4001 200.56 36.4901 194.73 38.6701C190.02 40.4301 186.92 41.8101 185.41 42.8301C183.9 43.8501 183.14 44.9201 183.14 46.0401C183.14 47.1601 184.09 48.2401 185.98 49.2501C187.88 50.2701 190.72 51.2301 194.51 52.1501L189.45 57.2101L189.46 57.2301ZM241.72 41.0001L228.23 27.5101L232.97 22.7701C234.23 21.5101 235.64 20.8701 237.18 20.8701C238.72 20.8701 240.13 21.5001 241.39 22.7701L246.45 27.8301C247.71 29.0901 248.35 30.5001 248.35 32.0401C248.35 33.5801 247.72 34.9901 246.45 36.2501L241.71 40.9901L241.72 41.0001ZM187.35 81.8801H191.78L228.13 45.5301L223.7 41.1001L187.35 77.4501V81.8801ZM181.03 88.2001V74.7101L223.7 32.0401L237.19 45.5301L194.52 88.2001H181.03Z" fill="white"/>
<path d="M375.771 100.55L373.261 84.71C371.671 84.12 369.991 83.33 368.231 82.32C366.471 81.31 364.921 80.27 363.581 79.18L348.751 85.97L337.061 65.36L350.631 55.43C350.461 54.68 350.361 53.82 350.321 52.85C350.281 51.88 350.261 51.03 350.261 50.27C350.261 49.51 350.281 48.66 350.321 47.69C350.361 46.72 350.471 45.87 350.631 45.11L337.061 35.18L348.751 14.57L363.581 21.36C364.921 20.27 366.471 19.22 368.231 18.22C369.991 17.22 371.671 16.46 373.261 15.96L375.771 0H398.901L401.411 15.84C403.001 16.43 404.701 17.2 406.501 18.17C408.301 19.14 409.831 20.2 411.091 21.37L425.921 14.58L437.611 35.19L424.041 44.87C424.211 45.71 424.311 46.61 424.351 47.57C424.391 48.53 424.411 49.43 424.411 50.27C424.411 51.11 424.391 51.99 424.351 52.91C424.311 53.83 424.201 54.71 424.041 55.55L437.611 65.35L425.921 85.96L411.091 79.17C409.751 80.26 408.221 81.33 406.501 82.37C404.781 83.41 403.091 84.19 401.411 84.7L398.901 100.54H375.771V100.55ZM387.331 66.61C391.851 66.61 395.711 65.02 398.891 61.83C402.071 58.64 403.671 54.79 403.671 50.27C403.671 45.75 402.081 41.89 398.891 38.71C395.711 35.53 391.851 33.93 387.331 33.93C382.811 33.93 378.951 35.52 375.771 38.71C372.591 41.9 370.991 45.75 370.991 50.27C370.991 54.79 372.581 58.65 375.771 61.83C378.951 65.01 382.811 66.61 387.331 66.61ZM387.331 59.07C384.901 59.07 382.831 58.21 381.111 56.49C379.391 54.77 378.531 52.7 378.531 50.27C378.531 47.84 379.391 45.77 381.111 44.05C382.831 42.33 384.901 41.47 387.331 41.47C389.761 41.47 391.831 42.33 393.551 44.05C395.271 45.77 396.131 47.84 396.131 50.27C396.131 52.7 395.271 54.77 393.551 56.49C391.831 58.21 389.761 59.07 387.331 59.07ZM381.801 93.01H392.861L394.621 78.93C397.391 78.26 400.001 77.21 402.481 75.79C404.951 74.37 407.191 72.65 409.201 70.64L422.521 76.42L427.551 67.37L415.741 58.7C416.081 57.28 416.351 55.87 416.561 54.49C416.771 53.11 416.871 51.7 416.871 50.28C416.871 48.86 416.791 47.45 416.621 46.07C416.451 44.69 416.161 43.28 415.741 41.86L427.551 33.19L422.521 24.14L409.201 29.92C407.271 27.74 405.091 25.92 402.661 24.45C400.231 22.98 397.551 22.04 394.621 21.62L392.861 7.54H381.801L380.041 21.62C377.191 22.21 374.531 23.21 372.061 24.64C369.591 26.06 367.391 27.82 365.461 29.92L352.141 24.14L347.111 33.19L358.921 41.86C358.581 43.28 358.311 44.69 358.101 46.07C357.891 47.45 357.791 48.86 357.791 50.28C357.791 51.7 357.891 53.11 358.101 54.49C358.311 55.87 358.581 57.28 358.921 58.7L347.111 67.37L352.141 76.42L365.461 70.64C367.471 72.65 369.711 74.37 372.181 75.79C374.651 77.21 377.271 78.26 380.041 78.93L381.801 93.01Z" fill="white"/>
</g>
<defs>
<clipPath id="clip0_8_17458">
<rect width="778.22" height="100.55" fill="white"/>
</clipPath>
</defs>
</svg>
