<?xml version="1.0" encoding="utf-8"?>
<!-- Generator: Adobe Illustrator 27.4.0, SVG Export Plug-In . SVG Version: 6.00 Build 0)  -->
<svg version="1.1" xmlns="http://www.w3.org/2000/svg" xmlns:xlink="http://www.w3.org/1999/xlink" x="0px" y="0px"
	 viewBox="0 0 1500 600" style="enable-background:new 0 0 1500 600;" xml:space="preserve">
<style type="text/css">
	.st0{fill:#666666;}
	.st1{fill:#21B8CC;}
</style>
<g id="Capa_1">
	<path class="st0" d="M155.52,160.97c-0.3,0.19-0.6,0.38-1.01,0.63c9.21,2.61,16.33,9.19,18.4,18.67c0.38,1.64,1.06,2.16,2.74,2.16
		c24.92-0.06,49.85-0.05,74.78-0.05c3.09,0,3.07,0.01,3.07,3.03c-0.01,33.33-0.12,66.66,0.05,99.99
		c4.57,62.16-39.93,113.8-100.09,125.04c0.01,0.01,0.3,0.23,0.59,0.46c-3.32,0-6.65,0-9.97,0c0.46-0.22,0.93-0.43,1.13-0.53
		c-51.76-12.42-98.33-54.47-99.4-110.31c-0.07,0.02-0.15,0.03-0.22,0.05c-0.28,1.93-0.57,3.86-0.85,5.78c0-41.16,0-82.32,0-123.49
		c25.89,0.05,51.83-0.15,77.7,0.03c1.52,0.37,2.06-0.34,2.39-1.73c2.04-9.58,9.78-17.16,19.41-19.15c-0.39-0.26-0.63-0.43-0.88-0.6
		C147.4,160.97,151.46,160.97,155.52,160.97z M146.83,210.62c0.01-0.15,0.02-0.29,0.02-0.44c-9.95-2.21-17.72-7.14-21.17-17.08
		c-0.72-1.93-1.64-2.49-3.59-2.48c-21.36,0.06-42.71,0.04-64.07,0.04c-5.16,0-5.14,0-5.14,5.12c0.01,28.46,0.01,56.93,0.02,85.39
		c0,2.84,0.01,2.86,2.89,2.86c7.73-1.44,37.61,3.16,40.09-2.13c1.64-28.32,26.56-48.11,53.22-50.71c-0.85-1.44-2.01-3.03-2.3-4.63
		c-4.2-2.42,3.73-3.71-2.81-5.68c-1.52-2.84-3.46,1.44-5.4,0.12c-1.06-1.52-1.83-1.03-2.97-0.13c-4.75,2.73-2.66-5.48-3.21-7.99
		c-0.84-2.75,3.83-3.09,3.64-0.3c0.03,0.62,0.65,1.2,1.01,1.8c1.29-1.14,0.39-3.66,2.41-3.77c2.43-0.22,1.78,2.39,3.09,3.79
		C144.34,212.05,143,210.35,146.83,210.62z M245.51,293.3c-0.02-2.03,0.42-1.76-3.39-1.76c-8.06,1.35-34.72-2.86-38.44,1.95
		c-3,24.29-22.86,44.29-47.24,47.11c-2.72,0.36-2.74,0.4-2.74,3.14c-0.17,18.53,0.35,37.08-0.22,55.6
		c-0.17,2.07,0.18,2.42,2.25,1.95C207.5,391.51,246.92,347.44,245.51,293.3z M99.81,285.85c-0.54,65.77,98.56,67.73,100.31,1.31
		C199.84,220.51,100.89,220.26,99.81,285.85z M151.13,197.95c1.83-1.55,2.4-3.33,4.61-2.38c0.98,0.46,0.93,1.81-0.22,1.99
		c-2.43,0.14-2.87,1.98-3.38,3.78c-0.34,4.23,6.52-1.69,8.36-2.4c23.34-16.56-20.88-52.79-11.91-14.59
		c2.59-4.51-1.28-12.48,2.4-16.02c1.16,1.25-0.03,3.12,0.5,4.92c1.05-0.71,1.7-1.15,2.71-1.84c-0.19,1.15-0.31,1.84-0.43,2.52
		c9.69,1.19,6.81,9.51-0.06,7.35c1.65,1.03,2.45,1.55,3.66,2.75c-2.83,0.61-4.26-1-6.57-2.76c-0.36,3.13,1.46,4.78,0.56,7.65
		c-0.08,0.19,0.67,0.97,1.14,1.1c1.46,0.5,3.33-0.1,4.2,1.46c-1.57,1.18-3.51,0.69-5.57,1.07
		C151.13,194.22,151.13,195.82,151.13,197.95z M152.08,225.13c-1.31-1.76-2.42-3.61,0.55-4c1.74-0.4,2.46-3.15,4.07-0.81
		c2,3.2,3.42-3.05,5.64-0.07c0.39,0.46,1.24,0.51,1.89,0.75c1.49-1.71,0.88-14.33-1.67-7.88c-0.08,1.16-0.46,1.9-1.76,1.85
		c-2.78,0.28-0.47-3.71-2.79-3.54c-1.58,0.45-0.66,3.59-2.59,3.6c-3.21-0.23,0.47-4.45-4.17-3.68c-3.36,0.61-0.79,9.57-1.6,12.59
		C149.64,225.99,149.94,226.16,152.08,225.13z M143.13,196.39c3.05,1.86,3.49,4.52,5.27,7.14c1.03-1.61,1.05-3.82,0.52-5.61
		c-0.27,0.43-0.47,0.74-0.69,1.08C144.39,194.77,144.34,194.75,143.13,196.39z M140.18,176.06c4.75-0.9,5.62,4.64,2.83,7.18
		C149.4,182.13,145.16,170.88,140.18,176.06z M139.14,177.07c-0.2,0-0.39-0.01-0.59-0.01c-1.82,2.67,2.87,6.31,4.46,3.09
		c0.08-2.22-2.59-0.62-3.86,0.03C139.14,178.9,139.14,177.99,139.14,177.07z M148.06,191.33c-1.55-1.31-3.22-1.32-5.33-0.15
		C144.51,192.49,146.3,192.57,148.06,191.33z"/>
	<path class="st0" d="M1130.54,269.6c-7.39,24.24-11.71,52.8-22.65,74.47c-5.64-0.93-13.76,2.13-18.09-1.63
		c-7.58-24.09-15.46-48.27-21.26-72.74c-2.45,21.95-4.66,43.93-7.29,65.86c-0.96,2.62,0.72,8.17-2.92,8.56
		c-3.83-1.07-17.66,2.41-17.75-1.98c2.7-18.02,5.34-36.05,7.98-54.07c2.33-15.89,4.66-31.79,6.96-47.69
		c3.13-4.46,15.59-0.6,21.23-1.81c1.21,0,1.88,0.56,2.24,1.76c7.39,24.49,15.17,49.01,21.82,73.61c6.93-24.74,14.43-49.31,22.2-73.8
		c5.06-3.97,14.85-0.43,21.48-1.58c8.63,28.66,9.49,63.31,15.37,93.94c4.21,18.25-1.12,9.92-16.6,11.64
		c-1.68,0.01-2.29-0.53-2.52-2.28c-3.36-24.06-6.79-48.12-9.75-72.23C1130.83,269.61,1130.68,269.6,1130.54,269.6z"/>
	<path class="st0" d="M292.46,275.05c0-11.33,0-22.67,0-34c-0.79-5.2,13.54-1.41,17.24-2.54c5.03,0.11,1.2,21.6,2.41,26.54
		c2.51,22.86-11.66,71.09,27.3,62.62c22.98-1.54,11.21-68.47,13.92-87.06c0.91-4.68,12.86-0.87,17.04-2.11
		c1.79-0.03,2.36,0.69,2.36,2.41c-1.78,27.83,4.53,57.25-4.46,84.05c-8.59,20.23-34.01,23.78-53.07,18.39
		c-30.02-8.24-21.41-44.68-22.7-68.3C292.5,275.05,292.48,275.05,292.46,275.05z"/>
	<path class="st0" d="M435.59,316.71c0.01-19.82-0.39-39.62-0.56-59.45c1.05-5.23,10.39-1.03,14.5-2.12
		c4.51,25.97,0.05,57.94,1.57,85.85c1.58,5.96-14.99,1.92-18.99,3.06c-1.3,0.01-2.18-0.42-2.83-1.62
		c-10.83-20.31-22.43-40.29-32.49-60.95c-0.2,19.88,1.18,40.08,0.63,60.09c-0.01,2.15-0.31,2.43-2.49,2.45
		c-3.63-0.94-12.52,2.3-13.56-1.85c0.04-28.22,0.04-56.43,0.04-84.65c0-2.48,0.1-2.61,2.61-2.63c6.33,1.19,15.83-3.08,20.02,2.88
		C414.59,277.4,425.87,296.67,435.59,316.71z"/>
	<path class="st0" d="M1355.38,250.67c58.67-1.63,50.33,101.32-6.13,94.62C1296.76,342.13,1304.16,249.72,1355.38,250.67z
		 M1331.59,298.15c2,56.25,61.19,27.98,43.34-16.64c-4.48-12.95-12.88-14.76-22.15-14.57
		C1337.19,267.4,1331.15,284.55,1331.59,298.15z"/>
	<path class="st0" d="M919.66,299.45c0-13.86,0-27.72,0-41.58c-0.23-2.92,0.83-2.8,3.36-2.98c23.38-1.19,57.26-3.2,64.2,25.54
		c11.94,38.24-15.19,69.86-54.92,63.74c-4.06-1.24-13.62,2.88-12.63-3.88C919.67,326.68,919.67,313.06,919.66,299.45
		C919.67,299.45,919.67,299.45,919.66,299.45z M936.4,299.1C936.4,299.1,936.4,299.1,936.4,299.1c1.37,6.12-3.05,28.33,2.35,29.84
		c28.03,5.35,39.6-23.18,30.74-46.08c-4.46-13.32-19.66-14.48-31.6-13.35C934.09,273.01,937.51,292.43,936.4,299.1z"/>
	<path class="st0" d="M768.17,299.43c2.65-51.17-12.06-44.11,27.74-44.93c37.76-3.45,52.58,41.9,35.29,70.28
		c-12.35,21.57-39.04,19.76-60.56,19.22C765.09,345.75,769.52,305.51,768.17,299.43z M784.64,298.53c0.08,0,0.15,0,0.23,0
		c0,9.36,0.04,18.71-0.03,28.07c0.87,4.68,9.12,1.89,12.71,2.41c35.05-3.64,29.61-68.12-8.6-59.6c-4.49,0.06-4.2-0.64-4.27,4.36
		C784.55,282.03,784.64,290.28,784.64,298.53z"/>
	<path class="st0" d="M1426.43,306.74c0,11.36,0.02,22.73,0.01,34.09c0.92,6.3-10.96,2.02-14.98,3.31c-1.8,0.07-2.16-0.58-2.16-2.22
		c0.06-25.26,0.07-50.52,0.09-75.78c1.03-3.88-2.47-13.11,1.95-14.3c11.88,0.13,23.98-1.49,35.68,1.12
		c27.64,4.96,23.57,46.62-2.83,50.28c9.29,13.65,18.45,27.09,27.81,40.85c-7.17-1.23-16.74,2.74-22.28-2.12
		c-7.68-11.75-14.75-23.97-22.88-35.39C1426.7,306.62,1426.57,306.68,1426.43,306.74z M1426.48,279.48c-0.01,0-0.01,0-0.02,0
		c0.82,8.25-3.77,15.35,8.21,13.37c15.43,0.75,18.88-24.38,3.64-25.95C1423.98,264.96,1426.5,266.88,1426.48,279.48z"/>
	<path class="st0" d="M1239.67,344.08c-3.31-0.69-9.07,1.92-10.27-2.4c-2.65-4.83-1.98-14.5-7.38-16.46
		c-8.3,1.4-25.69-2.8-31.29,1.87c-2.83,4.99-1.92,15.16-7.66,17.04c-2.91-1.01-15.6,2.14-14.23-1.93
		c11.21-29.44,18.22-62.43,31.27-90.24c5.03,0.96,15.58-2.56,18.29,1.9c4.05,12.08,8.11,24.16,12.2,36.23
		c5.91,17.43,11.84,34.86,17.78,52.28c0.97,3.69-6.47,0.97-8.71,1.78C1239.67,344.12,1239.67,344.1,1239.67,344.08z M1207.84,273.2
		c-0.11,0.01-0.23,0.01-0.34,0.02c-3.56,12-6.94,24.05-11.14,35.85c-0.38,1.13-0.45,1.95,1.11,1.94
		C1232.56,312.31,1215.8,311.57,1207.84,273.2z"/>
	<path class="st0" d="M651.56,304.45c8.98,13.21,17.74,26.1,26.67,39.23c-6.24-0.26-16.85,2.72-21.34-1.79
		c-7.69-11.18-13.89-23.81-22.47-34.15c-0.29,11.16-0.02,22.34-0.11,33.51c0.85,5.43-10.86,1.74-14.45,2.83
		c-1.5,0.03-2.05-0.49-2.05-2.03c0.03-28.34,0.03-56.69,0-85.03c0-1.62,0.64-2.18,2.17-2.2c17.5,0.36,45.15-5.33,51.59,16.53
		C676.32,286.13,666.88,301.67,651.56,304.45z M634.31,281.61c1.03,3.62-2.42,12.01,2.15,12.86c8.41,0.47,18.25-1.48,18.95-12.14
		c1.77-11.52-10.12-14.28-19.56-13.34C632.34,270.35,635.18,278.18,634.31,281.61z"/>
	<path class="st0" d="M906.9,344.05c-3.26-0.61-8.72,1.8-9.9-2.51c-2.4-4.67-1.97-13.18-6.6-15.66c-9.73,1.13-22.01-2.42-30.51,1.32
		c-2.97,4.9-1.98,15.01-7.71,16.86c-3.07-1-14.4,2.19-13.62-2.04c9.45-28.52,19.12-56.97,28.32-85.57
		c3.67-3.81,11.75-0.56,16.92-1.57c1.38,0,2.19,0.56,2.67,1.99c7.8,23.17,15.66,46.31,23.5,69.47c1.76,5.19,3.48,10.39,5.21,15.59
		c1.51,4-6.07,1.37-8.28,2.08C906.9,344.03,906.9,344.04,906.9,344.05z M875.97,275.51c-0.77,5.33-13.92,36.39-9.51,36.57
		C899.01,312.97,885.19,314.31,875.97,275.51z"/>
	<path class="st0" d="M521.39,323.22c5.9-22.37,13.87-44.14,20.51-66.29c2.69-4.54,10.67-1.01,15.31-2.02
		c1.83,0.02,2.01,0.3,1.4,2.14c-9.46,28.39-18.83,56.81-28.19,85.23c0.59,2.89-20.54,2.67-19.82,0.04
		c-9.39-28.47-18.69-56.98-28.25-85.39c-0.54-1.58,0.02-2.05,1.45-2.05c4.95,1.02,13.19-2.38,16.38,1.86
		c6.97,22.16,13.29,44.57,20.67,66.58C521.04,323.27,521.22,323.25,521.39,323.22z"/>
	<path class="st0" d="M563.56,299.56c1.32-5.98-3.16-47.29,2.7-44.71c5.7,1.23,45.71-2.88,43.31,2.39
		c-1.03,3.52,2.39,11.64-2.03,12.52c-8.31-0.04-16.62,0.03-24.93-0.04c-1.73-0.01-2.39,0.46-2.36,2.28c1.22,4.39-2.49,18,2.06,19.02
		c7.82-0.06,15.63,0.01,23.45-0.06c4.75,0.53,1.31,8.65,2.32,12.11c-0.01,2.29-0.12,2.39-2.6,2.4c-25.79,1.89-26.17-8.61-25.2,21.04
		c-1.16,6.58,31.36-1.78,29.27,5.13c-0.96,3.56,2.38,11.4-1.96,12.42c-13.97-0.03-27.94-0.04-41.91,0.01
		c-1.79,0.01-2.14-0.79-2.14-2.37C563.58,327.65,563.57,313.6,563.56,299.56C563.56,299.56,563.56,299.56,563.56,299.56z"/>
	<path class="st0" d="M711.89,267.72c-9.45-0.22-20.62,9.65-10.67,17.92c7.61,5.22,16.73,7.82,23.96,13.66
		c12.22,10.21,8.9,30.38-3.27,39.18c-9.87,7.13-30.59,10.27-39.78,3.11c1.16-3.19-1.47-14.59,2.97-13.98
		c9.09,1.36,20.11,5.85,27.46-2.09c13.31-21.74-34.84-18.85-32.27-42.88c-2.9-25.33,29.93-35.04,47.09-25.8
		C726.96,274.12,727.37,269.93,711.89,267.72z"/>
	<path class="st0" d="M1276.56,293.7c5.67-13.64,11.32-26.48,17.03-39.99c0.6-1.41,1.5-1.9,2.98-1.88
		c2.86,0.93,17.66-2.21,15.04,2.31c-8.43,20.11-20.64,39.24-26.89,59.99c-1.16,7.64,2.68,25.04-1.38,30.07
		c-23.35,1.86-13.71-2.07-15.42-25.53c-3.15-23.08-18.62-43.23-26.76-64.97c-1.09-4.1,13.12-0.82,16.24-1.86
		C1266.56,262.78,1269.27,280.59,1276.56,293.7z"/>
	<path class="st0" d="M755.78,299.43c0,13.98,0,27.96,0,41.94c0.65,5.31-10.26,1.67-13.77,2.68c-2.88-0.01-2.92-0.04-2.92-2.86
		c-0.01-27.03-0.03-54.07,0-81.1c0.01-5.36-1.13-5.27,5.23-5.24c3.21,0.87,11.99-2.35,11.46,2.64
		C755.78,271.47,755.78,285.45,755.78,299.43z"/>
	<path class="st0" d="M477.7,299.42c-1.3,5.84,3.13,47.62-2.72,44.62c-3.38-0.89-14.68,2.49-13.76-2.62
		c-0.03-27.91,0.06-55.81-0.04-83.72c0.36-5.4,10.7-1.38,14.61-2.59c1.44-0.01,1.94,0.57,1.93,1.99
		C477.66,271.21,477.73,285.31,477.7,299.42z"/>
	<path class="st0" d="M1122.08,366.93c4.35-5.17,13.07-6.26,16.64,0.29c2.75-2.84,5.75-4.99,9.76-4.57
		c13.58,0.59,7.41,18.76,8.75,27.78c0.02,2.24-1.46,1.95-2.89,2.04c-5.19-0.65-1.16-14.83-2.39-19.33
		c0.93-9.06-12.08-7.37-12.01-0.3c-1.23,3.95,1.75,18.97-2.13,19.37c-8.29,0.95,1.61-22.88-6.36-24.9
		c-12.69-2.35-8.74,15.07-9.32,22.7c0,1.24,0.06,2.3-1.79,2.21c-3.11-0.16-3.17-0.07-3.17-2.22c1.2-5.58-2.67-25.3,1.96-26.9
		C1122.23,362.87,1121.6,364.57,1122.08,366.93z"/>
	<path class="st0" d="M1169.31,366.11c28.17-18.35,28.36,41.69-0.17,23.16c-1.28,3.83,2.76,14.97-3.07,14.29
		c-2.07-0.01-2.28-0.25-2.28-2.8c-0.01-11.83,0.02-23.65,0-35.48c0-1.1-0.02-2.09,1.53-2.2
		C1168.82,362.74,1168.7,363.68,1169.31,366.11z M1168.93,378.06c0.05,0,0.11,0.01,0.16,0.01c-2.23,10.31,14.15,14.8,16.04,3.96
		C1190.22,366.35,1168.86,360,1168.93,378.06z"/>
	<path class="st0" d="M927.74,389.21c-1.03,3.8,2.82,14.89-2.75,14.35c-5.53-0.01-1-32.29-2.41-38.69c0-0.96,0.24-1.86,1.38-1.73
		c1.24,0.14,3.03-0.93,3.56,1.14c0.35,1.37,0.83,1.45,1.88,0.68C957.59,350.7,954.54,407.78,927.74,389.21z M944.6,377.94
		c-0.06-17.71-21.67-11.46-16.37,4.08C931.14,392.9,945.84,388.41,944.6,377.94z"/>
	<path class="st0" d="M746.78,366.18c28.04-18.67,28.26,41.84-0.33,23.07c-1,3.85,2.76,15.05-2.99,14.35
		c-1.72,0.05-2.26-0.68-2.26-2.31c0.04-11.7,0.02-23.41,0.02-35.11C740.31,361.36,746.38,362.43,746.78,366.18z M763.36,376.89
		c-2.33-16.36-20-10.8-16.68,4.3C749.16,393.49,764.79,388.65,763.36,376.89z"/>
	<path class="st0" d="M1293.77,366.39c0.89-3.82-2.04-13.37,1.65-14.44c3.38,0.09,3.57,0.07,3.56,2.04
		c-1.41,8.01,2.63,34.98-2.11,38.41c-1.86,0.25-3.38-0.33-3.15-2.75C1264.49,407.21,1266.06,347.07,1293.77,366.39z M1293.96,377.67
		c-1-19.43-23.4-9.37-15.67,6.26C1282.92,392.9,1295.44,386.86,1293.96,377.67z"/>
	<path class="st0" d="M1355.62,366.26c0.81-3.62-1.84-13.33,1.43-14.28c3.57-0.17,3.69-0.14,3.69,2.34
		c-0.99,3.85,3.49,49.74-5.2,35.8C1325.91,405.85,1328.03,347.8,1355.62,366.26z M1338.58,377.77c1.33,18.19,22.23,10.08,16.43-5.14
		C1351.29,362.31,1337.38,367.65,1338.58,377.77z"/>
	<path class="st0" d="M838.82,388.74c-19.68,14.17-29.08-13.4-2.81-14.24c6.84-3.02-0.26-8.47-5.14-7.28
		c-2.49,0.08-4.27,1.26-4.95,3.89c-0.56,1.72-5.5,2.37-4.72-0.41c1.07-7.81,10.75-9.52,17.12-7.42c8.16,2.71,4.25,13.47,5.35,20
		c0.28,1.77-0.85,4.51,1.54,5.11c0.57,0.15,1.37,1.07,1.31,1.56C845.69,394.92,839.75,392.75,838.82,388.74z M838.73,380.72
		c1.02-5.26-4.79-1.58-7.63-1.45C813.69,384.87,837.74,396.03,838.73,380.72z"/>
	<path class="st0" d="M791.29,388.88c-9.4,9.74-27.34-0.76-15.2-11.07c4.28-2.99,12.95-0.87,14.98-6.03
		c0.32-5.18-6.12-5.28-9.69-4.27c-3.31,0.63-2.79,6.72-6.99,4.8c-2.26-3.01,1.63-7.35,4.58-8.55c18.81-6.41,17.35,8.94,17.09,22.3
		c-0.43,2.13,2.73,2.2,2.84,4.02C797.82,394.38,793.19,393.39,791.29,388.88z M791.11,380.76c1.01-5.32-4.72-1.66-7.58-1.51
		C765.98,384.62,790.33,396,791.11,380.76z"/>
	<path class="st0" d="M1319.69,379.22c-2.83,0.83-9.93-2.02-10.17,1.89c0.75,5.84,7.11,9.2,12.23,6.29c2.23-1.53,4.2-6.25,7.63-4.49
		c0.22,12.44-20.49,13.95-23.99,0.63c-6.81-14.84,15.06-30.63,23.17-13.75c4.28,11.43,0.84,9.37-8.88,9.42
		C1319.69,379.21,1319.69,379.22,1319.69,379.22z M1317.38,374.64C1317.38,374.64,1317.38,374.65,1317.38,374.64
		c2.15-0.6,8.72,1.76,7.43-2.11c-0.88-3.28-4.07-5.57-7.65-5.49c-3.47,0.08-6.33,2.2-7.18,5.33
		C1308.78,376.35,1315.19,374.08,1317.38,374.64z"/>
	<path class="st0" d="M1102.16,379.23c-2.94,0.82-11.2-2.27-10.48,2.55c1.15,5.59,7.64,8.56,12.57,5.58
		c1.93-1.55,3.92-6.37,7.12-4.35c-1.07,15.52-26.32,10.93-24.85-4.14c-2.33-13.2,16.61-23.82,23.77-9.63
		c4.01,11.13,2.66,10.36-8.13,10.04C1102.16,379.26,1102.16,379.25,1102.16,379.23z M1099.41,374.61c0,0.01,0,0.02,0,0.03
		c2.18-0.61,7.27,1.49,7.69-1.33c-0.5-3.37-3.76-6.15-7.45-6.29c-3.72-0.14-6.93,2.23-7.67,5.63
		C1091.36,376.25,1097.27,374.02,1099.41,374.61z"/>
	<path class="st0" d="M1227.9,379.23c-2.99,0.83-9.85-2.03-10.5,1.88c0.11,5.38,5.57,7.76,10.29,7.07c4.37,0.38,4.68-7.33,9.3-5.27
		c1.19,5.86-6.82,10.62-12.32,9.87c-13.61-1.53-15.69-17.69-8.55-26.02c5.51-6.08,17.94-6.67,21.25,5.73
		c3.09,9.74-2.8,6.14-9.46,6.77C1227.9,379.25,1227.9,379.24,1227.9,379.23z M1224.95,374.64c2.15-0.63,8.22,1.68,7.7-1.83
		c-0.83-3.29-3.8-5.67-7.28-5.77c-3.78-0.1-6.85,2.11-7.78,5.59C1216.79,376.27,1222.84,374.07,1224.95,374.64z"/>
	<path class="st0" d="M1430.41,379.22c-2.9,0.89-10.51-2.21-10.35,2.14c0.98,6.53,6.89,7.73,11.26,6.59
		c3.64-0.32,4.02-7.13,8.21-5.02c-0.8,17.53-28.91,9.43-24.51-7.45c0.71-12.52,17.69-18.05,23.45-6.81
		c4.04,11.56,3.78,11.16-8.06,10.76C1430.41,379.36,1430.41,379.29,1430.41,379.22z M1427.91,374.64c0-0.01,0-0.01,0-0.02
		c2.11-0.61,7.71,1.58,7.55-1.63c-0.63-3.27-3.89-5.9-7.46-5.96c-3.75-0.06-6.91,2.28-7.67,5.64
		C1419.71,376.31,1425.74,374.04,1427.91,374.64z"/>
	<path class="st0" d="M880.42,379.23c-2.96,0.84-11.42-2.31-10.64,2.54c1.34,7.35,12.15,9.48,15.23,2.23
		c1.11-1.54,5.6-2.4,4.59,0.65c-5.34,15.76-29.09,6.16-24.88-9.55c2.1-17.9,26.63-15.13,25.84,2.24c-0.18,3.95-7.31,1.05-10.13,1.91
		C880.42,379.24,880.42,379.23,880.42,379.23z M877.42,374.64c0,0.01,0,0.02,0,0.03c2.17-0.63,7.53,1.56,7.7-1.49
		c-0.54-3.41-3.92-6.13-7.71-6.13c-3.77,0-6.99,2.6-7.56,6.02C869.76,376.22,875.31,374.01,877.42,374.64z"/>
	<path class="st0" d="M1379.82,362.72c18.51-0.85,17.93,31.64-0.49,29.99C1361.64,392.93,1362.06,361.99,1379.82,362.72z
		 M1371.51,377.81c-2.07,10.71,14.34,15.05,16.34,3.95C1392.92,366.18,1371.01,360.37,1371.51,377.81z"/>
	<path class="st0" d="M1055.78,393.29c-5.37-1.08-11.16-2.36-11.97-8.6c-0.22-1.29,0.17-1.95,1.64-1.95
		c4.12-0.7,3.16,5.89,7.64,5.39c4.07,1.02,12.9-1.81,7.69-6.67c-26.86-4.78-17.48-23.83,0.79-17.51c2.39,0.75,6.76,6.81,3.13,7.83
		c-1.72-0.02-3.34,0.24-4.08-2.14c-1.78-2.96-9.97-3.85-11.23,0.06c-0.08,5.84,8.99,4.67,12.84,6.98
		C1073.31,381.66,1065.22,393.11,1055.78,393.29z"/>
	<path class="st0" d="M1455.35,367.15c-3.69-0.28-7.4,2.59-4.02,5.76c3.2,1.96,7.47,2.19,10.96,3.64c19.19,11-14.46,25.91-18.03,8.3
		c-0.83-3.16,4.81-2.69,4.99,0.11c1.43,4.66,7.25,3.08,10.91,2.8c11.19-9.78-17.78-6.58-15.56-16.96
		c0.25-10.79,19.86-11.26,21.74-1.06c0.29,1.37,0.02,2.1-1.59,2.06C1459.95,372.1,1461.99,366.88,1455.35,367.15z"/>
	<path class="st0" d="M905.64,393.22c-5.82-0.18-10.55-3.05-11.88-8.89c-0.37-0.92,0.11-1.48,1.19-1.53
		c4.47-1.09,3.85,6.07,8.66,5.42c4.96,0.82,12.77-1.99,6.66-7.08c-5.59-2.55-15.74-2.06-16.05-10.11
		c-0.05-8.57,11.46-10.34,17.6-6.94c4.66,1.71,6.33,11.24-0.47,6.74c-1.87-5.59-15.53-4.6-10.55,2.05c3.3,1.99,7.53,2.32,11.13,3.69
		C923.42,381.15,915.18,393.53,905.64,393.22z"/>
	<path class="st0" d="M1033.59,388.36c-5.67,7.12-18.59,5.61-18.61-4.6c0.8-4.24-3.04-20.55,1.86-20.67
		c5.92-1.01,1.84,14.62,2.99,18.73c-0.9,9.6,12.83,7.62,13.04,0.78c0.46-5.01,0.37-10.07,0.51-15.11c-0.21-3.06,0.44-5.69,4.08-4.28
		c2.34,2.41,0.69,6.96,1.14,10.11c-1.23,4.55,2.67,18.33-2.66,19.1C1033.18,392.29,1033.92,390.52,1033.59,388.36z"/>
	<path class="st0" d="M1247.68,367.26c3.24-4.33,7.37-5.03,11.82-4.32c9.33,1.59,6.38,13.38,7.1,20.27
		c-0.65,2.79,1.96,9.57-2.45,9.22c-5.3-0.16-1.34-14.06-2.51-18.29c0.96-10.7-13.44-8.34-13.48-0.21
		c-0.31,5.28-0.28,10.58-0.38,15.87c-7.84,13.65-4.36-21.59-5.03-25.19c0-1.73,1.3-1.48,2.38-1.51
		C1247.84,362.64,1247.35,365.03,1247.68,367.26z"/>
	<path class="st0" d="M999.35,377.81c1-17.42-2.5-5.34-4.86-12.42c0-1.84,0.73-2.35,2.42-2.3c5.38,0.83,0.01-7.04,3.62-8.68
		c7.12-2.48,0.99,8.13,5.45,8.67c2.49,0.03,4.37-0.56,3.95,2.67c-0.02,1.42-0.56,1.97-1.98,1.96c-3.87-0.03-3.59-0.56-3.6,3.72
		c-0.01,4.19-0.02,8.38-0.01,12.57c-1.33,5.63,7.33,1.9,5.47,7.43c-0.32,0.74-1.22,1.2-2.06,1.01c-10.01,0.95-8.34-7.28-8.39-14.64
		C999.36,377.81,999.35,377.81,999.35,377.81z"/>
	<path class="st0" d="M1200.8,367.64c2.59-2.63,11.79-9.52,10.27-1.09c-0.05,0.54-0.8,1.31-1.36,1.45
		c-11.27,1.56-8.06,13.19-8.56,21.52c0.42,3.44-4.5,4.42-5.19,1.12c1.17-5.14-2.86-27.29,2.16-27.55
		C1201.16,362.35,1200.91,365.53,1200.8,367.64z"/>
	<path class="st0" d="M1404.04,367.71c2.01-2.74,5.75-4.73,8.97-5.11c0.49,1.77,1.8,4.51-0.56,5.42c-11.54,1.1-7.9,13.77-8.54,21.97
		c0.97,3.43-5.94,3.45-5.28,0c1.32-5.33-2.88-26.26,2.32-26.93c3.37-0.28,2.49,2.21,2.61,4.47
		C1403.72,367.6,1403.88,367.65,1404.04,367.71z"/>
	<path class="st0" d="M971.9,367.88c2.18-2.56,7.95-7.96,10.23-3.9c0.4,2.52-0.16,3.76-1.88,4.09c-10.94,0.95-7.51,14.19-8.41,21.78
		c0.61,3.16-4.86,3.37-4.93,0.67c1.2-6.46-2.68-24.26,1.71-27.42C971.86,362.27,971.95,365.35,971.9,367.88z"/>
	<path class="st0" d="M807.52,368.74c7.55-11.82,15.46-3.06,7.66-0.61c-9.96,1.65-6.8,14.21-7.34,21.49
		c0.47,3.7-4.72,4.02-4.92,0.48c1.07-4.8-2.81-27.42,2.23-27.05C808.69,362.66,807.21,366.13,807.52,368.74z"/>
	<path class="st0" d="M955.11,377.61c0.97-3.74-2.23-13.46,1.83-14.57c3.11,0.06,3.39,0.11,3.4,2.03
		c0.03,8.42-0.02,16.85,0.02,25.27c0.01,2.14-1.32,2.1-2.83,2.12C952.47,391.92,956.22,381.51,955.11,377.61
		C955.12,377.61,955.12,377.61,955.11,377.61z"/>
	<path class="st0" d="M990.65,378c-0.88,3.28,2.07,13.83-1.75,14.18c-1.33-0.23-3.26,0.74-3.24-1.95
		c0.06-8.36,0.05-16.72-0.01-25.07c-0.01-1.72,0.8-2.09,2.26-2.05c5.51-0.02,1.59,10.99,2.71,14.9C990.64,378,990.64,378,990.65,378
		z"/>
	<path class="st0" d="M964.95,351.54c-3.2,3.15-4.92,7.89-9.87,7.87c-0.14-0.22-0.29-0.43-0.43-0.65
		C956.82,354.72,959.09,348.65,964.95,351.54z"/>
	<path class="st0" d="M990.66,355.27c0.41,3.1-3.68,4.38-4.92,1.61c-0.04-2.63-0.87-5.57,2.84-4.82
		C990.49,352.15,990.66,352.42,990.66,355.27z"/>
	<path class="st0" d="M128.69,324.39c-5.6,2.64-5.75,3.19-5.48-3.29c-1.72,0.58-3.15,1.05-5.06,1.69c0.26-2.03,0.47-3.7,0.72-5.64
		c-1.86,0.26-3.45,0.48-5.43,0.76c0.61-1.99,1.09-3.59,1.62-5.31c-11.16,1.2,0.93-4.94-6.71-5.72c-3.55-0.49,0.43-3.29,1.36-4.97
		c-1.93-0.58-3.58-1.07-5.22-1.56c-0.15-0.25-0.3-0.5-0.44-0.75c1.38-0.9,2.77-1.8,4.15-2.7c-0.13-0.31-0.27-0.62-0.4-0.93
		c-1.57-0.78-3.35-1.24-4.55-2.58c5.2-4.5,3.54-2.53-0.59-6.53c1.43-0.95,2.84-1.89,4.45-2.96c-10.33-7.4,5.73-1.68-2.4-10.15
		c5.31-1.24,5.07-1.95,1.73-6.22c2.01-0.3,3.58-0.54,5.43-0.82c-0.73-1.75-1.39-3.34-2.2-5.3c2.01,0,3.62,0,5.45,0
		c-0.6-1.94-1.11-3.57-1.73-5.56c6.26,1.91,5.88,1.25,4.69-4.58c1.97,0.59,3.5,1.04,5.35,1.59c-0.66-6.48-0.07-5.76,5.27-3.25
		c0.1-1.95,0.18-3.67,0.29-5.93c1.74,1.19,3.12,2.13,4.93,3.37c0.47-1.97,0.69-3.48,1.42-5.21c1.84,0.76,2.77,1.76,4.49,3.17
		c2.29-11.45,4.35,3.13,7.68-4.48c0.36-0.52,0.38-0.76,1.11-1.02c0.94,1.31,1.91,2.66,3.12,4.35c6.31-10.85,2.31,5.64,9.9-3.29
		c0.61,1.73,1.13,3.22,1.81,5.15c1.46-1.04,2.85-2.02,4.58-3.25c0.38,1.93,0.73,3.66,1.13,5.66c1.6-0.91,3.01-1.71,4.91-2.78
		c0,6.09-0.08,6,5.59,3.72c-0.15,2.05-0.28,3.7-0.41,5.47c1.88-0.32,3.47-0.6,5.37-0.92c-1.69,5.72-1.55,5.73,4.28,5.12
		c-0.8,1.93-1.47,3.54-2.3,5.52c1.95,0,3.68,0,5.9,0c-1.02,1.9-1.8,3.34-2.7,5.03c1.85,0.44,3.42,0.81,5.48,1.3
		c-8.6,8.11,5.56,3.27-0.89,8.89c-2.93,2.53,1.65,2.8,3.7,4.05c-1.84,1.3-3.24,2.28-4.92,3.47c1.73,1.18,3.05,1.85,4.16,3.45
		c-1.47,1.21-2.74,1.62-4.67,2.56c1.54,1.38,2.81,2.52,4.45,4c-2.08,0.71-3.72,1.27-5.69,1.94c4.04,4.24,4.18,5.1-1.94,5.76
		c3.7,5.29,3.38,5.09-2.79,5.26c0.8,1.92,1.47,3.49,2.27,5.4c-6.11-1.25-6.16-0.38-4.22,5.19c-6.91-2.14-5.03-1.39-5.47,4.25
		c-5.24-2.64-5.43-1.85-5.13,3.92c-1.89-1.1-3.3-1.93-5.02-2.93c-0.39,2.12-0.23,3.66-1.26,5.33c-1.72-0.68-2.81-1.9-4.4-3.06
		c-0.6,1.9-1.09,3.48-1.73,5.5c-1.56-1.49-2.77-2.65-4.16-3.98c-2.42,5.75-2.55,5.89-5.92,0.51c-1.12,1.75-2.04,3.2-3.2,5.01
		c-1.02-1.89-1.8-3.32-3-5.52c-1.15,1.74-2.11,3.21-3.08,4.68c-0.31-0.17-0.61-0.33-0.92-0.5c-1.41-5.82-2.24-4.68-6.32-1.07
		c-0.56-6.56-1.03-5.8-6.12-2.55C128.88,328.06,128.8,326.45,128.69,324.39z M152.56,322.17c0.43-1.44,1.77-2.74,0.71-4.49
		c-2.31,0.11-3.47,4.48-0.69,4.47c-0.42,0.68-0.84,1.37-1.25,2.05c0.09,0.16,0.19,0.32,0.28,0.49c9.59-0.26,18.81-4.08,25.65-11.21
		c-11.07-5.85-6.93,3.66-22.11,10.9c3.18-5.22,11.51-7.46,13.99-13.67c-6.15-1.04-9.24-4.12-11.11,3.8
		c0.65,0.31,1.34,0.63,2.03,0.95c-0.19,0.21-0.39,0.42-0.58,0.63c-0.62,0.17-1.24,0.34-2,0.55c0.4,0.85,0.74,1.56,1.08,2.27
		c-0.1,0.1-0.21,0.2-0.31,0.31c-0.68-0.3-1.35-0.59-2.09-0.91C154.99,319.72,153.82,320.91,152.56,322.17z M115.27,302.56
		c4.57,6.48,5.37,14.23,14.11,6.93c-0.21-3.4-4.36-1.09-2.52-4.45c-0.68-0.65-1.24-1.19-1.92-1.83c1.05-0.57,1.43-0.96,2.27-1.6
		c-3.92-1-7.99,1.37-11.96,0.96c2.26-2.54,8.79-0.18,9.07-3.87c-2.97-10.23,1.02-11.65-11.18-11.16c0-0.18-0.01-0.36-0.01-0.53
		c11.73-0.49,8.31-0.33,11.16-10.88c-0.15-3.12-5.86-1.97-8.15-3.15C109.93,279.53,111.84,294.01,115.27,302.56z M186.4,286.64
		c-0.01,0.29-0.02,0.57-0.03,0.86c-10.1-1.04-9,2.66-9.11,11c-2.6,2.8-3.38,7.11-5.69,10.32c-0.63,1.12-0.24,1.51,0.79,1.86
		c7.47,4.32,7.91-1.72,11.54-7.11c5.93-13.09,4.75-25.76-3.04-37.75c-2.72-4.18-3.3-4.1-7.85-2.19c-3.46,1.7,1.43,5.77,1.8,8.33
		c1.43,3.49,5.65,0.62,8.34,0.52c-1.39,2.42-5.9,0.75-6.72,3.6C177.87,284.01,176.63,287.99,186.4,286.64z M135.36,321.2
		c3.97-3.06-2.28-5.77-3.81-8.53c-2.48-2.95-5.79,0.23-8.84,0.8c5.46,6.7,19.22,13.06,26.48,10.78c-0.86-1.12-1.7-2.2-2.54-3.29
		c0.13-0.1,0.25-0.21,0.38-0.31c1.05,0.92,2.11,1.84,3.46,3.02c-0.05-6.93-3.88-4.1-8.71-4.36c1.13-1.69,3.44-0.24,1.89-3.4
		c-1.53-2.08-1.72-6.37-4.64-6.73c-3.96,0.64-5.83,2.16-8.07-1.98c-0.76,7.45,9.2,12.49,14.66,16.2c-0.12,0.2-0.25,0.41-0.37,0.61
		C141.81,322.86,139.18,318.22,135.36,321.2z M115.39,271.64c3.6,0.07,8.37,4.06,10.29,0.38c2.19-6.29,6.77-7.82-2.36-9.65
		c0.07-0.19,0.14-0.38,0.22-0.57c8.11,3.22,8.34-0.69,13.35-5.98c5.75-6.69,6.44,5.96,12.44-5.56c-4.29-0.25-8.4-0.13-12.39,1.77
		c0.1,0.59,0.2,1.14,0.34,1.95C127.35,252.08,119.94,263.93,115.39,271.64z M131.95,264.45c3.74,0.46,9.23,0.62,9.69-4.15
		c0.5,0.21,1,0.41,1.48,0.61c2.65-16.82-15.83,5.65-16.67,11.3c-0.9,4.21,6.85,2.61,9.49,3.59c3.44-1.65,2.81-7.4,4.46-10.8
		C137.62,265.01,134.83,266.83,131.95,264.45z M129.87,287.51c-9.6-1.12-6.32,2.5-5.38,9.42c1.26,4.88,7.95,0.51,11.32,0.4
		c1.58-2.18,0.16-5.8,0.56-8.43C136.18,286.15,131.78,288.06,129.87,287.51z M129.63,286.63c0,0,0-0.01,0-0.01
		c7.83,0.75,6.7-0.88,6.69-7.65c-0.01-4.1-5.84-2.26-8.48-3.55c-4.94-1.26-3.37,6.61-4.67,9.56
		C122.88,288.05,127.76,286.12,129.63,286.63z M170.54,286.64c1.91-0.51,6.68,1.38,6.68-1.5c-1.08-2.68,0.45-8.69-3.17-9.13
		c-2.88,0.98-9-1.02-9.97,2.37C163.98,284.71,162.72,287.71,170.54,286.64z M157.12,287.51c-7.29-0.99-6.52,1.76-6.38,7.8
		c0.54,4.13,7.4,1.15,10.39,2.24c4.12,0.06,1.29-6.44,1.79-9.07C161.84,286.68,158.9,287.78,157.12,287.51z M143.93,287.52
		c0,0,0-0.01,0-0.01c-7.92-1.23-6.56,2.63-6.4,8.79c0.25,1.93,13.26,1.93,12.11-1.09C149.31,289.32,151.58,286.59,143.93,287.52z
		 M164.38,276.2c0.12-0.16,0.24-0.31,0.36-0.47c11.97-0.38,11.65-0.01,5.8-10.41c-2.19-1.74-5.46,0.71-8,0.6
		C158.88,265.95,162.91,274.79,164.38,276.2z M156.9,286.62c0,0,0-0.01,0-0.01c6.99,1.21,6.27-2.67,6.26-8.13
		c0.03-2.12-13.44-1.78-12.42,0.99C150.48,285.37,150.13,287.48,156.9,286.62z M149.62,277.48c-7.43,0.62-13.87-3.15-12.17,7.43
		c0,1.12,0.46,1.72,1.65,1.71C148.78,286.54,150.54,288.76,149.62,277.48z M168.29,297.84c-2.67-0.67-4.56,0.02-5.12,1.85
		c-0.22,2.72-4.16,8.28,0.18,9.03c2.23,0.12,5.2,1.93,7.06,0.2c1.24-2.71,5.18-5.87,2.59-8.71c-0.97,1.05-1.25,1.34-1.84,2.95
		c-1.36-3.17-0.83-3.94-4.33-2.6c-0.08-0.14-0.16-0.28-0.25-0.43C167.12,299.41,167.65,298.7,168.29,297.84z M155.59,298.06
		c0,0.05-0.01,0.09-0.01,0.14c-5.73-1.38-5.03,4.27-4.73,8.16c1.32,2.58,5.51,1.23,7.96,1.66c2.75-1.1,2.2-5.55,3.41-7.98
		C162.57,297.23,157.42,298.79,155.59,298.06z M155.01,276.73c10-0.03,7.25-1.16,4.97-9.13c-1.72-2.18-5.35-0.2-7.78-0.36
		c-2.74,0.07-1.19,3.43-1.49,5.21C150.82,277.32,150.32,276.61,155.01,276.73z M137.9,298.67c1.09,3.4,2.06,6.41,2.9,9.03
		c8.91,0.09,9.48,1.42,9.07-8C148.42,296.11,141.49,299.27,137.9,298.67z M137.73,276.43c3.91-0.7,9.82,1.88,11.97-1.14
		c-0.6-2.46,1.56-8.78-2.19-8.66c-1.47,2.18-3.45-0.59-4.21,2.35c-0.68-0.77-1.17-1.33-1.74-1.96
		C139.34,269.4,139.32,272.83,137.73,276.43z M173.14,293.73c3.41-0.48,5.57-4.06,2.86-5.93c-3.61,0.45-9.25-1.75-11.83,1.07
		c0.33,2.29-1.28,6.61,1.03,7.77c2.07-1.03,4.28-1.5,2.62-4.27c-0.05-0.19,0.08-0.43,0.17-0.86c3.08,2.12,2.74,2.08,4.76-0.91
		c0.13,0.06,0.26,0.11,0.39,0.17C173.14,291.7,173.14,292.62,173.14,293.73z M160.9,265.32c10.28-0.87,8.51-2.41,2.43-8.66
		c-1.65-1.71-4.8-2.02-6.71-0.7C155.96,258.83,158.98,263.19,160.9,265.32z M163.84,253.7c-1.29-2.09-3.7-3.23-7.06-3.24
		c4.47,3.51,8.83,6.81,12.2,11.36c2.34,3.14,4.98,0.23,8.03-0.66C173.13,257.93,168.99,252.66,163.84,253.7z M141.19,308.94
		c1.57,3.21,2.76,5.88,4.16,8.45c0.92,1.69,2.55,0.79,3.82,0.53c2.61-1.28,1.03-5.11,1.02-7.42
		C148.96,306.87,144.58,309.36,141.19,308.94z M158.91,266.03c0.1-0.26,0.2-0.52,0.3-0.78c-2.94-8.69-9.47-13.79-8.67-0.5
		C151.64,267.71,156.37,265.52,158.91,266.03z M133.87,302.08c-0.25,0.51-0.62,1.23-0.94,1.88c0.61,0.56,1.13,1.05,1.4,1.29
		c-5.72,4.22,7.1,5.25,4.98,0.62c-1.52-3.08-0.83-9.15-5.86-7C130.81,299.4,131.24,301.26,133.87,302.08z M159.43,254.45
		c-1.57-2.86-5.78-4.8-7.88-3.96c0.86,1.19,1.73,2.39,2.6,3.6c-0.18,0.13-0.35,0.26-0.53,0.4c-0.67-0.77-1.34-1.54-2.08-2.39
		C148.37,258.67,156.32,254.47,159.43,254.45z M147.93,260.9c-0.41,1.58-0.9,3.58,0.86,4.47c1.08-1.89,2.22-9.92-1.75-8.58
		c-2.83,0.22-1.92,2.71-1.73,4.63C146.22,261.29,147.01,260.6,147.93,260.9z M155.69,311.13c0.08-0.16,0.15-0.32,0.23-0.49
		c0.62,0.45,1.33,0.77,1.98,1.17c2.76-3.79-4.74-3.42-6.63-2.3C151.72,311.73,154.04,310.81,155.69,311.13z M150.24,252.38
		c-0.28-0.18-0.55-0.37-0.83-0.55c-0.91,1.01-1.83,2.02-2.74,3.03c0.07,0.2,0.15,0.39,0.22,0.59
		C149.46,256.17,149.56,254.23,150.24,252.38z"/>
	<path class="st0" d="M183.3,302.02c-1.92-0.34-3.7-0.66-5.87-1.05C179.47,300.15,182.07,300.69,183.3,302.02z"/>
</g>
<g id="Capa_2">
</g>
</svg>
